<?xml version="1.0" encoding="utf-8" standalone="no"?>
<!DOCTYPE svg PUBLIC "-//W3C//DTD SVG 1.1//EN"
  "http://www.w3.org/Graphics/SVG/1.1/DTD/svg11.dtd">
<!-- Created with matplotlib (https://matplotlib.org/) -->
<svg height="576pt" version="1.1" viewBox="0 0 1728 576" width="1728pt" xmlns="http://www.w3.org/2000/svg" xmlns:xlink="http://www.w3.org/1999/xlink">
 <defs>
  <style type="text/css">
*{stroke-linecap:butt;stroke-linejoin:round;}
  </style>
 </defs>
 <g id="figure_1">
  <g id="patch_1">
   <path d="M 0 576 
L 1728 576 
L 1728 0 
L 0 0 
z
" style="fill:#ffffff;"/>
  </g>
  <g id="axes_1">
   <g id="patch_2">
    <path d="M 46.94 542.74 
L 566.94 542.74 
L 566.94 27.6 
L 46.94 27.6 
z
" style="fill:#eaeaf2;"/>
   </g>
   <g id="matplotlib.axis_1">
    <g id="xtick_1">
     <g id="line2d_1">
      <path clip-path="url(#p9c1231eb5d)" d="M 70.576364 542.74 
L 70.576364 27.6 
" style="fill:none;stroke:#ffffff;stroke-linecap:round;"/>
     </g>
     <g id="text_1">
      <!-- 95 -->
      <defs>
       <path d="M 10.984375 1.515625 
L 10.984375 10.5 
Q 14.703125 8.734375 18.5 7.8125 
Q 22.3125 6.890625 25.984375 6.890625 
Q 35.75 6.890625 40.890625 13.453125 
Q 46.046875 20.015625 46.78125 33.40625 
Q 43.953125 29.203125 39.59375 26.953125 
Q 35.25 24.703125 29.984375 24.703125 
Q 19.046875 24.703125 12.671875 31.3125 
Q 6.296875 37.9375 6.296875 49.421875 
Q 6.296875 60.640625 12.9375 67.421875 
Q 19.578125 74.21875 30.609375 74.21875 
Q 43.265625 74.21875 49.921875 64.515625 
Q 56.59375 54.828125 56.59375 36.375 
Q 56.59375 19.140625 48.40625 8.859375 
Q 40.234375 -1.421875 26.421875 -1.421875 
Q 22.703125 -1.421875 18.890625 -0.6875 
Q 15.09375 0.046875 10.984375 1.515625 
z
M 30.609375 32.421875 
Q 37.25 32.421875 41.125 36.953125 
Q 45.015625 41.5 45.015625 49.421875 
Q 45.015625 57.28125 41.125 61.84375 
Q 37.25 66.40625 30.609375 66.40625 
Q 23.96875 66.40625 20.09375 61.84375 
Q 16.21875 57.28125 16.21875 49.421875 
Q 16.21875 41.5 20.09375 36.953125 
Q 23.96875 32.421875 30.609375 32.421875 
z
" id="DejaVuSans-57"/>
       <path d="M 10.796875 72.90625 
L 49.515625 72.90625 
L 49.515625 64.59375 
L 19.828125 64.59375 
L 19.828125 46.734375 
Q 21.96875 47.46875 24.109375 47.828125 
Q 26.265625 48.1875 28.421875 48.1875 
Q 40.625 48.1875 47.75 41.5 
Q 54.890625 34.8125 54.890625 23.390625 
Q 54.890625 11.625 47.5625 5.09375 
Q 40.234375 -1.421875 26.90625 -1.421875 
Q 22.3125 -1.421875 17.546875 -0.640625 
Q 12.796875 0.140625 7.71875 1.703125 
L 7.71875 11.625 
Q 12.109375 9.234375 16.796875 8.0625 
Q 21.484375 6.890625 26.703125 6.890625 
Q 35.15625 6.890625 40.078125 11.328125 
Q 45.015625 15.765625 45.015625 23.390625 
Q 45.015625 31 40.078125 35.4375 
Q 35.15625 39.890625 26.703125 39.890625 
Q 22.75 39.890625 18.8125 39.015625 
Q 14.890625 38.140625 10.796875 36.28125 
z
" id="DejaVuSans-53"/>
      </defs>
      <g style="fill:#262626;" transform="translate(63.577614 560.598281)scale(0.11 -0.11)">
       <use xlink:href="#DejaVuSans-57"/>
       <use x="63.623047" xlink:href="#DejaVuSans-53"/>
      </g>
     </g>
    </g>
    <g id="xtick_2">
     <g id="line2d_2">
      <path clip-path="url(#p9c1231eb5d)" d="M 130.819025 542.74 
L 130.819025 27.6 
" style="fill:none;stroke:#ffffff;stroke-linecap:round;"/>
     </g>
     <g id="text_2">
      <!-- 100 -->
      <defs>
       <path d="M 12.40625 8.296875 
L 28.515625 8.296875 
L 28.515625 63.921875 
L 10.984375 60.40625 
L 10.984375 69.390625 
L 28.421875 72.90625 
L 38.28125 72.90625 
L 38.28125 8.296875 
L 54.390625 8.296875 
L 54.390625 0 
L 12.40625 0 
z
" id="DejaVuSans-49"/>
       <path d="M 31.78125 66.40625 
Q 24.171875 66.40625 20.328125 58.90625 
Q 16.5 51.421875 16.5 36.375 
Q 16.5 21.390625 20.328125 13.890625 
Q 24.171875 6.390625 31.78125 6.390625 
Q 39.453125 6.390625 43.28125 13.890625 
Q 47.125 21.390625 47.125 36.375 
Q 47.125 51.421875 43.28125 58.90625 
Q 39.453125 66.40625 31.78125 66.40625 
z
M 31.78125 74.21875 
Q 44.046875 74.21875 50.515625 64.515625 
Q 56.984375 54.828125 56.984375 36.375 
Q 56.984375 17.96875 50.515625 8.265625 
Q 44.046875 -1.421875 31.78125 -1.421875 
Q 19.53125 -1.421875 13.0625 8.265625 
Q 6.59375 17.96875 6.59375 36.375 
Q 6.59375 54.828125 13.0625 64.515625 
Q 19.53125 74.21875 31.78125 74.21875 
z
" id="DejaVuSans-48"/>
      </defs>
      <g style="fill:#262626;" transform="translate(120.3209 560.598281)scale(0.11 -0.11)">
       <use xlink:href="#DejaVuSans-49"/>
       <use x="63.623047" xlink:href="#DejaVuSans-48"/>
       <use x="127.246094" xlink:href="#DejaVuSans-48"/>
      </g>
     </g>
    </g>
    <g id="xtick_3">
     <g id="line2d_3">
      <path clip-path="url(#p9c1231eb5d)" d="M 191.061686 542.74 
L 191.061686 27.6 
" style="fill:none;stroke:#ffffff;stroke-linecap:round;"/>
     </g>
     <g id="text_3">
      <!-- 105 -->
      <g style="fill:#262626;" transform="translate(180.563561 560.598281)scale(0.11 -0.11)">
       <use xlink:href="#DejaVuSans-49"/>
       <use x="63.623047" xlink:href="#DejaVuSans-48"/>
       <use x="127.246094" xlink:href="#DejaVuSans-53"/>
      </g>
     </g>
    </g>
    <g id="xtick_4">
     <g id="line2d_4">
      <path clip-path="url(#p9c1231eb5d)" d="M 251.304348 542.74 
L 251.304348 27.6 
" style="fill:none;stroke:#ffffff;stroke-linecap:round;"/>
     </g>
     <g id="text_4">
      <!-- 110 -->
      <g style="fill:#262626;" transform="translate(240.806223 560.598281)scale(0.11 -0.11)">
       <use xlink:href="#DejaVuSans-49"/>
       <use x="63.623047" xlink:href="#DejaVuSans-49"/>
       <use x="127.246094" xlink:href="#DejaVuSans-48"/>
      </g>
     </g>
    </g>
    <g id="xtick_5">
     <g id="line2d_5">
      <path clip-path="url(#p9c1231eb5d)" d="M 311.547009 542.74 
L 311.547009 27.6 
" style="fill:none;stroke:#ffffff;stroke-linecap:round;"/>
     </g>
     <g id="text_5">
      <!-- 115 -->
      <g style="fill:#262626;" transform="translate(301.048884 560.598281)scale(0.11 -0.11)">
       <use xlink:href="#DejaVuSans-49"/>
       <use x="63.623047" xlink:href="#DejaVuSans-49"/>
       <use x="127.246094" xlink:href="#DejaVuSans-53"/>
      </g>
     </g>
    </g>
    <g id="xtick_6">
     <g id="line2d_6">
      <path clip-path="url(#p9c1231eb5d)" d="M 371.78967 542.74 
L 371.78967 27.6 
" style="fill:none;stroke:#ffffff;stroke-linecap:round;"/>
     </g>
     <g id="text_6">
      <!-- 120 -->
      <defs>
       <path d="M 19.1875 8.296875 
L 53.609375 8.296875 
L 53.609375 0 
L 7.328125 0 
L 7.328125 8.296875 
Q 12.9375 14.109375 22.625 23.890625 
Q 32.328125 33.6875 34.8125 36.53125 
Q 39.546875 41.84375 41.421875 45.53125 
Q 43.3125 49.21875 43.3125 52.78125 
Q 43.3125 58.59375 39.234375 62.25 
Q 35.15625 65.921875 28.609375 65.921875 
Q 23.96875 65.921875 18.8125 64.3125 
Q 13.671875 62.703125 7.8125 59.421875 
L 7.8125 69.390625 
Q 13.765625 71.78125 18.9375 73 
Q 24.125 74.21875 28.421875 74.21875 
Q 39.75 74.21875 46.484375 68.546875 
Q 53.21875 62.890625 53.21875 53.421875 
Q 53.21875 48.921875 51.53125 44.890625 
Q 49.859375 40.875 45.40625 35.40625 
Q 44.1875 33.984375 37.640625 27.21875 
Q 31.109375 20.453125 19.1875 8.296875 
z
" id="DejaVuSans-50"/>
      </defs>
      <g style="fill:#262626;" transform="translate(361.291545 560.598281)scale(0.11 -0.11)">
       <use xlink:href="#DejaVuSans-49"/>
       <use x="63.623047" xlink:href="#DejaVuSans-50"/>
       <use x="127.246094" xlink:href="#DejaVuSans-48"/>
      </g>
     </g>
    </g>
    <g id="xtick_7">
     <g id="line2d_7">
      <path clip-path="url(#p9c1231eb5d)" d="M 432.032332 542.74 
L 432.032332 27.6 
" style="fill:none;stroke:#ffffff;stroke-linecap:round;"/>
     </g>
     <g id="text_7">
      <!-- 125 -->
      <g style="fill:#262626;" transform="translate(421.534207 560.598281)scale(0.11 -0.11)">
       <use xlink:href="#DejaVuSans-49"/>
       <use x="63.623047" xlink:href="#DejaVuSans-50"/>
       <use x="127.246094" xlink:href="#DejaVuSans-53"/>
      </g>
     </g>
    </g>
    <g id="xtick_8">
     <g id="line2d_8">
      <path clip-path="url(#p9c1231eb5d)" d="M 492.274993 542.74 
L 492.274993 27.6 
" style="fill:none;stroke:#ffffff;stroke-linecap:round;"/>
     </g>
     <g id="text_8">
      <!-- 130 -->
      <defs>
       <path d="M 40.578125 39.3125 
Q 47.65625 37.796875 51.625 33 
Q 55.609375 28.21875 55.609375 21.1875 
Q 55.609375 10.40625 48.1875 4.484375 
Q 40.765625 -1.421875 27.09375 -1.421875 
Q 22.515625 -1.421875 17.65625 -0.515625 
Q 12.796875 0.390625 7.625 2.203125 
L 7.625 11.71875 
Q 11.71875 9.328125 16.59375 8.109375 
Q 21.484375 6.890625 26.8125 6.890625 
Q 36.078125 6.890625 40.9375 10.546875 
Q 45.796875 14.203125 45.796875 21.1875 
Q 45.796875 27.640625 41.28125 31.265625 
Q 36.765625 34.90625 28.71875 34.90625 
L 20.21875 34.90625 
L 20.21875 43.015625 
L 29.109375 43.015625 
Q 36.375 43.015625 40.234375 45.921875 
Q 44.09375 48.828125 44.09375 54.296875 
Q 44.09375 59.90625 40.109375 62.90625 
Q 36.140625 65.921875 28.71875 65.921875 
Q 24.65625 65.921875 20.015625 65.03125 
Q 15.375 64.15625 9.8125 62.3125 
L 9.8125 71.09375 
Q 15.4375 72.65625 20.34375 73.4375 
Q 25.25 74.21875 29.59375 74.21875 
Q 40.828125 74.21875 47.359375 69.109375 
Q 53.90625 64.015625 53.90625 55.328125 
Q 53.90625 49.265625 50.4375 45.09375 
Q 46.96875 40.921875 40.578125 39.3125 
z
" id="DejaVuSans-51"/>
      </defs>
      <g style="fill:#262626;" transform="translate(481.776868 560.598281)scale(0.11 -0.11)">
       <use xlink:href="#DejaVuSans-49"/>
       <use x="63.623047" xlink:href="#DejaVuSans-51"/>
       <use x="127.246094" xlink:href="#DejaVuSans-48"/>
      </g>
     </g>
    </g>
    <g id="xtick_9">
     <g id="line2d_9">
      <path clip-path="url(#p9c1231eb5d)" d="M 552.517654 542.74 
L 552.517654 27.6 
" style="fill:none;stroke:#ffffff;stroke-linecap:round;"/>
     </g>
     <g id="text_9">
      <!-- 135 -->
      <g style="fill:#262626;" transform="translate(542.019529 560.598281)scale(0.11 -0.11)">
       <use xlink:href="#DejaVuSans-49"/>
       <use x="63.623047" xlink:href="#DejaVuSans-51"/>
       <use x="127.246094" xlink:href="#DejaVuSans-53"/>
      </g>
     </g>
    </g>
   </g>
   <g id="matplotlib.axis_2">
    <g id="ytick_1">
     <g id="line2d_10">
      <path clip-path="url(#p9c1231eb5d)" d="M 46.94 449.052033 
L 566.94 449.052033 
" style="fill:none;stroke:#ffffff;stroke-linecap:round;"/>
     </g>
     <g id="text_10">
      <!-- 0.04 -->
      <defs>
       <path d="M 10.6875 12.40625 
L 21 12.40625 
L 21 0 
L 10.6875 0 
z
" id="DejaVuSans-46"/>
       <path d="M 37.796875 64.3125 
L 12.890625 25.390625 
L 37.796875 25.390625 
z
M 35.203125 72.90625 
L 47.609375 72.90625 
L 47.609375 25.390625 
L 58.015625 25.390625 
L 58.015625 17.1875 
L 47.609375 17.1875 
L 47.609375 0 
L 37.796875 0 
L 37.796875 17.1875 
L 4.890625 17.1875 
L 4.890625 26.703125 
z
" id="DejaVuSans-52"/>
      </defs>
      <g style="fill:#262626;" transform="translate(12.947812 453.231173)scale(0.11 -0.11)">
       <use xlink:href="#DejaVuSans-48"/>
       <use x="63.623047" xlink:href="#DejaVuSans-46"/>
       <use x="95.410156" xlink:href="#DejaVuSans-48"/>
       <use x="159.033203" xlink:href="#DejaVuSans-52"/>
      </g>
     </g>
    </g>
    <g id="ytick_2">
     <g id="line2d_11">
      <path clip-path="url(#p9c1231eb5d)" d="M 46.94 342.696265 
L 566.94 342.696265 
" style="fill:none;stroke:#ffffff;stroke-linecap:round;"/>
     </g>
     <g id="text_11">
      <!-- 0.06 -->
      <defs>
       <path d="M 33.015625 40.375 
Q 26.375 40.375 22.484375 35.828125 
Q 18.609375 31.296875 18.609375 23.390625 
Q 18.609375 15.53125 22.484375 10.953125 
Q 26.375 6.390625 33.015625 6.390625 
Q 39.65625 6.390625 43.53125 10.953125 
Q 47.40625 15.53125 47.40625 23.390625 
Q 47.40625 31.296875 43.53125 35.828125 
Q 39.65625 40.375 33.015625 40.375 
z
M 52.59375 71.296875 
L 52.59375 62.3125 
Q 48.875 64.0625 45.09375 64.984375 
Q 41.3125 65.921875 37.59375 65.921875 
Q 27.828125 65.921875 22.671875 59.328125 
Q 17.53125 52.734375 16.796875 39.40625 
Q 19.671875 43.65625 24.015625 45.921875 
Q 28.375 48.1875 33.59375 48.1875 
Q 44.578125 48.1875 50.953125 41.515625 
Q 57.328125 34.859375 57.328125 23.390625 
Q 57.328125 12.15625 50.6875 5.359375 
Q 44.046875 -1.421875 33.015625 -1.421875 
Q 20.359375 -1.421875 13.671875 8.265625 
Q 6.984375 17.96875 6.984375 36.375 
Q 6.984375 53.65625 15.1875 63.9375 
Q 23.390625 74.21875 37.203125 74.21875 
Q 40.921875 74.21875 44.703125 73.484375 
Q 48.484375 72.75 52.59375 71.296875 
z
" id="DejaVuSans-54"/>
      </defs>
      <g style="fill:#262626;" transform="translate(12.947812 346.875405)scale(0.11 -0.11)">
       <use xlink:href="#DejaVuSans-48"/>
       <use x="63.623047" xlink:href="#DejaVuSans-46"/>
       <use x="95.410156" xlink:href="#DejaVuSans-48"/>
       <use x="159.033203" xlink:href="#DejaVuSans-54"/>
      </g>
     </g>
    </g>
    <g id="ytick_3">
     <g id="line2d_12">
      <path clip-path="url(#p9c1231eb5d)" d="M 46.94 236.340497 
L 566.94 236.340497 
" style="fill:none;stroke:#ffffff;stroke-linecap:round;"/>
     </g>
     <g id="text_12">
      <!-- 0.08 -->
      <defs>
       <path d="M 31.78125 34.625 
Q 24.75 34.625 20.71875 30.859375 
Q 16.703125 27.09375 16.703125 20.515625 
Q 16.703125 13.921875 20.71875 10.15625 
Q 24.75 6.390625 31.78125 6.390625 
Q 38.8125 6.390625 42.859375 10.171875 
Q 46.921875 13.96875 46.921875 20.515625 
Q 46.921875 27.09375 42.890625 30.859375 
Q 38.875 34.625 31.78125 34.625 
z
M 21.921875 38.8125 
Q 15.578125 40.375 12.03125 44.71875 
Q 8.5 49.078125 8.5 55.328125 
Q 8.5 64.0625 14.71875 69.140625 
Q 20.953125 74.21875 31.78125 74.21875 
Q 42.671875 74.21875 48.875 69.140625 
Q 55.078125 64.0625 55.078125 55.328125 
Q 55.078125 49.078125 51.53125 44.71875 
Q 48 40.375 41.703125 38.8125 
Q 48.828125 37.15625 52.796875 32.3125 
Q 56.78125 27.484375 56.78125 20.515625 
Q 56.78125 9.90625 50.3125 4.234375 
Q 43.84375 -1.421875 31.78125 -1.421875 
Q 19.734375 -1.421875 13.25 4.234375 
Q 6.78125 9.90625 6.78125 20.515625 
Q 6.78125 27.484375 10.78125 32.3125 
Q 14.796875 37.15625 21.921875 38.8125 
z
M 18.3125 54.390625 
Q 18.3125 48.734375 21.84375 45.5625 
Q 25.390625 42.390625 31.78125 42.390625 
Q 38.140625 42.390625 41.71875 45.5625 
Q 45.3125 48.734375 45.3125 54.390625 
Q 45.3125 60.0625 41.71875 63.234375 
Q 38.140625 66.40625 31.78125 66.40625 
Q 25.390625 66.40625 21.84375 63.234375 
Q 18.3125 60.0625 18.3125 54.390625 
z
" id="DejaVuSans-56"/>
      </defs>
      <g style="fill:#262626;" transform="translate(12.947812 240.519637)scale(0.11 -0.11)">
       <use xlink:href="#DejaVuSans-48"/>
       <use x="63.623047" xlink:href="#DejaVuSans-46"/>
       <use x="95.410156" xlink:href="#DejaVuSans-48"/>
       <use x="159.033203" xlink:href="#DejaVuSans-56"/>
      </g>
     </g>
    </g>
    <g id="ytick_4">
     <g id="line2d_13">
      <path clip-path="url(#p9c1231eb5d)" d="M 46.94 129.984729 
L 566.94 129.984729 
" style="fill:none;stroke:#ffffff;stroke-linecap:round;"/>
     </g>
     <g id="text_13">
      <!-- 0.10 -->
      <g style="fill:#262626;" transform="translate(12.947812 134.163869)scale(0.11 -0.11)">
       <use xlink:href="#DejaVuSans-48"/>
       <use x="63.623047" xlink:href="#DejaVuSans-46"/>
       <use x="95.410156" xlink:href="#DejaVuSans-49"/>
       <use x="159.033203" xlink:href="#DejaVuSans-48"/>
      </g>
     </g>
    </g>
   </g>
   <g id="PathCollection_1">
    <defs>
     <path d="M -0 3 
L 3 -3 
L -3 -3 
z
" id="mbfc089aa12" style="stroke:#c44e52;"/>
    </defs>
    <g clip-path="url(#p9c1231eb5d)">
     <use style="fill:#c44e52;stroke:#c44e52;" x="239.255815" xlink:href="#mbfc089aa12" y="79.753037"/>
    </g>
   </g>
   <g id="PathCollection_2">
    <g clip-path="url(#p9c1231eb5d)">
     <use style="fill:#c44e52;stroke:#c44e52;" x="287.449944" xlink:href="#mbfc089aa12" y="267.379768"/>
    </g>
   </g>
   <g id="PathCollection_3">
    <g clip-path="url(#p9c1231eb5d)">
     <use style="fill:#c44e52;stroke:#c44e52;" x="347.692606" xlink:href="#mbfc089aa12" y="408.105265"/>
    </g>
   </g>
   <g id="PathCollection_4">
    <g clip-path="url(#p9c1231eb5d)">
     <use style="fill:#c44e52;stroke:#c44e52;" x="504.323525" xlink:href="#mbfc089aa12" y="516.829115"/>
    </g>
   </g>
   <g id="line2d_14">
    <path clip-path="url(#p9c1231eb5d)" d="M 70.576364 51.015455 
L 82.624896 63.376927 
L 94.673428 67.259311 
L 106.72196 69.454649 
L 118.770493 70.940779 
L 130.819025 72.967531 
L 142.867557 73.894139 
L 154.916089 74.456316 
L 166.964622 75.838718 
L 179.013154 76.459771 
L 191.061686 77.61388 
L 203.110219 77.954617 
L 215.158751 78.690174 
L 227.207283 79.420461 
L 239.255815 79.753037 
L 251.304348 265.813328 
L 263.35288 266.368254 
L 275.401412 266.571904 
L 287.449944 267.379768 
L 299.498477 267.218909 
L 311.547009 406.828848 
L 323.595541 407.368361 
L 335.644073 407.582867 
L 347.692606 408.105265 
L 359.741138 407.892839 
L 371.78967 505.433475 
L 383.838203 505.637432 
L 395.886735 505.753877 
L 407.935267 506.110195 
L 419.983799 506.519535 
L 432.032332 515.74879 
L 444.080864 515.695906 
L 456.129396 516.138746 
L 468.177928 515.994091 
L 480.226461 516.05893 
L 492.274993 516.26671 
L 504.323525 516.829115 
L 516.372057 516.491954 
L 528.42059 516.804035 
L 540.469122 516.395576 
" style="fill:none;stroke:#4c72b0;stroke-linecap:round;stroke-width:1.5;"/>
   </g>
   <g id="line2d_15">
    <path clip-path="url(#p9c1231eb5d)" d="M 70.576364 516.983 
L 70.576364 53.357 
" style="fill:none;stroke:#1a1a1a;stroke-dasharray:5.55,2.4;stroke-dashoffset:0;stroke-width:1.5;"/>
   </g>
   <g id="line2d_16">
    <path clip-path="url(#p9c1231eb5d)" d="M 251.304348 516.983 
L 251.304348 53.357 
" style="fill:none;stroke:#1a1a1a;stroke-dasharray:5.55,2.4;stroke-dashoffset:0;stroke-width:1.5;"/>
   </g>
   <g id="line2d_17">
    <path clip-path="url(#p9c1231eb5d)" d="M 311.547009 516.983 
L 311.547009 53.357 
" style="fill:none;stroke:#1a1a1a;stroke-dasharray:5.55,2.4;stroke-dashoffset:0;stroke-width:1.5;"/>
   </g>
   <g id="line2d_18">
    <path clip-path="url(#p9c1231eb5d)" d="M 371.78967 516.983 
L 371.78967 53.357 
" style="fill:none;stroke:#1a1a1a;stroke-dasharray:5.55,2.4;stroke-dashoffset:0;stroke-width:1.5;"/>
   </g>
   <g id="patch_3">
    <path d="M 46.94 542.74 
L 46.94 27.6 
" style="fill:none;stroke:#ffffff;stroke-linecap:square;stroke-linejoin:miter;stroke-width:1.25;"/>
   </g>
   <g id="patch_4">
    <path d="M 566.94 542.74 
L 566.94 27.6 
" style="fill:none;stroke:#ffffff;stroke-linecap:square;stroke-linejoin:miter;stroke-width:1.25;"/>
   </g>
   <g id="patch_5">
    <path d="M 46.94 542.74 
L 566.94 542.74 
" style="fill:none;stroke:#ffffff;stroke-linecap:square;stroke-linejoin:miter;stroke-width:1.25;"/>
   </g>
   <g id="patch_6">
    <path d="M 46.94 27.6 
L 566.94 27.6 
" style="fill:none;stroke:#ffffff;stroke-linecap:square;stroke-linejoin:miter;stroke-width:1.25;"/>
   </g>
   <g id="text_14">
    <!-- 0.1094 -->
    <g style="fill:#262626;" transform="translate(211.974224 64.315937)rotate(-330)scale(0.08 -0.08)">
     <use xlink:href="#DejaVuSans-48"/>
     <use x="63.623047" xlink:href="#DejaVuSans-46"/>
     <use x="95.410156" xlink:href="#DejaVuSans-49"/>
     <use x="159.033203" xlink:href="#DejaVuSans-48"/>
     <use x="222.65625" xlink:href="#DejaVuSans-57"/>
     <use x="286.279297" xlink:href="#DejaVuSans-52"/>
    </g>
   </g>
   <g id="text_15">
    <!-- 0.0742 -->
    <defs>
     <path d="M 8.203125 72.90625 
L 55.078125 72.90625 
L 55.078125 68.703125 
L 28.609375 0 
L 18.3125 0 
L 43.21875 64.59375 
L 8.203125 64.59375 
z
" id="DejaVuSans-55"/>
    </defs>
    <g style="fill:#262626;" transform="translate(260.168353 251.942669)rotate(-330)scale(0.08 -0.08)">
     <use xlink:href="#DejaVuSans-48"/>
     <use x="63.623047" xlink:href="#DejaVuSans-46"/>
     <use x="95.410156" xlink:href="#DejaVuSans-48"/>
     <use x="159.033203" xlink:href="#DejaVuSans-55"/>
     <use x="222.65625" xlink:href="#DejaVuSans-52"/>
     <use x="286.279297" xlink:href="#DejaVuSans-50"/>
    </g>
   </g>
   <g id="text_16">
    <!-- 0.0477 -->
    <g style="fill:#262626;" transform="translate(320.411015 392.668165)rotate(-330)scale(0.08 -0.08)">
     <use xlink:href="#DejaVuSans-48"/>
     <use x="63.623047" xlink:href="#DejaVuSans-46"/>
     <use x="95.410156" xlink:href="#DejaVuSans-48"/>
     <use x="159.033203" xlink:href="#DejaVuSans-52"/>
     <use x="222.65625" xlink:href="#DejaVuSans-55"/>
     <use x="286.279297" xlink:href="#DejaVuSans-55"/>
    </g>
   </g>
   <g id="text_17">
    <!-- 0.0273 -->
    <g style="fill:#262626;" transform="translate(477.041934 501.392015)rotate(-330)scale(0.08 -0.08)">
     <use xlink:href="#DejaVuSans-48"/>
     <use x="63.623047" xlink:href="#DejaVuSans-46"/>
     <use x="95.410156" xlink:href="#DejaVuSans-48"/>
     <use x="159.033203" xlink:href="#DejaVuSans-50"/>
     <use x="222.65625" xlink:href="#DejaVuSans-55"/>
     <use x="286.279297" xlink:href="#DejaVuSans-51"/>
    </g>
   </g>
   <g id="text_18">
    <!-- Triplet alpha=0.35 -->
    <defs>
     <path d="M -0.296875 72.90625 
L 61.375 72.90625 
L 61.375 64.59375 
L 35.5 64.59375 
L 35.5 0 
L 25.59375 0 
L 25.59375 64.59375 
L -0.296875 64.59375 
z
" id="DejaVuSans-84"/>
     <path d="M 41.109375 46.296875 
Q 39.59375 47.171875 37.8125 47.578125 
Q 36.03125 48 33.890625 48 
Q 26.265625 48 22.1875 43.046875 
Q 18.109375 38.09375 18.109375 28.8125 
L 18.109375 0 
L 9.078125 0 
L 9.078125 54.6875 
L 18.109375 54.6875 
L 18.109375 46.1875 
Q 20.953125 51.171875 25.484375 53.578125 
Q 30.03125 56 36.53125 56 
Q 37.453125 56 38.578125 55.875 
Q 39.703125 55.765625 41.0625 55.515625 
z
" id="DejaVuSans-114"/>
     <path d="M 9.421875 54.6875 
L 18.40625 54.6875 
L 18.40625 0 
L 9.421875 0 
z
M 9.421875 75.984375 
L 18.40625 75.984375 
L 18.40625 64.59375 
L 9.421875 64.59375 
z
" id="DejaVuSans-105"/>
     <path d="M 18.109375 8.203125 
L 18.109375 -20.796875 
L 9.078125 -20.796875 
L 9.078125 54.6875 
L 18.109375 54.6875 
L 18.109375 46.390625 
Q 20.953125 51.265625 25.265625 53.625 
Q 29.59375 56 35.59375 56 
Q 45.5625 56 51.78125 48.09375 
Q 58.015625 40.1875 58.015625 27.296875 
Q 58.015625 14.40625 51.78125 6.484375 
Q 45.5625 -1.421875 35.59375 -1.421875 
Q 29.59375 -1.421875 25.265625 0.953125 
Q 20.953125 3.328125 18.109375 8.203125 
z
M 48.6875 27.296875 
Q 48.6875 37.203125 44.609375 42.84375 
Q 40.53125 48.484375 33.40625 48.484375 
Q 26.265625 48.484375 22.1875 42.84375 
Q 18.109375 37.203125 18.109375 27.296875 
Q 18.109375 17.390625 22.1875 11.75 
Q 26.265625 6.109375 33.40625 6.109375 
Q 40.53125 6.109375 44.609375 11.75 
Q 48.6875 17.390625 48.6875 27.296875 
z
" id="DejaVuSans-112"/>
     <path d="M 9.421875 75.984375 
L 18.40625 75.984375 
L 18.40625 0 
L 9.421875 0 
z
" id="DejaVuSans-108"/>
     <path d="M 56.203125 29.59375 
L 56.203125 25.203125 
L 14.890625 25.203125 
Q 15.484375 15.921875 20.484375 11.0625 
Q 25.484375 6.203125 34.421875 6.203125 
Q 39.59375 6.203125 44.453125 7.46875 
Q 49.3125 8.734375 54.109375 11.28125 
L 54.109375 2.78125 
Q 49.265625 0.734375 44.1875 -0.34375 
Q 39.109375 -1.421875 33.890625 -1.421875 
Q 20.796875 -1.421875 13.15625 6.1875 
Q 5.515625 13.8125 5.515625 26.8125 
Q 5.515625 40.234375 12.765625 48.109375 
Q 20.015625 56 32.328125 56 
Q 43.359375 56 49.78125 48.890625 
Q 56.203125 41.796875 56.203125 29.59375 
z
M 47.21875 32.234375 
Q 47.125 39.59375 43.09375 43.984375 
Q 39.0625 48.390625 32.421875 48.390625 
Q 24.90625 48.390625 20.390625 44.140625 
Q 15.875 39.890625 15.1875 32.171875 
z
" id="DejaVuSans-101"/>
     <path d="M 18.3125 70.21875 
L 18.3125 54.6875 
L 36.8125 54.6875 
L 36.8125 47.703125 
L 18.3125 47.703125 
L 18.3125 18.015625 
Q 18.3125 11.328125 20.140625 9.421875 
Q 21.96875 7.515625 27.59375 7.515625 
L 36.8125 7.515625 
L 36.8125 0 
L 27.59375 0 
Q 17.1875 0 13.234375 3.875 
Q 9.28125 7.765625 9.28125 18.015625 
L 9.28125 47.703125 
L 2.6875 47.703125 
L 2.6875 54.6875 
L 9.28125 54.6875 
L 9.28125 70.21875 
z
" id="DejaVuSans-116"/>
     <path id="DejaVuSans-32"/>
     <path d="M 34.28125 27.484375 
Q 23.390625 27.484375 19.1875 25 
Q 14.984375 22.515625 14.984375 16.5 
Q 14.984375 11.71875 18.140625 8.90625 
Q 21.296875 6.109375 26.703125 6.109375 
Q 34.1875 6.109375 38.703125 11.40625 
Q 43.21875 16.703125 43.21875 25.484375 
L 43.21875 27.484375 
z
M 52.203125 31.203125 
L 52.203125 0 
L 43.21875 0 
L 43.21875 8.296875 
Q 40.140625 3.328125 35.546875 0.953125 
Q 30.953125 -1.421875 24.3125 -1.421875 
Q 15.921875 -1.421875 10.953125 3.296875 
Q 6 8.015625 6 15.921875 
Q 6 25.140625 12.171875 29.828125 
Q 18.359375 34.515625 30.609375 34.515625 
L 43.21875 34.515625 
L 43.21875 35.40625 
Q 43.21875 41.609375 39.140625 45 
Q 35.0625 48.390625 27.6875 48.390625 
Q 23 48.390625 18.546875 47.265625 
Q 14.109375 46.140625 10.015625 43.890625 
L 10.015625 52.203125 
Q 14.9375 54.109375 19.578125 55.046875 
Q 24.21875 56 28.609375 56 
Q 40.484375 56 46.34375 49.84375 
Q 52.203125 43.703125 52.203125 31.203125 
z
" id="DejaVuSans-97"/>
     <path d="M 54.890625 33.015625 
L 54.890625 0 
L 45.90625 0 
L 45.90625 32.71875 
Q 45.90625 40.484375 42.875 44.328125 
Q 39.84375 48.1875 33.796875 48.1875 
Q 26.515625 48.1875 22.3125 43.546875 
Q 18.109375 38.921875 18.109375 30.90625 
L 18.109375 0 
L 9.078125 0 
L 9.078125 75.984375 
L 18.109375 75.984375 
L 18.109375 46.1875 
Q 21.34375 51.125 25.703125 53.5625 
Q 30.078125 56 35.796875 56 
Q 45.21875 56 50.046875 50.171875 
Q 54.890625 44.34375 54.890625 33.015625 
z
" id="DejaVuSans-104"/>
     <path d="M 10.59375 45.40625 
L 73.1875 45.40625 
L 73.1875 37.203125 
L 10.59375 37.203125 
z
M 10.59375 25.484375 
L 73.1875 25.484375 
L 73.1875 17.1875 
L 10.59375 17.1875 
z
" id="DejaVuSans-61"/>
    </defs>
    <g style="fill:#262626;" transform="translate(82.108388 327.2495)rotate(-270)scale(0.12 -0.12)">
     <use xlink:href="#DejaVuSans-84"/>
     <use x="60.865234" xlink:href="#DejaVuSans-114"/>
     <use x="101.978516" xlink:href="#DejaVuSans-105"/>
     <use x="129.761719" xlink:href="#DejaVuSans-112"/>
     <use x="193.238281" xlink:href="#DejaVuSans-108"/>
     <use x="221.021484" xlink:href="#DejaVuSans-101"/>
     <use x="282.544922" xlink:href="#DejaVuSans-116"/>
     <use x="321.753906" xlink:href="#DejaVuSans-32"/>
     <use x="353.541016" xlink:href="#DejaVuSans-97"/>
     <use x="414.820312" xlink:href="#DejaVuSans-108"/>
     <use x="442.603516" xlink:href="#DejaVuSans-112"/>
     <use x="506.080078" xlink:href="#DejaVuSans-104"/>
     <use x="569.458984" xlink:href="#DejaVuSans-97"/>
     <use x="630.738281" xlink:href="#DejaVuSans-61"/>
     <use x="714.527344" xlink:href="#DejaVuSans-48"/>
     <use x="778.150391" xlink:href="#DejaVuSans-46"/>
     <use x="809.9375" xlink:href="#DejaVuSans-51"/>
     <use x="873.560547" xlink:href="#DejaVuSans-53"/>
    </g>
   </g>
   <g id="text_19">
    <!-- Triplet alpha=0.3 -->
    <g style="fill:#262626;" transform="translate(256.812106 334.8845)rotate(-270)scale(0.12 -0.12)">
     <use xlink:href="#DejaVuSans-84"/>
     <use x="60.865234" xlink:href="#DejaVuSans-114"/>
     <use x="101.978516" xlink:href="#DejaVuSans-105"/>
     <use x="129.761719" xlink:href="#DejaVuSans-112"/>
     <use x="193.238281" xlink:href="#DejaVuSans-108"/>
     <use x="221.021484" xlink:href="#DejaVuSans-101"/>
     <use x="282.544922" xlink:href="#DejaVuSans-116"/>
     <use x="321.753906" xlink:href="#DejaVuSans-32"/>
     <use x="353.541016" xlink:href="#DejaVuSans-97"/>
     <use x="414.820312" xlink:href="#DejaVuSans-108"/>
     <use x="442.603516" xlink:href="#DejaVuSans-112"/>
     <use x="506.080078" xlink:href="#DejaVuSans-104"/>
     <use x="569.458984" xlink:href="#DejaVuSans-97"/>
     <use x="630.738281" xlink:href="#DejaVuSans-61"/>
     <use x="714.527344" xlink:href="#DejaVuSans-48"/>
     <use x="778.150391" xlink:href="#DejaVuSans-46"/>
     <use x="809.9375" xlink:href="#DejaVuSans-51"/>
    </g>
   </g>
   <g id="text_20">
    <!-- Triplet alpha=0.25 -->
    <g style="fill:#262626;" transform="translate(317.054767 327.2495)rotate(-270)scale(0.12 -0.12)">
     <use xlink:href="#DejaVuSans-84"/>
     <use x="60.865234" xlink:href="#DejaVuSans-114"/>
     <use x="101.978516" xlink:href="#DejaVuSans-105"/>
     <use x="129.761719" xlink:href="#DejaVuSans-112"/>
     <use x="193.238281" xlink:href="#DejaVuSans-108"/>
     <use x="221.021484" xlink:href="#DejaVuSans-101"/>
     <use x="282.544922" xlink:href="#DejaVuSans-116"/>
     <use x="321.753906" xlink:href="#DejaVuSans-32"/>
     <use x="353.541016" xlink:href="#DejaVuSans-97"/>
     <use x="414.820312" xlink:href="#DejaVuSans-108"/>
     <use x="442.603516" xlink:href="#DejaVuSans-112"/>
     <use x="506.080078" xlink:href="#DejaVuSans-104"/>
     <use x="569.458984" xlink:href="#DejaVuSans-97"/>
     <use x="630.738281" xlink:href="#DejaVuSans-61"/>
     <use x="714.527344" xlink:href="#DejaVuSans-48"/>
     <use x="778.150391" xlink:href="#DejaVuSans-46"/>
     <use x="809.9375" xlink:href="#DejaVuSans-50"/>
     <use x="873.560547" xlink:href="#DejaVuSans-53"/>
    </g>
   </g>
   <g id="text_21">
    <!-- Triplet alpha=0.2 -->
    <g style="fill:#262626;" transform="translate(383.321694 334.8845)rotate(-270)scale(0.12 -0.12)">
     <use xlink:href="#DejaVuSans-84"/>
     <use x="60.865234" xlink:href="#DejaVuSans-114"/>
     <use x="101.978516" xlink:href="#DejaVuSans-105"/>
     <use x="129.761719" xlink:href="#DejaVuSans-112"/>
     <use x="193.238281" xlink:href="#DejaVuSans-108"/>
     <use x="221.021484" xlink:href="#DejaVuSans-101"/>
     <use x="282.544922" xlink:href="#DejaVuSans-116"/>
     <use x="321.753906" xlink:href="#DejaVuSans-32"/>
     <use x="353.541016" xlink:href="#DejaVuSans-97"/>
     <use x="414.820312" xlink:href="#DejaVuSans-108"/>
     <use x="442.603516" xlink:href="#DejaVuSans-112"/>
     <use x="506.080078" xlink:href="#DejaVuSans-104"/>
     <use x="569.458984" xlink:href="#DejaVuSans-97"/>
     <use x="630.738281" xlink:href="#DejaVuSans-61"/>
     <use x="714.527344" xlink:href="#DejaVuSans-48"/>
     <use x="778.150391" xlink:href="#DejaVuSans-46"/>
     <use x="809.9375" xlink:href="#DejaVuSans-50"/>
    </g>
   </g>
   <g id="text_22">
    <!-- loss -->
    <defs>
     <path d="M 30.609375 48.390625 
Q 23.390625 48.390625 19.1875 42.75 
Q 14.984375 37.109375 14.984375 27.296875 
Q 14.984375 17.484375 19.15625 11.84375 
Q 23.34375 6.203125 30.609375 6.203125 
Q 37.796875 6.203125 41.984375 11.859375 
Q 46.1875 17.53125 46.1875 27.296875 
Q 46.1875 37.015625 41.984375 42.703125 
Q 37.796875 48.390625 30.609375 48.390625 
z
M 30.609375 56 
Q 42.328125 56 49.015625 48.375 
Q 55.71875 40.765625 55.71875 27.296875 
Q 55.71875 13.875 49.015625 6.21875 
Q 42.328125 -1.421875 30.609375 -1.421875 
Q 18.84375 -1.421875 12.171875 6.21875 
Q 5.515625 13.875 5.515625 27.296875 
Q 5.515625 40.765625 12.171875 48.375 
Q 18.84375 56 30.609375 56 
z
" id="DejaVuSans-111"/>
     <path d="M 44.28125 53.078125 
L 44.28125 44.578125 
Q 40.484375 46.53125 36.375 47.5 
Q 32.28125 48.484375 27.875 48.484375 
Q 21.1875 48.484375 17.84375 46.4375 
Q 14.5 44.390625 14.5 40.28125 
Q 14.5 37.15625 16.890625 35.375 
Q 19.28125 33.59375 26.515625 31.984375 
L 29.59375 31.296875 
Q 39.15625 29.25 43.1875 25.515625 
Q 47.21875 21.78125 47.21875 15.09375 
Q 47.21875 7.46875 41.1875 3.015625 
Q 35.15625 -1.421875 24.609375 -1.421875 
Q 20.21875 -1.421875 15.453125 -0.5625 
Q 10.6875 0.296875 5.421875 2 
L 5.421875 11.28125 
Q 10.40625 8.6875 15.234375 7.390625 
Q 20.0625 6.109375 24.8125 6.109375 
Q 31.15625 6.109375 34.5625 8.28125 
Q 37.984375 10.453125 37.984375 14.40625 
Q 37.984375 18.0625 35.515625 20.015625 
Q 33.0625 21.96875 24.703125 23.78125 
L 21.578125 24.515625 
Q 13.234375 26.265625 9.515625 29.90625 
Q 5.8125 33.546875 5.8125 39.890625 
Q 5.8125 47.609375 11.28125 51.796875 
Q 16.75 56 26.8125 56 
Q 31.78125 56 36.171875 55.265625 
Q 40.578125 54.546875 44.28125 53.078125 
z
" id="DejaVuSans-115"/>
    </defs>
    <g style="fill:#262626;" transform="translate(295.350625 21.6)scale(0.12 -0.12)">
     <use xlink:href="#DejaVuSans-108"/>
     <use x="27.783203" xlink:href="#DejaVuSans-111"/>
     <use x="88.964844" xlink:href="#DejaVuSans-115"/>
     <use x="141.064453" xlink:href="#DejaVuSans-115"/>
    </g>
   </g>
   <g id="legend_1">
    <g id="patch_7">
     <path d="M 452.9375 45.7425 
L 561.34 45.7425 
Q 562.94 45.7425 562.94 44.1425 
L 562.94 33.2 
Q 562.94 31.6 561.34 31.6 
L 452.9375 31.6 
Q 451.3375 31.6 451.3375 33.2 
L 451.3375 44.1425 
Q 451.3375 45.7425 452.9375 45.7425 
z
" style="fill:#eaeaf2;opacity:0.8;stroke:#cccccc;stroke-linejoin:miter;"/>
    </g>
    <g id="line2d_19">
     <path d="M 454.5375 38.07875 
L 470.5375 38.07875 
" style="fill:none;stroke:#4c72b0;stroke-linecap:round;stroke-width:1.5;"/>
    </g>
    <g id="line2d_20"/>
    <g id="text_23">
     <!-- ResNet101V2 Triplet -->
     <defs>
      <path d="M 44.390625 34.1875 
Q 47.5625 33.109375 50.5625 29.59375 
Q 53.5625 26.078125 56.59375 19.921875 
L 66.609375 0 
L 56 0 
L 46.6875 18.703125 
Q 43.0625 26.03125 39.671875 28.421875 
Q 36.28125 30.8125 30.421875 30.8125 
L 19.671875 30.8125 
L 19.671875 0 
L 9.8125 0 
L 9.8125 72.90625 
L 32.078125 72.90625 
Q 44.578125 72.90625 50.734375 67.671875 
Q 56.890625 62.453125 56.890625 51.90625 
Q 56.890625 45.015625 53.6875 40.46875 
Q 50.484375 35.9375 44.390625 34.1875 
z
M 19.671875 64.796875 
L 19.671875 38.921875 
L 32.078125 38.921875 
Q 39.203125 38.921875 42.84375 42.21875 
Q 46.484375 45.515625 46.484375 51.90625 
Q 46.484375 58.296875 42.84375 61.546875 
Q 39.203125 64.796875 32.078125 64.796875 
z
" id="DejaVuSans-82"/>
      <path d="M 9.8125 72.90625 
L 23.09375 72.90625 
L 55.421875 11.921875 
L 55.421875 72.90625 
L 64.984375 72.90625 
L 64.984375 0 
L 51.703125 0 
L 19.390625 60.984375 
L 19.390625 0 
L 9.8125 0 
z
" id="DejaVuSans-78"/>
      <path d="M 28.609375 0 
L 0.78125 72.90625 
L 11.078125 72.90625 
L 34.1875 11.53125 
L 57.328125 72.90625 
L 67.578125 72.90625 
L 39.796875 0 
z
" id="DejaVuSans-86"/>
     </defs>
     <g style="fill:#262626;" transform="translate(476.9375 40.87875)scale(0.08 -0.08)">
      <use xlink:href="#DejaVuSans-82"/>
      <use x="69.419922" xlink:href="#DejaVuSans-101"/>
      <use x="130.943359" xlink:href="#DejaVuSans-115"/>
      <use x="183.042969" xlink:href="#DejaVuSans-78"/>
      <use x="257.847656" xlink:href="#DejaVuSans-101"/>
      <use x="319.371094" xlink:href="#DejaVuSans-116"/>
      <use x="358.580078" xlink:href="#DejaVuSans-49"/>
      <use x="422.203125" xlink:href="#DejaVuSans-48"/>
      <use x="485.826172" xlink:href="#DejaVuSans-49"/>
      <use x="549.449219" xlink:href="#DejaVuSans-86"/>
      <use x="617.857422" xlink:href="#DejaVuSans-50"/>
      <use x="681.480469" xlink:href="#DejaVuSans-32"/>
      <use x="713.267578" xlink:href="#DejaVuSans-84"/>
      <use x="774.132812" xlink:href="#DejaVuSans-114"/>
      <use x="815.246094" xlink:href="#DejaVuSans-105"/>
      <use x="843.029297" xlink:href="#DejaVuSans-112"/>
      <use x="906.505859" xlink:href="#DejaVuSans-108"/>
      <use x="934.289062" xlink:href="#DejaVuSans-101"/>
      <use x="995.8125" xlink:href="#DejaVuSans-116"/>
     </g>
    </g>
   </g>
  </g>
  <g id="axes_2">
   <g id="patch_8">
    <path d="M 620.99 542.74 
L 1140.99 542.74 
L 1140.99 27.6 
L 620.99 27.6 
z
" style="fill:#eaeaf2;"/>
   </g>
   <g id="matplotlib.axis_3">
    <g id="xtick_10">
     <g id="line2d_21">
      <path clip-path="url(#p323377a674)" d="M 644.626364 542.74 
L 644.626364 27.6 
" style="fill:none;stroke:#ffffff;stroke-linecap:round;"/>
     </g>
     <g id="text_24">
      <!-- 95 -->
      <g style="fill:#262626;" transform="translate(637.627614 560.598281)scale(0.11 -0.11)">
       <use xlink:href="#DejaVuSans-57"/>
       <use x="63.623047" xlink:href="#DejaVuSans-53"/>
      </g>
     </g>
    </g>
    <g id="xtick_11">
     <g id="line2d_22">
      <path clip-path="url(#p323377a674)" d="M 704.869025 542.74 
L 704.869025 27.6 
" style="fill:none;stroke:#ffffff;stroke-linecap:round;"/>
     </g>
     <g id="text_25">
      <!-- 100 -->
      <g style="fill:#262626;" transform="translate(694.3709 560.598281)scale(0.11 -0.11)">
       <use xlink:href="#DejaVuSans-49"/>
       <use x="63.623047" xlink:href="#DejaVuSans-48"/>
       <use x="127.246094" xlink:href="#DejaVuSans-48"/>
      </g>
     </g>
    </g>
    <g id="xtick_12">
     <g id="line2d_23">
      <path clip-path="url(#p323377a674)" d="M 765.111686 542.74 
L 765.111686 27.6 
" style="fill:none;stroke:#ffffff;stroke-linecap:round;"/>
     </g>
     <g id="text_26">
      <!-- 105 -->
      <g style="fill:#262626;" transform="translate(754.613561 560.598281)scale(0.11 -0.11)">
       <use xlink:href="#DejaVuSans-49"/>
       <use x="63.623047" xlink:href="#DejaVuSans-48"/>
       <use x="127.246094" xlink:href="#DejaVuSans-53"/>
      </g>
     </g>
    </g>
    <g id="xtick_13">
     <g id="line2d_24">
      <path clip-path="url(#p323377a674)" d="M 825.354348 542.74 
L 825.354348 27.6 
" style="fill:none;stroke:#ffffff;stroke-linecap:round;"/>
     </g>
     <g id="text_27">
      <!-- 110 -->
      <g style="fill:#262626;" transform="translate(814.856223 560.598281)scale(0.11 -0.11)">
       <use xlink:href="#DejaVuSans-49"/>
       <use x="63.623047" xlink:href="#DejaVuSans-49"/>
       <use x="127.246094" xlink:href="#DejaVuSans-48"/>
      </g>
     </g>
    </g>
    <g id="xtick_14">
     <g id="line2d_25">
      <path clip-path="url(#p323377a674)" d="M 885.597009 542.74 
L 885.597009 27.6 
" style="fill:none;stroke:#ffffff;stroke-linecap:round;"/>
     </g>
     <g id="text_28">
      <!-- 115 -->
      <g style="fill:#262626;" transform="translate(875.098884 560.598281)scale(0.11 -0.11)">
       <use xlink:href="#DejaVuSans-49"/>
       <use x="63.623047" xlink:href="#DejaVuSans-49"/>
       <use x="127.246094" xlink:href="#DejaVuSans-53"/>
      </g>
     </g>
    </g>
    <g id="xtick_15">
     <g id="line2d_26">
      <path clip-path="url(#p323377a674)" d="M 945.83967 542.74 
L 945.83967 27.6 
" style="fill:none;stroke:#ffffff;stroke-linecap:round;"/>
     </g>
     <g id="text_29">
      <!-- 120 -->
      <g style="fill:#262626;" transform="translate(935.341545 560.598281)scale(0.11 -0.11)">
       <use xlink:href="#DejaVuSans-49"/>
       <use x="63.623047" xlink:href="#DejaVuSans-50"/>
       <use x="127.246094" xlink:href="#DejaVuSans-48"/>
      </g>
     </g>
    </g>
    <g id="xtick_16">
     <g id="line2d_27">
      <path clip-path="url(#p323377a674)" d="M 1006.082332 542.74 
L 1006.082332 27.6 
" style="fill:none;stroke:#ffffff;stroke-linecap:round;"/>
     </g>
     <g id="text_30">
      <!-- 125 -->
      <g style="fill:#262626;" transform="translate(995.584207 560.598281)scale(0.11 -0.11)">
       <use xlink:href="#DejaVuSans-49"/>
       <use x="63.623047" xlink:href="#DejaVuSans-50"/>
       <use x="127.246094" xlink:href="#DejaVuSans-53"/>
      </g>
     </g>
    </g>
    <g id="xtick_17">
     <g id="line2d_28">
      <path clip-path="url(#p323377a674)" d="M 1066.324993 542.74 
L 1066.324993 27.6 
" style="fill:none;stroke:#ffffff;stroke-linecap:round;"/>
     </g>
     <g id="text_31">
      <!-- 130 -->
      <g style="fill:#262626;" transform="translate(1055.826868 560.598281)scale(0.11 -0.11)">
       <use xlink:href="#DejaVuSans-49"/>
       <use x="63.623047" xlink:href="#DejaVuSans-51"/>
       <use x="127.246094" xlink:href="#DejaVuSans-48"/>
      </g>
     </g>
    </g>
    <g id="xtick_18">
     <g id="line2d_29">
      <path clip-path="url(#p323377a674)" d="M 1126.567654 542.74 
L 1126.567654 27.6 
" style="fill:none;stroke:#ffffff;stroke-linecap:round;"/>
     </g>
     <g id="text_32">
      <!-- 135 -->
      <g style="fill:#262626;" transform="translate(1116.069529 560.598281)scale(0.11 -0.11)">
       <use xlink:href="#DejaVuSans-49"/>
       <use x="63.623047" xlink:href="#DejaVuSans-51"/>
       <use x="127.246094" xlink:href="#DejaVuSans-53"/>
      </g>
     </g>
    </g>
   </g>
   <g id="matplotlib.axis_4">
    <g id="ytick_5">
     <g id="line2d_30">
      <path clip-path="url(#p323377a674)" d="M 620.99 441.27303 
L 1140.99 441.27303 
" style="fill:none;stroke:#ffffff;stroke-linecap:round;"/>
     </g>
     <g id="text_33">
      <!-- 0.2 -->
      <g style="fill:#262626;" transform="translate(593.996562 445.452171)scale(0.11 -0.11)">
       <use xlink:href="#DejaVuSans-48"/>
       <use x="63.623047" xlink:href="#DejaVuSans-46"/>
       <use x="95.410156" xlink:href="#DejaVuSans-50"/>
      </g>
     </g>
    </g>
    <g id="ytick_6">
     <g id="line2d_31">
      <path clip-path="url(#p323377a674)" d="M 620.99 337.204343 
L 1140.99 337.204343 
" style="fill:none;stroke:#ffffff;stroke-linecap:round;"/>
     </g>
     <g id="text_34">
      <!-- 0.4 -->
      <g style="fill:#262626;" transform="translate(593.996562 341.383484)scale(0.11 -0.11)">
       <use xlink:href="#DejaVuSans-48"/>
       <use x="63.623047" xlink:href="#DejaVuSans-46"/>
       <use x="95.410156" xlink:href="#DejaVuSans-52"/>
      </g>
     </g>
    </g>
    <g id="ytick_7">
     <g id="line2d_32">
      <path clip-path="url(#p323377a674)" d="M 620.99 233.135657 
L 1140.99 233.135657 
" style="fill:none;stroke:#ffffff;stroke-linecap:round;"/>
     </g>
     <g id="text_35">
      <!-- 0.6 -->
      <g style="fill:#262626;" transform="translate(593.996562 237.314797)scale(0.11 -0.11)">
       <use xlink:href="#DejaVuSans-48"/>
       <use x="63.623047" xlink:href="#DejaVuSans-46"/>
       <use x="95.410156" xlink:href="#DejaVuSans-54"/>
      </g>
     </g>
    </g>
    <g id="ytick_8">
     <g id="line2d_33">
      <path clip-path="url(#p323377a674)" d="M 620.99 129.06697 
L 1140.99 129.06697 
" style="fill:none;stroke:#ffffff;stroke-linecap:round;"/>
     </g>
     <g id="text_36">
      <!-- 0.8 -->
      <g style="fill:#262626;" transform="translate(593.996562 133.24611)scale(0.11 -0.11)">
       <use xlink:href="#DejaVuSans-48"/>
       <use x="63.623047" xlink:href="#DejaVuSans-46"/>
       <use x="95.410156" xlink:href="#DejaVuSans-56"/>
      </g>
     </g>
    </g>
   </g>
   <g id="line2d_34">
    <path clip-path="url(#p323377a674)" d="M 644.626364 519.324545 
L 644.626364 51.015455 
" style="fill:none;stroke:#1a1a1a;stroke-dasharray:5.55,2.4;stroke-dashoffset:0;stroke-width:1.5;"/>
   </g>
   <g id="line2d_35">
    <path clip-path="url(#p323377a674)" d="M 825.354348 519.324545 
L 825.354348 51.015455 
" style="fill:none;stroke:#1a1a1a;stroke-dasharray:5.55,2.4;stroke-dashoffset:0;stroke-width:1.5;"/>
   </g>
   <g id="line2d_36">
    <path clip-path="url(#p323377a674)" d="M 885.597009 519.324545 
L 885.597009 51.015455 
" style="fill:none;stroke:#1a1a1a;stroke-dasharray:5.55,2.4;stroke-dashoffset:0;stroke-width:1.5;"/>
   </g>
   <g id="line2d_37">
    <path clip-path="url(#p323377a674)" d="M 945.83967 519.324545 
L 945.83967 51.015455 
" style="fill:none;stroke:#1a1a1a;stroke-dasharray:5.55,2.4;stroke-dashoffset:0;stroke-width:1.5;"/>
   </g>
   <g id="patch_9">
    <path d="M 620.99 542.74 
L 620.99 27.6 
" style="fill:none;stroke:#ffffff;stroke-linecap:square;stroke-linejoin:miter;stroke-width:1.25;"/>
   </g>
   <g id="patch_10">
    <path d="M 1140.99 542.74 
L 1140.99 27.6 
" style="fill:none;stroke:#ffffff;stroke-linecap:square;stroke-linejoin:miter;stroke-width:1.25;"/>
   </g>
   <g id="patch_11">
    <path d="M 620.99 542.74 
L 1140.99 542.74 
" style="fill:none;stroke:#ffffff;stroke-linecap:square;stroke-linejoin:miter;stroke-width:1.25;"/>
   </g>
   <g id="patch_12">
    <path d="M 620.99 27.6 
L 1140.99 27.6 
" style="fill:none;stroke:#ffffff;stroke-linecap:square;stroke-linejoin:miter;stroke-width:1.25;"/>
   </g>
   <g id="text_37">
    <!-- Triplet alpha=0.35 -->
    <g style="fill:#262626;" transform="translate(656.158388 328.81053)rotate(-270)scale(0.12 -0.12)">
     <use xlink:href="#DejaVuSans-84"/>
     <use x="60.865234" xlink:href="#DejaVuSans-114"/>
     <use x="101.978516" xlink:href="#DejaVuSans-105"/>
     <use x="129.761719" xlink:href="#DejaVuSans-112"/>
     <use x="193.238281" xlink:href="#DejaVuSans-108"/>
     <use x="221.021484" xlink:href="#DejaVuSans-101"/>
     <use x="282.544922" xlink:href="#DejaVuSans-116"/>
     <use x="321.753906" xlink:href="#DejaVuSans-32"/>
     <use x="353.541016" xlink:href="#DejaVuSans-97"/>
     <use x="414.820312" xlink:href="#DejaVuSans-108"/>
     <use x="442.603516" xlink:href="#DejaVuSans-112"/>
     <use x="506.080078" xlink:href="#DejaVuSans-104"/>
     <use x="569.458984" xlink:href="#DejaVuSans-97"/>
     <use x="630.738281" xlink:href="#DejaVuSans-61"/>
     <use x="714.527344" xlink:href="#DejaVuSans-48"/>
     <use x="778.150391" xlink:href="#DejaVuSans-46"/>
     <use x="809.9375" xlink:href="#DejaVuSans-51"/>
     <use x="873.560547" xlink:href="#DejaVuSans-53"/>
    </g>
   </g>
   <g id="text_38">
    <!-- Triplet alpha=0.3 -->
    <g style="fill:#262626;" transform="translate(830.862106 336.44553)rotate(-270)scale(0.12 -0.12)">
     <use xlink:href="#DejaVuSans-84"/>
     <use x="60.865234" xlink:href="#DejaVuSans-114"/>
     <use x="101.978516" xlink:href="#DejaVuSans-105"/>
     <use x="129.761719" xlink:href="#DejaVuSans-112"/>
     <use x="193.238281" xlink:href="#DejaVuSans-108"/>
     <use x="221.021484" xlink:href="#DejaVuSans-101"/>
     <use x="282.544922" xlink:href="#DejaVuSans-116"/>
     <use x="321.753906" xlink:href="#DejaVuSans-32"/>
     <use x="353.541016" xlink:href="#DejaVuSans-97"/>
     <use x="414.820312" xlink:href="#DejaVuSans-108"/>
     <use x="442.603516" xlink:href="#DejaVuSans-112"/>
     <use x="506.080078" xlink:href="#DejaVuSans-104"/>
     <use x="569.458984" xlink:href="#DejaVuSans-97"/>
     <use x="630.738281" xlink:href="#DejaVuSans-61"/>
     <use x="714.527344" xlink:href="#DejaVuSans-48"/>
     <use x="778.150391" xlink:href="#DejaVuSans-46"/>
     <use x="809.9375" xlink:href="#DejaVuSans-51"/>
    </g>
   </g>
   <g id="text_39">
    <!-- Triplet alpha=0.25 -->
    <g style="fill:#262626;" transform="translate(891.104767 328.81053)rotate(-270)scale(0.12 -0.12)">
     <use xlink:href="#DejaVuSans-84"/>
     <use x="60.865234" xlink:href="#DejaVuSans-114"/>
     <use x="101.978516" xlink:href="#DejaVuSans-105"/>
     <use x="129.761719" xlink:href="#DejaVuSans-112"/>
     <use x="193.238281" xlink:href="#DejaVuSans-108"/>
     <use x="221.021484" xlink:href="#DejaVuSans-101"/>
     <use x="282.544922" xlink:href="#DejaVuSans-116"/>
     <use x="321.753906" xlink:href="#DejaVuSans-32"/>
     <use x="353.541016" xlink:href="#DejaVuSans-97"/>
     <use x="414.820312" xlink:href="#DejaVuSans-108"/>
     <use x="442.603516" xlink:href="#DejaVuSans-112"/>
     <use x="506.080078" xlink:href="#DejaVuSans-104"/>
     <use x="569.458984" xlink:href="#DejaVuSans-97"/>
     <use x="630.738281" xlink:href="#DejaVuSans-61"/>
     <use x="714.527344" xlink:href="#DejaVuSans-48"/>
     <use x="778.150391" xlink:href="#DejaVuSans-46"/>
     <use x="809.9375" xlink:href="#DejaVuSans-50"/>
     <use x="873.560547" xlink:href="#DejaVuSans-53"/>
    </g>
   </g>
   <g id="text_40">
    <!-- Triplet alpha=0.2 -->
    <g style="fill:#262626;" transform="translate(957.371694 336.44553)rotate(-270)scale(0.12 -0.12)">
     <use xlink:href="#DejaVuSans-84"/>
     <use x="60.865234" xlink:href="#DejaVuSans-114"/>
     <use x="101.978516" xlink:href="#DejaVuSans-105"/>
     <use x="129.761719" xlink:href="#DejaVuSans-112"/>
     <use x="193.238281" xlink:href="#DejaVuSans-108"/>
     <use x="221.021484" xlink:href="#DejaVuSans-101"/>
     <use x="282.544922" xlink:href="#DejaVuSans-116"/>
     <use x="321.753906" xlink:href="#DejaVuSans-32"/>
     <use x="353.541016" xlink:href="#DejaVuSans-97"/>
     <use x="414.820312" xlink:href="#DejaVuSans-108"/>
     <use x="442.603516" xlink:href="#DejaVuSans-112"/>
     <use x="506.080078" xlink:href="#DejaVuSans-104"/>
     <use x="569.458984" xlink:href="#DejaVuSans-97"/>
     <use x="630.738281" xlink:href="#DejaVuSans-61"/>
     <use x="714.527344" xlink:href="#DejaVuSans-48"/>
     <use x="778.150391" xlink:href="#DejaVuSans-46"/>
     <use x="809.9375" xlink:href="#DejaVuSans-50"/>
    </g>
   </g>
   <g id="text_41">
    <!-- accuracy -->
    <defs>
     <path d="M 48.78125 52.59375 
L 48.78125 44.1875 
Q 44.96875 46.296875 41.140625 47.34375 
Q 37.3125 48.390625 33.40625 48.390625 
Q 24.65625 48.390625 19.8125 42.84375 
Q 14.984375 37.3125 14.984375 27.296875 
Q 14.984375 17.28125 19.8125 11.734375 
Q 24.65625 6.203125 33.40625 6.203125 
Q 37.3125 6.203125 41.140625 7.25 
Q 44.96875 8.296875 48.78125 10.40625 
L 48.78125 2.09375 
Q 45.015625 0.34375 40.984375 -0.53125 
Q 36.96875 -1.421875 32.421875 -1.421875 
Q 20.0625 -1.421875 12.78125 6.34375 
Q 5.515625 14.109375 5.515625 27.296875 
Q 5.515625 40.671875 12.859375 48.328125 
Q 20.21875 56 33.015625 56 
Q 37.15625 56 41.109375 55.140625 
Q 45.0625 54.296875 48.78125 52.59375 
z
" id="DejaVuSans-99"/>
     <path d="M 8.5 21.578125 
L 8.5 54.6875 
L 17.484375 54.6875 
L 17.484375 21.921875 
Q 17.484375 14.15625 20.5 10.265625 
Q 23.53125 6.390625 29.59375 6.390625 
Q 36.859375 6.390625 41.078125 11.03125 
Q 45.3125 15.671875 45.3125 23.6875 
L 45.3125 54.6875 
L 54.296875 54.6875 
L 54.296875 0 
L 45.3125 0 
L 45.3125 8.40625 
Q 42.046875 3.421875 37.71875 1 
Q 33.40625 -1.421875 27.6875 -1.421875 
Q 18.265625 -1.421875 13.375 4.4375 
Q 8.5 10.296875 8.5 21.578125 
z
M 31.109375 56 
z
" id="DejaVuSans-117"/>
     <path d="M 32.171875 -5.078125 
Q 28.375 -14.84375 24.75 -17.8125 
Q 21.140625 -20.796875 15.09375 -20.796875 
L 7.90625 -20.796875 
L 7.90625 -13.28125 
L 13.1875 -13.28125 
Q 16.890625 -13.28125 18.9375 -11.515625 
Q 21 -9.765625 23.484375 -3.21875 
L 25.09375 0.875 
L 2.984375 54.6875 
L 12.5 54.6875 
L 29.59375 11.921875 
L 46.6875 54.6875 
L 56.203125 54.6875 
z
" id="DejaVuSans-121"/>
    </defs>
    <g style="fill:#262626;" transform="translate(853.91875 21.6)scale(0.12 -0.12)">
     <use xlink:href="#DejaVuSans-97"/>
     <use x="61.279297" xlink:href="#DejaVuSans-99"/>
     <use x="116.259766" xlink:href="#DejaVuSans-99"/>
     <use x="171.240234" xlink:href="#DejaVuSans-117"/>
     <use x="234.619141" xlink:href="#DejaVuSans-114"/>
     <use x="275.732422" xlink:href="#DejaVuSans-97"/>
     <use x="337.011719" xlink:href="#DejaVuSans-99"/>
     <use x="391.992188" xlink:href="#DejaVuSans-121"/>
    </g>
   </g>
   <g id="legend_2">
    <g id="patch_13">
     <path d="M 1132.19 538.74 
L 1135.39 538.74 
Q 1136.99 538.74 1136.99 537.14 
L 1136.99 533.94 
Q 1136.99 532.34 1135.39 532.34 
L 1132.19 532.34 
Q 1130.59 532.34 1130.59 533.94 
L 1130.59 537.14 
Q 1130.59 538.74 1132.19 538.74 
z
" style="fill:#eaeaf2;opacity:0.8;stroke:#cccccc;stroke-linejoin:miter;"/>
    </g>
   </g>
  </g>
  <g id="axes_3">
   <g id="patch_14">
    <path d="M 1195.04 542.74 
L 1715.04 542.74 
L 1715.04 27.6 
L 1195.04 27.6 
z
" style="fill:#eaeaf2;"/>
   </g>
   <g id="matplotlib.axis_5">
    <g id="xtick_19">
     <g id="line2d_38">
      <path clip-path="url(#p4aa06ab9b8)" d="M 1218.676364 542.74 
L 1218.676364 27.6 
" style="fill:none;stroke:#ffffff;stroke-linecap:round;"/>
     </g>
     <g id="text_42">
      <!-- 95 -->
      <g style="fill:#262626;" transform="translate(1211.677614 560.598281)scale(0.11 -0.11)">
       <use xlink:href="#DejaVuSans-57"/>
       <use x="63.623047" xlink:href="#DejaVuSans-53"/>
      </g>
     </g>
    </g>
    <g id="xtick_20">
     <g id="line2d_39">
      <path clip-path="url(#p4aa06ab9b8)" d="M 1278.919025 542.74 
L 1278.919025 27.6 
" style="fill:none;stroke:#ffffff;stroke-linecap:round;"/>
     </g>
     <g id="text_43">
      <!-- 100 -->
      <g style="fill:#262626;" transform="translate(1268.4209 560.598281)scale(0.11 -0.11)">
       <use xlink:href="#DejaVuSans-49"/>
       <use x="63.623047" xlink:href="#DejaVuSans-48"/>
       <use x="127.246094" xlink:href="#DejaVuSans-48"/>
      </g>
     </g>
    </g>
    <g id="xtick_21">
     <g id="line2d_40">
      <path clip-path="url(#p4aa06ab9b8)" d="M 1339.161686 542.74 
L 1339.161686 27.6 
" style="fill:none;stroke:#ffffff;stroke-linecap:round;"/>
     </g>
     <g id="text_44">
      <!-- 105 -->
      <g style="fill:#262626;" transform="translate(1328.663561 560.598281)scale(0.11 -0.11)">
       <use xlink:href="#DejaVuSans-49"/>
       <use x="63.623047" xlink:href="#DejaVuSans-48"/>
       <use x="127.246094" xlink:href="#DejaVuSans-53"/>
      </g>
     </g>
    </g>
    <g id="xtick_22">
     <g id="line2d_41">
      <path clip-path="url(#p4aa06ab9b8)" d="M 1399.404348 542.74 
L 1399.404348 27.6 
" style="fill:none;stroke:#ffffff;stroke-linecap:round;"/>
     </g>
     <g id="text_45">
      <!-- 110 -->
      <g style="fill:#262626;" transform="translate(1388.906223 560.598281)scale(0.11 -0.11)">
       <use xlink:href="#DejaVuSans-49"/>
       <use x="63.623047" xlink:href="#DejaVuSans-49"/>
       <use x="127.246094" xlink:href="#DejaVuSans-48"/>
      </g>
     </g>
    </g>
    <g id="xtick_23">
     <g id="line2d_42">
      <path clip-path="url(#p4aa06ab9b8)" d="M 1459.647009 542.74 
L 1459.647009 27.6 
" style="fill:none;stroke:#ffffff;stroke-linecap:round;"/>
     </g>
     <g id="text_46">
      <!-- 115 -->
      <g style="fill:#262626;" transform="translate(1449.148884 560.598281)scale(0.11 -0.11)">
       <use xlink:href="#DejaVuSans-49"/>
       <use x="63.623047" xlink:href="#DejaVuSans-49"/>
       <use x="127.246094" xlink:href="#DejaVuSans-53"/>
      </g>
     </g>
    </g>
    <g id="xtick_24">
     <g id="line2d_43">
      <path clip-path="url(#p4aa06ab9b8)" d="M 1519.88967 542.74 
L 1519.88967 27.6 
" style="fill:none;stroke:#ffffff;stroke-linecap:round;"/>
     </g>
     <g id="text_47">
      <!-- 120 -->
      <g style="fill:#262626;" transform="translate(1509.391545 560.598281)scale(0.11 -0.11)">
       <use xlink:href="#DejaVuSans-49"/>
       <use x="63.623047" xlink:href="#DejaVuSans-50"/>
       <use x="127.246094" xlink:href="#DejaVuSans-48"/>
      </g>
     </g>
    </g>
    <g id="xtick_25">
     <g id="line2d_44">
      <path clip-path="url(#p4aa06ab9b8)" d="M 1580.132332 542.74 
L 1580.132332 27.6 
" style="fill:none;stroke:#ffffff;stroke-linecap:round;"/>
     </g>
     <g id="text_48">
      <!-- 125 -->
      <g style="fill:#262626;" transform="translate(1569.634207 560.598281)scale(0.11 -0.11)">
       <use xlink:href="#DejaVuSans-49"/>
       <use x="63.623047" xlink:href="#DejaVuSans-50"/>
       <use x="127.246094" xlink:href="#DejaVuSans-53"/>
      </g>
     </g>
    </g>
    <g id="xtick_26">
     <g id="line2d_45">
      <path clip-path="url(#p4aa06ab9b8)" d="M 1640.374993 542.74 
L 1640.374993 27.6 
" style="fill:none;stroke:#ffffff;stroke-linecap:round;"/>
     </g>
     <g id="text_49">
      <!-- 130 -->
      <g style="fill:#262626;" transform="translate(1629.876868 560.598281)scale(0.11 -0.11)">
       <use xlink:href="#DejaVuSans-49"/>
       <use x="63.623047" xlink:href="#DejaVuSans-51"/>
       <use x="127.246094" xlink:href="#DejaVuSans-48"/>
      </g>
     </g>
    </g>
    <g id="xtick_27">
     <g id="line2d_46">
      <path clip-path="url(#p4aa06ab9b8)" d="M 1700.617654 542.74 
L 1700.617654 27.6 
" style="fill:none;stroke:#ffffff;stroke-linecap:round;"/>
     </g>
     <g id="text_50">
      <!-- 135 -->
      <g style="fill:#262626;" transform="translate(1690.119529 560.598281)scale(0.11 -0.11)">
       <use xlink:href="#DejaVuSans-49"/>
       <use x="63.623047" xlink:href="#DejaVuSans-51"/>
       <use x="127.246094" xlink:href="#DejaVuSans-53"/>
      </g>
     </g>
    </g>
   </g>
   <g id="matplotlib.axis_6">
    <g id="ytick_9">
     <g id="line2d_47">
      <path clip-path="url(#p4aa06ab9b8)" d="M 1195.04 532.332807 
L 1715.04 532.332807 
" style="fill:none;stroke:#ffffff;stroke-linecap:round;"/>
     </g>
     <g id="text_51">
      <!-- 0.960 -->
      <g style="fill:#262626;" transform="translate(1154.049062 536.511948)scale(0.11 -0.11)">
       <use xlink:href="#DejaVuSans-48"/>
       <use x="63.623047" xlink:href="#DejaVuSans-46"/>
       <use x="95.410156" xlink:href="#DejaVuSans-57"/>
       <use x="159.033203" xlink:href="#DejaVuSans-54"/>
       <use x="222.65625" xlink:href="#DejaVuSans-48"/>
      </g>
     </g>
    </g>
    <g id="ytick_10">
     <g id="line2d_48">
      <path clip-path="url(#p4aa06ab9b8)" d="M 1195.04 467.291499 
L 1715.04 467.291499 
" style="fill:none;stroke:#ffffff;stroke-linecap:round;"/>
     </g>
     <g id="text_52">
      <!-- 0.965 -->
      <g style="fill:#262626;" transform="translate(1154.049062 471.47064)scale(0.11 -0.11)">
       <use xlink:href="#DejaVuSans-48"/>
       <use x="63.623047" xlink:href="#DejaVuSans-46"/>
       <use x="95.410156" xlink:href="#DejaVuSans-57"/>
       <use x="159.033203" xlink:href="#DejaVuSans-54"/>
       <use x="222.65625" xlink:href="#DejaVuSans-53"/>
      </g>
     </g>
    </g>
    <g id="ytick_11">
     <g id="line2d_49">
      <path clip-path="url(#p4aa06ab9b8)" d="M 1195.04 402.250192 
L 1715.04 402.250192 
" style="fill:none;stroke:#ffffff;stroke-linecap:round;"/>
     </g>
     <g id="text_53">
      <!-- 0.970 -->
      <g style="fill:#262626;" transform="translate(1154.049062 406.429333)scale(0.11 -0.11)">
       <use xlink:href="#DejaVuSans-48"/>
       <use x="63.623047" xlink:href="#DejaVuSans-46"/>
       <use x="95.410156" xlink:href="#DejaVuSans-57"/>
       <use x="159.033203" xlink:href="#DejaVuSans-55"/>
       <use x="222.65625" xlink:href="#DejaVuSans-48"/>
      </g>
     </g>
    </g>
    <g id="ytick_12">
     <g id="line2d_50">
      <path clip-path="url(#p4aa06ab9b8)" d="M 1195.04 337.208885 
L 1715.04 337.208885 
" style="fill:none;stroke:#ffffff;stroke-linecap:round;"/>
     </g>
     <g id="text_54">
      <!-- 0.975 -->
      <g style="fill:#262626;" transform="translate(1154.049062 341.388025)scale(0.11 -0.11)">
       <use xlink:href="#DejaVuSans-48"/>
       <use x="63.623047" xlink:href="#DejaVuSans-46"/>
       <use x="95.410156" xlink:href="#DejaVuSans-57"/>
       <use x="159.033203" xlink:href="#DejaVuSans-55"/>
       <use x="222.65625" xlink:href="#DejaVuSans-53"/>
      </g>
     </g>
    </g>
    <g id="ytick_13">
     <g id="line2d_51">
      <path clip-path="url(#p4aa06ab9b8)" d="M 1195.04 272.167577 
L 1715.04 272.167577 
" style="fill:none;stroke:#ffffff;stroke-linecap:round;"/>
     </g>
     <g id="text_55">
      <!-- 0.980 -->
      <g style="fill:#262626;" transform="translate(1154.049062 276.346718)scale(0.11 -0.11)">
       <use xlink:href="#DejaVuSans-48"/>
       <use x="63.623047" xlink:href="#DejaVuSans-46"/>
       <use x="95.410156" xlink:href="#DejaVuSans-57"/>
       <use x="159.033203" xlink:href="#DejaVuSans-56"/>
       <use x="222.65625" xlink:href="#DejaVuSans-48"/>
      </g>
     </g>
    </g>
    <g id="ytick_14">
     <g id="line2d_52">
      <path clip-path="url(#p4aa06ab9b8)" d="M 1195.04 207.12627 
L 1715.04 207.12627 
" style="fill:none;stroke:#ffffff;stroke-linecap:round;"/>
     </g>
     <g id="text_56">
      <!-- 0.985 -->
      <g style="fill:#262626;" transform="translate(1154.049062 211.30541)scale(0.11 -0.11)">
       <use xlink:href="#DejaVuSans-48"/>
       <use x="63.623047" xlink:href="#DejaVuSans-46"/>
       <use x="95.410156" xlink:href="#DejaVuSans-57"/>
       <use x="159.033203" xlink:href="#DejaVuSans-56"/>
       <use x="222.65625" xlink:href="#DejaVuSans-53"/>
      </g>
     </g>
    </g>
    <g id="ytick_15">
     <g id="line2d_53">
      <path clip-path="url(#p4aa06ab9b8)" d="M 1195.04 142.084962 
L 1715.04 142.084962 
" style="fill:none;stroke:#ffffff;stroke-linecap:round;"/>
     </g>
     <g id="text_57">
      <!-- 0.990 -->
      <g style="fill:#262626;" transform="translate(1154.049062 146.264103)scale(0.11 -0.11)">
       <use xlink:href="#DejaVuSans-48"/>
       <use x="63.623047" xlink:href="#DejaVuSans-46"/>
       <use x="95.410156" xlink:href="#DejaVuSans-57"/>
       <use x="159.033203" xlink:href="#DejaVuSans-57"/>
       <use x="222.65625" xlink:href="#DejaVuSans-48"/>
      </g>
     </g>
    </g>
    <g id="ytick_16">
     <g id="line2d_54">
      <path clip-path="url(#p4aa06ab9b8)" d="M 1195.04 77.043655 
L 1715.04 77.043655 
" style="fill:none;stroke:#ffffff;stroke-linecap:round;"/>
     </g>
     <g id="text_58">
      <!-- 0.995 -->
      <g style="fill:#262626;" transform="translate(1154.049062 81.222795)scale(0.11 -0.11)">
       <use xlink:href="#DejaVuSans-48"/>
       <use x="63.623047" xlink:href="#DejaVuSans-46"/>
       <use x="95.410156" xlink:href="#DejaVuSans-57"/>
       <use x="159.033203" xlink:href="#DejaVuSans-57"/>
       <use x="222.65625" xlink:href="#DejaVuSans-53"/>
      </g>
     </g>
    </g>
   </g>
   <g id="PathCollection_5">
    <g clip-path="url(#p4aa06ab9b8)">
     <use style="fill:#c44e52;stroke:#c44e52;" x="1375.307283" xlink:href="#mbfc089aa12" y="51.027132"/>
    </g>
   </g>
   <g id="PathCollection_6">
    <g clip-path="url(#p4aa06ab9b8)">
     <use style="fill:#c44e52;stroke:#c44e52;" x="1447.598477" xlink:href="#mbfc089aa12" y="51.027132"/>
    </g>
   </g>
   <g id="PathCollection_7">
    <g clip-path="url(#p4aa06ab9b8)">
     <use style="fill:#c44e52;stroke:#c44e52;" x="1507.841138" xlink:href="#mbfc089aa12" y="51.027132"/>
    </g>
   </g>
   <g id="PathCollection_8">
    <g clip-path="url(#p4aa06ab9b8)">
     <use style="fill:#c44e52;stroke:#c44e52;" x="1688.569122" xlink:href="#mbfc089aa12" y="51.027132"/>
    </g>
   </g>
   <g id="PathCollection_9">
    <g clip-path="url(#p4aa06ab9b8)">
     <use style="fill:#c44e52;stroke:#c44e52;" x="1363.258751" xlink:href="#mbfc089aa12" y="506.316284"/>
    </g>
   </g>
   <g id="PathCollection_10">
    <g clip-path="url(#p4aa06ab9b8)">
     <use style="fill:#c44e52;stroke:#c44e52;" x="1399.404348" xlink:href="#mbfc089aa12" y="493.308022"/>
    </g>
   </g>
   <g id="PathCollection_11">
    <g clip-path="url(#p4aa06ab9b8)">
     <use style="fill:#c44e52;stroke:#c44e52;" x="1495.792606" xlink:href="#mbfc089aa12" y="486.803892"/>
    </g>
   </g>
   <g id="PathCollection_12">
    <g clip-path="url(#p4aa06ab9b8)">
     <use style="fill:#c44e52;stroke:#c44e52;" x="1652.423525" xlink:href="#mbfc089aa12" y="458.619325"/>
    </g>
   </g>
   <g id="PathCollection_13">
    <g clip-path="url(#p4aa06ab9b8)">
     <use style="fill:#c44e52;stroke:#c44e52;" x="1278.919025" xlink:href="#mbfc089aa12" y="392.958577"/>
    </g>
   </g>
   <g id="PathCollection_14">
    <g clip-path="url(#p4aa06ab9b8)">
     <use style="fill:#c44e52;stroke:#c44e52;" x="1447.598477" xlink:href="#mbfc089aa12" y="389.241931"/>
    </g>
   </g>
   <g id="PathCollection_15">
    <g clip-path="url(#p4aa06ab9b8)">
     <use style="fill:#c44e52;stroke:#c44e52;" x="1507.841138" xlink:href="#mbfc089aa12" y="381.808638"/>
    </g>
   </g>
   <g id="PathCollection_16">
    <g clip-path="url(#p4aa06ab9b8)">
     <use style="fill:#c44e52;stroke:#c44e52;" x="1664.472057" xlink:href="#mbfc089aa12" y="359.508761"/>
    </g>
   </g>
   <g id="line2d_55">
    <path clip-path="url(#p4aa06ab9b8)" d="M 1218.676364 53.195175 
L 1230.724896 51.027132 
L 1242.773428 51.027132 
L 1254.82196 53.195175 
L 1266.870493 51.027132 
L 1278.919025 53.195175 
L 1290.967557 53.195175 
L 1303.016089 53.195175 
L 1315.064622 51.027132 
L 1327.113154 51.027132 
L 1339.161686 51.027132 
L 1351.210219 51.027132 
L 1363.258751 51.027132 
L 1375.307283 51.027132 
L 1387.355815 53.195175 
L 1399.404348 51.027132 
L 1411.45288 51.027132 
L 1423.501412 51.027132 
L 1435.549944 51.027132 
L 1447.598477 51.027132 
L 1459.647009 51.027132 
L 1471.695541 51.027132 
L 1483.744073 51.027132 
L 1495.792606 51.027132 
L 1507.841138 51.027132 
L 1519.88967 51.027132 
L 1531.938203 51.027132 
L 1543.986735 51.027132 
L 1556.035267 51.027132 
L 1568.083799 51.027132 
L 1580.132332 53.195175 
L 1592.180864 51.027132 
L 1604.229396 51.027132 
L 1616.277928 51.027132 
L 1628.326461 53.195175 
L 1640.374993 51.027132 
L 1652.423525 51.027132 
L 1664.472057 53.195175 
L 1676.52059 51.027132 
L 1688.569122 51.027132 
" style="fill:none;stroke:#4c72b0;stroke-linecap:round;stroke-width:1.5;"/>
   </g>
   <g id="line2d_56">
    <path clip-path="url(#p4aa06ab9b8)" d="M 1218.676364 506.316284 
L 1230.724896 508.484328 
L 1242.773428 519.324545 
L 1254.82196 512.820415 
L 1266.870493 512.820415 
L 1278.919025 512.820415 
L 1290.967557 508.484328 
L 1303.016089 510.652371 
L 1315.064622 512.820415 
L 1327.113154 506.316284 
L 1339.161686 512.820415 
L 1351.210219 508.484328 
L 1363.258751 506.316284 
L 1375.307283 508.484328 
L 1387.355815 508.484328 
L 1399.404348 493.308022 
L 1411.45288 495.476066 
L 1423.501412 495.476066 
L 1435.549944 501.980197 
L 1447.598477 501.980197 
L 1459.647009 486.803892 
L 1471.695541 491.139979 
L 1483.744073 491.139979 
L 1495.792606 486.803892 
L 1507.841138 488.971935 
L 1519.88967 482.467805 
L 1531.938203 465.123456 
L 1543.986735 471.627587 
L 1556.035267 478.131717 
L 1568.083799 465.123456 
L 1580.132332 471.627587 
L 1592.180864 471.627587 
L 1604.229396 471.627587 
L 1616.277928 473.79563 
L 1628.326461 471.627587 
L 1640.374993 467.291499 
L 1652.423525 458.619325 
L 1664.472057 467.291499 
L 1676.52059 473.79563 
L 1688.569122 467.291499 
" style="fill:none;stroke:#dd8452;stroke-linecap:round;stroke-width:1.5;"/>
   </g>
   <g id="line2d_57">
    <path clip-path="url(#p4aa06ab9b8)" d="M 1218.676364 402.250192 
L 1230.724896 405.966838 
L 1242.773428 398.533546 
L 1254.82196 402.250192 
L 1266.870493 404.108515 
L 1278.919025 392.958577 
L 1290.967557 394.8169 
L 1303.016089 396.675223 
L 1315.064622 394.8169 
L 1327.113154 398.533546 
L 1339.161686 402.250192 
L 1351.210219 394.8169 
L 1363.258751 400.391869 
L 1375.307283 402.250192 
L 1387.355815 396.675223 
L 1399.404348 392.958577 
L 1411.45288 394.8169 
L 1423.501412 392.958577 
L 1435.549944 389.241931 
L 1447.598477 389.241931 
L 1459.647009 389.241931 
L 1471.695541 383.666961 
L 1483.744073 391.100254 
L 1495.792606 383.666961 
L 1507.841138 381.808638 
L 1519.88967 381.808638 
L 1531.938203 372.517023 
L 1543.986735 372.517023 
L 1556.035267 372.517023 
L 1568.083799 363.225408 
L 1580.132332 365.083731 
L 1592.180864 361.367084 
L 1604.229396 368.800377 
L 1616.277928 359.508761 
L 1628.326461 363.225408 
L 1640.374993 368.800377 
L 1652.423525 365.083731 
L 1664.472057 359.508761 
L 1676.52059 365.083731 
L 1688.569122 365.083731 
" style="fill:none;stroke:#55a868;stroke-linecap:round;stroke-width:1.5;"/>
   </g>
   <g id="line2d_58">
    <path clip-path="url(#p4aa06ab9b8)" d="M 1218.676364 516.983 
L 1218.676364 53.357 
" style="fill:none;stroke:#1a1a1a;stroke-dasharray:5.55,2.4;stroke-dashoffset:0;stroke-width:1.5;"/>
   </g>
   <g id="line2d_59">
    <path clip-path="url(#p4aa06ab9b8)" d="M 1399.404348 516.983 
L 1399.404348 53.357 
" style="fill:none;stroke:#1a1a1a;stroke-dasharray:5.55,2.4;stroke-dashoffset:0;stroke-width:1.5;"/>
   </g>
   <g id="line2d_60">
    <path clip-path="url(#p4aa06ab9b8)" d="M 1459.647009 516.983 
L 1459.647009 53.357 
" style="fill:none;stroke:#1a1a1a;stroke-dasharray:5.55,2.4;stroke-dashoffset:0;stroke-width:1.5;"/>
   </g>
   <g id="line2d_61">
    <path clip-path="url(#p4aa06ab9b8)" d="M 1519.88967 516.983 
L 1519.88967 53.357 
" style="fill:none;stroke:#1a1a1a;stroke-dasharray:5.55,2.4;stroke-dashoffset:0;stroke-width:1.5;"/>
   </g>
   <g id="patch_15">
    <path d="M 1195.04 542.74 
L 1195.04 27.6 
" style="fill:none;stroke:#ffffff;stroke-linecap:square;stroke-linejoin:miter;stroke-width:1.25;"/>
   </g>
   <g id="patch_16">
    <path d="M 1715.04 542.74 
L 1715.04 27.6 
" style="fill:none;stroke:#ffffff;stroke-linecap:square;stroke-linejoin:miter;stroke-width:1.25;"/>
   </g>
   <g id="patch_17">
    <path d="M 1195.04 542.74 
L 1715.04 542.74 
" style="fill:none;stroke:#ffffff;stroke-linecap:square;stroke-linejoin:miter;stroke-width:1.25;"/>
   </g>
   <g id="patch_18">
    <path d="M 1195.04 27.6 
L 1715.04 27.6 
" style="fill:none;stroke:#ffffff;stroke-linecap:square;stroke-linejoin:miter;stroke-width:1.25;"/>
   </g>
   <g id="text_59">
    <!-- 0.9970 -->
    <g style="fill:#262626;" transform="translate(1348.025692 35.590032)rotate(-330)scale(0.08 -0.08)">
     <use xlink:href="#DejaVuSans-48"/>
     <use x="63.623047" xlink:href="#DejaVuSans-46"/>
     <use x="95.410156" xlink:href="#DejaVuSans-57"/>
     <use x="159.033203" xlink:href="#DejaVuSans-57"/>
     <use x="222.65625" xlink:href="#DejaVuSans-55"/>
     <use x="286.279297" xlink:href="#DejaVuSans-48"/>
    </g>
   </g>
   <g id="text_60">
    <!-- 0.9970 -->
    <g style="fill:#262626;" transform="translate(1420.316886 35.590032)rotate(-330)scale(0.08 -0.08)">
     <use xlink:href="#DejaVuSans-48"/>
     <use x="63.623047" xlink:href="#DejaVuSans-46"/>
     <use x="95.410156" xlink:href="#DejaVuSans-57"/>
     <use x="159.033203" xlink:href="#DejaVuSans-57"/>
     <use x="222.65625" xlink:href="#DejaVuSans-55"/>
     <use x="286.279297" xlink:href="#DejaVuSans-48"/>
    </g>
   </g>
   <g id="text_61">
    <!-- 0.9970 -->
    <g style="fill:#262626;" transform="translate(1480.559547 35.590032)rotate(-330)scale(0.08 -0.08)">
     <use xlink:href="#DejaVuSans-48"/>
     <use x="63.623047" xlink:href="#DejaVuSans-46"/>
     <use x="95.410156" xlink:href="#DejaVuSans-57"/>
     <use x="159.033203" xlink:href="#DejaVuSans-57"/>
     <use x="222.65625" xlink:href="#DejaVuSans-55"/>
     <use x="286.279297" xlink:href="#DejaVuSans-48"/>
    </g>
   </g>
   <g id="text_62">
    <!-- 0.9970 -->
    <g style="fill:#262626;" transform="translate(1661.287531 35.590032)rotate(-330)scale(0.08 -0.08)">
     <use xlink:href="#DejaVuSans-48"/>
     <use x="63.623047" xlink:href="#DejaVuSans-46"/>
     <use x="95.410156" xlink:href="#DejaVuSans-57"/>
     <use x="159.033203" xlink:href="#DejaVuSans-57"/>
     <use x="222.65625" xlink:href="#DejaVuSans-55"/>
     <use x="286.279297" xlink:href="#DejaVuSans-48"/>
    </g>
   </g>
   <g id="text_63">
    <!-- 0.9620 -->
    <g style="fill:#262626;" transform="translate(1335.97716 490.879184)rotate(-330)scale(0.08 -0.08)">
     <use xlink:href="#DejaVuSans-48"/>
     <use x="63.623047" xlink:href="#DejaVuSans-46"/>
     <use x="95.410156" xlink:href="#DejaVuSans-57"/>
     <use x="159.033203" xlink:href="#DejaVuSans-54"/>
     <use x="222.65625" xlink:href="#DejaVuSans-50"/>
     <use x="286.279297" xlink:href="#DejaVuSans-48"/>
    </g>
   </g>
   <g id="text_64">
    <!-- 0.9630 -->
    <g style="fill:#262626;" transform="translate(1372.122757 477.870923)rotate(-330)scale(0.08 -0.08)">
     <use xlink:href="#DejaVuSans-48"/>
     <use x="63.623047" xlink:href="#DejaVuSans-46"/>
     <use x="95.410156" xlink:href="#DejaVuSans-57"/>
     <use x="159.033203" xlink:href="#DejaVuSans-54"/>
     <use x="222.65625" xlink:href="#DejaVuSans-51"/>
     <use x="286.279297" xlink:href="#DejaVuSans-48"/>
    </g>
   </g>
   <g id="text_65">
    <!-- 0.9635 -->
    <g style="fill:#262626;" transform="translate(1468.511015 471.366792)rotate(-330)scale(0.08 -0.08)">
     <use xlink:href="#DejaVuSans-48"/>
     <use x="63.623047" xlink:href="#DejaVuSans-46"/>
     <use x="95.410156" xlink:href="#DejaVuSans-57"/>
     <use x="159.033203" xlink:href="#DejaVuSans-54"/>
     <use x="222.65625" xlink:href="#DejaVuSans-51"/>
     <use x="286.279297" xlink:href="#DejaVuSans-53"/>
    </g>
   </g>
   <g id="text_66">
    <!-- 0.9657 -->
    <g style="fill:#262626;" transform="translate(1625.141934 443.182225)rotate(-330)scale(0.08 -0.08)">
     <use xlink:href="#DejaVuSans-48"/>
     <use x="63.623047" xlink:href="#DejaVuSans-46"/>
     <use x="95.410156" xlink:href="#DejaVuSans-57"/>
     <use x="159.033203" xlink:href="#DejaVuSans-54"/>
     <use x="222.65625" xlink:href="#DejaVuSans-53"/>
     <use x="286.279297" xlink:href="#DejaVuSans-55"/>
    </g>
   </g>
   <g id="text_67">
    <!-- 0.9707 -->
    <g style="fill:#262626;" transform="translate(1251.637434 377.521477)rotate(-330)scale(0.08 -0.08)">
     <use xlink:href="#DejaVuSans-48"/>
     <use x="63.623047" xlink:href="#DejaVuSans-46"/>
     <use x="95.410156" xlink:href="#DejaVuSans-57"/>
     <use x="159.033203" xlink:href="#DejaVuSans-55"/>
     <use x="222.65625" xlink:href="#DejaVuSans-48"/>
     <use x="286.279297" xlink:href="#DejaVuSans-55"/>
    </g>
   </g>
   <g id="text_68">
    <!-- 0.9710 -->
    <g style="fill:#262626;" transform="translate(1420.316886 373.804831)rotate(-330)scale(0.08 -0.08)">
     <use xlink:href="#DejaVuSans-48"/>
     <use x="63.623047" xlink:href="#DejaVuSans-46"/>
     <use x="95.410156" xlink:href="#DejaVuSans-57"/>
     <use x="159.033203" xlink:href="#DejaVuSans-55"/>
     <use x="222.65625" xlink:href="#DejaVuSans-49"/>
     <use x="286.279297" xlink:href="#DejaVuSans-48"/>
    </g>
   </g>
   <g id="text_69">
    <!-- 0.9716 -->
    <g style="fill:#262626;" transform="translate(1480.559547 366.371538)rotate(-330)scale(0.08 -0.08)">
     <use xlink:href="#DejaVuSans-48"/>
     <use x="63.623047" xlink:href="#DejaVuSans-46"/>
     <use x="95.410156" xlink:href="#DejaVuSans-57"/>
     <use x="159.033203" xlink:href="#DejaVuSans-55"/>
     <use x="222.65625" xlink:href="#DejaVuSans-49"/>
     <use x="286.279297" xlink:href="#DejaVuSans-54"/>
    </g>
   </g>
   <g id="text_70">
    <!-- 0.9733 -->
    <g style="fill:#262626;" transform="translate(1637.190466 344.071662)rotate(-330)scale(0.08 -0.08)">
     <use xlink:href="#DejaVuSans-48"/>
     <use x="63.623047" xlink:href="#DejaVuSans-46"/>
     <use x="95.410156" xlink:href="#DejaVuSans-57"/>
     <use x="159.033203" xlink:href="#DejaVuSans-55"/>
     <use x="222.65625" xlink:href="#DejaVuSans-51"/>
     <use x="286.279297" xlink:href="#DejaVuSans-51"/>
    </g>
   </g>
   <g id="text_71">
    <!-- Triplet alpha=0.35 -->
    <g style="fill:#262626;" transform="translate(1230.208388 327.2495)rotate(-270)scale(0.12 -0.12)">
     <use xlink:href="#DejaVuSans-84"/>
     <use x="60.865234" xlink:href="#DejaVuSans-114"/>
     <use x="101.978516" xlink:href="#DejaVuSans-105"/>
     <use x="129.761719" xlink:href="#DejaVuSans-112"/>
     <use x="193.238281" xlink:href="#DejaVuSans-108"/>
     <use x="221.021484" xlink:href="#DejaVuSans-101"/>
     <use x="282.544922" xlink:href="#DejaVuSans-116"/>
     <use x="321.753906" xlink:href="#DejaVuSans-32"/>
     <use x="353.541016" xlink:href="#DejaVuSans-97"/>
     <use x="414.820312" xlink:href="#DejaVuSans-108"/>
     <use x="442.603516" xlink:href="#DejaVuSans-112"/>
     <use x="506.080078" xlink:href="#DejaVuSans-104"/>
     <use x="569.458984" xlink:href="#DejaVuSans-97"/>
     <use x="630.738281" xlink:href="#DejaVuSans-61"/>
     <use x="714.527344" xlink:href="#DejaVuSans-48"/>
     <use x="778.150391" xlink:href="#DejaVuSans-46"/>
     <use x="809.9375" xlink:href="#DejaVuSans-51"/>
     <use x="873.560547" xlink:href="#DejaVuSans-53"/>
    </g>
   </g>
   <g id="text_72">
    <!-- Triplet alpha=0.3 -->
    <g style="fill:#262626;" transform="translate(1404.912106 334.8845)rotate(-270)scale(0.12 -0.12)">
     <use xlink:href="#DejaVuSans-84"/>
     <use x="60.865234" xlink:href="#DejaVuSans-114"/>
     <use x="101.978516" xlink:href="#DejaVuSans-105"/>
     <use x="129.761719" xlink:href="#DejaVuSans-112"/>
     <use x="193.238281" xlink:href="#DejaVuSans-108"/>
     <use x="221.021484" xlink:href="#DejaVuSans-101"/>
     <use x="282.544922" xlink:href="#DejaVuSans-116"/>
     <use x="321.753906" xlink:href="#DejaVuSans-32"/>
     <use x="353.541016" xlink:href="#DejaVuSans-97"/>
     <use x="414.820312" xlink:href="#DejaVuSans-108"/>
     <use x="442.603516" xlink:href="#DejaVuSans-112"/>
     <use x="506.080078" xlink:href="#DejaVuSans-104"/>
     <use x="569.458984" xlink:href="#DejaVuSans-97"/>
     <use x="630.738281" xlink:href="#DejaVuSans-61"/>
     <use x="714.527344" xlink:href="#DejaVuSans-48"/>
     <use x="778.150391" xlink:href="#DejaVuSans-46"/>
     <use x="809.9375" xlink:href="#DejaVuSans-51"/>
    </g>
   </g>
   <g id="text_73">
    <!-- Triplet alpha=0.25 -->
    <g style="fill:#262626;" transform="translate(1465.154767 327.2495)rotate(-270)scale(0.12 -0.12)">
     <use xlink:href="#DejaVuSans-84"/>
     <use x="60.865234" xlink:href="#DejaVuSans-114"/>
     <use x="101.978516" xlink:href="#DejaVuSans-105"/>
     <use x="129.761719" xlink:href="#DejaVuSans-112"/>
     <use x="193.238281" xlink:href="#DejaVuSans-108"/>
     <use x="221.021484" xlink:href="#DejaVuSans-101"/>
     <use x="282.544922" xlink:href="#DejaVuSans-116"/>
     <use x="321.753906" xlink:href="#DejaVuSans-32"/>
     <use x="353.541016" xlink:href="#DejaVuSans-97"/>
     <use x="414.820312" xlink:href="#DejaVuSans-108"/>
     <use x="442.603516" xlink:href="#DejaVuSans-112"/>
     <use x="506.080078" xlink:href="#DejaVuSans-104"/>
     <use x="569.458984" xlink:href="#DejaVuSans-97"/>
     <use x="630.738281" xlink:href="#DejaVuSans-61"/>
     <use x="714.527344" xlink:href="#DejaVuSans-48"/>
     <use x="778.150391" xlink:href="#DejaVuSans-46"/>
     <use x="809.9375" xlink:href="#DejaVuSans-50"/>
     <use x="873.560547" xlink:href="#DejaVuSans-53"/>
    </g>
   </g>
   <g id="text_74">
    <!-- Triplet alpha=0.2 -->
    <g style="fill:#262626;" transform="translate(1531.421694 334.8845)rotate(-270)scale(0.12 -0.12)">
     <use xlink:href="#DejaVuSans-84"/>
     <use x="60.865234" xlink:href="#DejaVuSans-114"/>
     <use x="101.978516" xlink:href="#DejaVuSans-105"/>
     <use x="129.761719" xlink:href="#DejaVuSans-112"/>
     <use x="193.238281" xlink:href="#DejaVuSans-108"/>
     <use x="221.021484" xlink:href="#DejaVuSans-101"/>
     <use x="282.544922" xlink:href="#DejaVuSans-116"/>
     <use x="321.753906" xlink:href="#DejaVuSans-32"/>
     <use x="353.541016" xlink:href="#DejaVuSans-97"/>
     <use x="414.820312" xlink:href="#DejaVuSans-108"/>
     <use x="442.603516" xlink:href="#DejaVuSans-112"/>
     <use x="506.080078" xlink:href="#DejaVuSans-104"/>
     <use x="569.458984" xlink:href="#DejaVuSans-97"/>
     <use x="630.738281" xlink:href="#DejaVuSans-61"/>
     <use x="714.527344" xlink:href="#DejaVuSans-48"/>
     <use x="778.150391" xlink:href="#DejaVuSans-46"/>
     <use x="809.9375" xlink:href="#DejaVuSans-50"/>
    </g>
   </g>
   <g id="text_75">
    <!-- lfw, agedb_30, cfp_fp -->
    <defs>
     <path d="M 37.109375 75.984375 
L 37.109375 68.5 
L 28.515625 68.5 
Q 23.6875 68.5 21.796875 66.546875 
Q 19.921875 64.59375 19.921875 59.515625 
L 19.921875 54.6875 
L 34.71875 54.6875 
L 34.71875 47.703125 
L 19.921875 47.703125 
L 19.921875 0 
L 10.890625 0 
L 10.890625 47.703125 
L 2.296875 47.703125 
L 2.296875 54.6875 
L 10.890625 54.6875 
L 10.890625 58.5 
Q 10.890625 67.625 15.140625 71.796875 
Q 19.390625 75.984375 28.609375 75.984375 
z
" id="DejaVuSans-102"/>
     <path d="M 4.203125 54.6875 
L 13.1875 54.6875 
L 24.421875 12.015625 
L 35.59375 54.6875 
L 46.1875 54.6875 
L 57.421875 12.015625 
L 68.609375 54.6875 
L 77.59375 54.6875 
L 63.28125 0 
L 52.6875 0 
L 40.921875 44.828125 
L 29.109375 0 
L 18.5 0 
z
" id="DejaVuSans-119"/>
     <path d="M 11.71875 12.40625 
L 22.015625 12.40625 
L 22.015625 4 
L 14.015625 -11.625 
L 7.71875 -11.625 
L 11.71875 4 
z
" id="DejaVuSans-44"/>
     <path d="M 45.40625 27.984375 
Q 45.40625 37.75 41.375 43.109375 
Q 37.359375 48.484375 30.078125 48.484375 
Q 22.859375 48.484375 18.828125 43.109375 
Q 14.796875 37.75 14.796875 27.984375 
Q 14.796875 18.265625 18.828125 12.890625 
Q 22.859375 7.515625 30.078125 7.515625 
Q 37.359375 7.515625 41.375 12.890625 
Q 45.40625 18.265625 45.40625 27.984375 
z
M 54.390625 6.78125 
Q 54.390625 -7.171875 48.1875 -13.984375 
Q 42 -20.796875 29.203125 -20.796875 
Q 24.46875 -20.796875 20.265625 -20.09375 
Q 16.0625 -19.390625 12.109375 -17.921875 
L 12.109375 -9.1875 
Q 16.0625 -11.328125 19.921875 -12.34375 
Q 23.78125 -13.375 27.78125 -13.375 
Q 36.625 -13.375 41.015625 -8.765625 
Q 45.40625 -4.15625 45.40625 5.171875 
L 45.40625 9.625 
Q 42.625 4.78125 38.28125 2.390625 
Q 33.9375 0 27.875 0 
Q 17.828125 0 11.671875 7.65625 
Q 5.515625 15.328125 5.515625 27.984375 
Q 5.515625 40.671875 11.671875 48.328125 
Q 17.828125 56 27.875 56 
Q 33.9375 56 38.28125 53.609375 
Q 42.625 51.21875 45.40625 46.390625 
L 45.40625 54.6875 
L 54.390625 54.6875 
z
" id="DejaVuSans-103"/>
     <path d="M 45.40625 46.390625 
L 45.40625 75.984375 
L 54.390625 75.984375 
L 54.390625 0 
L 45.40625 0 
L 45.40625 8.203125 
Q 42.578125 3.328125 38.25 0.953125 
Q 33.9375 -1.421875 27.875 -1.421875 
Q 17.96875 -1.421875 11.734375 6.484375 
Q 5.515625 14.40625 5.515625 27.296875 
Q 5.515625 40.1875 11.734375 48.09375 
Q 17.96875 56 27.875 56 
Q 33.9375 56 38.25 53.625 
Q 42.578125 51.265625 45.40625 46.390625 
z
M 14.796875 27.296875 
Q 14.796875 17.390625 18.875 11.75 
Q 22.953125 6.109375 30.078125 6.109375 
Q 37.203125 6.109375 41.296875 11.75 
Q 45.40625 17.390625 45.40625 27.296875 
Q 45.40625 37.203125 41.296875 42.84375 
Q 37.203125 48.484375 30.078125 48.484375 
Q 22.953125 48.484375 18.875 42.84375 
Q 14.796875 37.203125 14.796875 27.296875 
z
" id="DejaVuSans-100"/>
     <path d="M 48.6875 27.296875 
Q 48.6875 37.203125 44.609375 42.84375 
Q 40.53125 48.484375 33.40625 48.484375 
Q 26.265625 48.484375 22.1875 42.84375 
Q 18.109375 37.203125 18.109375 27.296875 
Q 18.109375 17.390625 22.1875 11.75 
Q 26.265625 6.109375 33.40625 6.109375 
Q 40.53125 6.109375 44.609375 11.75 
Q 48.6875 17.390625 48.6875 27.296875 
z
M 18.109375 46.390625 
Q 20.953125 51.265625 25.265625 53.625 
Q 29.59375 56 35.59375 56 
Q 45.5625 56 51.78125 48.09375 
Q 58.015625 40.1875 58.015625 27.296875 
Q 58.015625 14.40625 51.78125 6.484375 
Q 45.5625 -1.421875 35.59375 -1.421875 
Q 29.59375 -1.421875 25.265625 0.953125 
Q 20.953125 3.328125 18.109375 8.203125 
L 18.109375 0 
L 9.078125 0 
L 9.078125 75.984375 
L 18.109375 75.984375 
z
" id="DejaVuSans-98"/>
     <path d="M 50.984375 -16.609375 
L 50.984375 -23.578125 
L -0.984375 -23.578125 
L -0.984375 -16.609375 
z
" id="DejaVuSans-95"/>
    </defs>
    <g style="fill:#262626;" transform="translate(1391.155 21.6)scale(0.12 -0.12)">
     <use xlink:href="#DejaVuSans-108"/>
     <use x="27.783203" xlink:href="#DejaVuSans-102"/>
     <use x="62.972656" xlink:href="#DejaVuSans-119"/>
     <use x="144.759766" xlink:href="#DejaVuSans-44"/>
     <use x="176.546875" xlink:href="#DejaVuSans-32"/>
     <use x="208.333984" xlink:href="#DejaVuSans-97"/>
     <use x="269.613281" xlink:href="#DejaVuSans-103"/>
     <use x="333.089844" xlink:href="#DejaVuSans-101"/>
     <use x="394.613281" xlink:href="#DejaVuSans-100"/>
     <use x="458.089844" xlink:href="#DejaVuSans-98"/>
     <use x="521.566406" xlink:href="#DejaVuSans-95"/>
     <use x="571.566406" xlink:href="#DejaVuSans-51"/>
     <use x="635.189453" xlink:href="#DejaVuSans-48"/>
     <use x="698.8125" xlink:href="#DejaVuSans-44"/>
     <use x="730.599609" xlink:href="#DejaVuSans-32"/>
     <use x="762.386719" xlink:href="#DejaVuSans-99"/>
     <use x="817.367188" xlink:href="#DejaVuSans-102"/>
     <use x="852.572266" xlink:href="#DejaVuSans-112"/>
     <use x="916.048828" xlink:href="#DejaVuSans-95"/>
     <use x="966.048828" xlink:href="#DejaVuSans-102"/>
     <use x="1001.253906" xlink:href="#DejaVuSans-112"/>
    </g>
   </g>
   <g id="legend_3">
    <g id="patch_19">
     <path d="M 1553.825 538.74 
L 1709.44 538.74 
Q 1711.04 538.74 1711.04 537.14 
L 1711.04 502.2675 
Q 1711.04 500.6675 1709.44 500.6675 
L 1553.825 500.6675 
Q 1552.225 500.6675 1552.225 502.2675 
L 1552.225 537.14 
Q 1552.225 538.74 1553.825 538.74 
z
" style="fill:#eaeaf2;opacity:0.8;stroke:#cccccc;stroke-linejoin:miter;"/>
    </g>
    <g id="line2d_62">
     <path d="M 1555.425 507.14625 
L 1571.425 507.14625 
" style="fill:none;stroke:#4c72b0;stroke-linecap:round;stroke-width:1.5;"/>
    </g>
    <g id="line2d_63"/>
    <g id="text_76">
     <!-- lfw - ResNet101V2 Triplet -->
     <defs>
      <path d="M 4.890625 31.390625 
L 31.203125 31.390625 
L 31.203125 23.390625 
L 4.890625 23.390625 
z
" id="DejaVuSans-45"/>
     </defs>
     <g style="fill:#262626;" transform="translate(1577.825 509.94625)scale(0.08 -0.08)">
      <use xlink:href="#DejaVuSans-108"/>
      <use x="27.783203" xlink:href="#DejaVuSans-102"/>
      <use x="62.972656" xlink:href="#DejaVuSans-119"/>
      <use x="144.759766" xlink:href="#DejaVuSans-32"/>
      <use x="176.546875" xlink:href="#DejaVuSans-45"/>
      <use x="212.630859" xlink:href="#DejaVuSans-32"/>
      <use x="244.417969" xlink:href="#DejaVuSans-82"/>
      <use x="313.837891" xlink:href="#DejaVuSans-101"/>
      <use x="375.361328" xlink:href="#DejaVuSans-115"/>
      <use x="427.460938" xlink:href="#DejaVuSans-78"/>
      <use x="502.265625" xlink:href="#DejaVuSans-101"/>
      <use x="563.789062" xlink:href="#DejaVuSans-116"/>
      <use x="602.998047" xlink:href="#DejaVuSans-49"/>
      <use x="666.621094" xlink:href="#DejaVuSans-48"/>
      <use x="730.244141" xlink:href="#DejaVuSans-49"/>
      <use x="793.867188" xlink:href="#DejaVuSans-86"/>
      <use x="862.275391" xlink:href="#DejaVuSans-50"/>
      <use x="925.898438" xlink:href="#DejaVuSans-32"/>
      <use x="957.685547" xlink:href="#DejaVuSans-84"/>
      <use x="1018.550781" xlink:href="#DejaVuSans-114"/>
      <use x="1059.664062" xlink:href="#DejaVuSans-105"/>
      <use x="1087.447266" xlink:href="#DejaVuSans-112"/>
      <use x="1150.923828" xlink:href="#DejaVuSans-108"/>
      <use x="1178.707031" xlink:href="#DejaVuSans-101"/>
      <use x="1240.230469" xlink:href="#DejaVuSans-116"/>
     </g>
    </g>
    <g id="line2d_64">
     <path d="M 1555.425 518.88875 
L 1571.425 518.88875 
" style="fill:none;stroke:#dd8452;stroke-linecap:round;stroke-width:1.5;"/>
    </g>
    <g id="line2d_65"/>
    <g id="text_77">
     <!-- agedb_30 - ResNet101V2 Triplet -->
     <g style="fill:#262626;" transform="translate(1577.825 521.68875)scale(0.08 -0.08)">
      <use xlink:href="#DejaVuSans-97"/>
      <use x="61.279297" xlink:href="#DejaVuSans-103"/>
      <use x="124.755859" xlink:href="#DejaVuSans-101"/>
      <use x="186.279297" xlink:href="#DejaVuSans-100"/>
      <use x="249.755859" xlink:href="#DejaVuSans-98"/>
      <use x="313.232422" xlink:href="#DejaVuSans-95"/>
      <use x="363.232422" xlink:href="#DejaVuSans-51"/>
      <use x="426.855469" xlink:href="#DejaVuSans-48"/>
      <use x="490.478516" xlink:href="#DejaVuSans-32"/>
      <use x="522.265625" xlink:href="#DejaVuSans-45"/>
      <use x="558.349609" xlink:href="#DejaVuSans-32"/>
      <use x="590.136719" xlink:href="#DejaVuSans-82"/>
      <use x="659.556641" xlink:href="#DejaVuSans-101"/>
      <use x="721.080078" xlink:href="#DejaVuSans-115"/>
      <use x="773.179688" xlink:href="#DejaVuSans-78"/>
      <use x="847.984375" xlink:href="#DejaVuSans-101"/>
      <use x="909.507812" xlink:href="#DejaVuSans-116"/>
      <use x="948.716797" xlink:href="#DejaVuSans-49"/>
      <use x="1012.339844" xlink:href="#DejaVuSans-48"/>
      <use x="1075.962891" xlink:href="#DejaVuSans-49"/>
      <use x="1139.585938" xlink:href="#DejaVuSans-86"/>
      <use x="1207.994141" xlink:href="#DejaVuSans-50"/>
      <use x="1271.617188" xlink:href="#DejaVuSans-32"/>
      <use x="1303.404297" xlink:href="#DejaVuSans-84"/>
      <use x="1364.269531" xlink:href="#DejaVuSans-114"/>
      <use x="1405.382812" xlink:href="#DejaVuSans-105"/>
      <use x="1433.166016" xlink:href="#DejaVuSans-112"/>
      <use x="1496.642578" xlink:href="#DejaVuSans-108"/>
      <use x="1524.425781" xlink:href="#DejaVuSans-101"/>
      <use x="1585.949219" xlink:href="#DejaVuSans-116"/>
     </g>
    </g>
    <g id="line2d_66">
     <path d="M 1555.425 530.85375 
L 1571.425 530.85375 
" style="fill:none;stroke:#55a868;stroke-linecap:round;stroke-width:1.5;"/>
    </g>
    <g id="line2d_67"/>
    <g id="text_78">
     <!-- cfp_fp - ResNet101V2 Triplet -->
     <g style="fill:#262626;" transform="translate(1577.825 533.65375)scale(0.08 -0.08)">
      <use xlink:href="#DejaVuSans-99"/>
      <use x="54.980469" xlink:href="#DejaVuSans-102"/>
      <use x="90.185547" xlink:href="#DejaVuSans-112"/>
      <use x="153.662109" xlink:href="#DejaVuSans-95"/>
      <use x="203.662109" xlink:href="#DejaVuSans-102"/>
      <use x="238.867188" xlink:href="#DejaVuSans-112"/>
      <use x="302.34375" xlink:href="#DejaVuSans-32"/>
      <use x="334.130859" xlink:href="#DejaVuSans-45"/>
      <use x="370.214844" xlink:href="#DejaVuSans-32"/>
      <use x="402.001953" xlink:href="#DejaVuSans-82"/>
      <use x="471.421875" xlink:href="#DejaVuSans-101"/>
      <use x="532.945312" xlink:href="#DejaVuSans-115"/>
      <use x="585.044922" xlink:href="#DejaVuSans-78"/>
      <use x="659.849609" xlink:href="#DejaVuSans-101"/>
      <use x="721.373047" xlink:href="#DejaVuSans-116"/>
      <use x="760.582031" xlink:href="#DejaVuSans-49"/>
      <use x="824.205078" xlink:href="#DejaVuSans-48"/>
      <use x="887.828125" xlink:href="#DejaVuSans-49"/>
      <use x="951.451172" xlink:href="#DejaVuSans-86"/>
      <use x="1019.859375" xlink:href="#DejaVuSans-50"/>
      <use x="1083.482422" xlink:href="#DejaVuSans-32"/>
      <use x="1115.269531" xlink:href="#DejaVuSans-84"/>
      <use x="1176.134766" xlink:href="#DejaVuSans-114"/>
      <use x="1217.248047" xlink:href="#DejaVuSans-105"/>
      <use x="1245.03125" xlink:href="#DejaVuSans-112"/>
      <use x="1308.507812" xlink:href="#DejaVuSans-108"/>
      <use x="1336.291016" xlink:href="#DejaVuSans-101"/>
      <use x="1397.814453" xlink:href="#DejaVuSans-116"/>
     </g>
    </g>
   </g>
  </g>
 </g>
 <defs>
  <clipPath id="p9c1231eb5d">
   <rect height="515.14" width="520" x="46.94" y="27.6"/>
  </clipPath>
  <clipPath id="p323377a674">
   <rect height="515.14" width="520" x="620.99" y="27.6"/>
  </clipPath>
  <clipPath id="p4aa06ab9b8">
   <rect height="515.14" width="520" x="1195.04" y="27.6"/>
  </clipPath>
 </defs>
</svg>
