<?xml version="1.0" encoding="utf-8" standalone="no"?>
<!DOCTYPE svg PUBLIC "-//W3C//DTD SVG 1.1//EN"
  "http://www.w3.org/Graphics/SVG/1.1/DTD/svg11.dtd">
<!-- Created with matplotlib (https://matplotlib.org/) -->
<svg height="360pt" version="1.1" viewBox="0 0 1080 360" width="1080pt" xmlns="http://www.w3.org/2000/svg" xmlns:xlink="http://www.w3.org/1999/xlink">
 <defs>
  <style type="text/css">
*{stroke-linecap:butt;stroke-linejoin:round;}
  </style>
 </defs>
 <g id="figure_1">
  <g id="patch_1">
   <path d="M 0 360 
L 1080 360 
L 1080 0 
L 0 0 
z
" style="fill:#ffffff;"/>
  </g>
  <g id="axes_1">
   <g id="patch_2">
    <path d="M 46.94 326.74 
L 351 326.74 
L 351 27.6 
L 46.94 27.6 
z
" style="fill:#eaeaf2;"/>
   </g>
   <g id="matplotlib.axis_1">
    <g id="xtick_1">
     <g id="line2d_1">
      <path clip-path="url(#pc37082fbb9)" d="M 89.111492 326.74 
L 89.111492 27.6 
" style="fill:none;stroke:#ffffff;stroke-linecap:round;"/>
     </g>
     <g id="text_1">
      <!-- 99 -->
      <defs>
       <path d="M 10.984375 1.515625 
L 10.984375 10.5 
Q 14.703125 8.734375 18.5 7.8125 
Q 22.3125 6.890625 25.984375 6.890625 
Q 35.75 6.890625 40.890625 13.453125 
Q 46.046875 20.015625 46.78125 33.40625 
Q 43.953125 29.203125 39.59375 26.953125 
Q 35.25 24.703125 29.984375 24.703125 
Q 19.046875 24.703125 12.671875 31.3125 
Q 6.296875 37.9375 6.296875 49.421875 
Q 6.296875 60.640625 12.9375 67.421875 
Q 19.578125 74.21875 30.609375 74.21875 
Q 43.265625 74.21875 49.921875 64.515625 
Q 56.59375 54.828125 56.59375 36.375 
Q 56.59375 19.140625 48.40625 8.859375 
Q 40.234375 -1.421875 26.421875 -1.421875 
Q 22.703125 -1.421875 18.890625 -0.6875 
Q 15.09375 0.046875 10.984375 1.515625 
z
M 30.609375 32.421875 
Q 37.25 32.421875 41.125 36.953125 
Q 45.015625 41.5 45.015625 49.421875 
Q 45.015625 57.28125 41.125 61.84375 
Q 37.25 66.40625 30.609375 66.40625 
Q 23.96875 66.40625 20.09375 61.84375 
Q 16.21875 57.28125 16.21875 49.421875 
Q 16.21875 41.5 20.09375 36.953125 
Q 23.96875 32.421875 30.609375 32.421875 
z
" id="DejaVuSans-57"/>
      </defs>
      <g style="fill:#262626;" transform="translate(82.112742 344.598281)scale(0.11 -0.11)">
       <use xlink:href="#DejaVuSans-57"/>
       <use x="63.623047" xlink:href="#DejaVuSans-57"/>
      </g>
     </g>
    </g>
    <g id="xtick_2">
     <g id="line2d_2">
      <path clip-path="url(#pc37082fbb9)" d="M 152.900303 326.74 
L 152.900303 27.6 
" style="fill:none;stroke:#ffffff;stroke-linecap:round;"/>
     </g>
     <g id="text_2">
      <!-- 108 -->
      <defs>
       <path d="M 12.40625 8.296875 
L 28.515625 8.296875 
L 28.515625 63.921875 
L 10.984375 60.40625 
L 10.984375 69.390625 
L 28.421875 72.90625 
L 38.28125 72.90625 
L 38.28125 8.296875 
L 54.390625 8.296875 
L 54.390625 0 
L 12.40625 0 
z
" id="DejaVuSans-49"/>
       <path d="M 31.78125 66.40625 
Q 24.171875 66.40625 20.328125 58.90625 
Q 16.5 51.421875 16.5 36.375 
Q 16.5 21.390625 20.328125 13.890625 
Q 24.171875 6.390625 31.78125 6.390625 
Q 39.453125 6.390625 43.28125 13.890625 
Q 47.125 21.390625 47.125 36.375 
Q 47.125 51.421875 43.28125 58.90625 
Q 39.453125 66.40625 31.78125 66.40625 
z
M 31.78125 74.21875 
Q 44.046875 74.21875 50.515625 64.515625 
Q 56.984375 54.828125 56.984375 36.375 
Q 56.984375 17.96875 50.515625 8.265625 
Q 44.046875 -1.421875 31.78125 -1.421875 
Q 19.53125 -1.421875 13.0625 8.265625 
Q 6.59375 17.96875 6.59375 36.375 
Q 6.59375 54.828125 13.0625 64.515625 
Q 19.53125 74.21875 31.78125 74.21875 
z
" id="DejaVuSans-48"/>
       <path d="M 31.78125 34.625 
Q 24.75 34.625 20.71875 30.859375 
Q 16.703125 27.09375 16.703125 20.515625 
Q 16.703125 13.921875 20.71875 10.15625 
Q 24.75 6.390625 31.78125 6.390625 
Q 38.8125 6.390625 42.859375 10.171875 
Q 46.921875 13.96875 46.921875 20.515625 
Q 46.921875 27.09375 42.890625 30.859375 
Q 38.875 34.625 31.78125 34.625 
z
M 21.921875 38.8125 
Q 15.578125 40.375 12.03125 44.71875 
Q 8.5 49.078125 8.5 55.328125 
Q 8.5 64.0625 14.71875 69.140625 
Q 20.953125 74.21875 31.78125 74.21875 
Q 42.671875 74.21875 48.875 69.140625 
Q 55.078125 64.0625 55.078125 55.328125 
Q 55.078125 49.078125 51.53125 44.71875 
Q 48 40.375 41.703125 38.8125 
Q 48.828125 37.15625 52.796875 32.3125 
Q 56.78125 27.484375 56.78125 20.515625 
Q 56.78125 9.90625 50.3125 4.234375 
Q 43.84375 -1.421875 31.78125 -1.421875 
Q 19.734375 -1.421875 13.25 4.234375 
Q 6.78125 9.90625 6.78125 20.515625 
Q 6.78125 27.484375 10.78125 32.3125 
Q 14.796875 37.15625 21.921875 38.8125 
z
M 18.3125 54.390625 
Q 18.3125 48.734375 21.84375 45.5625 
Q 25.390625 42.390625 31.78125 42.390625 
Q 38.140625 42.390625 41.71875 45.5625 
Q 45.3125 48.734375 45.3125 54.390625 
Q 45.3125 60.0625 41.71875 63.234375 
Q 38.140625 66.40625 31.78125 66.40625 
Q 25.390625 66.40625 21.84375 63.234375 
Q 18.3125 60.0625 18.3125 54.390625 
z
" id="DejaVuSans-56"/>
      </defs>
      <g style="fill:#262626;" transform="translate(142.402178 344.598281)scale(0.11 -0.11)">
       <use xlink:href="#DejaVuSans-49"/>
       <use x="63.623047" xlink:href="#DejaVuSans-48"/>
       <use x="127.246094" xlink:href="#DejaVuSans-56"/>
      </g>
     </g>
    </g>
    <g id="xtick_3">
     <g id="line2d_3">
      <path clip-path="url(#pc37082fbb9)" d="M 216.689114 326.74 
L 216.689114 27.6 
" style="fill:none;stroke:#ffffff;stroke-linecap:round;"/>
     </g>
     <g id="text_3">
      <!-- 117 -->
      <defs>
       <path d="M 8.203125 72.90625 
L 55.078125 72.90625 
L 55.078125 68.703125 
L 28.609375 0 
L 18.3125 0 
L 43.21875 64.59375 
L 8.203125 64.59375 
z
" id="DejaVuSans-55"/>
      </defs>
      <g style="fill:#262626;" transform="translate(206.190989 344.598281)scale(0.11 -0.11)">
       <use xlink:href="#DejaVuSans-49"/>
       <use x="63.623047" xlink:href="#DejaVuSans-49"/>
       <use x="127.246094" xlink:href="#DejaVuSans-55"/>
      </g>
     </g>
    </g>
    <g id="xtick_4">
     <g id="line2d_4">
      <path clip-path="url(#pc37082fbb9)" d="M 280.477925 326.74 
L 280.477925 27.6 
" style="fill:none;stroke:#ffffff;stroke-linecap:round;"/>
     </g>
     <g id="text_4">
      <!-- 126 -->
      <defs>
       <path d="M 19.1875 8.296875 
L 53.609375 8.296875 
L 53.609375 0 
L 7.328125 0 
L 7.328125 8.296875 
Q 12.9375 14.109375 22.625 23.890625 
Q 32.328125 33.6875 34.8125 36.53125 
Q 39.546875 41.84375 41.421875 45.53125 
Q 43.3125 49.21875 43.3125 52.78125 
Q 43.3125 58.59375 39.234375 62.25 
Q 35.15625 65.921875 28.609375 65.921875 
Q 23.96875 65.921875 18.8125 64.3125 
Q 13.671875 62.703125 7.8125 59.421875 
L 7.8125 69.390625 
Q 13.765625 71.78125 18.9375 73 
Q 24.125 74.21875 28.421875 74.21875 
Q 39.75 74.21875 46.484375 68.546875 
Q 53.21875 62.890625 53.21875 53.421875 
Q 53.21875 48.921875 51.53125 44.890625 
Q 49.859375 40.875 45.40625 35.40625 
Q 44.1875 33.984375 37.640625 27.21875 
Q 31.109375 20.453125 19.1875 8.296875 
z
" id="DejaVuSans-50"/>
       <path d="M 33.015625 40.375 
Q 26.375 40.375 22.484375 35.828125 
Q 18.609375 31.296875 18.609375 23.390625 
Q 18.609375 15.53125 22.484375 10.953125 
Q 26.375 6.390625 33.015625 6.390625 
Q 39.65625 6.390625 43.53125 10.953125 
Q 47.40625 15.53125 47.40625 23.390625 
Q 47.40625 31.296875 43.53125 35.828125 
Q 39.65625 40.375 33.015625 40.375 
z
M 52.59375 71.296875 
L 52.59375 62.3125 
Q 48.875 64.0625 45.09375 64.984375 
Q 41.3125 65.921875 37.59375 65.921875 
Q 27.828125 65.921875 22.671875 59.328125 
Q 17.53125 52.734375 16.796875 39.40625 
Q 19.671875 43.65625 24.015625 45.921875 
Q 28.375 48.1875 33.59375 48.1875 
Q 44.578125 48.1875 50.953125 41.515625 
Q 57.328125 34.859375 57.328125 23.390625 
Q 57.328125 12.15625 50.6875 5.359375 
Q 44.046875 -1.421875 33.015625 -1.421875 
Q 20.359375 -1.421875 13.671875 8.265625 
Q 6.984375 17.96875 6.984375 36.375 
Q 6.984375 53.65625 15.1875 63.9375 
Q 23.390625 74.21875 37.203125 74.21875 
Q 40.921875 74.21875 44.703125 73.484375 
Q 48.484375 72.75 52.59375 71.296875 
z
" id="DejaVuSans-54"/>
      </defs>
      <g style="fill:#262626;" transform="translate(269.9798 344.598281)scale(0.11 -0.11)">
       <use xlink:href="#DejaVuSans-49"/>
       <use x="63.623047" xlink:href="#DejaVuSans-50"/>
       <use x="127.246094" xlink:href="#DejaVuSans-54"/>
      </g>
     </g>
    </g>
   </g>
   <g id="matplotlib.axis_2">
    <g id="ytick_1">
     <g id="line2d_5">
      <path clip-path="url(#pc37082fbb9)" d="M 46.94 271.599093 
L 351 271.599093 
" style="fill:none;stroke:#ffffff;stroke-linecap:round;"/>
     </g>
     <g id="text_5">
      <!-- 0.04 -->
      <defs>
       <path d="M 10.6875 12.40625 
L 21 12.40625 
L 21 0 
L 10.6875 0 
z
" id="DejaVuSans-46"/>
       <path d="M 37.796875 64.3125 
L 12.890625 25.390625 
L 37.796875 25.390625 
z
M 35.203125 72.90625 
L 47.609375 72.90625 
L 47.609375 25.390625 
L 58.015625 25.390625 
L 58.015625 17.1875 
L 47.609375 17.1875 
L 47.609375 0 
L 37.796875 0 
L 37.796875 17.1875 
L 4.890625 17.1875 
L 4.890625 26.703125 
z
" id="DejaVuSans-52"/>
      </defs>
      <g style="fill:#262626;" transform="translate(12.947813 275.778234)scale(0.11 -0.11)">
       <use xlink:href="#DejaVuSans-48"/>
       <use x="63.623047" xlink:href="#DejaVuSans-46"/>
       <use x="95.410156" xlink:href="#DejaVuSans-48"/>
       <use x="159.033203" xlink:href="#DejaVuSans-52"/>
      </g>
     </g>
    </g>
    <g id="ytick_2">
     <g id="line2d_6">
      <path clip-path="url(#pc37082fbb9)" d="M 46.94 210.035499 
L 351 210.035499 
" style="fill:none;stroke:#ffffff;stroke-linecap:round;"/>
     </g>
     <g id="text_6">
      <!-- 0.06 -->
      <g style="fill:#262626;" transform="translate(12.947813 214.214639)scale(0.11 -0.11)">
       <use xlink:href="#DejaVuSans-48"/>
       <use x="63.623047" xlink:href="#DejaVuSans-46"/>
       <use x="95.410156" xlink:href="#DejaVuSans-48"/>
       <use x="159.033203" xlink:href="#DejaVuSans-54"/>
      </g>
     </g>
    </g>
    <g id="ytick_3">
     <g id="line2d_7">
      <path clip-path="url(#pc37082fbb9)" d="M 46.94 148.471904 
L 351 148.471904 
" style="fill:none;stroke:#ffffff;stroke-linecap:round;"/>
     </g>
     <g id="text_7">
      <!-- 0.08 -->
      <g style="fill:#262626;" transform="translate(12.947813 152.651045)scale(0.11 -0.11)">
       <use xlink:href="#DejaVuSans-48"/>
       <use x="63.623047" xlink:href="#DejaVuSans-46"/>
       <use x="95.410156" xlink:href="#DejaVuSans-48"/>
       <use x="159.033203" xlink:href="#DejaVuSans-56"/>
      </g>
     </g>
    </g>
    <g id="ytick_4">
     <g id="line2d_8">
      <path clip-path="url(#pc37082fbb9)" d="M 46.94 86.908309 
L 351 86.908309 
" style="fill:none;stroke:#ffffff;stroke-linecap:round;"/>
     </g>
     <g id="text_8">
      <!-- 0.10 -->
      <g style="fill:#262626;" transform="translate(12.947813 91.08745)scale(0.11 -0.11)">
       <use xlink:href="#DejaVuSans-48"/>
       <use x="63.623047" xlink:href="#DejaVuSans-46"/>
       <use x="95.410156" xlink:href="#DejaVuSans-49"/>
       <use x="159.033203" xlink:href="#DejaVuSans-48"/>
      </g>
     </g>
    </g>
   </g>
   <g id="PathCollection_1">
    <defs>
     <path d="M -0 3 
L 3 -3 
L -3 -3 
z
" id="m36ed339dcf" style="stroke:#c44e52;"/>
    </defs>
    <g clip-path="url(#pc37082fbb9)">
     <use style="fill:#c44e52;stroke:#c44e52;" x="159.987949" xlink:href="#m36ed339dcf" y="57.831903"/>
    </g>
   </g>
   <g id="PathCollection_2">
    <g clip-path="url(#pc37082fbb9)">
     <use style="fill:#c44e52;stroke:#c44e52;" x="188.338531" xlink:href="#m36ed339dcf" y="166.438857"/>
    </g>
   </g>
   <g id="PathCollection_3">
    <g clip-path="url(#pc37082fbb9)">
     <use style="fill:#c44e52;stroke:#c44e52;" x="223.77676" xlink:href="#m36ed339dcf" y="247.897227"/>
    </g>
   </g>
   <g id="PathCollection_4">
    <g clip-path="url(#pc37082fbb9)">
     <use style="fill:#c44e52;stroke:#c44e52;" x="315.916154" xlink:href="#m36ed339dcf" y="310.831576"/>
    </g>
   </g>
   <g id="line2d_9">
    <path clip-path="url(#pc37082fbb9)" d="M 60.760909 41.197273 
L 67.848555 48.35266 
L 74.9362 50.599961 
L 82.023846 51.870724 
L 89.111492 52.730964 
L 96.199138 53.904141 
L 103.286783 54.440504 
L 110.374429 54.765918 
L 117.462075 55.566116 
L 124.54972 55.92561 
L 131.637366 56.593661 
L 138.725012 56.790895 
L 145.812657 57.216669 
L 152.900303 57.639393 
L 159.987949 57.831903 
L 167.075594 165.53213 
L 174.16324 165.853347 
L 181.250886 165.971229 
L 188.338531 166.438857 
L 195.426177 166.345745 
L 202.513823 247.158378 
L 209.601469 247.470673 
L 216.689114 247.594839 
L 223.77676 247.897227 
L 230.864406 247.774265 
L 237.952051 304.235257 
L 245.039697 304.353317 
L 252.127343 304.42072 
L 259.214988 304.626973 
L 266.302634 304.863918 
L 273.39028 310.206234 
L 280.477925 310.175623 
L 287.565571 310.431959 
L 294.653217 310.348226 
L 301.740862 310.385758 
L 308.828508 310.50603 
L 315.916154 310.831576 
L 323.0038 310.636412 
L 330.091445 310.817059 
L 337.179091 310.580624 
" style="fill:none;stroke:#4c72b0;stroke-linecap:round;stroke-width:1.5;"/>
   </g>
   <g id="line2d_10">
    <path clip-path="url(#pc37082fbb9)" d="M 60.760909 311.783 
L 60.760909 42.557 
" style="fill:none;stroke:#1a1a1a;stroke-dasharray:5.55,2.4;stroke-dashoffset:0;stroke-width:1.5;"/>
   </g>
   <g id="line2d_11">
    <path clip-path="url(#pc37082fbb9)" d="M 167.075594 311.783 
L 167.075594 42.557 
" style="fill:none;stroke:#1a1a1a;stroke-dasharray:5.55,2.4;stroke-dashoffset:0;stroke-width:1.5;"/>
   </g>
   <g id="line2d_12">
    <path clip-path="url(#pc37082fbb9)" d="M 202.513823 311.783 
L 202.513823 42.557 
" style="fill:none;stroke:#1a1a1a;stroke-dasharray:5.55,2.4;stroke-dashoffset:0;stroke-width:1.5;"/>
   </g>
   <g id="line2d_13">
    <path clip-path="url(#pc37082fbb9)" d="M 237.952051 311.783 
L 237.952051 42.557 
" style="fill:none;stroke:#1a1a1a;stroke-dasharray:5.55,2.4;stroke-dashoffset:0;stroke-width:1.5;"/>
   </g>
   <g id="patch_3">
    <path d="M 46.94 326.74 
L 46.94 27.6 
" style="fill:none;stroke:#ffffff;stroke-linecap:square;stroke-linejoin:miter;stroke-width:1.25;"/>
   </g>
   <g id="patch_4">
    <path d="M 351 326.74 
L 351 27.6 
" style="fill:none;stroke:#ffffff;stroke-linecap:square;stroke-linejoin:miter;stroke-width:1.25;"/>
   </g>
   <g id="patch_5">
    <path d="M 46.94 326.74 
L 351 326.74 
" style="fill:none;stroke:#ffffff;stroke-linecap:square;stroke-linejoin:miter;stroke-width:1.25;"/>
   </g>
   <g id="patch_6">
    <path d="M 46.94 27.6 
L 351 27.6 
" style="fill:none;stroke:#ffffff;stroke-linecap:square;stroke-linejoin:miter;stroke-width:1.25;"/>
   </g>
   <g id="text_9">
    <!-- 0.1094 -->
    <g style="fill:#262626;" transform="translate(132.706358 42.394803)rotate(-330)scale(0.08 -0.08)">
     <use xlink:href="#DejaVuSans-48"/>
     <use x="63.623047" xlink:href="#DejaVuSans-46"/>
     <use x="95.410156" xlink:href="#DejaVuSans-49"/>
     <use x="159.033203" xlink:href="#DejaVuSans-48"/>
     <use x="222.65625" xlink:href="#DejaVuSans-57"/>
     <use x="286.279297" xlink:href="#DejaVuSans-52"/>
    </g>
   </g>
   <g id="text_10">
    <!-- 0.0742 -->
    <g style="fill:#262626;" transform="translate(161.05694 151.001758)rotate(-330)scale(0.08 -0.08)">
     <use xlink:href="#DejaVuSans-48"/>
     <use x="63.623047" xlink:href="#DejaVuSans-46"/>
     <use x="95.410156" xlink:href="#DejaVuSans-48"/>
     <use x="159.033203" xlink:href="#DejaVuSans-55"/>
     <use x="222.65625" xlink:href="#DejaVuSans-52"/>
     <use x="286.279297" xlink:href="#DejaVuSans-50"/>
    </g>
   </g>
   <g id="text_11">
    <!-- 0.0477 -->
    <g style="fill:#262626;" transform="translate(196.495169 232.460127)rotate(-330)scale(0.08 -0.08)">
     <use xlink:href="#DejaVuSans-48"/>
     <use x="63.623047" xlink:href="#DejaVuSans-46"/>
     <use x="95.410156" xlink:href="#DejaVuSans-48"/>
     <use x="159.033203" xlink:href="#DejaVuSans-52"/>
     <use x="222.65625" xlink:href="#DejaVuSans-55"/>
     <use x="286.279297" xlink:href="#DejaVuSans-55"/>
    </g>
   </g>
   <g id="text_12">
    <!-- 0.0273 -->
    <defs>
     <path d="M 40.578125 39.3125 
Q 47.65625 37.796875 51.625 33 
Q 55.609375 28.21875 55.609375 21.1875 
Q 55.609375 10.40625 48.1875 4.484375 
Q 40.765625 -1.421875 27.09375 -1.421875 
Q 22.515625 -1.421875 17.65625 -0.515625 
Q 12.796875 0.390625 7.625 2.203125 
L 7.625 11.71875 
Q 11.71875 9.328125 16.59375 8.109375 
Q 21.484375 6.890625 26.8125 6.890625 
Q 36.078125 6.890625 40.9375 10.546875 
Q 45.796875 14.203125 45.796875 21.1875 
Q 45.796875 27.640625 41.28125 31.265625 
Q 36.765625 34.90625 28.71875 34.90625 
L 20.21875 34.90625 
L 20.21875 43.015625 
L 29.109375 43.015625 
Q 36.375 43.015625 40.234375 45.921875 
Q 44.09375 48.828125 44.09375 54.296875 
Q 44.09375 59.90625 40.109375 62.90625 
Q 36.140625 65.921875 28.71875 65.921875 
Q 24.65625 65.921875 20.015625 65.03125 
Q 15.375 64.15625 9.8125 62.3125 
L 9.8125 71.09375 
Q 15.4375 72.65625 20.34375 73.4375 
Q 25.25 74.21875 29.59375 74.21875 
Q 40.828125 74.21875 47.359375 69.109375 
Q 53.90625 64.015625 53.90625 55.328125 
Q 53.90625 49.265625 50.4375 45.09375 
Q 46.96875 40.921875 40.578125 39.3125 
z
" id="DejaVuSans-51"/>
    </defs>
    <g style="fill:#262626;" transform="translate(288.634563 295.394476)rotate(-330)scale(0.08 -0.08)">
     <use xlink:href="#DejaVuSans-48"/>
     <use x="63.623047" xlink:href="#DejaVuSans-46"/>
     <use x="95.410156" xlink:href="#DejaVuSans-48"/>
     <use x="159.033203" xlink:href="#DejaVuSans-50"/>
     <use x="222.65625" xlink:href="#DejaVuSans-55"/>
     <use x="286.279297" xlink:href="#DejaVuSans-51"/>
    </g>
   </g>
   <g id="text_13">
    <!-- Triplet alpha=0.35 -->
    <defs>
     <path d="M -0.296875 72.90625 
L 61.375 72.90625 
L 61.375 64.59375 
L 35.5 64.59375 
L 35.5 0 
L 25.59375 0 
L 25.59375 64.59375 
L -0.296875 64.59375 
z
" id="DejaVuSans-84"/>
     <path d="M 41.109375 46.296875 
Q 39.59375 47.171875 37.8125 47.578125 
Q 36.03125 48 33.890625 48 
Q 26.265625 48 22.1875 43.046875 
Q 18.109375 38.09375 18.109375 28.8125 
L 18.109375 0 
L 9.078125 0 
L 9.078125 54.6875 
L 18.109375 54.6875 
L 18.109375 46.1875 
Q 20.953125 51.171875 25.484375 53.578125 
Q 30.03125 56 36.53125 56 
Q 37.453125 56 38.578125 55.875 
Q 39.703125 55.765625 41.0625 55.515625 
z
" id="DejaVuSans-114"/>
     <path d="M 9.421875 54.6875 
L 18.40625 54.6875 
L 18.40625 0 
L 9.421875 0 
z
M 9.421875 75.984375 
L 18.40625 75.984375 
L 18.40625 64.59375 
L 9.421875 64.59375 
z
" id="DejaVuSans-105"/>
     <path d="M 18.109375 8.203125 
L 18.109375 -20.796875 
L 9.078125 -20.796875 
L 9.078125 54.6875 
L 18.109375 54.6875 
L 18.109375 46.390625 
Q 20.953125 51.265625 25.265625 53.625 
Q 29.59375 56 35.59375 56 
Q 45.5625 56 51.78125 48.09375 
Q 58.015625 40.1875 58.015625 27.296875 
Q 58.015625 14.40625 51.78125 6.484375 
Q 45.5625 -1.421875 35.59375 -1.421875 
Q 29.59375 -1.421875 25.265625 0.953125 
Q 20.953125 3.328125 18.109375 8.203125 
z
M 48.6875 27.296875 
Q 48.6875 37.203125 44.609375 42.84375 
Q 40.53125 48.484375 33.40625 48.484375 
Q 26.265625 48.484375 22.1875 42.84375 
Q 18.109375 37.203125 18.109375 27.296875 
Q 18.109375 17.390625 22.1875 11.75 
Q 26.265625 6.109375 33.40625 6.109375 
Q 40.53125 6.109375 44.609375 11.75 
Q 48.6875 17.390625 48.6875 27.296875 
z
" id="DejaVuSans-112"/>
     <path d="M 9.421875 75.984375 
L 18.40625 75.984375 
L 18.40625 0 
L 9.421875 0 
z
" id="DejaVuSans-108"/>
     <path d="M 56.203125 29.59375 
L 56.203125 25.203125 
L 14.890625 25.203125 
Q 15.484375 15.921875 20.484375 11.0625 
Q 25.484375 6.203125 34.421875 6.203125 
Q 39.59375 6.203125 44.453125 7.46875 
Q 49.3125 8.734375 54.109375 11.28125 
L 54.109375 2.78125 
Q 49.265625 0.734375 44.1875 -0.34375 
Q 39.109375 -1.421875 33.890625 -1.421875 
Q 20.796875 -1.421875 13.15625 6.1875 
Q 5.515625 13.8125 5.515625 26.8125 
Q 5.515625 40.234375 12.765625 48.109375 
Q 20.015625 56 32.328125 56 
Q 43.359375 56 49.78125 48.890625 
Q 56.203125 41.796875 56.203125 29.59375 
z
M 47.21875 32.234375 
Q 47.125 39.59375 43.09375 43.984375 
Q 39.0625 48.390625 32.421875 48.390625 
Q 24.90625 48.390625 20.390625 44.140625 
Q 15.875 39.890625 15.1875 32.171875 
z
" id="DejaVuSans-101"/>
     <path d="M 18.3125 70.21875 
L 18.3125 54.6875 
L 36.8125 54.6875 
L 36.8125 47.703125 
L 18.3125 47.703125 
L 18.3125 18.015625 
Q 18.3125 11.328125 20.140625 9.421875 
Q 21.96875 7.515625 27.59375 7.515625 
L 36.8125 7.515625 
L 36.8125 0 
L 27.59375 0 
Q 17.1875 0 13.234375 3.875 
Q 9.28125 7.765625 9.28125 18.015625 
L 9.28125 47.703125 
L 2.6875 47.703125 
L 2.6875 54.6875 
L 9.28125 54.6875 
L 9.28125 70.21875 
z
" id="DejaVuSans-116"/>
     <path id="DejaVuSans-32"/>
     <path d="M 34.28125 27.484375 
Q 23.390625 27.484375 19.1875 25 
Q 14.984375 22.515625 14.984375 16.5 
Q 14.984375 11.71875 18.140625 8.90625 
Q 21.296875 6.109375 26.703125 6.109375 
Q 34.1875 6.109375 38.703125 11.40625 
Q 43.21875 16.703125 43.21875 25.484375 
L 43.21875 27.484375 
z
M 52.203125 31.203125 
L 52.203125 0 
L 43.21875 0 
L 43.21875 8.296875 
Q 40.140625 3.328125 35.546875 0.953125 
Q 30.953125 -1.421875 24.3125 -1.421875 
Q 15.921875 -1.421875 10.953125 3.296875 
Q 6 8.015625 6 15.921875 
Q 6 25.140625 12.171875 29.828125 
Q 18.359375 34.515625 30.609375 34.515625 
L 43.21875 34.515625 
L 43.21875 35.40625 
Q 43.21875 41.609375 39.140625 45 
Q 35.0625 48.390625 27.6875 48.390625 
Q 23 48.390625 18.546875 47.265625 
Q 14.109375 46.140625 10.015625 43.890625 
L 10.015625 52.203125 
Q 14.9375 54.109375 19.578125 55.046875 
Q 24.21875 56 28.609375 56 
Q 40.484375 56 46.34375 49.84375 
Q 52.203125 43.703125 52.203125 31.203125 
z
" id="DejaVuSans-97"/>
     <path d="M 54.890625 33.015625 
L 54.890625 0 
L 45.90625 0 
L 45.90625 32.71875 
Q 45.90625 40.484375 42.875 44.328125 
Q 39.84375 48.1875 33.796875 48.1875 
Q 26.515625 48.1875 22.3125 43.546875 
Q 18.109375 38.921875 18.109375 30.90625 
L 18.109375 0 
L 9.078125 0 
L 9.078125 75.984375 
L 18.109375 75.984375 
L 18.109375 46.1875 
Q 21.34375 51.125 25.703125 53.5625 
Q 30.078125 56 35.796875 56 
Q 45.21875 56 50.046875 50.171875 
Q 54.890625 44.34375 54.890625 33.015625 
z
" id="DejaVuSans-104"/>
     <path d="M 10.59375 45.40625 
L 73.1875 45.40625 
L 73.1875 37.203125 
L 10.59375 37.203125 
z
M 10.59375 25.484375 
L 73.1875 25.484375 
L 73.1875 17.1875 
L 10.59375 17.1875 
z
" id="DejaVuSans-61"/>
     <path d="M 10.796875 72.90625 
L 49.515625 72.90625 
L 49.515625 64.59375 
L 19.828125 64.59375 
L 19.828125 46.734375 
Q 21.96875 47.46875 24.109375 47.828125 
Q 26.265625 48.1875 28.421875 48.1875 
Q 40.625 48.1875 47.75 41.5 
Q 54.890625 34.8125 54.890625 23.390625 
Q 54.890625 11.625 47.5625 5.09375 
Q 40.234375 -1.421875 26.90625 -1.421875 
Q 22.3125 -1.421875 17.546875 -0.640625 
Q 12.796875 0.140625 7.71875 1.703125 
L 7.71875 11.625 
Q 12.109375 9.234375 16.796875 8.0625 
Q 21.484375 6.890625 26.703125 6.890625 
Q 35.15625 6.890625 40.078125 11.328125 
Q 45.015625 15.765625 45.015625 23.390625 
Q 45.015625 31 40.078125 35.4375 
Q 35.15625 39.890625 26.703125 39.890625 
Q 22.75 39.890625 18.8125 39.015625 
Q 14.890625 38.140625 10.796875 36.28125 
z
" id="DejaVuSans-53"/>
    </defs>
    <g style="fill:#262626;" transform="translate(68.572268 154.4495)rotate(-270)scale(0.12 -0.12)">
     <use xlink:href="#DejaVuSans-84"/>
     <use x="60.865234" xlink:href="#DejaVuSans-114"/>
     <use x="101.978516" xlink:href="#DejaVuSans-105"/>
     <use x="129.761719" xlink:href="#DejaVuSans-112"/>
     <use x="193.238281" xlink:href="#DejaVuSans-108"/>
     <use x="221.021484" xlink:href="#DejaVuSans-101"/>
     <use x="282.544922" xlink:href="#DejaVuSans-116"/>
     <use x="321.753906" xlink:href="#DejaVuSans-32"/>
     <use x="353.541016" xlink:href="#DejaVuSans-97"/>
     <use x="414.820312" xlink:href="#DejaVuSans-108"/>
     <use x="442.603516" xlink:href="#DejaVuSans-112"/>
     <use x="506.080078" xlink:href="#DejaVuSans-104"/>
     <use x="569.458984" xlink:href="#DejaVuSans-97"/>
     <use x="630.738281" xlink:href="#DejaVuSans-61"/>
     <use x="714.527344" xlink:href="#DejaVuSans-48"/>
     <use x="778.150391" xlink:href="#DejaVuSans-46"/>
     <use x="809.9375" xlink:href="#DejaVuSans-51"/>
     <use x="873.560547" xlink:href="#DejaVuSans-53"/>
    </g>
   </g>
   <g id="text_14">
    <!-- Triplet alpha=0.3 -->
    <g style="fill:#262626;" transform="translate(171.343131 162.0845)rotate(-270)scale(0.12 -0.12)">
     <use xlink:href="#DejaVuSans-84"/>
     <use x="60.865234" xlink:href="#DejaVuSans-114"/>
     <use x="101.978516" xlink:href="#DejaVuSans-105"/>
     <use x="129.761719" xlink:href="#DejaVuSans-112"/>
     <use x="193.238281" xlink:href="#DejaVuSans-108"/>
     <use x="221.021484" xlink:href="#DejaVuSans-101"/>
     <use x="282.544922" xlink:href="#DejaVuSans-116"/>
     <use x="321.753906" xlink:href="#DejaVuSans-32"/>
     <use x="353.541016" xlink:href="#DejaVuSans-97"/>
     <use x="414.820312" xlink:href="#DejaVuSans-108"/>
     <use x="442.603516" xlink:href="#DejaVuSans-112"/>
     <use x="506.080078" xlink:href="#DejaVuSans-104"/>
     <use x="569.458984" xlink:href="#DejaVuSans-97"/>
     <use x="630.738281" xlink:href="#DejaVuSans-61"/>
     <use x="714.527344" xlink:href="#DejaVuSans-48"/>
     <use x="778.150391" xlink:href="#DejaVuSans-46"/>
     <use x="809.9375" xlink:href="#DejaVuSans-51"/>
    </g>
   </g>
   <g id="text_15">
    <!-- Triplet alpha=0.25 -->
    <g style="fill:#262626;" transform="translate(206.781359 154.4495)rotate(-270)scale(0.12 -0.12)">
     <use xlink:href="#DejaVuSans-84"/>
     <use x="60.865234" xlink:href="#DejaVuSans-114"/>
     <use x="101.978516" xlink:href="#DejaVuSans-105"/>
     <use x="129.761719" xlink:href="#DejaVuSans-112"/>
     <use x="193.238281" xlink:href="#DejaVuSans-108"/>
     <use x="221.021484" xlink:href="#DejaVuSans-101"/>
     <use x="282.544922" xlink:href="#DejaVuSans-116"/>
     <use x="321.753906" xlink:href="#DejaVuSans-32"/>
     <use x="353.541016" xlink:href="#DejaVuSans-97"/>
     <use x="414.820312" xlink:href="#DejaVuSans-108"/>
     <use x="442.603516" xlink:href="#DejaVuSans-112"/>
     <use x="506.080078" xlink:href="#DejaVuSans-104"/>
     <use x="569.458984" xlink:href="#DejaVuSans-97"/>
     <use x="630.738281" xlink:href="#DejaVuSans-61"/>
     <use x="714.527344" xlink:href="#DejaVuSans-48"/>
     <use x="778.150391" xlink:href="#DejaVuSans-46"/>
     <use x="809.9375" xlink:href="#DejaVuSans-50"/>
     <use x="873.560547" xlink:href="#DejaVuSans-53"/>
    </g>
   </g>
   <g id="text_16">
    <!-- Triplet alpha=0.2 -->
    <g style="fill:#262626;" transform="translate(245.763411 162.0845)rotate(-270)scale(0.12 -0.12)">
     <use xlink:href="#DejaVuSans-84"/>
     <use x="60.865234" xlink:href="#DejaVuSans-114"/>
     <use x="101.978516" xlink:href="#DejaVuSans-105"/>
     <use x="129.761719" xlink:href="#DejaVuSans-112"/>
     <use x="193.238281" xlink:href="#DejaVuSans-108"/>
     <use x="221.021484" xlink:href="#DejaVuSans-101"/>
     <use x="282.544922" xlink:href="#DejaVuSans-116"/>
     <use x="321.753906" xlink:href="#DejaVuSans-32"/>
     <use x="353.541016" xlink:href="#DejaVuSans-97"/>
     <use x="414.820312" xlink:href="#DejaVuSans-108"/>
     <use x="442.603516" xlink:href="#DejaVuSans-112"/>
     <use x="506.080078" xlink:href="#DejaVuSans-104"/>
     <use x="569.458984" xlink:href="#DejaVuSans-97"/>
     <use x="630.738281" xlink:href="#DejaVuSans-61"/>
     <use x="714.527344" xlink:href="#DejaVuSans-48"/>
     <use x="778.150391" xlink:href="#DejaVuSans-46"/>
     <use x="809.9375" xlink:href="#DejaVuSans-50"/>
    </g>
   </g>
   <g id="text_17">
    <!-- loss -->
    <defs>
     <path d="M 30.609375 48.390625 
Q 23.390625 48.390625 19.1875 42.75 
Q 14.984375 37.109375 14.984375 27.296875 
Q 14.984375 17.484375 19.15625 11.84375 
Q 23.34375 6.203125 30.609375 6.203125 
Q 37.796875 6.203125 41.984375 11.859375 
Q 46.1875 17.53125 46.1875 27.296875 
Q 46.1875 37.015625 41.984375 42.703125 
Q 37.796875 48.390625 30.609375 48.390625 
z
M 30.609375 56 
Q 42.328125 56 49.015625 48.375 
Q 55.71875 40.765625 55.71875 27.296875 
Q 55.71875 13.875 49.015625 6.21875 
Q 42.328125 -1.421875 30.609375 -1.421875 
Q 18.84375 -1.421875 12.171875 6.21875 
Q 5.515625 13.875 5.515625 27.296875 
Q 5.515625 40.765625 12.171875 48.375 
Q 18.84375 56 30.609375 56 
z
" id="DejaVuSans-111"/>
     <path d="M 44.28125 53.078125 
L 44.28125 44.578125 
Q 40.484375 46.53125 36.375 47.5 
Q 32.28125 48.484375 27.875 48.484375 
Q 21.1875 48.484375 17.84375 46.4375 
Q 14.5 44.390625 14.5 40.28125 
Q 14.5 37.15625 16.890625 35.375 
Q 19.28125 33.59375 26.515625 31.984375 
L 29.59375 31.296875 
Q 39.15625 29.25 43.1875 25.515625 
Q 47.21875 21.78125 47.21875 15.09375 
Q 47.21875 7.46875 41.1875 3.015625 
Q 35.15625 -1.421875 24.609375 -1.421875 
Q 20.21875 -1.421875 15.453125 -0.5625 
Q 10.6875 0.296875 5.421875 2 
L 5.421875 11.28125 
Q 10.40625 8.6875 15.234375 7.390625 
Q 20.0625 6.109375 24.8125 6.109375 
Q 31.15625 6.109375 34.5625 8.28125 
Q 37.984375 10.453125 37.984375 14.40625 
Q 37.984375 18.0625 35.515625 20.015625 
Q 33.0625 21.96875 24.703125 23.78125 
L 21.578125 24.515625 
Q 13.234375 26.265625 9.515625 29.90625 
Q 5.8125 33.546875 5.8125 39.890625 
Q 5.8125 47.609375 11.28125 51.796875 
Q 16.75 56 26.8125 56 
Q 31.78125 56 36.171875 55.265625 
Q 40.578125 54.546875 44.28125 53.078125 
z
" id="DejaVuSans-115"/>
    </defs>
    <g style="fill:#262626;" transform="translate(187.380625 21.6)scale(0.12 -0.12)">
     <use xlink:href="#DejaVuSans-108"/>
     <use x="27.783203" xlink:href="#DejaVuSans-111"/>
     <use x="88.964844" xlink:href="#DejaVuSans-115"/>
     <use x="141.064453" xlink:href="#DejaVuSans-115"/>
    </g>
   </g>
  </g>
  <g id="axes_2">
   <g id="patch_7">
    <path d="M 404.96 326.74 
L 709.02 326.74 
L 709.02 27.6 
L 404.96 27.6 
z
" style="fill:#eaeaf2;"/>
   </g>
   <g id="matplotlib.axis_3">
    <g id="xtick_5">
     <g id="line2d_14">
      <path clip-path="url(#p3bfeec5c27)" d="M 447.131492 326.74 
L 447.131492 27.6 
" style="fill:none;stroke:#ffffff;stroke-linecap:round;"/>
     </g>
     <g id="text_18">
      <!-- 99 -->
      <g style="fill:#262626;" transform="translate(440.132742 344.598281)scale(0.11 -0.11)">
       <use xlink:href="#DejaVuSans-57"/>
       <use x="63.623047" xlink:href="#DejaVuSans-57"/>
      </g>
     </g>
    </g>
    <g id="xtick_6">
     <g id="line2d_15">
      <path clip-path="url(#p3bfeec5c27)" d="M 510.920303 326.74 
L 510.920303 27.6 
" style="fill:none;stroke:#ffffff;stroke-linecap:round;"/>
     </g>
     <g id="text_19">
      <!-- 108 -->
      <g style="fill:#262626;" transform="translate(500.422178 344.598281)scale(0.11 -0.11)">
       <use xlink:href="#DejaVuSans-49"/>
       <use x="63.623047" xlink:href="#DejaVuSans-48"/>
       <use x="127.246094" xlink:href="#DejaVuSans-56"/>
      </g>
     </g>
    </g>
    <g id="xtick_7">
     <g id="line2d_16">
      <path clip-path="url(#p3bfeec5c27)" d="M 574.709114 326.74 
L 574.709114 27.6 
" style="fill:none;stroke:#ffffff;stroke-linecap:round;"/>
     </g>
     <g id="text_20">
      <!-- 117 -->
      <g style="fill:#262626;" transform="translate(564.210989 344.598281)scale(0.11 -0.11)">
       <use xlink:href="#DejaVuSans-49"/>
       <use x="63.623047" xlink:href="#DejaVuSans-49"/>
       <use x="127.246094" xlink:href="#DejaVuSans-55"/>
      </g>
     </g>
    </g>
    <g id="xtick_8">
     <g id="line2d_17">
      <path clip-path="url(#p3bfeec5c27)" d="M 638.497925 326.74 
L 638.497925 27.6 
" style="fill:none;stroke:#ffffff;stroke-linecap:round;"/>
     </g>
     <g id="text_21">
      <!-- 126 -->
      <g style="fill:#262626;" transform="translate(627.9998 344.598281)scale(0.11 -0.11)">
       <use xlink:href="#DejaVuSans-49"/>
       <use x="63.623047" xlink:href="#DejaVuSans-50"/>
       <use x="127.246094" xlink:href="#DejaVuSans-54"/>
      </g>
     </g>
    </g>
   </g>
   <g id="matplotlib.axis_4">
    <g id="ytick_5">
     <g id="line2d_18">
      <path clip-path="url(#p3bfeec5c27)" d="M 404.96 267.818485 
L 709.02 267.818485 
" style="fill:none;stroke:#ffffff;stroke-linecap:round;"/>
     </g>
     <g id="text_22">
      <!-- 0.2 -->
      <g style="fill:#262626;" transform="translate(377.966563 271.997625)scale(0.11 -0.11)">
       <use xlink:href="#DejaVuSans-48"/>
       <use x="63.623047" xlink:href="#DejaVuSans-46"/>
       <use x="95.410156" xlink:href="#DejaVuSans-50"/>
      </g>
     </g>
    </g>
    <g id="ytick_6">
     <g id="line2d_19">
      <path clip-path="url(#p3bfeec5c27)" d="M 404.96 207.386162 
L 709.02 207.386162 
" style="fill:none;stroke:#ffffff;stroke-linecap:round;"/>
     </g>
     <g id="text_23">
      <!-- 0.4 -->
      <g style="fill:#262626;" transform="translate(377.966563 211.565302)scale(0.11 -0.11)">
       <use xlink:href="#DejaVuSans-48"/>
       <use x="63.623047" xlink:href="#DejaVuSans-46"/>
       <use x="95.410156" xlink:href="#DejaVuSans-52"/>
      </g>
     </g>
    </g>
    <g id="ytick_7">
     <g id="line2d_20">
      <path clip-path="url(#p3bfeec5c27)" d="M 404.96 146.953838 
L 709.02 146.953838 
" style="fill:none;stroke:#ffffff;stroke-linecap:round;"/>
     </g>
     <g id="text_24">
      <!-- 0.6 -->
      <g style="fill:#262626;" transform="translate(377.966563 151.132979)scale(0.11 -0.11)">
       <use xlink:href="#DejaVuSans-48"/>
       <use x="63.623047" xlink:href="#DejaVuSans-46"/>
       <use x="95.410156" xlink:href="#DejaVuSans-54"/>
      </g>
     </g>
    </g>
    <g id="ytick_8">
     <g id="line2d_21">
      <path clip-path="url(#p3bfeec5c27)" d="M 404.96 86.521515 
L 709.02 86.521515 
" style="fill:none;stroke:#ffffff;stroke-linecap:round;"/>
     </g>
     <g id="text_25">
      <!-- 0.8 -->
      <g style="fill:#262626;" transform="translate(377.966563 90.700656)scale(0.11 -0.11)">
       <use xlink:href="#DejaVuSans-48"/>
       <use x="63.623047" xlink:href="#DejaVuSans-46"/>
       <use x="95.410156" xlink:href="#DejaVuSans-56"/>
      </g>
     </g>
    </g>
   </g>
   <g id="line2d_22">
    <path clip-path="url(#p3bfeec5c27)" d="M 418.780909 313.142727 
L 418.780909 41.197273 
" style="fill:none;stroke:#1a1a1a;stroke-dasharray:5.55,2.4;stroke-dashoffset:0;stroke-width:1.5;"/>
   </g>
   <g id="line2d_23">
    <path clip-path="url(#p3bfeec5c27)" d="M 525.095594 313.142727 
L 525.095594 41.197273 
" style="fill:none;stroke:#1a1a1a;stroke-dasharray:5.55,2.4;stroke-dashoffset:0;stroke-width:1.5;"/>
   </g>
   <g id="line2d_24">
    <path clip-path="url(#p3bfeec5c27)" d="M 560.533823 313.142727 
L 560.533823 41.197273 
" style="fill:none;stroke:#1a1a1a;stroke-dasharray:5.55,2.4;stroke-dashoffset:0;stroke-width:1.5;"/>
   </g>
   <g id="line2d_25">
    <path clip-path="url(#p3bfeec5c27)" d="M 595.972051 313.142727 
L 595.972051 41.197273 
" style="fill:none;stroke:#1a1a1a;stroke-dasharray:5.55,2.4;stroke-dashoffset:0;stroke-width:1.5;"/>
   </g>
   <g id="patch_8">
    <path d="M 404.96 326.74 
L 404.96 27.6 
" style="fill:none;stroke:#ffffff;stroke-linecap:square;stroke-linejoin:miter;stroke-width:1.25;"/>
   </g>
   <g id="patch_9">
    <path d="M 709.02 326.74 
L 709.02 27.6 
" style="fill:none;stroke:#ffffff;stroke-linecap:square;stroke-linejoin:miter;stroke-width:1.25;"/>
   </g>
   <g id="patch_10">
    <path d="M 404.96 326.74 
L 709.02 326.74 
" style="fill:none;stroke:#ffffff;stroke-linecap:square;stroke-linejoin:miter;stroke-width:1.25;"/>
   </g>
   <g id="patch_11">
    <path d="M 404.96 27.6 
L 709.02 27.6 
" style="fill:none;stroke:#ffffff;stroke-linecap:square;stroke-linejoin:miter;stroke-width:1.25;"/>
   </g>
   <g id="text_26">
    <!-- Triplet alpha=0.35 -->
    <g style="fill:#262626;" transform="translate(426.592268 155.355985)rotate(-270)scale(0.12 -0.12)">
     <use xlink:href="#DejaVuSans-84"/>
     <use x="60.865234" xlink:href="#DejaVuSans-114"/>
     <use x="101.978516" xlink:href="#DejaVuSans-105"/>
     <use x="129.761719" xlink:href="#DejaVuSans-112"/>
     <use x="193.238281" xlink:href="#DejaVuSans-108"/>
     <use x="221.021484" xlink:href="#DejaVuSans-101"/>
     <use x="282.544922" xlink:href="#DejaVuSans-116"/>
     <use x="321.753906" xlink:href="#DejaVuSans-32"/>
     <use x="353.541016" xlink:href="#DejaVuSans-97"/>
     <use x="414.820312" xlink:href="#DejaVuSans-108"/>
     <use x="442.603516" xlink:href="#DejaVuSans-112"/>
     <use x="506.080078" xlink:href="#DejaVuSans-104"/>
     <use x="569.458984" xlink:href="#DejaVuSans-97"/>
     <use x="630.738281" xlink:href="#DejaVuSans-61"/>
     <use x="714.527344" xlink:href="#DejaVuSans-48"/>
     <use x="778.150391" xlink:href="#DejaVuSans-46"/>
     <use x="809.9375" xlink:href="#DejaVuSans-51"/>
     <use x="873.560547" xlink:href="#DejaVuSans-53"/>
    </g>
   </g>
   <g id="text_27">
    <!-- Triplet alpha=0.3 -->
    <g style="fill:#262626;" transform="translate(529.363131 162.990985)rotate(-270)scale(0.12 -0.12)">
     <use xlink:href="#DejaVuSans-84"/>
     <use x="60.865234" xlink:href="#DejaVuSans-114"/>
     <use x="101.978516" xlink:href="#DejaVuSans-105"/>
     <use x="129.761719" xlink:href="#DejaVuSans-112"/>
     <use x="193.238281" xlink:href="#DejaVuSans-108"/>
     <use x="221.021484" xlink:href="#DejaVuSans-101"/>
     <use x="282.544922" xlink:href="#DejaVuSans-116"/>
     <use x="321.753906" xlink:href="#DejaVuSans-32"/>
     <use x="353.541016" xlink:href="#DejaVuSans-97"/>
     <use x="414.820312" xlink:href="#DejaVuSans-108"/>
     <use x="442.603516" xlink:href="#DejaVuSans-112"/>
     <use x="506.080078" xlink:href="#DejaVuSans-104"/>
     <use x="569.458984" xlink:href="#DejaVuSans-97"/>
     <use x="630.738281" xlink:href="#DejaVuSans-61"/>
     <use x="714.527344" xlink:href="#DejaVuSans-48"/>
     <use x="778.150391" xlink:href="#DejaVuSans-46"/>
     <use x="809.9375" xlink:href="#DejaVuSans-51"/>
    </g>
   </g>
   <g id="text_28">
    <!-- Triplet alpha=0.25 -->
    <g style="fill:#262626;" transform="translate(564.801359 155.355985)rotate(-270)scale(0.12 -0.12)">
     <use xlink:href="#DejaVuSans-84"/>
     <use x="60.865234" xlink:href="#DejaVuSans-114"/>
     <use x="101.978516" xlink:href="#DejaVuSans-105"/>
     <use x="129.761719" xlink:href="#DejaVuSans-112"/>
     <use x="193.238281" xlink:href="#DejaVuSans-108"/>
     <use x="221.021484" xlink:href="#DejaVuSans-101"/>
     <use x="282.544922" xlink:href="#DejaVuSans-116"/>
     <use x="321.753906" xlink:href="#DejaVuSans-32"/>
     <use x="353.541016" xlink:href="#DejaVuSans-97"/>
     <use x="414.820312" xlink:href="#DejaVuSans-108"/>
     <use x="442.603516" xlink:href="#DejaVuSans-112"/>
     <use x="506.080078" xlink:href="#DejaVuSans-104"/>
     <use x="569.458984" xlink:href="#DejaVuSans-97"/>
     <use x="630.738281" xlink:href="#DejaVuSans-61"/>
     <use x="714.527344" xlink:href="#DejaVuSans-48"/>
     <use x="778.150391" xlink:href="#DejaVuSans-46"/>
     <use x="809.9375" xlink:href="#DejaVuSans-50"/>
     <use x="873.560547" xlink:href="#DejaVuSans-53"/>
    </g>
   </g>
   <g id="text_29">
    <!-- Triplet alpha=0.2 -->
    <g style="fill:#262626;" transform="translate(603.783411 162.990985)rotate(-270)scale(0.12 -0.12)">
     <use xlink:href="#DejaVuSans-84"/>
     <use x="60.865234" xlink:href="#DejaVuSans-114"/>
     <use x="101.978516" xlink:href="#DejaVuSans-105"/>
     <use x="129.761719" xlink:href="#DejaVuSans-112"/>
     <use x="193.238281" xlink:href="#DejaVuSans-108"/>
     <use x="221.021484" xlink:href="#DejaVuSans-101"/>
     <use x="282.544922" xlink:href="#DejaVuSans-116"/>
     <use x="321.753906" xlink:href="#DejaVuSans-32"/>
     <use x="353.541016" xlink:href="#DejaVuSans-97"/>
     <use x="414.820312" xlink:href="#DejaVuSans-108"/>
     <use x="442.603516" xlink:href="#DejaVuSans-112"/>
     <use x="506.080078" xlink:href="#DejaVuSans-104"/>
     <use x="569.458984" xlink:href="#DejaVuSans-97"/>
     <use x="630.738281" xlink:href="#DejaVuSans-61"/>
     <use x="714.527344" xlink:href="#DejaVuSans-48"/>
     <use x="778.150391" xlink:href="#DejaVuSans-46"/>
     <use x="809.9375" xlink:href="#DejaVuSans-50"/>
    </g>
   </g>
   <g id="text_30">
    <!-- accuracy -->
    <defs>
     <path d="M 48.78125 52.59375 
L 48.78125 44.1875 
Q 44.96875 46.296875 41.140625 47.34375 
Q 37.3125 48.390625 33.40625 48.390625 
Q 24.65625 48.390625 19.8125 42.84375 
Q 14.984375 37.3125 14.984375 27.296875 
Q 14.984375 17.28125 19.8125 11.734375 
Q 24.65625 6.203125 33.40625 6.203125 
Q 37.3125 6.203125 41.140625 7.25 
Q 44.96875 8.296875 48.78125 10.40625 
L 48.78125 2.09375 
Q 45.015625 0.34375 40.984375 -0.53125 
Q 36.96875 -1.421875 32.421875 -1.421875 
Q 20.0625 -1.421875 12.78125 6.34375 
Q 5.515625 14.109375 5.515625 27.296875 
Q 5.515625 40.671875 12.859375 48.328125 
Q 20.21875 56 33.015625 56 
Q 37.15625 56 41.109375 55.140625 
Q 45.0625 54.296875 48.78125 52.59375 
z
" id="DejaVuSans-99"/>
     <path d="M 8.5 21.578125 
L 8.5 54.6875 
L 17.484375 54.6875 
L 17.484375 21.921875 
Q 17.484375 14.15625 20.5 10.265625 
Q 23.53125 6.390625 29.59375 6.390625 
Q 36.859375 6.390625 41.078125 11.03125 
Q 45.3125 15.671875 45.3125 23.6875 
L 45.3125 54.6875 
L 54.296875 54.6875 
L 54.296875 0 
L 45.3125 0 
L 45.3125 8.40625 
Q 42.046875 3.421875 37.71875 1 
Q 33.40625 -1.421875 27.6875 -1.421875 
Q 18.265625 -1.421875 13.375 4.4375 
Q 8.5 10.296875 8.5 21.578125 
z
M 31.109375 56 
z
" id="DejaVuSans-117"/>
     <path d="M 32.171875 -5.078125 
Q 28.375 -14.84375 24.75 -17.8125 
Q 21.140625 -20.796875 15.09375 -20.796875 
L 7.90625 -20.796875 
L 7.90625 -13.28125 
L 13.1875 -13.28125 
Q 16.890625 -13.28125 18.9375 -11.515625 
Q 21 -9.765625 23.484375 -3.21875 
L 25.09375 0.875 
L 2.984375 54.6875 
L 12.5 54.6875 
L 29.59375 11.921875 
L 46.6875 54.6875 
L 56.203125 54.6875 
z
" id="DejaVuSans-121"/>
    </defs>
    <g style="fill:#262626;" transform="translate(529.91875 21.6)scale(0.12 -0.12)">
     <use xlink:href="#DejaVuSans-97"/>
     <use x="61.279297" xlink:href="#DejaVuSans-99"/>
     <use x="116.259766" xlink:href="#DejaVuSans-99"/>
     <use x="171.240234" xlink:href="#DejaVuSans-117"/>
     <use x="234.619141" xlink:href="#DejaVuSans-114"/>
     <use x="275.732422" xlink:href="#DejaVuSans-97"/>
     <use x="337.011719" xlink:href="#DejaVuSans-99"/>
     <use x="391.992188" xlink:href="#DejaVuSans-121"/>
    </g>
   </g>
  </g>
  <g id="axes_3">
   <g id="patch_12">
    <path d="M 762.98 326.74 
L 1067.04 326.74 
L 1067.04 27.6 
L 762.98 27.6 
z
" style="fill:#eaeaf2;"/>
   </g>
   <g id="matplotlib.axis_5">
    <g id="xtick_9">
     <g id="line2d_26">
      <path clip-path="url(#p4d7d92d24d)" d="M 805.151492 326.74 
L 805.151492 27.6 
" style="fill:none;stroke:#ffffff;stroke-linecap:round;"/>
     </g>
     <g id="text_31">
      <!-- 99 -->
      <g style="fill:#262626;" transform="translate(798.152742 344.598281)scale(0.11 -0.11)">
       <use xlink:href="#DejaVuSans-57"/>
       <use x="63.623047" xlink:href="#DejaVuSans-57"/>
      </g>
     </g>
    </g>
    <g id="xtick_10">
     <g id="line2d_27">
      <path clip-path="url(#p4d7d92d24d)" d="M 868.940303 326.74 
L 868.940303 27.6 
" style="fill:none;stroke:#ffffff;stroke-linecap:round;"/>
     </g>
     <g id="text_32">
      <!-- 108 -->
      <g style="fill:#262626;" transform="translate(858.442178 344.598281)scale(0.11 -0.11)">
       <use xlink:href="#DejaVuSans-49"/>
       <use x="63.623047" xlink:href="#DejaVuSans-48"/>
       <use x="127.246094" xlink:href="#DejaVuSans-56"/>
      </g>
     </g>
    </g>
    <g id="xtick_11">
     <g id="line2d_28">
      <path clip-path="url(#p4d7d92d24d)" d="M 932.729114 326.74 
L 932.729114 27.6 
" style="fill:none;stroke:#ffffff;stroke-linecap:round;"/>
     </g>
     <g id="text_33">
      <!-- 117 -->
      <g style="fill:#262626;" transform="translate(922.230989 344.598281)scale(0.11 -0.11)">
       <use xlink:href="#DejaVuSans-49"/>
       <use x="63.623047" xlink:href="#DejaVuSans-49"/>
       <use x="127.246094" xlink:href="#DejaVuSans-55"/>
      </g>
     </g>
    </g>
    <g id="xtick_12">
     <g id="line2d_29">
      <path clip-path="url(#p4d7d92d24d)" d="M 996.517925 326.74 
L 996.517925 27.6 
" style="fill:none;stroke:#ffffff;stroke-linecap:round;"/>
     </g>
     <g id="text_34">
      <!-- 126 -->
      <g style="fill:#262626;" transform="translate(986.0198 344.598281)scale(0.11 -0.11)">
       <use xlink:href="#DejaVuSans-49"/>
       <use x="63.623047" xlink:href="#DejaVuSans-50"/>
       <use x="127.246094" xlink:href="#DejaVuSans-54"/>
      </g>
     </g>
    </g>
   </g>
   <g id="matplotlib.axis_6">
    <g id="ytick_9">
     <g id="line2d_30">
      <path clip-path="url(#p4d7d92d24d)" d="M 762.98 291.195749 
L 1067.04 291.195749 
" style="fill:none;stroke:#ffffff;stroke-linecap:round;"/>
     </g>
     <g id="text_35">
      <!-- 0.962 -->
      <g style="fill:#262626;" transform="translate(721.989063 295.37489)scale(0.11 -0.11)">
       <use xlink:href="#DejaVuSans-48"/>
       <use x="63.623047" xlink:href="#DejaVuSans-46"/>
       <use x="95.410156" xlink:href="#DejaVuSans-57"/>
       <use x="159.033203" xlink:href="#DejaVuSans-54"/>
       <use x="222.65625" xlink:href="#DejaVuSans-50"/>
      </g>
     </g>
    </g>
    <g id="ytick_10">
     <g id="line2d_31">
      <path clip-path="url(#p4d7d92d24d)" d="M 762.98 247.301793 
L 1067.04 247.301793 
" style="fill:none;stroke:#ffffff;stroke-linecap:round;"/>
     </g>
     <g id="text_36">
      <!-- 0.964 -->
      <g style="fill:#262626;" transform="translate(721.989063 251.480933)scale(0.11 -0.11)">
       <use xlink:href="#DejaVuSans-48"/>
       <use x="63.623047" xlink:href="#DejaVuSans-46"/>
       <use x="95.410156" xlink:href="#DejaVuSans-57"/>
       <use x="159.033203" xlink:href="#DejaVuSans-54"/>
       <use x="222.65625" xlink:href="#DejaVuSans-52"/>
      </g>
     </g>
    </g>
    <g id="ytick_11">
     <g id="line2d_32">
      <path clip-path="url(#p4d7d92d24d)" d="M 762.98 203.407836 
L 1067.04 203.407836 
" style="fill:none;stroke:#ffffff;stroke-linecap:round;"/>
     </g>
     <g id="text_37">
      <!-- 0.966 -->
      <g style="fill:#262626;" transform="translate(721.989063 207.586977)scale(0.11 -0.11)">
       <use xlink:href="#DejaVuSans-48"/>
       <use x="63.623047" xlink:href="#DejaVuSans-46"/>
       <use x="95.410156" xlink:href="#DejaVuSans-57"/>
       <use x="159.033203" xlink:href="#DejaVuSans-54"/>
       <use x="222.65625" xlink:href="#DejaVuSans-54"/>
      </g>
     </g>
    </g>
    <g id="ytick_12">
     <g id="line2d_33">
      <path clip-path="url(#p4d7d92d24d)" d="M 762.98 159.51388 
L 1067.04 159.51388 
" style="fill:none;stroke:#ffffff;stroke-linecap:round;"/>
     </g>
     <g id="text_38">
      <!-- 0.968 -->
      <g style="fill:#262626;" transform="translate(721.989063 163.693021)scale(0.11 -0.11)">
       <use xlink:href="#DejaVuSans-48"/>
       <use x="63.623047" xlink:href="#DejaVuSans-46"/>
       <use x="95.410156" xlink:href="#DejaVuSans-57"/>
       <use x="159.033203" xlink:href="#DejaVuSans-54"/>
       <use x="222.65625" xlink:href="#DejaVuSans-56"/>
      </g>
     </g>
    </g>
    <g id="ytick_13">
     <g id="line2d_34">
      <path clip-path="url(#p4d7d92d24d)" d="M 762.98 115.619924 
L 1067.04 115.619924 
" style="fill:none;stroke:#ffffff;stroke-linecap:round;"/>
     </g>
     <g id="text_39">
      <!-- 0.970 -->
      <g style="fill:#262626;" transform="translate(721.989063 119.799064)scale(0.11 -0.11)">
       <use xlink:href="#DejaVuSans-48"/>
       <use x="63.623047" xlink:href="#DejaVuSans-46"/>
       <use x="95.410156" xlink:href="#DejaVuSans-57"/>
       <use x="159.033203" xlink:href="#DejaVuSans-55"/>
       <use x="222.65625" xlink:href="#DejaVuSans-48"/>
      </g>
     </g>
    </g>
    <g id="ytick_14">
     <g id="line2d_35">
      <path clip-path="url(#p4d7d92d24d)" d="M 762.98 71.725967 
L 1067.04 71.725967 
" style="fill:none;stroke:#ffffff;stroke-linecap:round;"/>
     </g>
     <g id="text_40">
      <!-- 0.972 -->
      <g style="fill:#262626;" transform="translate(721.989063 75.905108)scale(0.11 -0.11)">
       <use xlink:href="#DejaVuSans-48"/>
       <use x="63.623047" xlink:href="#DejaVuSans-46"/>
       <use x="95.410156" xlink:href="#DejaVuSans-57"/>
       <use x="159.033203" xlink:href="#DejaVuSans-55"/>
       <use x="222.65625" xlink:href="#DejaVuSans-50"/>
      </g>
     </g>
    </g>
    <g id="ytick_15">
     <g id="line2d_36">
      <path clip-path="url(#p4d7d92d24d)" d="M 762.98 27.832011 
L 1067.04 27.832011 
" style="fill:none;stroke:#ffffff;stroke-linecap:round;"/>
     </g>
     <g id="text_41">
      <!-- 0.974 -->
      <g style="fill:#262626;" transform="translate(721.989063 32.011152)scale(0.11 -0.11)">
       <use xlink:href="#DejaVuSans-48"/>
       <use x="63.623047" xlink:href="#DejaVuSans-46"/>
       <use x="95.410156" xlink:href="#DejaVuSans-57"/>
       <use x="159.033203" xlink:href="#DejaVuSans-55"/>
       <use x="222.65625" xlink:href="#DejaVuSans-52"/>
      </g>
     </g>
    </g>
   </g>
   <g id="PathCollection_5">
    <g clip-path="url(#p4d7d92d24d)">
     <use style="fill:#c44e52;stroke:#c44e52;" x="861.852657" xlink:href="#m36ed339dcf" y="291.195749"/>
    </g>
   </g>
   <g id="PathCollection_6">
    <g clip-path="url(#p4d7d92d24d)">
     <use style="fill:#c44e52;stroke:#c44e52;" x="883.115594" xlink:href="#m36ed339dcf" y="269.248771"/>
    </g>
   </g>
   <g id="PathCollection_7">
    <g clip-path="url(#p4d7d92d24d)">
     <use style="fill:#c44e52;stroke:#c44e52;" x="939.81676" xlink:href="#m36ed339dcf" y="258.275282"/>
    </g>
   </g>
   <g id="PathCollection_8">
    <g clip-path="url(#p4d7d92d24d)">
     <use style="fill:#c44e52;stroke:#c44e52;" x="1031.956154" xlink:href="#m36ed339dcf" y="210.723496"/>
    </g>
   </g>
   <g id="PathCollection_9">
    <g clip-path="url(#p4d7d92d24d)">
     <use style="fill:#c44e52;stroke:#c44e52;" x="812.239138" xlink:href="#m36ed339dcf" y="99.943511"/>
    </g>
   </g>
   <g id="PathCollection_10">
    <g clip-path="url(#p4d7d92d24d)">
     <use style="fill:#c44e52;stroke:#c44e52;" x="911.466177" xlink:href="#m36ed339dcf" y="93.672945"/>
    </g>
   </g>
   <g id="PathCollection_11">
    <g clip-path="url(#p4d7d92d24d)">
     <use style="fill:#c44e52;stroke:#c44e52;" x="946.904406" xlink:href="#m36ed339dcf" y="81.131815"/>
    </g>
   </g>
   <g id="PathCollection_12">
    <g clip-path="url(#p4d7d92d24d)">
     <use style="fill:#c44e52;stroke:#c44e52;" x="1039.0438" xlink:href="#m36ed339dcf" y="43.508424"/>
    </g>
   </g>
   <g id="line2d_37">
    <path clip-path="url(#p4d7d92d24d)" d="M 776.800909 291.195749 
L 783.888555 294.853579 
L 790.9762 313.142727 
L 798.063846 302.169238 
L 805.151492 302.169238 
L 812.239138 302.169238 
L 819.326783 294.853579 
L 826.414429 298.511408 
L 833.502075 302.169238 
L 840.58972 291.195749 
L 847.677366 302.169238 
L 854.765012 294.853579 
L 861.852657 291.195749 
L 868.940303 294.853579 
L 876.027949 294.853579 
L 883.115594 269.248771 
L 890.20324 272.906601 
L 897.290886 272.906601 
L 904.378531 283.88009 
L 911.466177 283.88009 
L 918.553823 258.275282 
L 925.641469 265.590941 
L 932.729114 265.590941 
L 939.81676 258.275282 
L 946.904406 261.933112 
L 953.992051 250.959622 
L 961.079697 221.696985 
L 968.167343 232.670474 
L 975.254988 243.643963 
L 982.342634 221.696985 
L 989.43028 232.670474 
L 996.517925 232.670474 
L 1003.605571 232.670474 
L 1010.693217 236.328304 
L 1017.780862 232.670474 
L 1024.868508 225.354815 
L 1031.956154 210.723496 
L 1039.0438 225.354815 
L 1046.131445 236.328304 
L 1053.219091 225.354815 
" style="fill:none;stroke:#4c72b0;stroke-linecap:round;stroke-width:1.5;"/>
   </g>
   <g id="line2d_38">
    <path clip-path="url(#p4d7d92d24d)" d="M 776.800909 115.619924 
L 783.888555 121.890489 
L 790.9762 109.349358 
L 798.063846 115.619924 
L 805.151492 118.755206 
L 812.239138 99.943511 
L 819.326783 103.078793 
L 826.414429 106.214076 
L 833.502075 103.078793 
L 840.58972 109.349358 
L 847.677366 115.619924 
L 854.765012 103.078793 
L 861.852657 112.484641 
L 868.940303 115.619924 
L 876.027949 106.214076 
L 883.115594 99.943511 
L 890.20324 103.078793 
L 897.290886 99.943511 
L 904.378531 93.672945 
L 911.466177 93.672945 
L 918.553823 93.672945 
L 925.641469 84.267098 
L 932.729114 96.808228 
L 939.81676 84.267098 
L 946.904406 81.131815 
L 953.992051 81.131815 
L 961.079697 65.455402 
L 968.167343 65.455402 
L 975.254988 65.455402 
L 982.342634 49.778989 
L 989.43028 52.914272 
L 996.517925 46.643706 
L 1003.605571 59.184837 
L 1010.693217 43.508424 
L 1017.780862 49.778989 
L 1024.868508 59.184837 
L 1031.956154 52.914272 
L 1039.0438 43.508424 
L 1046.131445 52.914272 
L 1053.219091 52.914272 
" style="fill:none;stroke:#dd8452;stroke-linecap:round;stroke-width:1.5;"/>
   </g>
   <g id="line2d_39">
    <path clip-path="url(#p4d7d92d24d)" d="M 776.800909 311.783 
L 776.800909 42.557 
" style="fill:none;stroke:#1a1a1a;stroke-dasharray:5.55,2.4;stroke-dashoffset:0;stroke-width:1.5;"/>
   </g>
   <g id="line2d_40">
    <path clip-path="url(#p4d7d92d24d)" d="M 883.115594 311.783 
L 883.115594 42.557 
" style="fill:none;stroke:#1a1a1a;stroke-dasharray:5.55,2.4;stroke-dashoffset:0;stroke-width:1.5;"/>
   </g>
   <g id="line2d_41">
    <path clip-path="url(#p4d7d92d24d)" d="M 918.553823 311.783 
L 918.553823 42.557 
" style="fill:none;stroke:#1a1a1a;stroke-dasharray:5.55,2.4;stroke-dashoffset:0;stroke-width:1.5;"/>
   </g>
   <g id="line2d_42">
    <path clip-path="url(#p4d7d92d24d)" d="M 953.992051 311.783 
L 953.992051 42.557 
" style="fill:none;stroke:#1a1a1a;stroke-dasharray:5.55,2.4;stroke-dashoffset:0;stroke-width:1.5;"/>
   </g>
   <g id="patch_13">
    <path d="M 762.98 326.74 
L 762.98 27.6 
" style="fill:none;stroke:#ffffff;stroke-linecap:square;stroke-linejoin:miter;stroke-width:1.25;"/>
   </g>
   <g id="patch_14">
    <path d="M 1067.04 326.74 
L 1067.04 27.6 
" style="fill:none;stroke:#ffffff;stroke-linecap:square;stroke-linejoin:miter;stroke-width:1.25;"/>
   </g>
   <g id="patch_15">
    <path d="M 762.98 326.74 
L 1067.04 326.74 
" style="fill:none;stroke:#ffffff;stroke-linecap:square;stroke-linejoin:miter;stroke-width:1.25;"/>
   </g>
   <g id="patch_16">
    <path d="M 762.98 27.6 
L 1067.04 27.6 
" style="fill:none;stroke:#ffffff;stroke-linecap:square;stroke-linejoin:miter;stroke-width:1.25;"/>
   </g>
   <g id="text_42">
    <!-- 0.9620 -->
    <g style="fill:#262626;" transform="translate(834.571066 275.758649)rotate(-330)scale(0.08 -0.08)">
     <use xlink:href="#DejaVuSans-48"/>
     <use x="63.623047" xlink:href="#DejaVuSans-46"/>
     <use x="95.410156" xlink:href="#DejaVuSans-57"/>
     <use x="159.033203" xlink:href="#DejaVuSans-54"/>
     <use x="222.65625" xlink:href="#DejaVuSans-50"/>
     <use x="286.279297" xlink:href="#DejaVuSans-48"/>
    </g>
   </g>
   <g id="text_43">
    <!-- 0.9630 -->
    <g style="fill:#262626;" transform="translate(855.834003 253.811671)rotate(-330)scale(0.08 -0.08)">
     <use xlink:href="#DejaVuSans-48"/>
     <use x="63.623047" xlink:href="#DejaVuSans-46"/>
     <use x="95.410156" xlink:href="#DejaVuSans-57"/>
     <use x="159.033203" xlink:href="#DejaVuSans-54"/>
     <use x="222.65625" xlink:href="#DejaVuSans-51"/>
     <use x="286.279297" xlink:href="#DejaVuSans-48"/>
    </g>
   </g>
   <g id="text_44">
    <!-- 0.9635 -->
    <g style="fill:#262626;" transform="translate(912.535169 242.838182)rotate(-330)scale(0.08 -0.08)">
     <use xlink:href="#DejaVuSans-48"/>
     <use x="63.623047" xlink:href="#DejaVuSans-46"/>
     <use x="95.410156" xlink:href="#DejaVuSans-57"/>
     <use x="159.033203" xlink:href="#DejaVuSans-54"/>
     <use x="222.65625" xlink:href="#DejaVuSans-51"/>
     <use x="286.279297" xlink:href="#DejaVuSans-53"/>
    </g>
   </g>
   <g id="text_45">
    <!-- 0.9657 -->
    <g style="fill:#262626;" transform="translate(1004.674563 195.286396)rotate(-330)scale(0.08 -0.08)">
     <use xlink:href="#DejaVuSans-48"/>
     <use x="63.623047" xlink:href="#DejaVuSans-46"/>
     <use x="95.410156" xlink:href="#DejaVuSans-57"/>
     <use x="159.033203" xlink:href="#DejaVuSans-54"/>
     <use x="222.65625" xlink:href="#DejaVuSans-53"/>
     <use x="286.279297" xlink:href="#DejaVuSans-55"/>
    </g>
   </g>
   <g id="text_46">
    <!-- 0.9707 -->
    <g style="fill:#262626;" transform="translate(784.957546 84.506411)rotate(-330)scale(0.08 -0.08)">
     <use xlink:href="#DejaVuSans-48"/>
     <use x="63.623047" xlink:href="#DejaVuSans-46"/>
     <use x="95.410156" xlink:href="#DejaVuSans-57"/>
     <use x="159.033203" xlink:href="#DejaVuSans-55"/>
     <use x="222.65625" xlink:href="#DejaVuSans-48"/>
     <use x="286.279297" xlink:href="#DejaVuSans-55"/>
    </g>
   </g>
   <g id="text_47">
    <!-- 0.9710 -->
    <g style="fill:#262626;" transform="translate(884.184586 78.235846)rotate(-330)scale(0.08 -0.08)">
     <use xlink:href="#DejaVuSans-48"/>
     <use x="63.623047" xlink:href="#DejaVuSans-46"/>
     <use x="95.410156" xlink:href="#DejaVuSans-57"/>
     <use x="159.033203" xlink:href="#DejaVuSans-55"/>
     <use x="222.65625" xlink:href="#DejaVuSans-49"/>
     <use x="286.279297" xlink:href="#DejaVuSans-48"/>
    </g>
   </g>
   <g id="text_48">
    <!-- 0.9716 -->
    <g style="fill:#262626;" transform="translate(919.622814 65.694715)rotate(-330)scale(0.08 -0.08)">
     <use xlink:href="#DejaVuSans-48"/>
     <use x="63.623047" xlink:href="#DejaVuSans-46"/>
     <use x="95.410156" xlink:href="#DejaVuSans-57"/>
     <use x="159.033203" xlink:href="#DejaVuSans-55"/>
     <use x="222.65625" xlink:href="#DejaVuSans-49"/>
     <use x="286.279297" xlink:href="#DejaVuSans-54"/>
    </g>
   </g>
   <g id="text_49">
    <!-- 0.9733 -->
    <g style="fill:#262626;" transform="translate(1011.762208 28.071324)rotate(-330)scale(0.08 -0.08)">
     <use xlink:href="#DejaVuSans-48"/>
     <use x="63.623047" xlink:href="#DejaVuSans-46"/>
     <use x="95.410156" xlink:href="#DejaVuSans-57"/>
     <use x="159.033203" xlink:href="#DejaVuSans-55"/>
     <use x="222.65625" xlink:href="#DejaVuSans-51"/>
     <use x="286.279297" xlink:href="#DejaVuSans-51"/>
    </g>
   </g>
   <g id="text_50">
    <!-- Triplet alpha=0.35 -->
    <g style="fill:#262626;" transform="translate(784.612268 154.4495)rotate(-270)scale(0.12 -0.12)">
     <use xlink:href="#DejaVuSans-84"/>
     <use x="60.865234" xlink:href="#DejaVuSans-114"/>
     <use x="101.978516" xlink:href="#DejaVuSans-105"/>
     <use x="129.761719" xlink:href="#DejaVuSans-112"/>
     <use x="193.238281" xlink:href="#DejaVuSans-108"/>
     <use x="221.021484" xlink:href="#DejaVuSans-101"/>
     <use x="282.544922" xlink:href="#DejaVuSans-116"/>
     <use x="321.753906" xlink:href="#DejaVuSans-32"/>
     <use x="353.541016" xlink:href="#DejaVuSans-97"/>
     <use x="414.820312" xlink:href="#DejaVuSans-108"/>
     <use x="442.603516" xlink:href="#DejaVuSans-112"/>
     <use x="506.080078" xlink:href="#DejaVuSans-104"/>
     <use x="569.458984" xlink:href="#DejaVuSans-97"/>
     <use x="630.738281" xlink:href="#DejaVuSans-61"/>
     <use x="714.527344" xlink:href="#DejaVuSans-48"/>
     <use x="778.150391" xlink:href="#DejaVuSans-46"/>
     <use x="809.9375" xlink:href="#DejaVuSans-51"/>
     <use x="873.560547" xlink:href="#DejaVuSans-53"/>
    </g>
   </g>
   <g id="text_51">
    <!-- Triplet alpha=0.3 -->
    <g style="fill:#262626;" transform="translate(887.383131 162.0845)rotate(-270)scale(0.12 -0.12)">
     <use xlink:href="#DejaVuSans-84"/>
     <use x="60.865234" xlink:href="#DejaVuSans-114"/>
     <use x="101.978516" xlink:href="#DejaVuSans-105"/>
     <use x="129.761719" xlink:href="#DejaVuSans-112"/>
     <use x="193.238281" xlink:href="#DejaVuSans-108"/>
     <use x="221.021484" xlink:href="#DejaVuSans-101"/>
     <use x="282.544922" xlink:href="#DejaVuSans-116"/>
     <use x="321.753906" xlink:href="#DejaVuSans-32"/>
     <use x="353.541016" xlink:href="#DejaVuSans-97"/>
     <use x="414.820312" xlink:href="#DejaVuSans-108"/>
     <use x="442.603516" xlink:href="#DejaVuSans-112"/>
     <use x="506.080078" xlink:href="#DejaVuSans-104"/>
     <use x="569.458984" xlink:href="#DejaVuSans-97"/>
     <use x="630.738281" xlink:href="#DejaVuSans-61"/>
     <use x="714.527344" xlink:href="#DejaVuSans-48"/>
     <use x="778.150391" xlink:href="#DejaVuSans-46"/>
     <use x="809.9375" xlink:href="#DejaVuSans-51"/>
    </g>
   </g>
   <g id="text_52">
    <!-- Triplet alpha=0.25 -->
    <g style="fill:#262626;" transform="translate(922.821359 154.4495)rotate(-270)scale(0.12 -0.12)">
     <use xlink:href="#DejaVuSans-84"/>
     <use x="60.865234" xlink:href="#DejaVuSans-114"/>
     <use x="101.978516" xlink:href="#DejaVuSans-105"/>
     <use x="129.761719" xlink:href="#DejaVuSans-112"/>
     <use x="193.238281" xlink:href="#DejaVuSans-108"/>
     <use x="221.021484" xlink:href="#DejaVuSans-101"/>
     <use x="282.544922" xlink:href="#DejaVuSans-116"/>
     <use x="321.753906" xlink:href="#DejaVuSans-32"/>
     <use x="353.541016" xlink:href="#DejaVuSans-97"/>
     <use x="414.820312" xlink:href="#DejaVuSans-108"/>
     <use x="442.603516" xlink:href="#DejaVuSans-112"/>
     <use x="506.080078" xlink:href="#DejaVuSans-104"/>
     <use x="569.458984" xlink:href="#DejaVuSans-97"/>
     <use x="630.738281" xlink:href="#DejaVuSans-61"/>
     <use x="714.527344" xlink:href="#DejaVuSans-48"/>
     <use x="778.150391" xlink:href="#DejaVuSans-46"/>
     <use x="809.9375" xlink:href="#DejaVuSans-50"/>
     <use x="873.560547" xlink:href="#DejaVuSans-53"/>
    </g>
   </g>
   <g id="text_53">
    <!-- Triplet alpha=0.2 -->
    <g style="fill:#262626;" transform="translate(961.803411 162.0845)rotate(-270)scale(0.12 -0.12)">
     <use xlink:href="#DejaVuSans-84"/>
     <use x="60.865234" xlink:href="#DejaVuSans-114"/>
     <use x="101.978516" xlink:href="#DejaVuSans-105"/>
     <use x="129.761719" xlink:href="#DejaVuSans-112"/>
     <use x="193.238281" xlink:href="#DejaVuSans-108"/>
     <use x="221.021484" xlink:href="#DejaVuSans-101"/>
     <use x="282.544922" xlink:href="#DejaVuSans-116"/>
     <use x="321.753906" xlink:href="#DejaVuSans-32"/>
     <use x="353.541016" xlink:href="#DejaVuSans-97"/>
     <use x="414.820312" xlink:href="#DejaVuSans-108"/>
     <use x="442.603516" xlink:href="#DejaVuSans-112"/>
     <use x="506.080078" xlink:href="#DejaVuSans-104"/>
     <use x="569.458984" xlink:href="#DejaVuSans-97"/>
     <use x="630.738281" xlink:href="#DejaVuSans-61"/>
     <use x="714.527344" xlink:href="#DejaVuSans-48"/>
     <use x="778.150391" xlink:href="#DejaVuSans-46"/>
     <use x="809.9375" xlink:href="#DejaVuSans-50"/>
    </g>
   </g>
   <g id="text_54">
    <!-- agedb_30, cfp_fp -->
    <defs>
     <path d="M 45.40625 27.984375 
Q 45.40625 37.75 41.375 43.109375 
Q 37.359375 48.484375 30.078125 48.484375 
Q 22.859375 48.484375 18.828125 43.109375 
Q 14.796875 37.75 14.796875 27.984375 
Q 14.796875 18.265625 18.828125 12.890625 
Q 22.859375 7.515625 30.078125 7.515625 
Q 37.359375 7.515625 41.375 12.890625 
Q 45.40625 18.265625 45.40625 27.984375 
z
M 54.390625 6.78125 
Q 54.390625 -7.171875 48.1875 -13.984375 
Q 42 -20.796875 29.203125 -20.796875 
Q 24.46875 -20.796875 20.265625 -20.09375 
Q 16.0625 -19.390625 12.109375 -17.921875 
L 12.109375 -9.1875 
Q 16.0625 -11.328125 19.921875 -12.34375 
Q 23.78125 -13.375 27.78125 -13.375 
Q 36.625 -13.375 41.015625 -8.765625 
Q 45.40625 -4.15625 45.40625 5.171875 
L 45.40625 9.625 
Q 42.625 4.78125 38.28125 2.390625 
Q 33.9375 0 27.875 0 
Q 17.828125 0 11.671875 7.65625 
Q 5.515625 15.328125 5.515625 27.984375 
Q 5.515625 40.671875 11.671875 48.328125 
Q 17.828125 56 27.875 56 
Q 33.9375 56 38.28125 53.609375 
Q 42.625 51.21875 45.40625 46.390625 
L 45.40625 54.6875 
L 54.390625 54.6875 
z
" id="DejaVuSans-103"/>
     <path d="M 45.40625 46.390625 
L 45.40625 75.984375 
L 54.390625 75.984375 
L 54.390625 0 
L 45.40625 0 
L 45.40625 8.203125 
Q 42.578125 3.328125 38.25 0.953125 
Q 33.9375 -1.421875 27.875 -1.421875 
Q 17.96875 -1.421875 11.734375 6.484375 
Q 5.515625 14.40625 5.515625 27.296875 
Q 5.515625 40.1875 11.734375 48.09375 
Q 17.96875 56 27.875 56 
Q 33.9375 56 38.25 53.625 
Q 42.578125 51.265625 45.40625 46.390625 
z
M 14.796875 27.296875 
Q 14.796875 17.390625 18.875 11.75 
Q 22.953125 6.109375 30.078125 6.109375 
Q 37.203125 6.109375 41.296875 11.75 
Q 45.40625 17.390625 45.40625 27.296875 
Q 45.40625 37.203125 41.296875 42.84375 
Q 37.203125 48.484375 30.078125 48.484375 
Q 22.953125 48.484375 18.875 42.84375 
Q 14.796875 37.203125 14.796875 27.296875 
z
" id="DejaVuSans-100"/>
     <path d="M 48.6875 27.296875 
Q 48.6875 37.203125 44.609375 42.84375 
Q 40.53125 48.484375 33.40625 48.484375 
Q 26.265625 48.484375 22.1875 42.84375 
Q 18.109375 37.203125 18.109375 27.296875 
Q 18.109375 17.390625 22.1875 11.75 
Q 26.265625 6.109375 33.40625 6.109375 
Q 40.53125 6.109375 44.609375 11.75 
Q 48.6875 17.390625 48.6875 27.296875 
z
M 18.109375 46.390625 
Q 20.953125 51.265625 25.265625 53.625 
Q 29.59375 56 35.59375 56 
Q 45.5625 56 51.78125 48.09375 
Q 58.015625 40.1875 58.015625 27.296875 
Q 58.015625 14.40625 51.78125 6.484375 
Q 45.5625 -1.421875 35.59375 -1.421875 
Q 29.59375 -1.421875 25.265625 0.953125 
Q 20.953125 3.328125 18.109375 8.203125 
L 18.109375 0 
L 9.078125 0 
L 9.078125 75.984375 
L 18.109375 75.984375 
z
" id="DejaVuSans-98"/>
     <path d="M 50.984375 -16.609375 
L 50.984375 -23.578125 
L -0.984375 -23.578125 
L -0.984375 -16.609375 
z
" id="DejaVuSans-95"/>
     <path d="M 11.71875 12.40625 
L 22.015625 12.40625 
L 22.015625 4 
L 14.015625 -11.625 
L 7.71875 -11.625 
L 11.71875 4 
z
" id="DejaVuSans-44"/>
     <path d="M 37.109375 75.984375 
L 37.109375 68.5 
L 28.515625 68.5 
Q 23.6875 68.5 21.796875 66.546875 
Q 19.921875 64.59375 19.921875 59.515625 
L 19.921875 54.6875 
L 34.71875 54.6875 
L 34.71875 47.703125 
L 19.921875 47.703125 
L 19.921875 0 
L 10.890625 0 
L 10.890625 47.703125 
L 2.296875 47.703125 
L 2.296875 54.6875 
L 10.890625 54.6875 
L 10.890625 58.5 
Q 10.890625 67.625 15.140625 71.796875 
Q 19.390625 75.984375 28.609375 75.984375 
z
" id="DejaVuSans-102"/>
    </defs>
    <g style="fill:#262626;" transform="translate(863.62375 21.6)scale(0.12 -0.12)">
     <use xlink:href="#DejaVuSans-97"/>
     <use x="61.279297" xlink:href="#DejaVuSans-103"/>
     <use x="124.755859" xlink:href="#DejaVuSans-101"/>
     <use x="186.279297" xlink:href="#DejaVuSans-100"/>
     <use x="249.755859" xlink:href="#DejaVuSans-98"/>
     <use x="313.232422" xlink:href="#DejaVuSans-95"/>
     <use x="363.232422" xlink:href="#DejaVuSans-51"/>
     <use x="426.855469" xlink:href="#DejaVuSans-48"/>
     <use x="490.478516" xlink:href="#DejaVuSans-44"/>
     <use x="522.265625" xlink:href="#DejaVuSans-32"/>
     <use x="554.052734" xlink:href="#DejaVuSans-99"/>
     <use x="609.033203" xlink:href="#DejaVuSans-102"/>
     <use x="644.238281" xlink:href="#DejaVuSans-112"/>
     <use x="707.714844" xlink:href="#DejaVuSans-95"/>
     <use x="757.714844" xlink:href="#DejaVuSans-102"/>
     <use x="792.919922" xlink:href="#DejaVuSans-112"/>
    </g>
   </g>
   <g id="legend_1">
    <g id="patch_17">
     <path d="M 970.183281 321.24 
L 1059.34 321.24 
Q 1061.54 321.24 1061.54 319.04 
L 1061.54 287.23625 
Q 1061.54 285.03625 1059.34 285.03625 
L 970.183281 285.03625 
Q 967.983281 285.03625 967.983281 287.23625 
L 967.983281 319.04 
Q 967.983281 321.24 970.183281 321.24 
z
" style="fill:#eaeaf2;opacity:0.8;stroke:#cccccc;stroke-linejoin:miter;"/>
    </g>
    <g id="line2d_43">
     <path d="M 972.383281 293.944531 
L 994.383281 293.944531 
" style="fill:none;stroke:#4c72b0;stroke-linecap:round;stroke-width:1.5;"/>
    </g>
    <g id="line2d_44"/>
    <g id="text_55">
     <!-- agedb_30 -->
     <g style="fill:#262626;" transform="translate(1003.183281 297.794531)scale(0.11 -0.11)">
      <use xlink:href="#DejaVuSans-97"/>
      <use x="61.279297" xlink:href="#DejaVuSans-103"/>
      <use x="124.755859" xlink:href="#DejaVuSans-101"/>
      <use x="186.279297" xlink:href="#DejaVuSans-100"/>
      <use x="249.755859" xlink:href="#DejaVuSans-98"/>
      <use x="313.232422" xlink:href="#DejaVuSans-95"/>
      <use x="363.232422" xlink:href="#DejaVuSans-51"/>
      <use x="426.855469" xlink:href="#DejaVuSans-48"/>
     </g>
    </g>
    <g id="line2d_45">
     <path d="M 972.383281 310.396406 
L 994.383281 310.396406 
" style="fill:none;stroke:#dd8452;stroke-linecap:round;stroke-width:1.5;"/>
    </g>
    <g id="line2d_46"/>
    <g id="text_56">
     <!-- cfp_fp -->
     <g style="fill:#262626;" transform="translate(1003.183281 314.246406)scale(0.11 -0.11)">
      <use xlink:href="#DejaVuSans-99"/>
      <use x="54.980469" xlink:href="#DejaVuSans-102"/>
      <use x="90.185547" xlink:href="#DejaVuSans-112"/>
      <use x="153.662109" xlink:href="#DejaVuSans-95"/>
      <use x="203.662109" xlink:href="#DejaVuSans-102"/>
      <use x="238.867188" xlink:href="#DejaVuSans-112"/>
     </g>
    </g>
   </g>
  </g>
 </g>
 <defs>
  <clipPath id="pc37082fbb9">
   <rect height="299.14" width="304.06" x="46.94" y="27.6"/>
  </clipPath>
  <clipPath id="p3bfeec5c27">
   <rect height="299.14" width="304.06" x="404.96" y="27.6"/>
  </clipPath>
  <clipPath id="p4d7d92d24d">
   <rect height="299.14" width="304.06" x="762.98" y="27.6"/>
  </clipPath>
 </defs>
</svg>
