<?xml version="1.0" encoding="utf-8" standalone="no"?>
<!DOCTYPE svg PUBLIC "-//W3C//DTD SVG 1.1//EN"
  "http://www.w3.org/Graphics/SVG/1.1/DTD/svg11.dtd">
<!-- Created with matplotlib (https://matplotlib.org/) -->
<svg height="360pt" version="1.1" viewBox="0 0 1080 360" width="1080pt" xmlns="http://www.w3.org/2000/svg" xmlns:xlink="http://www.w3.org/1999/xlink">
 <defs>
  <style type="text/css">
*{stroke-linecap:butt;stroke-linejoin:round;}
  </style>
 </defs>
 <g id="figure_1">
  <g id="patch_1">
   <path d="M 0 360 
L 1080 360 
L 1080 0 
L 0 0 
z
" style="fill:#ffffff;"/>
  </g>
  <g id="axes_1">
   <g id="patch_2">
    <path d="M 36.5 326.74 
L 318.797563 326.74 
L 318.797563 27.6 
L 36.5 27.6 
z
" style="fill:#eaeaf2;"/>
   </g>
   <g id="matplotlib.axis_1">
    <g id="xtick_1">
     <g id="line2d_1">
      <path clip-path="url(#p6a0037f1b4)" d="M 45.29709 326.74 
L 45.29709 27.6 
" style="fill:none;stroke:#ffffff;stroke-linecap:round;"/>
     </g>
     <g id="text_1">
      <!-- 0 -->
      <defs>
       <path d="M 31.78125 66.40625 
Q 24.171875 66.40625 20.328125 58.90625 
Q 16.5 51.421875 16.5 36.375 
Q 16.5 21.390625 20.328125 13.890625 
Q 24.171875 6.390625 31.78125 6.390625 
Q 39.453125 6.390625 43.28125 13.890625 
Q 47.125 21.390625 47.125 36.375 
Q 47.125 51.421875 43.28125 58.90625 
Q 39.453125 66.40625 31.78125 66.40625 
z
M 31.78125 74.21875 
Q 44.046875 74.21875 50.515625 64.515625 
Q 56.984375 54.828125 56.984375 36.375 
Q 56.984375 17.96875 50.515625 8.265625 
Q 44.046875 -1.421875 31.78125 -1.421875 
Q 19.53125 -1.421875 13.0625 8.265625 
Q 6.59375 17.96875 6.59375 36.375 
Q 6.59375 54.828125 13.0625 64.515625 
Q 19.53125 74.21875 31.78125 74.21875 
z
" id="DejaVuSans-48"/>
      </defs>
      <g style="fill:#262626;" transform="translate(41.797715 344.598281)scale(0.11 -0.11)">
       <use xlink:href="#DejaVuSans-48"/>
      </g>
     </g>
    </g>
    <g id="xtick_2">
     <g id="line2d_2">
      <path clip-path="url(#p6a0037f1b4)" d="M 65.470177 326.74 
L 65.470177 27.6 
" style="fill:none;stroke:#ffffff;stroke-linecap:round;"/>
     </g>
     <g id="text_2">
      <!-- 5 -->
      <defs>
       <path d="M 10.796875 72.90625 
L 49.515625 72.90625 
L 49.515625 64.59375 
L 19.828125 64.59375 
L 19.828125 46.734375 
Q 21.96875 47.46875 24.109375 47.828125 
Q 26.265625 48.1875 28.421875 48.1875 
Q 40.625 48.1875 47.75 41.5 
Q 54.890625 34.8125 54.890625 23.390625 
Q 54.890625 11.625 47.5625 5.09375 
Q 40.234375 -1.421875 26.90625 -1.421875 
Q 22.3125 -1.421875 17.546875 -0.640625 
Q 12.796875 0.140625 7.71875 1.703125 
L 7.71875 11.625 
Q 12.109375 9.234375 16.796875 8.0625 
Q 21.484375 6.890625 26.703125 6.890625 
Q 35.15625 6.890625 40.078125 11.328125 
Q 45.015625 15.765625 45.015625 23.390625 
Q 45.015625 31 40.078125 35.4375 
Q 35.15625 39.890625 26.703125 39.890625 
Q 22.75 39.890625 18.8125 39.015625 
Q 14.890625 38.140625 10.796875 36.28125 
z
" id="DejaVuSans-53"/>
      </defs>
      <g style="fill:#262626;" transform="translate(61.970802 344.598281)scale(0.11 -0.11)">
       <use xlink:href="#DejaVuSans-53"/>
      </g>
     </g>
    </g>
    <g id="xtick_3">
     <g id="line2d_3">
      <path clip-path="url(#p6a0037f1b4)" d="M 85.643264 326.74 
L 85.643264 27.6 
" style="fill:none;stroke:#ffffff;stroke-linecap:round;"/>
     </g>
     <g id="text_3">
      <!-- 10 -->
      <defs>
       <path d="M 12.40625 8.296875 
L 28.515625 8.296875 
L 28.515625 63.921875 
L 10.984375 60.40625 
L 10.984375 69.390625 
L 28.421875 72.90625 
L 38.28125 72.90625 
L 38.28125 8.296875 
L 54.390625 8.296875 
L 54.390625 0 
L 12.40625 0 
z
" id="DejaVuSans-49"/>
      </defs>
      <g style="fill:#262626;" transform="translate(78.644514 344.598281)scale(0.11 -0.11)">
       <use xlink:href="#DejaVuSans-49"/>
       <use x="63.623047" xlink:href="#DejaVuSans-48"/>
      </g>
     </g>
    </g>
    <g id="xtick_4">
     <g id="line2d_4">
      <path clip-path="url(#p6a0037f1b4)" d="M 105.81635 326.74 
L 105.81635 27.6 
" style="fill:none;stroke:#ffffff;stroke-linecap:round;"/>
     </g>
     <g id="text_4">
      <!-- 15 -->
      <g style="fill:#262626;" transform="translate(98.8176 344.598281)scale(0.11 -0.11)">
       <use xlink:href="#DejaVuSans-49"/>
       <use x="63.623047" xlink:href="#DejaVuSans-53"/>
      </g>
     </g>
    </g>
    <g id="xtick_5">
     <g id="line2d_5">
      <path clip-path="url(#p6a0037f1b4)" d="M 125.989437 326.74 
L 125.989437 27.6 
" style="fill:none;stroke:#ffffff;stroke-linecap:round;"/>
     </g>
     <g id="text_5">
      <!-- 20 -->
      <defs>
       <path d="M 19.1875 8.296875 
L 53.609375 8.296875 
L 53.609375 0 
L 7.328125 0 
L 7.328125 8.296875 
Q 12.9375 14.109375 22.625 23.890625 
Q 32.328125 33.6875 34.8125 36.53125 
Q 39.546875 41.84375 41.421875 45.53125 
Q 43.3125 49.21875 43.3125 52.78125 
Q 43.3125 58.59375 39.234375 62.25 
Q 35.15625 65.921875 28.609375 65.921875 
Q 23.96875 65.921875 18.8125 64.3125 
Q 13.671875 62.703125 7.8125 59.421875 
L 7.8125 69.390625 
Q 13.765625 71.78125 18.9375 73 
Q 24.125 74.21875 28.421875 74.21875 
Q 39.75 74.21875 46.484375 68.546875 
Q 53.21875 62.890625 53.21875 53.421875 
Q 53.21875 48.921875 51.53125 44.890625 
Q 49.859375 40.875 45.40625 35.40625 
Q 44.1875 33.984375 37.640625 27.21875 
Q 31.109375 20.453125 19.1875 8.296875 
z
" id="DejaVuSans-50"/>
      </defs>
      <g style="fill:#262626;" transform="translate(118.990687 344.598281)scale(0.11 -0.11)">
       <use xlink:href="#DejaVuSans-50"/>
       <use x="63.623047" xlink:href="#DejaVuSans-48"/>
      </g>
     </g>
    </g>
    <g id="xtick_6">
     <g id="line2d_6">
      <path clip-path="url(#p6a0037f1b4)" d="M 146.162524 326.74 
L 146.162524 27.6 
" style="fill:none;stroke:#ffffff;stroke-linecap:round;"/>
     </g>
     <g id="text_6">
      <!-- 25 -->
      <g style="fill:#262626;" transform="translate(139.163774 344.598281)scale(0.11 -0.11)">
       <use xlink:href="#DejaVuSans-50"/>
       <use x="63.623047" xlink:href="#DejaVuSans-53"/>
      </g>
     </g>
    </g>
    <g id="xtick_7">
     <g id="line2d_7">
      <path clip-path="url(#p6a0037f1b4)" d="M 166.335611 326.74 
L 166.335611 27.6 
" style="fill:none;stroke:#ffffff;stroke-linecap:round;"/>
     </g>
     <g id="text_7">
      <!-- 30 -->
      <defs>
       <path d="M 40.578125 39.3125 
Q 47.65625 37.796875 51.625 33 
Q 55.609375 28.21875 55.609375 21.1875 
Q 55.609375 10.40625 48.1875 4.484375 
Q 40.765625 -1.421875 27.09375 -1.421875 
Q 22.515625 -1.421875 17.65625 -0.515625 
Q 12.796875 0.390625 7.625 2.203125 
L 7.625 11.71875 
Q 11.71875 9.328125 16.59375 8.109375 
Q 21.484375 6.890625 26.8125 6.890625 
Q 36.078125 6.890625 40.9375 10.546875 
Q 45.796875 14.203125 45.796875 21.1875 
Q 45.796875 27.640625 41.28125 31.265625 
Q 36.765625 34.90625 28.71875 34.90625 
L 20.21875 34.90625 
L 20.21875 43.015625 
L 29.109375 43.015625 
Q 36.375 43.015625 40.234375 45.921875 
Q 44.09375 48.828125 44.09375 54.296875 
Q 44.09375 59.90625 40.109375 62.90625 
Q 36.140625 65.921875 28.71875 65.921875 
Q 24.65625 65.921875 20.015625 65.03125 
Q 15.375 64.15625 9.8125 62.3125 
L 9.8125 71.09375 
Q 15.4375 72.65625 20.34375 73.4375 
Q 25.25 74.21875 29.59375 74.21875 
Q 40.828125 74.21875 47.359375 69.109375 
Q 53.90625 64.015625 53.90625 55.328125 
Q 53.90625 49.265625 50.4375 45.09375 
Q 46.96875 40.921875 40.578125 39.3125 
z
" id="DejaVuSans-51"/>
      </defs>
      <g style="fill:#262626;" transform="translate(159.336861 344.598281)scale(0.11 -0.11)">
       <use xlink:href="#DejaVuSans-51"/>
       <use x="63.623047" xlink:href="#DejaVuSans-48"/>
      </g>
     </g>
    </g>
    <g id="xtick_8">
     <g id="line2d_8">
      <path clip-path="url(#p6a0037f1b4)" d="M 186.508697 326.74 
L 186.508697 27.6 
" style="fill:none;stroke:#ffffff;stroke-linecap:round;"/>
     </g>
     <g id="text_8">
      <!-- 35 -->
      <g style="fill:#262626;" transform="translate(179.509947 344.598281)scale(0.11 -0.11)">
       <use xlink:href="#DejaVuSans-51"/>
       <use x="63.623047" xlink:href="#DejaVuSans-53"/>
      </g>
     </g>
    </g>
    <g id="xtick_9">
     <g id="line2d_9">
      <path clip-path="url(#p6a0037f1b4)" d="M 206.681784 326.74 
L 206.681784 27.6 
" style="fill:none;stroke:#ffffff;stroke-linecap:round;"/>
     </g>
     <g id="text_9">
      <!-- 40 -->
      <defs>
       <path d="M 37.796875 64.3125 
L 12.890625 25.390625 
L 37.796875 25.390625 
z
M 35.203125 72.90625 
L 47.609375 72.90625 
L 47.609375 25.390625 
L 58.015625 25.390625 
L 58.015625 17.1875 
L 47.609375 17.1875 
L 47.609375 0 
L 37.796875 0 
L 37.796875 17.1875 
L 4.890625 17.1875 
L 4.890625 26.703125 
z
" id="DejaVuSans-52"/>
      </defs>
      <g style="fill:#262626;" transform="translate(199.683034 344.598281)scale(0.11 -0.11)">
       <use xlink:href="#DejaVuSans-52"/>
       <use x="63.623047" xlink:href="#DejaVuSans-48"/>
      </g>
     </g>
    </g>
    <g id="xtick_10">
     <g id="line2d_10">
      <path clip-path="url(#p6a0037f1b4)" d="M 226.854871 326.74 
L 226.854871 27.6 
" style="fill:none;stroke:#ffffff;stroke-linecap:round;"/>
     </g>
     <g id="text_10">
      <!-- 45 -->
      <g style="fill:#262626;" transform="translate(219.856121 344.598281)scale(0.11 -0.11)">
       <use xlink:href="#DejaVuSans-52"/>
       <use x="63.623047" xlink:href="#DejaVuSans-53"/>
      </g>
     </g>
    </g>
    <g id="xtick_11">
     <g id="line2d_11">
      <path clip-path="url(#p6a0037f1b4)" d="M 247.027958 326.74 
L 247.027958 27.6 
" style="fill:none;stroke:#ffffff;stroke-linecap:round;"/>
     </g>
     <g id="text_11">
      <!-- 50 -->
      <g style="fill:#262626;" transform="translate(240.029208 344.598281)scale(0.11 -0.11)">
       <use xlink:href="#DejaVuSans-53"/>
       <use x="63.623047" xlink:href="#DejaVuSans-48"/>
      </g>
     </g>
    </g>
    <g id="xtick_12">
     <g id="line2d_12">
      <path clip-path="url(#p6a0037f1b4)" d="M 267.201044 326.74 
L 267.201044 27.6 
" style="fill:none;stroke:#ffffff;stroke-linecap:round;"/>
     </g>
     <g id="text_12">
      <!-- 55 -->
      <g style="fill:#262626;" transform="translate(260.202294 344.598281)scale(0.11 -0.11)">
       <use xlink:href="#DejaVuSans-53"/>
       <use x="63.623047" xlink:href="#DejaVuSans-53"/>
      </g>
     </g>
    </g>
    <g id="xtick_13">
     <g id="line2d_13">
      <path clip-path="url(#p6a0037f1b4)" d="M 287.374131 326.74 
L 287.374131 27.6 
" style="fill:none;stroke:#ffffff;stroke-linecap:round;"/>
     </g>
     <g id="text_13">
      <!-- 60 -->
      <defs>
       <path d="M 33.015625 40.375 
Q 26.375 40.375 22.484375 35.828125 
Q 18.609375 31.296875 18.609375 23.390625 
Q 18.609375 15.53125 22.484375 10.953125 
Q 26.375 6.390625 33.015625 6.390625 
Q 39.65625 6.390625 43.53125 10.953125 
Q 47.40625 15.53125 47.40625 23.390625 
Q 47.40625 31.296875 43.53125 35.828125 
Q 39.65625 40.375 33.015625 40.375 
z
M 52.59375 71.296875 
L 52.59375 62.3125 
Q 48.875 64.0625 45.09375 64.984375 
Q 41.3125 65.921875 37.59375 65.921875 
Q 27.828125 65.921875 22.671875 59.328125 
Q 17.53125 52.734375 16.796875 39.40625 
Q 19.671875 43.65625 24.015625 45.921875 
Q 28.375 48.1875 33.59375 48.1875 
Q 44.578125 48.1875 50.953125 41.515625 
Q 57.328125 34.859375 57.328125 23.390625 
Q 57.328125 12.15625 50.6875 5.359375 
Q 44.046875 -1.421875 33.015625 -1.421875 
Q 20.359375 -1.421875 13.671875 8.265625 
Q 6.984375 17.96875 6.984375 36.375 
Q 6.984375 53.65625 15.1875 63.9375 
Q 23.390625 74.21875 37.203125 74.21875 
Q 40.921875 74.21875 44.703125 73.484375 
Q 48.484375 72.75 52.59375 71.296875 
z
" id="DejaVuSans-54"/>
      </defs>
      <g style="fill:#262626;" transform="translate(280.375381 344.598281)scale(0.11 -0.11)">
       <use xlink:href="#DejaVuSans-54"/>
       <use x="63.623047" xlink:href="#DejaVuSans-48"/>
      </g>
     </g>
    </g>
   </g>
   <g id="matplotlib.axis_2">
    <g id="ytick_1">
     <g id="line2d_14">
      <path clip-path="url(#p6a0037f1b4)" d="M 36.5 318.273199 
L 318.797563 318.273199 
" style="fill:none;stroke:#ffffff;stroke-linecap:round;"/>
     </g>
     <g id="text_14">
      <!-- 0 -->
      <g style="fill:#262626;" transform="translate(20.00125 322.45234)scale(0.11 -0.11)">
       <use xlink:href="#DejaVuSans-48"/>
      </g>
     </g>
    </g>
    <g id="ytick_2">
     <g id="line2d_15">
      <path clip-path="url(#p6a0037f1b4)" d="M 36.5 255.616674 
L 318.797563 255.616674 
" style="fill:none;stroke:#ffffff;stroke-linecap:round;"/>
     </g>
     <g id="text_15">
      <!-- 5 -->
      <g style="fill:#262626;" transform="translate(20.00125 259.795815)scale(0.11 -0.11)">
       <use xlink:href="#DejaVuSans-53"/>
      </g>
     </g>
    </g>
    <g id="ytick_3">
     <g id="line2d_16">
      <path clip-path="url(#p6a0037f1b4)" d="M 36.5 192.960149 
L 318.797563 192.960149 
" style="fill:none;stroke:#ffffff;stroke-linecap:round;"/>
     </g>
     <g id="text_16">
      <!-- 10 -->
      <g style="fill:#262626;" transform="translate(13.0025 197.139289)scale(0.11 -0.11)">
       <use xlink:href="#DejaVuSans-49"/>
       <use x="63.623047" xlink:href="#DejaVuSans-48"/>
      </g>
     </g>
    </g>
    <g id="ytick_4">
     <g id="line2d_17">
      <path clip-path="url(#p6a0037f1b4)" d="M 36.5 130.303623 
L 318.797563 130.303623 
" style="fill:none;stroke:#ffffff;stroke-linecap:round;"/>
     </g>
     <g id="text_17">
      <!-- 15 -->
      <g style="fill:#262626;" transform="translate(13.0025 134.482764)scale(0.11 -0.11)">
       <use xlink:href="#DejaVuSans-49"/>
       <use x="63.623047" xlink:href="#DejaVuSans-53"/>
      </g>
     </g>
    </g>
    <g id="ytick_5">
     <g id="line2d_18">
      <path clip-path="url(#p6a0037f1b4)" d="M 36.5 67.647098 
L 318.797563 67.647098 
" style="fill:none;stroke:#ffffff;stroke-linecap:round;"/>
     </g>
     <g id="text_18">
      <!-- 20 -->
      <g style="fill:#262626;" transform="translate(13.0025 71.826239)scale(0.11 -0.11)">
       <use xlink:href="#DejaVuSans-50"/>
       <use x="63.623047" xlink:href="#DejaVuSans-48"/>
      </g>
     </g>
    </g>
   </g>
   <g id="PathCollection_1">
    <defs>
     <path d="M -0 3 
L 3 -3 
L -3 -3 
z
" id="m07419329f0" style="stroke:#c44e52;"/>
    </defs>
    <g clip-path="url(#p6a0037f1b4)">
     <use style="fill:#c44e52;stroke:#c44e52;" x="105.81635" xlink:href="#m07419329f0" y="310.505043"/>
    </g>
   </g>
   <g id="PathCollection_2">
    <g clip-path="url(#p6a0037f1b4)">
     <use style="fill:#c44e52;stroke:#c44e52;" x="146.162524" xlink:href="#m07419329f0" y="310.814566"/>
    </g>
   </g>
   <g id="PathCollection_3">
    <g clip-path="url(#p6a0037f1b4)">
     <use style="fill:#c44e52;stroke:#c44e52;" x="162.300993" xlink:href="#m07419329f0" y="100.083128"/>
    </g>
   </g>
   <g id="PathCollection_4">
    <g clip-path="url(#p6a0037f1b4)">
     <use style="fill:#c44e52;stroke:#c44e52;" x="303.5126" xlink:href="#m07419329f0" y="150.135851"/>
    </g>
   </g>
   <g id="line2d_19">
    <path clip-path="url(#p6a0037f1b4)" d="M 49.331707 254.886099 
L 53.366325 297.040156 
L 57.400942 302.55393 
L 61.435559 304.787009 
L 65.470177 306.003798 
L 69.504794 306.847155 
L 73.539412 307.490011 
L 77.574029 307.976226 
L 81.608646 308.373468 
L 85.643264 308.698029 
L 89.677881 308.959933 
L 93.712498 309.652914 
L 97.747116 310.0276 
L 101.781733 310.310808 
L 105.81635 310.505043 
L 109.850968 309.205547 
L 113.885585 309.770709 
L 117.920202 310.07146 
L 121.95482 310.251911 
L 125.989437 310.391008 
L 130.024054 310.505043 
L 134.058672 310.610306 
L 138.093289 310.696772 
L 142.127906 310.749404 
L 146.162524 310.814566 
L 150.197141 41.197273 
L 154.231759 90.464098 
L 158.266376 96.823736 
L 162.300993 100.083128 
L 166.335611 129.032949 
L 170.370228 137.098097 
L 174.404845 139.621902 
L 178.439463 140.850902 
L 182.47408 142.171214 
L 186.508697 143.18815 
L 190.543315 143.999785 
L 194.577932 144.650866 
L 198.612549 145.27981 
L 202.647167 145.864728 
L 206.681784 146.341778 
L 210.716401 146.790181 
L 214.751019 147.056626 
L 218.785636 147.419976 
L 222.820253 147.724207 
L 226.854871 147.964749 
L 230.889488 148.233845 
L 234.924105 148.477329 
L 238.958723 148.675144 
L 242.99334 148.884043 
L 247.027958 149.025371 
L 251.062575 149.166918 
L 255.097192 149.301663 
L 259.13181 149.424008 
L 263.166427 149.551284 
L 267.201044 149.5131 
L 271.235662 149.648666 
L 275.270279 149.723008 
L 279.304896 149.823321 
L 283.339514 149.861406 
L 287.374131 149.938272 
L 291.408748 149.988412 
L 295.443366 150.056689 
L 299.477983 150.101214 
L 303.5126 150.135851 
" style="fill:none;stroke:#4c72b0;stroke-linecap:round;stroke-width:1.5;"/>
   </g>
   <g id="line2d_20">
    <path clip-path="url(#p6a0037f1b4)" d="M 49.331707 311.783 
L 49.331707 42.557 
" style="fill:none;stroke:#1a1a1a;stroke-dasharray:5.55,2.4;stroke-dashoffset:0;stroke-width:1.5;"/>
   </g>
   <g id="line2d_21">
    <path clip-path="url(#p6a0037f1b4)" d="M 109.850968 311.783 
L 109.850968 42.557 
" style="fill:none;stroke:#1a1a1a;stroke-dasharray:5.55,2.4;stroke-dashoffset:0;stroke-width:1.5;"/>
   </g>
   <g id="line2d_22">
    <path clip-path="url(#p6a0037f1b4)" d="M 150.197141 311.783 
L 150.197141 42.557 
" style="fill:none;stroke:#1a1a1a;stroke-dasharray:5.55,2.4;stroke-dashoffset:0;stroke-width:1.5;"/>
   </g>
   <g id="line2d_23">
    <path clip-path="url(#p6a0037f1b4)" d="M 166.335611 311.783 
L 166.335611 42.557 
" style="fill:none;stroke:#1a1a1a;stroke-dasharray:5.55,2.4;stroke-dashoffset:0;stroke-width:1.5;"/>
   </g>
   <g id="patch_3">
    <path d="M 36.5 326.74 
L 36.5 27.6 
" style="fill:none;stroke:#ffffff;stroke-linecap:square;stroke-linejoin:miter;stroke-width:1.25;"/>
   </g>
   <g id="patch_4">
    <path d="M 318.797563 326.74 
L 318.797563 27.6 
" style="fill:none;stroke:#ffffff;stroke-linecap:square;stroke-linejoin:miter;stroke-width:1.25;"/>
   </g>
   <g id="patch_5">
    <path d="M 36.5 326.74 
L 318.797563 326.74 
" style="fill:none;stroke:#ffffff;stroke-linecap:square;stroke-linejoin:miter;stroke-width:1.25;"/>
   </g>
   <g id="patch_6">
    <path d="M 36.5 27.6 
L 318.797563 27.6 
" style="fill:none;stroke:#ffffff;stroke-linecap:square;stroke-linejoin:miter;stroke-width:1.25;"/>
   </g>
   <g id="text_19">
    <!-- 0.6199 -->
    <defs>
     <path d="M 10.6875 12.40625 
L 21 12.40625 
L 21 0 
L 10.6875 0 
z
" id="DejaVuSans-46"/>
     <path d="M 10.984375 1.515625 
L 10.984375 10.5 
Q 14.703125 8.734375 18.5 7.8125 
Q 22.3125 6.890625 25.984375 6.890625 
Q 35.75 6.890625 40.890625 13.453125 
Q 46.046875 20.015625 46.78125 33.40625 
Q 43.953125 29.203125 39.59375 26.953125 
Q 35.25 24.703125 29.984375 24.703125 
Q 19.046875 24.703125 12.671875 31.3125 
Q 6.296875 37.9375 6.296875 49.421875 
Q 6.296875 60.640625 12.9375 67.421875 
Q 19.578125 74.21875 30.609375 74.21875 
Q 43.265625 74.21875 49.921875 64.515625 
Q 56.59375 54.828125 56.59375 36.375 
Q 56.59375 19.140625 48.40625 8.859375 
Q 40.234375 -1.421875 26.421875 -1.421875 
Q 22.703125 -1.421875 18.890625 -0.6875 
Q 15.09375 0.046875 10.984375 1.515625 
z
M 30.609375 32.421875 
Q 37.25 32.421875 41.125 36.953125 
Q 45.015625 41.5 45.015625 49.421875 
Q 45.015625 57.28125 41.125 61.84375 
Q 37.25 66.40625 30.609375 66.40625 
Q 23.96875 66.40625 20.09375 61.84375 
Q 16.21875 57.28125 16.21875 49.421875 
Q 16.21875 41.5 20.09375 36.953125 
Q 23.96875 32.421875 30.609375 32.421875 
z
" id="DejaVuSans-57"/>
    </defs>
    <g style="fill:#262626;" transform="translate(105.81635 308.009418)scale(0.12 -0.12)">
     <use xlink:href="#DejaVuSans-48"/>
     <use x="63.623047" xlink:href="#DejaVuSans-46"/>
     <use x="95.410156" xlink:href="#DejaVuSans-54"/>
     <use x="159.033203" xlink:href="#DejaVuSans-49"/>
     <use x="222.65625" xlink:href="#DejaVuSans-57"/>
     <use x="286.279297" xlink:href="#DejaVuSans-57"/>
    </g>
   </g>
   <g id="text_20">
    <!-- 0.5952 -->
    <g style="fill:#262626;" transform="translate(146.162524 308.318941)scale(0.12 -0.12)">
     <use xlink:href="#DejaVuSans-48"/>
     <use x="63.623047" xlink:href="#DejaVuSans-46"/>
     <use x="95.410156" xlink:href="#DejaVuSans-53"/>
     <use x="159.033203" xlink:href="#DejaVuSans-57"/>
     <use x="222.65625" xlink:href="#DejaVuSans-53"/>
     <use x="286.279297" xlink:href="#DejaVuSans-50"/>
    </g>
   </g>
   <g id="text_21">
    <!-- 17.4116 -->
    <defs>
     <path d="M 8.203125 72.90625 
L 55.078125 72.90625 
L 55.078125 68.703125 
L 28.609375 0 
L 18.3125 0 
L 43.21875 64.59375 
L 8.203125 64.59375 
z
" id="DejaVuSans-55"/>
    </defs>
    <g style="fill:#262626;" transform="translate(162.300993 97.587503)scale(0.12 -0.12)">
     <use xlink:href="#DejaVuSans-49"/>
     <use x="63.623047" xlink:href="#DejaVuSans-55"/>
     <use x="127.246094" xlink:href="#DejaVuSans-46"/>
     <use x="159.033203" xlink:href="#DejaVuSans-52"/>
     <use x="222.65625" xlink:href="#DejaVuSans-49"/>
     <use x="286.279297" xlink:href="#DejaVuSans-49"/>
     <use x="349.902344" xlink:href="#DejaVuSans-54"/>
    </g>
   </g>
   <g id="text_22">
    <!-- 13.4174 -->
    <g style="fill:#262626;" transform="translate(303.5126 147.640226)scale(0.12 -0.12)">
     <use xlink:href="#DejaVuSans-49"/>
     <use x="63.623047" xlink:href="#DejaVuSans-51"/>
     <use x="127.246094" xlink:href="#DejaVuSans-46"/>
     <use x="159.033203" xlink:href="#DejaVuSans-52"/>
     <use x="222.65625" xlink:href="#DejaVuSans-49"/>
     <use x="286.279297" xlink:href="#DejaVuSans-55"/>
     <use x="349.902344" xlink:href="#DejaVuSans-52"/>
    </g>
   </g>
   <g id="text_23">
    <!-- Softmax -->
    <defs>
     <path d="M 53.515625 70.515625 
L 53.515625 60.890625 
Q 47.90625 63.578125 42.921875 64.890625 
Q 37.9375 66.21875 33.296875 66.21875 
Q 25.25 66.21875 20.875 63.09375 
Q 16.5 59.96875 16.5 54.203125 
Q 16.5 49.359375 19.40625 46.890625 
Q 22.3125 44.4375 30.421875 42.921875 
L 36.375 41.703125 
Q 47.40625 39.59375 52.65625 34.296875 
Q 57.90625 29 57.90625 20.125 
Q 57.90625 9.515625 50.796875 4.046875 
Q 43.703125 -1.421875 29.984375 -1.421875 
Q 24.8125 -1.421875 18.96875 -0.25 
Q 13.140625 0.921875 6.890625 3.21875 
L 6.890625 13.375 
Q 12.890625 10.015625 18.65625 8.296875 
Q 24.421875 6.59375 29.984375 6.59375 
Q 38.421875 6.59375 43.015625 9.90625 
Q 47.609375 13.234375 47.609375 19.390625 
Q 47.609375 24.75 44.3125 27.78125 
Q 41.015625 30.8125 33.5 32.328125 
L 27.484375 33.5 
Q 16.453125 35.6875 11.515625 40.375 
Q 6.59375 45.0625 6.59375 53.421875 
Q 6.59375 63.09375 13.40625 68.65625 
Q 20.21875 74.21875 32.171875 74.21875 
Q 37.3125 74.21875 42.625 73.28125 
Q 47.953125 72.359375 53.515625 70.515625 
z
" id="DejaVuSans-83"/>
     <path d="M 30.609375 48.390625 
Q 23.390625 48.390625 19.1875 42.75 
Q 14.984375 37.109375 14.984375 27.296875 
Q 14.984375 17.484375 19.15625 11.84375 
Q 23.34375 6.203125 30.609375 6.203125 
Q 37.796875 6.203125 41.984375 11.859375 
Q 46.1875 17.53125 46.1875 27.296875 
Q 46.1875 37.015625 41.984375 42.703125 
Q 37.796875 48.390625 30.609375 48.390625 
z
M 30.609375 56 
Q 42.328125 56 49.015625 48.375 
Q 55.71875 40.765625 55.71875 27.296875 
Q 55.71875 13.875 49.015625 6.21875 
Q 42.328125 -1.421875 30.609375 -1.421875 
Q 18.84375 -1.421875 12.171875 6.21875 
Q 5.515625 13.875 5.515625 27.296875 
Q 5.515625 40.765625 12.171875 48.375 
Q 18.84375 56 30.609375 56 
z
" id="DejaVuSans-111"/>
     <path d="M 37.109375 75.984375 
L 37.109375 68.5 
L 28.515625 68.5 
Q 23.6875 68.5 21.796875 66.546875 
Q 19.921875 64.59375 19.921875 59.515625 
L 19.921875 54.6875 
L 34.71875 54.6875 
L 34.71875 47.703125 
L 19.921875 47.703125 
L 19.921875 0 
L 10.890625 0 
L 10.890625 47.703125 
L 2.296875 47.703125 
L 2.296875 54.6875 
L 10.890625 54.6875 
L 10.890625 58.5 
Q 10.890625 67.625 15.140625 71.796875 
Q 19.390625 75.984375 28.609375 75.984375 
z
" id="DejaVuSans-102"/>
     <path d="M 18.3125 70.21875 
L 18.3125 54.6875 
L 36.8125 54.6875 
L 36.8125 47.703125 
L 18.3125 47.703125 
L 18.3125 18.015625 
Q 18.3125 11.328125 20.140625 9.421875 
Q 21.96875 7.515625 27.59375 7.515625 
L 36.8125 7.515625 
L 36.8125 0 
L 27.59375 0 
Q 17.1875 0 13.234375 3.875 
Q 9.28125 7.765625 9.28125 18.015625 
L 9.28125 47.703125 
L 2.6875 47.703125 
L 2.6875 54.6875 
L 9.28125 54.6875 
L 9.28125 70.21875 
z
" id="DejaVuSans-116"/>
     <path d="M 52 44.1875 
Q 55.375 50.25 60.0625 53.125 
Q 64.75 56 71.09375 56 
Q 79.640625 56 84.28125 50.015625 
Q 88.921875 44.046875 88.921875 33.015625 
L 88.921875 0 
L 79.890625 0 
L 79.890625 32.71875 
Q 79.890625 40.578125 77.09375 44.375 
Q 74.3125 48.1875 68.609375 48.1875 
Q 61.625 48.1875 57.5625 43.546875 
Q 53.515625 38.921875 53.515625 30.90625 
L 53.515625 0 
L 44.484375 0 
L 44.484375 32.71875 
Q 44.484375 40.625 41.703125 44.40625 
Q 38.921875 48.1875 33.109375 48.1875 
Q 26.21875 48.1875 22.15625 43.53125 
Q 18.109375 38.875 18.109375 30.90625 
L 18.109375 0 
L 9.078125 0 
L 9.078125 54.6875 
L 18.109375 54.6875 
L 18.109375 46.1875 
Q 21.1875 51.21875 25.484375 53.609375 
Q 29.78125 56 35.6875 56 
Q 41.65625 56 45.828125 52.96875 
Q 50 49.953125 52 44.1875 
z
" id="DejaVuSans-109"/>
     <path d="M 34.28125 27.484375 
Q 23.390625 27.484375 19.1875 25 
Q 14.984375 22.515625 14.984375 16.5 
Q 14.984375 11.71875 18.140625 8.90625 
Q 21.296875 6.109375 26.703125 6.109375 
Q 34.1875 6.109375 38.703125 11.40625 
Q 43.21875 16.703125 43.21875 25.484375 
L 43.21875 27.484375 
z
M 52.203125 31.203125 
L 52.203125 0 
L 43.21875 0 
L 43.21875 8.296875 
Q 40.140625 3.328125 35.546875 0.953125 
Q 30.953125 -1.421875 24.3125 -1.421875 
Q 15.921875 -1.421875 10.953125 3.296875 
Q 6 8.015625 6 15.921875 
Q 6 25.140625 12.171875 29.828125 
Q 18.359375 34.515625 30.609375 34.515625 
L 43.21875 34.515625 
L 43.21875 35.40625 
Q 43.21875 41.609375 39.140625 45 
Q 35.0625 48.390625 27.6875 48.390625 
Q 23 48.390625 18.546875 47.265625 
Q 14.109375 46.140625 10.015625 43.890625 
L 10.015625 52.203125 
Q 14.9375 54.109375 19.578125 55.046875 
Q 24.21875 56 28.609375 56 
Q 40.484375 56 46.34375 49.84375 
Q 52.203125 43.703125 52.203125 31.203125 
z
" id="DejaVuSans-97"/>
     <path d="M 54.890625 54.6875 
L 35.109375 28.078125 
L 55.90625 0 
L 45.3125 0 
L 29.390625 21.484375 
L 13.484375 0 
L 2.875 0 
L 24.125 28.609375 
L 4.6875 54.6875 
L 15.28125 54.6875 
L 29.78125 35.203125 
L 44.28125 54.6875 
z
" id="DejaVuSans-120"/>
    </defs>
    <g style="fill:#262626;" transform="translate(63.931184 216.8795)rotate(-270)scale(0.12 -0.12)">
     <use xlink:href="#DejaVuSans-83"/>
     <use x="63.476562" xlink:href="#DejaVuSans-111"/>
     <use x="124.658203" xlink:href="#DejaVuSans-102"/>
     <use x="159.847656" xlink:href="#DejaVuSans-116"/>
     <use x="199.056641" xlink:href="#DejaVuSans-109"/>
     <use x="296.46875" xlink:href="#DejaVuSans-97"/>
     <use x="357.748047" xlink:href="#DejaVuSans-120"/>
    </g>
   </g>
   <g id="text_24">
    <!-- Margin Softmax -->
    <defs>
     <path d="M 9.8125 72.90625 
L 24.515625 72.90625 
L 43.109375 23.296875 
L 61.8125 72.90625 
L 76.515625 72.90625 
L 76.515625 0 
L 66.890625 0 
L 66.890625 64.015625 
L 48.09375 14.015625 
L 38.1875 14.015625 
L 19.390625 64.015625 
L 19.390625 0 
L 9.8125 0 
z
" id="DejaVuSans-77"/>
     <path d="M 41.109375 46.296875 
Q 39.59375 47.171875 37.8125 47.578125 
Q 36.03125 48 33.890625 48 
Q 26.265625 48 22.1875 43.046875 
Q 18.109375 38.09375 18.109375 28.8125 
L 18.109375 0 
L 9.078125 0 
L 9.078125 54.6875 
L 18.109375 54.6875 
L 18.109375 46.1875 
Q 20.953125 51.171875 25.484375 53.578125 
Q 30.03125 56 36.53125 56 
Q 37.453125 56 38.578125 55.875 
Q 39.703125 55.765625 41.0625 55.515625 
z
" id="DejaVuSans-114"/>
     <path d="M 45.40625 27.984375 
Q 45.40625 37.75 41.375 43.109375 
Q 37.359375 48.484375 30.078125 48.484375 
Q 22.859375 48.484375 18.828125 43.109375 
Q 14.796875 37.75 14.796875 27.984375 
Q 14.796875 18.265625 18.828125 12.890625 
Q 22.859375 7.515625 30.078125 7.515625 
Q 37.359375 7.515625 41.375 12.890625 
Q 45.40625 18.265625 45.40625 27.984375 
z
M 54.390625 6.78125 
Q 54.390625 -7.171875 48.1875 -13.984375 
Q 42 -20.796875 29.203125 -20.796875 
Q 24.46875 -20.796875 20.265625 -20.09375 
Q 16.0625 -19.390625 12.109375 -17.921875 
L 12.109375 -9.1875 
Q 16.0625 -11.328125 19.921875 -12.34375 
Q 23.78125 -13.375 27.78125 -13.375 
Q 36.625 -13.375 41.015625 -8.765625 
Q 45.40625 -4.15625 45.40625 5.171875 
L 45.40625 9.625 
Q 42.625 4.78125 38.28125 2.390625 
Q 33.9375 0 27.875 0 
Q 17.828125 0 11.671875 7.65625 
Q 5.515625 15.328125 5.515625 27.984375 
Q 5.515625 40.671875 11.671875 48.328125 
Q 17.828125 56 27.875 56 
Q 33.9375 56 38.28125 53.609375 
Q 42.625 51.21875 45.40625 46.390625 
L 45.40625 54.6875 
L 54.390625 54.6875 
z
" id="DejaVuSans-103"/>
     <path d="M 9.421875 54.6875 
L 18.40625 54.6875 
L 18.40625 0 
L 9.421875 0 
z
M 9.421875 75.984375 
L 18.40625 75.984375 
L 18.40625 64.59375 
L 9.421875 64.59375 
z
" id="DejaVuSans-105"/>
     <path d="M 54.890625 33.015625 
L 54.890625 0 
L 45.90625 0 
L 45.90625 32.71875 
Q 45.90625 40.484375 42.875 44.328125 
Q 39.84375 48.1875 33.796875 48.1875 
Q 26.515625 48.1875 22.3125 43.546875 
Q 18.109375 38.921875 18.109375 30.90625 
L 18.109375 0 
L 9.078125 0 
L 9.078125 54.6875 
L 18.109375 54.6875 
L 18.109375 46.1875 
Q 21.34375 51.125 25.703125 53.5625 
Q 30.078125 56 35.796875 56 
Q 45.21875 56 50.046875 50.171875 
Q 54.890625 44.34375 54.890625 33.015625 
z
" id="DejaVuSans-110"/>
     <path id="DejaVuSans-32"/>
    </defs>
    <g style="fill:#262626;" transform="translate(120.415827 171.870125)rotate(-270)scale(0.12 -0.12)">
     <use xlink:href="#DejaVuSans-77"/>
     <use x="86.279297" xlink:href="#DejaVuSans-97"/>
     <use x="147.558594" xlink:href="#DejaVuSans-114"/>
     <use x="188.65625" xlink:href="#DejaVuSans-103"/>
     <use x="252.132812" xlink:href="#DejaVuSans-105"/>
     <use x="279.916016" xlink:href="#DejaVuSans-110"/>
     <use x="343.294922" xlink:href="#DejaVuSans-32"/>
     <use x="375.082031" xlink:href="#DejaVuSans-83"/>
     <use x="438.558594" xlink:href="#DejaVuSans-111"/>
     <use x="499.740234" xlink:href="#DejaVuSans-102"/>
     <use x="534.929688" xlink:href="#DejaVuSans-116"/>
     <use x="574.138672" xlink:href="#DejaVuSans-109"/>
     <use x="671.550781" xlink:href="#DejaVuSans-97"/>
     <use x="732.830078" xlink:href="#DejaVuSans-120"/>
    </g>
   </g>
   <g id="text_25">
    <!-- Bottleneck Arcface -->
    <defs>
     <path d="M 19.671875 34.8125 
L 19.671875 8.109375 
L 35.5 8.109375 
Q 43.453125 8.109375 47.28125 11.40625 
Q 51.125 14.703125 51.125 21.484375 
Q 51.125 28.328125 47.28125 31.5625 
Q 43.453125 34.8125 35.5 34.8125 
z
M 19.671875 64.796875 
L 19.671875 42.828125 
L 34.28125 42.828125 
Q 41.5 42.828125 45.03125 45.53125 
Q 48.578125 48.25 48.578125 53.8125 
Q 48.578125 59.328125 45.03125 62.0625 
Q 41.5 64.796875 34.28125 64.796875 
z
M 9.8125 72.90625 
L 35.015625 72.90625 
Q 46.296875 72.90625 52.390625 68.21875 
Q 58.5 63.53125 58.5 54.890625 
Q 58.5 48.1875 55.375 44.234375 
Q 52.25 40.28125 46.1875 39.3125 
Q 53.46875 37.75 57.5 32.78125 
Q 61.53125 27.828125 61.53125 20.40625 
Q 61.53125 10.640625 54.890625 5.3125 
Q 48.25 0 35.984375 0 
L 9.8125 0 
z
" id="DejaVuSans-66"/>
     <path d="M 9.421875 75.984375 
L 18.40625 75.984375 
L 18.40625 0 
L 9.421875 0 
z
" id="DejaVuSans-108"/>
     <path d="M 56.203125 29.59375 
L 56.203125 25.203125 
L 14.890625 25.203125 
Q 15.484375 15.921875 20.484375 11.0625 
Q 25.484375 6.203125 34.421875 6.203125 
Q 39.59375 6.203125 44.453125 7.46875 
Q 49.3125 8.734375 54.109375 11.28125 
L 54.109375 2.78125 
Q 49.265625 0.734375 44.1875 -0.34375 
Q 39.109375 -1.421875 33.890625 -1.421875 
Q 20.796875 -1.421875 13.15625 6.1875 
Q 5.515625 13.8125 5.515625 26.8125 
Q 5.515625 40.234375 12.765625 48.109375 
Q 20.015625 56 32.328125 56 
Q 43.359375 56 49.78125 48.890625 
Q 56.203125 41.796875 56.203125 29.59375 
z
M 47.21875 32.234375 
Q 47.125 39.59375 43.09375 43.984375 
Q 39.0625 48.390625 32.421875 48.390625 
Q 24.90625 48.390625 20.390625 44.140625 
Q 15.875 39.890625 15.1875 32.171875 
z
" id="DejaVuSans-101"/>
     <path d="M 48.78125 52.59375 
L 48.78125 44.1875 
Q 44.96875 46.296875 41.140625 47.34375 
Q 37.3125 48.390625 33.40625 48.390625 
Q 24.65625 48.390625 19.8125 42.84375 
Q 14.984375 37.3125 14.984375 27.296875 
Q 14.984375 17.28125 19.8125 11.734375 
Q 24.65625 6.203125 33.40625 6.203125 
Q 37.3125 6.203125 41.140625 7.25 
Q 44.96875 8.296875 48.78125 10.40625 
L 48.78125 2.09375 
Q 45.015625 0.34375 40.984375 -0.53125 
Q 36.96875 -1.421875 32.421875 -1.421875 
Q 20.0625 -1.421875 12.78125 6.34375 
Q 5.515625 14.109375 5.515625 27.296875 
Q 5.515625 40.671875 12.859375 48.328125 
Q 20.21875 56 33.015625 56 
Q 37.15625 56 41.109375 55.140625 
Q 45.0625 54.296875 48.78125 52.59375 
z
" id="DejaVuSans-99"/>
     <path d="M 9.078125 75.984375 
L 18.109375 75.984375 
L 18.109375 31.109375 
L 44.921875 54.6875 
L 56.390625 54.6875 
L 27.390625 29.109375 
L 57.625 0 
L 45.90625 0 
L 18.109375 26.703125 
L 18.109375 0 
L 9.078125 0 
z
" id="DejaVuSans-107"/>
     <path d="M 34.1875 63.1875 
L 20.796875 26.90625 
L 47.609375 26.90625 
z
M 28.609375 72.90625 
L 39.796875 72.90625 
L 67.578125 0 
L 57.328125 0 
L 50.6875 18.703125 
L 17.828125 18.703125 
L 11.1875 0 
L 0.78125 0 
z
" id="DejaVuSans-65"/>
    </defs>
    <g style="fill:#262626;" transform="translate(155.92046 153.5645)rotate(-270)scale(0.12 -0.12)">
     <use xlink:href="#DejaVuSans-66"/>
     <use x="68.603516" xlink:href="#DejaVuSans-111"/>
     <use x="129.785156" xlink:href="#DejaVuSans-116"/>
     <use x="168.994141" xlink:href="#DejaVuSans-116"/>
     <use x="208.203125" xlink:href="#DejaVuSans-108"/>
     <use x="235.986328" xlink:href="#DejaVuSans-101"/>
     <use x="297.509766" xlink:href="#DejaVuSans-110"/>
     <use x="360.888672" xlink:href="#DejaVuSans-101"/>
     <use x="422.412109" xlink:href="#DejaVuSans-99"/>
     <use x="477.392578" xlink:href="#DejaVuSans-107"/>
     <use x="535.302734" xlink:href="#DejaVuSans-32"/>
     <use x="567.089844" xlink:href="#DejaVuSans-65"/>
     <use x="635.498047" xlink:href="#DejaVuSans-114"/>
     <use x="676.580078" xlink:href="#DejaVuSans-99"/>
     <use x="731.560547" xlink:href="#DejaVuSans-102"/>
     <use x="766.765625" xlink:href="#DejaVuSans-97"/>
     <use x="828.044922" xlink:href="#DejaVuSans-99"/>
     <use x="883.025391" xlink:href="#DejaVuSans-101"/>
    </g>
   </g>
   <g id="text_26">
    <!-- Arcface scale=64 -->
    <defs>
     <path d="M 44.28125 53.078125 
L 44.28125 44.578125 
Q 40.484375 46.53125 36.375 47.5 
Q 32.28125 48.484375 27.875 48.484375 
Q 21.1875 48.484375 17.84375 46.4375 
Q 14.5 44.390625 14.5 40.28125 
Q 14.5 37.15625 16.890625 35.375 
Q 19.28125 33.59375 26.515625 31.984375 
L 29.59375 31.296875 
Q 39.15625 29.25 43.1875 25.515625 
Q 47.21875 21.78125 47.21875 15.09375 
Q 47.21875 7.46875 41.1875 3.015625 
Q 35.15625 -1.421875 24.609375 -1.421875 
Q 20.21875 -1.421875 15.453125 -0.5625 
Q 10.6875 0.296875 5.421875 2 
L 5.421875 11.28125 
Q 10.40625 8.6875 15.234375 7.390625 
Q 20.0625 6.109375 24.8125 6.109375 
Q 31.15625 6.109375 34.5625 8.28125 
Q 37.984375 10.453125 37.984375 14.40625 
Q 37.984375 18.0625 35.515625 20.015625 
Q 33.0625 21.96875 24.703125 23.78125 
L 21.578125 24.515625 
Q 13.234375 26.265625 9.515625 29.90625 
Q 5.8125 33.546875 5.8125 39.890625 
Q 5.8125 47.609375 11.28125 51.796875 
Q 16.75 56 26.8125 56 
Q 31.78125 56 36.171875 55.265625 
Q 40.578125 54.546875 44.28125 53.078125 
z
" id="DejaVuSans-115"/>
     <path d="M 10.59375 45.40625 
L 73.1875 45.40625 
L 73.1875 37.203125 
L 10.59375 37.203125 
z
M 10.59375 25.484375 
L 73.1875 25.484375 
L 73.1875 17.1875 
L 10.59375 17.1875 
z
" id="DejaVuSans-61"/>
    </defs>
    <g style="fill:#262626;" transform="translate(197.073557 161.55575)rotate(-270)scale(0.12 -0.12)">
     <use xlink:href="#DejaVuSans-65"/>
     <use x="68.408203" xlink:href="#DejaVuSans-114"/>
     <use x="109.490234" xlink:href="#DejaVuSans-99"/>
     <use x="164.470703" xlink:href="#DejaVuSans-102"/>
     <use x="199.675781" xlink:href="#DejaVuSans-97"/>
     <use x="260.955078" xlink:href="#DejaVuSans-99"/>
     <use x="315.935547" xlink:href="#DejaVuSans-101"/>
     <use x="377.458984" xlink:href="#DejaVuSans-32"/>
     <use x="409.246094" xlink:href="#DejaVuSans-115"/>
     <use x="461.345703" xlink:href="#DejaVuSans-99"/>
     <use x="516.326172" xlink:href="#DejaVuSans-97"/>
     <use x="577.605469" xlink:href="#DejaVuSans-108"/>
     <use x="605.388672" xlink:href="#DejaVuSans-101"/>
     <use x="666.912109" xlink:href="#DejaVuSans-61"/>
     <use x="750.701172" xlink:href="#DejaVuSans-54"/>
     <use x="814.324219" xlink:href="#DejaVuSans-52"/>
    </g>
   </g>
   <g id="text_27">
    <!-- loss -->
    <g style="fill:#262626;" transform="translate(166.059407 21.6)scale(0.12 -0.12)">
     <use xlink:href="#DejaVuSans-108"/>
     <use x="27.783203" xlink:href="#DejaVuSans-111"/>
     <use x="88.964844" xlink:href="#DejaVuSans-115"/>
     <use x="141.064453" xlink:href="#DejaVuSans-115"/>
    </g>
   </g>
  </g>
  <g id="axes_2">
   <g id="patch_7">
    <path d="M 398.03 326.74 
L 680.327563 326.74 
L 680.327563 27.6 
L 398.03 27.6 
z
" style="fill:#eaeaf2;"/>
   </g>
   <g id="matplotlib.axis_3">
    <g id="xtick_14">
     <g id="line2d_24">
      <path clip-path="url(#pfe44dda38b)" d="M 406.82709 326.74 
L 406.82709 27.6 
" style="fill:none;stroke:#ffffff;stroke-linecap:round;"/>
     </g>
     <g id="text_28">
      <!-- 0 -->
      <g style="fill:#262626;" transform="translate(403.327715 344.598281)scale(0.11 -0.11)">
       <use xlink:href="#DejaVuSans-48"/>
      </g>
     </g>
    </g>
    <g id="xtick_15">
     <g id="line2d_25">
      <path clip-path="url(#pfe44dda38b)" d="M 427.000177 326.74 
L 427.000177 27.6 
" style="fill:none;stroke:#ffffff;stroke-linecap:round;"/>
     </g>
     <g id="text_29">
      <!-- 5 -->
      <g style="fill:#262626;" transform="translate(423.500802 344.598281)scale(0.11 -0.11)">
       <use xlink:href="#DejaVuSans-53"/>
      </g>
     </g>
    </g>
    <g id="xtick_16">
     <g id="line2d_26">
      <path clip-path="url(#pfe44dda38b)" d="M 447.173264 326.74 
L 447.173264 27.6 
" style="fill:none;stroke:#ffffff;stroke-linecap:round;"/>
     </g>
     <g id="text_30">
      <!-- 10 -->
      <g style="fill:#262626;" transform="translate(440.174514 344.598281)scale(0.11 -0.11)">
       <use xlink:href="#DejaVuSans-49"/>
       <use x="63.623047" xlink:href="#DejaVuSans-48"/>
      </g>
     </g>
    </g>
    <g id="xtick_17">
     <g id="line2d_27">
      <path clip-path="url(#pfe44dda38b)" d="M 467.34635 326.74 
L 467.34635 27.6 
" style="fill:none;stroke:#ffffff;stroke-linecap:round;"/>
     </g>
     <g id="text_31">
      <!-- 15 -->
      <g style="fill:#262626;" transform="translate(460.3476 344.598281)scale(0.11 -0.11)">
       <use xlink:href="#DejaVuSans-49"/>
       <use x="63.623047" xlink:href="#DejaVuSans-53"/>
      </g>
     </g>
    </g>
    <g id="xtick_18">
     <g id="line2d_28">
      <path clip-path="url(#pfe44dda38b)" d="M 487.519437 326.74 
L 487.519437 27.6 
" style="fill:none;stroke:#ffffff;stroke-linecap:round;"/>
     </g>
     <g id="text_32">
      <!-- 20 -->
      <g style="fill:#262626;" transform="translate(480.520687 344.598281)scale(0.11 -0.11)">
       <use xlink:href="#DejaVuSans-50"/>
       <use x="63.623047" xlink:href="#DejaVuSans-48"/>
      </g>
     </g>
    </g>
    <g id="xtick_19">
     <g id="line2d_29">
      <path clip-path="url(#pfe44dda38b)" d="M 507.692524 326.74 
L 507.692524 27.6 
" style="fill:none;stroke:#ffffff;stroke-linecap:round;"/>
     </g>
     <g id="text_33">
      <!-- 25 -->
      <g style="fill:#262626;" transform="translate(500.693774 344.598281)scale(0.11 -0.11)">
       <use xlink:href="#DejaVuSans-50"/>
       <use x="63.623047" xlink:href="#DejaVuSans-53"/>
      </g>
     </g>
    </g>
    <g id="xtick_20">
     <g id="line2d_30">
      <path clip-path="url(#pfe44dda38b)" d="M 527.865611 326.74 
L 527.865611 27.6 
" style="fill:none;stroke:#ffffff;stroke-linecap:round;"/>
     </g>
     <g id="text_34">
      <!-- 30 -->
      <g style="fill:#262626;" transform="translate(520.866861 344.598281)scale(0.11 -0.11)">
       <use xlink:href="#DejaVuSans-51"/>
       <use x="63.623047" xlink:href="#DejaVuSans-48"/>
      </g>
     </g>
    </g>
    <g id="xtick_21">
     <g id="line2d_31">
      <path clip-path="url(#pfe44dda38b)" d="M 548.038697 326.74 
L 548.038697 27.6 
" style="fill:none;stroke:#ffffff;stroke-linecap:round;"/>
     </g>
     <g id="text_35">
      <!-- 35 -->
      <g style="fill:#262626;" transform="translate(541.039947 344.598281)scale(0.11 -0.11)">
       <use xlink:href="#DejaVuSans-51"/>
       <use x="63.623047" xlink:href="#DejaVuSans-53"/>
      </g>
     </g>
    </g>
    <g id="xtick_22">
     <g id="line2d_32">
      <path clip-path="url(#pfe44dda38b)" d="M 568.211784 326.74 
L 568.211784 27.6 
" style="fill:none;stroke:#ffffff;stroke-linecap:round;"/>
     </g>
     <g id="text_36">
      <!-- 40 -->
      <g style="fill:#262626;" transform="translate(561.213034 344.598281)scale(0.11 -0.11)">
       <use xlink:href="#DejaVuSans-52"/>
       <use x="63.623047" xlink:href="#DejaVuSans-48"/>
      </g>
     </g>
    </g>
    <g id="xtick_23">
     <g id="line2d_33">
      <path clip-path="url(#pfe44dda38b)" d="M 588.384871 326.74 
L 588.384871 27.6 
" style="fill:none;stroke:#ffffff;stroke-linecap:round;"/>
     </g>
     <g id="text_37">
      <!-- 45 -->
      <g style="fill:#262626;" transform="translate(581.386121 344.598281)scale(0.11 -0.11)">
       <use xlink:href="#DejaVuSans-52"/>
       <use x="63.623047" xlink:href="#DejaVuSans-53"/>
      </g>
     </g>
    </g>
    <g id="xtick_24">
     <g id="line2d_34">
      <path clip-path="url(#pfe44dda38b)" d="M 608.557958 326.74 
L 608.557958 27.6 
" style="fill:none;stroke:#ffffff;stroke-linecap:round;"/>
     </g>
     <g id="text_38">
      <!-- 50 -->
      <g style="fill:#262626;" transform="translate(601.559208 344.598281)scale(0.11 -0.11)">
       <use xlink:href="#DejaVuSans-53"/>
       <use x="63.623047" xlink:href="#DejaVuSans-48"/>
      </g>
     </g>
    </g>
    <g id="xtick_25">
     <g id="line2d_35">
      <path clip-path="url(#pfe44dda38b)" d="M 628.731044 326.74 
L 628.731044 27.6 
" style="fill:none;stroke:#ffffff;stroke-linecap:round;"/>
     </g>
     <g id="text_39">
      <!-- 55 -->
      <g style="fill:#262626;" transform="translate(621.732294 344.598281)scale(0.11 -0.11)">
       <use xlink:href="#DejaVuSans-53"/>
       <use x="63.623047" xlink:href="#DejaVuSans-53"/>
      </g>
     </g>
    </g>
    <g id="xtick_26">
     <g id="line2d_36">
      <path clip-path="url(#pfe44dda38b)" d="M 648.904131 326.74 
L 648.904131 27.6 
" style="fill:none;stroke:#ffffff;stroke-linecap:round;"/>
     </g>
     <g id="text_40">
      <!-- 60 -->
      <g style="fill:#262626;" transform="translate(641.905381 344.598281)scale(0.11 -0.11)">
       <use xlink:href="#DejaVuSans-54"/>
       <use x="63.623047" xlink:href="#DejaVuSans-48"/>
      </g>
     </g>
    </g>
   </g>
   <g id="matplotlib.axis_4">
    <g id="ytick_6">
     <g id="line2d_37">
      <path clip-path="url(#pfe44dda38b)" d="M 398.03 311.679835 
L 680.327563 311.679835 
" style="fill:none;stroke:#ffffff;stroke-linecap:round;"/>
     </g>
     <g id="text_41">
      <!-- 0.3 -->
      <g style="fill:#262626;" transform="translate(371.036563 315.858976)scale(0.11 -0.11)">
       <use xlink:href="#DejaVuSans-48"/>
       <use x="63.623047" xlink:href="#DejaVuSans-46"/>
       <use x="95.410156" xlink:href="#DejaVuSans-51"/>
      </g>
     </g>
    </g>
    <g id="ytick_7">
     <g id="line2d_38">
      <path clip-path="url(#pfe44dda38b)" d="M 398.03 271.043952 
L 680.327563 271.043952 
" style="fill:none;stroke:#ffffff;stroke-linecap:round;"/>
     </g>
     <g id="text_42">
      <!-- 0.4 -->
      <g style="fill:#262626;" transform="translate(371.036563 275.223093)scale(0.11 -0.11)">
       <use xlink:href="#DejaVuSans-48"/>
       <use x="63.623047" xlink:href="#DejaVuSans-46"/>
       <use x="95.410156" xlink:href="#DejaVuSans-52"/>
      </g>
     </g>
    </g>
    <g id="ytick_8">
     <g id="line2d_39">
      <path clip-path="url(#pfe44dda38b)" d="M 398.03 230.408069 
L 680.327563 230.408069 
" style="fill:none;stroke:#ffffff;stroke-linecap:round;"/>
     </g>
     <g id="text_43">
      <!-- 0.5 -->
      <g style="fill:#262626;" transform="translate(371.036563 234.58721)scale(0.11 -0.11)">
       <use xlink:href="#DejaVuSans-48"/>
       <use x="63.623047" xlink:href="#DejaVuSans-46"/>
       <use x="95.410156" xlink:href="#DejaVuSans-53"/>
      </g>
     </g>
    </g>
    <g id="ytick_9">
     <g id="line2d_40">
      <path clip-path="url(#pfe44dda38b)" d="M 398.03 189.772186 
L 680.327563 189.772186 
" style="fill:none;stroke:#ffffff;stroke-linecap:round;"/>
     </g>
     <g id="text_44">
      <!-- 0.6 -->
      <g style="fill:#262626;" transform="translate(371.036563 193.951327)scale(0.11 -0.11)">
       <use xlink:href="#DejaVuSans-48"/>
       <use x="63.623047" xlink:href="#DejaVuSans-46"/>
       <use x="95.410156" xlink:href="#DejaVuSans-54"/>
      </g>
     </g>
    </g>
    <g id="ytick_10">
     <g id="line2d_41">
      <path clip-path="url(#pfe44dda38b)" d="M 398.03 149.136303 
L 680.327563 149.136303 
" style="fill:none;stroke:#ffffff;stroke-linecap:round;"/>
     </g>
     <g id="text_45">
      <!-- 0.7 -->
      <g style="fill:#262626;" transform="translate(371.036563 153.315444)scale(0.11 -0.11)">
       <use xlink:href="#DejaVuSans-48"/>
       <use x="63.623047" xlink:href="#DejaVuSans-46"/>
       <use x="95.410156" xlink:href="#DejaVuSans-55"/>
      </g>
     </g>
    </g>
    <g id="ytick_11">
     <g id="line2d_42">
      <path clip-path="url(#pfe44dda38b)" d="M 398.03 108.50042 
L 680.327563 108.50042 
" style="fill:none;stroke:#ffffff;stroke-linecap:round;"/>
     </g>
     <g id="text_46">
      <!-- 0.8 -->
      <defs>
       <path d="M 31.78125 34.625 
Q 24.75 34.625 20.71875 30.859375 
Q 16.703125 27.09375 16.703125 20.515625 
Q 16.703125 13.921875 20.71875 10.15625 
Q 24.75 6.390625 31.78125 6.390625 
Q 38.8125 6.390625 42.859375 10.171875 
Q 46.921875 13.96875 46.921875 20.515625 
Q 46.921875 27.09375 42.890625 30.859375 
Q 38.875 34.625 31.78125 34.625 
z
M 21.921875 38.8125 
Q 15.578125 40.375 12.03125 44.71875 
Q 8.5 49.078125 8.5 55.328125 
Q 8.5 64.0625 14.71875 69.140625 
Q 20.953125 74.21875 31.78125 74.21875 
Q 42.671875 74.21875 48.875 69.140625 
Q 55.078125 64.0625 55.078125 55.328125 
Q 55.078125 49.078125 51.53125 44.71875 
Q 48 40.375 41.703125 38.8125 
Q 48.828125 37.15625 52.796875 32.3125 
Q 56.78125 27.484375 56.78125 20.515625 
Q 56.78125 9.90625 50.3125 4.234375 
Q 43.84375 -1.421875 31.78125 -1.421875 
Q 19.734375 -1.421875 13.25 4.234375 
Q 6.78125 9.90625 6.78125 20.515625 
Q 6.78125 27.484375 10.78125 32.3125 
Q 14.796875 37.15625 21.921875 38.8125 
z
M 18.3125 54.390625 
Q 18.3125 48.734375 21.84375 45.5625 
Q 25.390625 42.390625 31.78125 42.390625 
Q 38.140625 42.390625 41.71875 45.5625 
Q 45.3125 48.734375 45.3125 54.390625 
Q 45.3125 60.0625 41.71875 63.234375 
Q 38.140625 66.40625 31.78125 66.40625 
Q 25.390625 66.40625 21.84375 63.234375 
Q 18.3125 60.0625 18.3125 54.390625 
z
" id="DejaVuSans-56"/>
      </defs>
      <g style="fill:#262626;" transform="translate(371.036563 112.679561)scale(0.11 -0.11)">
       <use xlink:href="#DejaVuSans-48"/>
       <use x="63.623047" xlink:href="#DejaVuSans-46"/>
       <use x="95.410156" xlink:href="#DejaVuSans-56"/>
      </g>
     </g>
    </g>
    <g id="ytick_12">
     <g id="line2d_43">
      <path clip-path="url(#pfe44dda38b)" d="M 398.03 67.864537 
L 680.327563 67.864537 
" style="fill:none;stroke:#ffffff;stroke-linecap:round;"/>
     </g>
     <g id="text_47">
      <!-- 0.9 -->
      <g style="fill:#262626;" transform="translate(371.036563 72.043678)scale(0.11 -0.11)">
       <use xlink:href="#DejaVuSans-48"/>
       <use x="63.623047" xlink:href="#DejaVuSans-46"/>
       <use x="95.410156" xlink:href="#DejaVuSans-57"/>
      </g>
     </g>
    </g>
    <g id="ytick_13">
     <g id="line2d_44">
      <path clip-path="url(#pfe44dda38b)" d="M 398.03 27.228654 
L 680.327563 27.228654 
" style="fill:none;stroke:#ffffff;stroke-linecap:round;"/>
     </g>
     <g id="text_48">
      <!-- 1.0 -->
      <g style="fill:#262626;" transform="translate(371.036563 31.407795)scale(0.11 -0.11)">
       <use xlink:href="#DejaVuSans-49"/>
       <use x="63.623047" xlink:href="#DejaVuSans-46"/>
       <use x="95.410156" xlink:href="#DejaVuSans-48"/>
      </g>
     </g>
    </g>
   </g>
   <g id="PathCollection_5">
    <g clip-path="url(#pfe44dda38b)">
     <use style="fill:#c44e52;stroke:#c44e52;" x="467.34635" xlink:href="#m07419329f0" y="78.186052"/>
    </g>
   </g>
   <g id="PathCollection_6">
    <g clip-path="url(#pfe44dda38b)">
     <use style="fill:#c44e52;stroke:#c44e52;" x="507.692524" xlink:href="#m07419329f0" y="64.898118"/>
    </g>
   </g>
   <g id="PathCollection_7">
    <g clip-path="url(#pfe44dda38b)">
     <use style="fill:#c44e52;stroke:#c44e52;" x="523.830993" xlink:href="#m07419329f0" y="51.000646"/>
    </g>
   </g>
   <g id="PathCollection_8">
    <g clip-path="url(#pfe44dda38b)">
     <use style="fill:#c44e52;stroke:#c44e52;" x="661.007983" xlink:href="#m07419329f0" y="43.508424"/>
    </g>
   </g>
   <g id="line2d_45">
    <path clip-path="url(#pfe44dda38b)" d="M 410.861707 313.142727 
L 414.896325 159.092095 
L 418.930942 127.518014 
L 422.965559 114.108172 
L 427.000177 106.590534 
L 431.034794 101.429777 
L 435.069412 97.406824 
L 439.104029 94.359133 
L 443.138646 91.839708 
L 447.173264 89.807914 
L 451.207881 88.141843 
L 455.242498 83.671896 
L 459.277116 81.233743 
L 463.311733 79.4864 
L 467.34635 78.186052 
L 471.380968 73.512925 
L 475.415585 70.546506 
L 479.450202 68.961706 
L 483.48482 68.067717 
L 487.519437 67.254999 
L 491.554054 66.645461 
L 495.588672 66.117194 
L 499.623289 65.6702 
L 503.657906 65.304477 
L 507.692524 64.898118 
L 511.727141 82.899814 
L 515.761759 54.332788 
L 519.796376 52.057179 
L 523.830993 51.000646 
L 527.865611 46.368155 
L 531.900228 45.43353 
L 535.934845 45.149079 
L 539.969463 45.040491 
L 544.00408 44.796853 
L 548.038697 44.642978 
L 552.073315 44.509957 
L 556.107932 44.434097 
L 560.142549 44.343996 
L 564.177167 44.217756 
L 568.211784 44.138191 
L 572.246401 44.062549 
L 576.281019 44.074054 
L 580.315636 43.991364 
L 584.350253 43.920445 
L 588.384871 43.905598 
L 592.419488 43.815423 
L 596.454105 43.808375 
L 600.488723 43.778026 
L 604.52334 43.736851 
L 608.557958 43.71808 
L 612.592575 43.695118 
L 616.627192 43.668039 
L 620.66181 43.648203 
L 624.696427 43.603685 
L 628.731044 43.645199 
L 632.765662 43.629092 
L 636.800279 43.610321 
L 640.834896 43.556502 
L 644.869514 43.549309 
L 648.904131 43.551489 
L 652.938748 43.512202 
L 656.973366 43.518185 
L 661.007983 43.508424 
L 665.0426 43.527679 
" style="fill:none;stroke:#4c72b0;stroke-linecap:round;stroke-width:1.5;"/>
   </g>
   <g id="line2d_46">
    <path clip-path="url(#pfe44dda38b)" d="M 410.861707 311.783 
L 410.861707 42.557 
" style="fill:none;stroke:#1a1a1a;stroke-dasharray:5.55,2.4;stroke-dashoffset:0;stroke-width:1.5;"/>
   </g>
   <g id="line2d_47">
    <path clip-path="url(#pfe44dda38b)" d="M 471.380968 311.783 
L 471.380968 42.557 
" style="fill:none;stroke:#1a1a1a;stroke-dasharray:5.55,2.4;stroke-dashoffset:0;stroke-width:1.5;"/>
   </g>
   <g id="line2d_48">
    <path clip-path="url(#pfe44dda38b)" d="M 511.727141 311.783 
L 511.727141 42.557 
" style="fill:none;stroke:#1a1a1a;stroke-dasharray:5.55,2.4;stroke-dashoffset:0;stroke-width:1.5;"/>
   </g>
   <g id="line2d_49">
    <path clip-path="url(#pfe44dda38b)" d="M 527.865611 311.783 
L 527.865611 42.557 
" style="fill:none;stroke:#1a1a1a;stroke-dasharray:5.55,2.4;stroke-dashoffset:0;stroke-width:1.5;"/>
   </g>
   <g id="patch_8">
    <path d="M 398.03 326.74 
L 398.03 27.6 
" style="fill:none;stroke:#ffffff;stroke-linecap:square;stroke-linejoin:miter;stroke-width:1.25;"/>
   </g>
   <g id="patch_9">
    <path d="M 680.327563 326.74 
L 680.327563 27.6 
" style="fill:none;stroke:#ffffff;stroke-linecap:square;stroke-linejoin:miter;stroke-width:1.25;"/>
   </g>
   <g id="patch_10">
    <path d="M 398.03 326.74 
L 680.327563 326.74 
" style="fill:none;stroke:#ffffff;stroke-linecap:square;stroke-linejoin:miter;stroke-width:1.25;"/>
   </g>
   <g id="patch_11">
    <path d="M 398.03 27.6 
L 680.327563 27.6 
" style="fill:none;stroke:#ffffff;stroke-linecap:square;stroke-linejoin:miter;stroke-width:1.25;"/>
   </g>
   <g id="text_49">
    <!-- 0.8746 -->
    <g style="fill:#262626;" transform="translate(467.34635 75.690427)scale(0.12 -0.12)">
     <use xlink:href="#DejaVuSans-48"/>
     <use x="63.623047" xlink:href="#DejaVuSans-46"/>
     <use x="95.410156" xlink:href="#DejaVuSans-56"/>
     <use x="159.033203" xlink:href="#DejaVuSans-55"/>
     <use x="222.65625" xlink:href="#DejaVuSans-52"/>
     <use x="286.279297" xlink:href="#DejaVuSans-54"/>
    </g>
   </g>
   <g id="text_50">
    <!-- 0.9073 -->
    <g style="fill:#262626;" transform="translate(507.692524 62.402493)scale(0.12 -0.12)">
     <use xlink:href="#DejaVuSans-48"/>
     <use x="63.623047" xlink:href="#DejaVuSans-46"/>
     <use x="95.410156" xlink:href="#DejaVuSans-57"/>
     <use x="159.033203" xlink:href="#DejaVuSans-48"/>
     <use x="222.65625" xlink:href="#DejaVuSans-55"/>
     <use x="286.279297" xlink:href="#DejaVuSans-51"/>
    </g>
   </g>
   <g id="text_51">
    <!-- 0.9415 -->
    <g style="fill:#262626;" transform="translate(523.830993 48.505021)scale(0.12 -0.12)">
     <use xlink:href="#DejaVuSans-48"/>
     <use x="63.623047" xlink:href="#DejaVuSans-46"/>
     <use x="95.410156" xlink:href="#DejaVuSans-57"/>
     <use x="159.033203" xlink:href="#DejaVuSans-52"/>
     <use x="222.65625" xlink:href="#DejaVuSans-49"/>
     <use x="286.279297" xlink:href="#DejaVuSans-53"/>
    </g>
   </g>
   <g id="text_52">
    <!-- 0.9599 -->
    <g style="fill:#262626;" transform="translate(661.007983 41.012799)scale(0.12 -0.12)">
     <use xlink:href="#DejaVuSans-48"/>
     <use x="63.623047" xlink:href="#DejaVuSans-46"/>
     <use x="95.410156" xlink:href="#DejaVuSans-57"/>
     <use x="159.033203" xlink:href="#DejaVuSans-53"/>
     <use x="222.65625" xlink:href="#DejaVuSans-57"/>
     <use x="286.279297" xlink:href="#DejaVuSans-57"/>
    </g>
   </g>
   <g id="text_53">
    <!-- Softmax -->
    <g style="fill:#262626;" transform="translate(425.461184 216.8795)rotate(-270)scale(0.12 -0.12)">
     <use xlink:href="#DejaVuSans-83"/>
     <use x="63.476562" xlink:href="#DejaVuSans-111"/>
     <use x="124.658203" xlink:href="#DejaVuSans-102"/>
     <use x="159.847656" xlink:href="#DejaVuSans-116"/>
     <use x="199.056641" xlink:href="#DejaVuSans-109"/>
     <use x="296.46875" xlink:href="#DejaVuSans-97"/>
     <use x="357.748047" xlink:href="#DejaVuSans-120"/>
    </g>
   </g>
   <g id="text_54">
    <!-- Margin Softmax -->
    <g style="fill:#262626;" transform="translate(481.945827 171.870125)rotate(-270)scale(0.12 -0.12)">
     <use xlink:href="#DejaVuSans-77"/>
     <use x="86.279297" xlink:href="#DejaVuSans-97"/>
     <use x="147.558594" xlink:href="#DejaVuSans-114"/>
     <use x="188.65625" xlink:href="#DejaVuSans-103"/>
     <use x="252.132812" xlink:href="#DejaVuSans-105"/>
     <use x="279.916016" xlink:href="#DejaVuSans-110"/>
     <use x="343.294922" xlink:href="#DejaVuSans-32"/>
     <use x="375.082031" xlink:href="#DejaVuSans-83"/>
     <use x="438.558594" xlink:href="#DejaVuSans-111"/>
     <use x="499.740234" xlink:href="#DejaVuSans-102"/>
     <use x="534.929688" xlink:href="#DejaVuSans-116"/>
     <use x="574.138672" xlink:href="#DejaVuSans-109"/>
     <use x="671.550781" xlink:href="#DejaVuSans-97"/>
     <use x="732.830078" xlink:href="#DejaVuSans-120"/>
    </g>
   </g>
   <g id="text_55">
    <!-- Bottleneck Arcface -->
    <g style="fill:#262626;" transform="translate(517.45046 153.5645)rotate(-270)scale(0.12 -0.12)">
     <use xlink:href="#DejaVuSans-66"/>
     <use x="68.603516" xlink:href="#DejaVuSans-111"/>
     <use x="129.785156" xlink:href="#DejaVuSans-116"/>
     <use x="168.994141" xlink:href="#DejaVuSans-116"/>
     <use x="208.203125" xlink:href="#DejaVuSans-108"/>
     <use x="235.986328" xlink:href="#DejaVuSans-101"/>
     <use x="297.509766" xlink:href="#DejaVuSans-110"/>
     <use x="360.888672" xlink:href="#DejaVuSans-101"/>
     <use x="422.412109" xlink:href="#DejaVuSans-99"/>
     <use x="477.392578" xlink:href="#DejaVuSans-107"/>
     <use x="535.302734" xlink:href="#DejaVuSans-32"/>
     <use x="567.089844" xlink:href="#DejaVuSans-65"/>
     <use x="635.498047" xlink:href="#DejaVuSans-114"/>
     <use x="676.580078" xlink:href="#DejaVuSans-99"/>
     <use x="731.560547" xlink:href="#DejaVuSans-102"/>
     <use x="766.765625" xlink:href="#DejaVuSans-97"/>
     <use x="828.044922" xlink:href="#DejaVuSans-99"/>
     <use x="883.025391" xlink:href="#DejaVuSans-101"/>
    </g>
   </g>
   <g id="text_56">
    <!-- Arcface scale=64 -->
    <g style="fill:#262626;" transform="translate(558.603557 161.55575)rotate(-270)scale(0.12 -0.12)">
     <use xlink:href="#DejaVuSans-65"/>
     <use x="68.408203" xlink:href="#DejaVuSans-114"/>
     <use x="109.490234" xlink:href="#DejaVuSans-99"/>
     <use x="164.470703" xlink:href="#DejaVuSans-102"/>
     <use x="199.675781" xlink:href="#DejaVuSans-97"/>
     <use x="260.955078" xlink:href="#DejaVuSans-99"/>
     <use x="315.935547" xlink:href="#DejaVuSans-101"/>
     <use x="377.458984" xlink:href="#DejaVuSans-32"/>
     <use x="409.246094" xlink:href="#DejaVuSans-115"/>
     <use x="461.345703" xlink:href="#DejaVuSans-99"/>
     <use x="516.326172" xlink:href="#DejaVuSans-97"/>
     <use x="577.605469" xlink:href="#DejaVuSans-108"/>
     <use x="605.388672" xlink:href="#DejaVuSans-101"/>
     <use x="666.912109" xlink:href="#DejaVuSans-61"/>
     <use x="750.701172" xlink:href="#DejaVuSans-54"/>
     <use x="814.324219" xlink:href="#DejaVuSans-52"/>
    </g>
   </g>
   <g id="text_57">
    <!-- accuracy -->
    <defs>
     <path d="M 8.5 21.578125 
L 8.5 54.6875 
L 17.484375 54.6875 
L 17.484375 21.921875 
Q 17.484375 14.15625 20.5 10.265625 
Q 23.53125 6.390625 29.59375 6.390625 
Q 36.859375 6.390625 41.078125 11.03125 
Q 45.3125 15.671875 45.3125 23.6875 
L 45.3125 54.6875 
L 54.296875 54.6875 
L 54.296875 0 
L 45.3125 0 
L 45.3125 8.40625 
Q 42.046875 3.421875 37.71875 1 
Q 33.40625 -1.421875 27.6875 -1.421875 
Q 18.265625 -1.421875 13.375 4.4375 
Q 8.5 10.296875 8.5 21.578125 
z
M 31.109375 56 
z
" id="DejaVuSans-117"/>
     <path d="M 32.171875 -5.078125 
Q 28.375 -14.84375 24.75 -17.8125 
Q 21.140625 -20.796875 15.09375 -20.796875 
L 7.90625 -20.796875 
L 7.90625 -13.28125 
L 13.1875 -13.28125 
Q 16.890625 -13.28125 18.9375 -11.515625 
Q 21 -9.765625 23.484375 -3.21875 
L 25.09375 0.875 
L 2.984375 54.6875 
L 12.5 54.6875 
L 29.59375 11.921875 
L 46.6875 54.6875 
L 56.203125 54.6875 
z
" id="DejaVuSans-121"/>
    </defs>
    <g style="fill:#262626;" transform="translate(512.107532 21.6)scale(0.12 -0.12)">
     <use xlink:href="#DejaVuSans-97"/>
     <use x="61.279297" xlink:href="#DejaVuSans-99"/>
     <use x="116.259766" xlink:href="#DejaVuSans-99"/>
     <use x="171.240234" xlink:href="#DejaVuSans-117"/>
     <use x="234.619141" xlink:href="#DejaVuSans-114"/>
     <use x="275.732422" xlink:href="#DejaVuSans-97"/>
     <use x="337.011719" xlink:href="#DejaVuSans-99"/>
     <use x="391.992188" xlink:href="#DejaVuSans-121"/>
    </g>
   </g>
  </g>
  <g id="axes_3">
   <g id="patch_12">
    <path d="M 759.56 326.74 
L 1041.857563 326.74 
L 1041.857563 27.6 
L 759.56 27.6 
z
" style="fill:#eaeaf2;"/>
   </g>
   <g id="matplotlib.axis_5">
    <g id="xtick_27">
     <g id="line2d_50">
      <path clip-path="url(#p3c85764493)" d="M 768.35709 326.74 
L 768.35709 27.6 
" style="fill:none;stroke:#ffffff;stroke-linecap:round;"/>
     </g>
     <g id="text_58">
      <!-- 0 -->
      <g style="fill:#262626;" transform="translate(764.857715 344.598281)scale(0.11 -0.11)">
       <use xlink:href="#DejaVuSans-48"/>
      </g>
     </g>
    </g>
    <g id="xtick_28">
     <g id="line2d_51">
      <path clip-path="url(#p3c85764493)" d="M 788.530177 326.74 
L 788.530177 27.6 
" style="fill:none;stroke:#ffffff;stroke-linecap:round;"/>
     </g>
     <g id="text_59">
      <!-- 5 -->
      <g style="fill:#262626;" transform="translate(785.030802 344.598281)scale(0.11 -0.11)">
       <use xlink:href="#DejaVuSans-53"/>
      </g>
     </g>
    </g>
    <g id="xtick_29">
     <g id="line2d_52">
      <path clip-path="url(#p3c85764493)" d="M 808.703264 326.74 
L 808.703264 27.6 
" style="fill:none;stroke:#ffffff;stroke-linecap:round;"/>
     </g>
     <g id="text_60">
      <!-- 10 -->
      <g style="fill:#262626;" transform="translate(801.704514 344.598281)scale(0.11 -0.11)">
       <use xlink:href="#DejaVuSans-49"/>
       <use x="63.623047" xlink:href="#DejaVuSans-48"/>
      </g>
     </g>
    </g>
    <g id="xtick_30">
     <g id="line2d_53">
      <path clip-path="url(#p3c85764493)" d="M 828.87635 326.74 
L 828.87635 27.6 
" style="fill:none;stroke:#ffffff;stroke-linecap:round;"/>
     </g>
     <g id="text_61">
      <!-- 15 -->
      <g style="fill:#262626;" transform="translate(821.8776 344.598281)scale(0.11 -0.11)">
       <use xlink:href="#DejaVuSans-49"/>
       <use x="63.623047" xlink:href="#DejaVuSans-53"/>
      </g>
     </g>
    </g>
    <g id="xtick_31">
     <g id="line2d_54">
      <path clip-path="url(#p3c85764493)" d="M 849.049437 326.74 
L 849.049437 27.6 
" style="fill:none;stroke:#ffffff;stroke-linecap:round;"/>
     </g>
     <g id="text_62">
      <!-- 20 -->
      <g style="fill:#262626;" transform="translate(842.050687 344.598281)scale(0.11 -0.11)">
       <use xlink:href="#DejaVuSans-50"/>
       <use x="63.623047" xlink:href="#DejaVuSans-48"/>
      </g>
     </g>
    </g>
    <g id="xtick_32">
     <g id="line2d_55">
      <path clip-path="url(#p3c85764493)" d="M 869.222524 326.74 
L 869.222524 27.6 
" style="fill:none;stroke:#ffffff;stroke-linecap:round;"/>
     </g>
     <g id="text_63">
      <!-- 25 -->
      <g style="fill:#262626;" transform="translate(862.223774 344.598281)scale(0.11 -0.11)">
       <use xlink:href="#DejaVuSans-50"/>
       <use x="63.623047" xlink:href="#DejaVuSans-53"/>
      </g>
     </g>
    </g>
    <g id="xtick_33">
     <g id="line2d_56">
      <path clip-path="url(#p3c85764493)" d="M 889.395611 326.74 
L 889.395611 27.6 
" style="fill:none;stroke:#ffffff;stroke-linecap:round;"/>
     </g>
     <g id="text_64">
      <!-- 30 -->
      <g style="fill:#262626;" transform="translate(882.396861 344.598281)scale(0.11 -0.11)">
       <use xlink:href="#DejaVuSans-51"/>
       <use x="63.623047" xlink:href="#DejaVuSans-48"/>
      </g>
     </g>
    </g>
    <g id="xtick_34">
     <g id="line2d_57">
      <path clip-path="url(#p3c85764493)" d="M 909.568697 326.74 
L 909.568697 27.6 
" style="fill:none;stroke:#ffffff;stroke-linecap:round;"/>
     </g>
     <g id="text_65">
      <!-- 35 -->
      <g style="fill:#262626;" transform="translate(902.569947 344.598281)scale(0.11 -0.11)">
       <use xlink:href="#DejaVuSans-51"/>
       <use x="63.623047" xlink:href="#DejaVuSans-53"/>
      </g>
     </g>
    </g>
    <g id="xtick_35">
     <g id="line2d_58">
      <path clip-path="url(#p3c85764493)" d="M 929.741784 326.74 
L 929.741784 27.6 
" style="fill:none;stroke:#ffffff;stroke-linecap:round;"/>
     </g>
     <g id="text_66">
      <!-- 40 -->
      <g style="fill:#262626;" transform="translate(922.743034 344.598281)scale(0.11 -0.11)">
       <use xlink:href="#DejaVuSans-52"/>
       <use x="63.623047" xlink:href="#DejaVuSans-48"/>
      </g>
     </g>
    </g>
    <g id="xtick_36">
     <g id="line2d_59">
      <path clip-path="url(#p3c85764493)" d="M 949.914871 326.74 
L 949.914871 27.6 
" style="fill:none;stroke:#ffffff;stroke-linecap:round;"/>
     </g>
     <g id="text_67">
      <!-- 45 -->
      <g style="fill:#262626;" transform="translate(942.916121 344.598281)scale(0.11 -0.11)">
       <use xlink:href="#DejaVuSans-52"/>
       <use x="63.623047" xlink:href="#DejaVuSans-53"/>
      </g>
     </g>
    </g>
    <g id="xtick_37">
     <g id="line2d_60">
      <path clip-path="url(#p3c85764493)" d="M 970.087958 326.74 
L 970.087958 27.6 
" style="fill:none;stroke:#ffffff;stroke-linecap:round;"/>
     </g>
     <g id="text_68">
      <!-- 50 -->
      <g style="fill:#262626;" transform="translate(963.089208 344.598281)scale(0.11 -0.11)">
       <use xlink:href="#DejaVuSans-53"/>
       <use x="63.623047" xlink:href="#DejaVuSans-48"/>
      </g>
     </g>
    </g>
    <g id="xtick_38">
     <g id="line2d_61">
      <path clip-path="url(#p3c85764493)" d="M 990.261044 326.74 
L 990.261044 27.6 
" style="fill:none;stroke:#ffffff;stroke-linecap:round;"/>
     </g>
     <g id="text_69">
      <!-- 55 -->
      <g style="fill:#262626;" transform="translate(983.262294 344.598281)scale(0.11 -0.11)">
       <use xlink:href="#DejaVuSans-53"/>
       <use x="63.623047" xlink:href="#DejaVuSans-53"/>
      </g>
     </g>
    </g>
    <g id="xtick_39">
     <g id="line2d_62">
      <path clip-path="url(#p3c85764493)" d="M 1010.434131 326.74 
L 1010.434131 27.6 
" style="fill:none;stroke:#ffffff;stroke-linecap:round;"/>
     </g>
     <g id="text_70">
      <!-- 60 -->
      <g style="fill:#262626;" transform="translate(1003.435381 344.598281)scale(0.11 -0.11)">
       <use xlink:href="#DejaVuSans-54"/>
       <use x="63.623047" xlink:href="#DejaVuSans-48"/>
      </g>
     </g>
    </g>
   </g>
   <g id="matplotlib.axis_6">
    <g id="ytick_14">
     <g id="line2d_63">
      <path clip-path="url(#p3c85764493)" d="M 759.56 320.023528 
L 1041.857563 320.023528 
" style="fill:none;stroke:#ffffff;stroke-linecap:round;"/>
     </g>
     <g id="text_71">
      <!-- 0.825 -->
      <g style="fill:#262626;" transform="translate(718.569063 324.202668)scale(0.11 -0.11)">
       <use xlink:href="#DejaVuSans-48"/>
       <use x="63.623047" xlink:href="#DejaVuSans-46"/>
       <use x="95.410156" xlink:href="#DejaVuSans-56"/>
       <use x="159.033203" xlink:href="#DejaVuSans-50"/>
       <use x="222.65625" xlink:href="#DejaVuSans-53"/>
      </g>
     </g>
    </g>
    <g id="ytick_15">
     <g id="line2d_64">
      <path clip-path="url(#p3c85764493)" d="M 759.56 278.742028 
L 1041.857563 278.742028 
" style="fill:none;stroke:#ffffff;stroke-linecap:round;"/>
     </g>
     <g id="text_72">
      <!-- 0.850 -->
      <g style="fill:#262626;" transform="translate(718.569063 282.921169)scale(0.11 -0.11)">
       <use xlink:href="#DejaVuSans-48"/>
       <use x="63.623047" xlink:href="#DejaVuSans-46"/>
       <use x="95.410156" xlink:href="#DejaVuSans-56"/>
       <use x="159.033203" xlink:href="#DejaVuSans-53"/>
       <use x="222.65625" xlink:href="#DejaVuSans-48"/>
      </g>
     </g>
    </g>
    <g id="ytick_16">
     <g id="line2d_65">
      <path clip-path="url(#p3c85764493)" d="M 759.56 237.460529 
L 1041.857563 237.460529 
" style="fill:none;stroke:#ffffff;stroke-linecap:round;"/>
     </g>
     <g id="text_73">
      <!-- 0.875 -->
      <g style="fill:#262626;" transform="translate(718.569063 241.63967)scale(0.11 -0.11)">
       <use xlink:href="#DejaVuSans-48"/>
       <use x="63.623047" xlink:href="#DejaVuSans-46"/>
       <use x="95.410156" xlink:href="#DejaVuSans-56"/>
       <use x="159.033203" xlink:href="#DejaVuSans-55"/>
       <use x="222.65625" xlink:href="#DejaVuSans-53"/>
      </g>
     </g>
    </g>
    <g id="ytick_17">
     <g id="line2d_66">
      <path clip-path="url(#p3c85764493)" d="M 759.56 196.17903 
L 1041.857563 196.17903 
" style="fill:none;stroke:#ffffff;stroke-linecap:round;"/>
     </g>
     <g id="text_74">
      <!-- 0.900 -->
      <g style="fill:#262626;" transform="translate(718.569063 200.35817)scale(0.11 -0.11)">
       <use xlink:href="#DejaVuSans-48"/>
       <use x="63.623047" xlink:href="#DejaVuSans-46"/>
       <use x="95.410156" xlink:href="#DejaVuSans-57"/>
       <use x="159.033203" xlink:href="#DejaVuSans-48"/>
       <use x="222.65625" xlink:href="#DejaVuSans-48"/>
      </g>
     </g>
    </g>
    <g id="ytick_18">
     <g id="line2d_67">
      <path clip-path="url(#p3c85764493)" d="M 759.56 154.89753 
L 1041.857563 154.89753 
" style="fill:none;stroke:#ffffff;stroke-linecap:round;"/>
     </g>
     <g id="text_75">
      <!-- 0.925 -->
      <g style="fill:#262626;" transform="translate(718.569063 159.076671)scale(0.11 -0.11)">
       <use xlink:href="#DejaVuSans-48"/>
       <use x="63.623047" xlink:href="#DejaVuSans-46"/>
       <use x="95.410156" xlink:href="#DejaVuSans-57"/>
       <use x="159.033203" xlink:href="#DejaVuSans-50"/>
       <use x="222.65625" xlink:href="#DejaVuSans-53"/>
      </g>
     </g>
    </g>
    <g id="ytick_19">
     <g id="line2d_68">
      <path clip-path="url(#p3c85764493)" d="M 759.56 113.616031 
L 1041.857563 113.616031 
" style="fill:none;stroke:#ffffff;stroke-linecap:round;"/>
     </g>
     <g id="text_76">
      <!-- 0.950 -->
      <g style="fill:#262626;" transform="translate(718.569063 117.795172)scale(0.11 -0.11)">
       <use xlink:href="#DejaVuSans-48"/>
       <use x="63.623047" xlink:href="#DejaVuSans-46"/>
       <use x="95.410156" xlink:href="#DejaVuSans-57"/>
       <use x="159.033203" xlink:href="#DejaVuSans-53"/>
       <use x="222.65625" xlink:href="#DejaVuSans-48"/>
      </g>
     </g>
    </g>
    <g id="ytick_20">
     <g id="line2d_69">
      <path clip-path="url(#p3c85764493)" d="M 759.56 72.334532 
L 1041.857563 72.334532 
" style="fill:none;stroke:#ffffff;stroke-linecap:round;"/>
     </g>
     <g id="text_77">
      <!-- 0.975 -->
      <g style="fill:#262626;" transform="translate(718.569063 76.513672)scale(0.11 -0.11)">
       <use xlink:href="#DejaVuSans-48"/>
       <use x="63.623047" xlink:href="#DejaVuSans-46"/>
       <use x="95.410156" xlink:href="#DejaVuSans-57"/>
       <use x="159.033203" xlink:href="#DejaVuSans-55"/>
       <use x="222.65625" xlink:href="#DejaVuSans-53"/>
      </g>
     </g>
    </g>
    <g id="ytick_21">
     <g id="line2d_70">
      <path clip-path="url(#p3c85764493)" d="M 759.56 31.053032 
L 1041.857563 31.053032 
" style="fill:none;stroke:#ffffff;stroke-linecap:round;"/>
     </g>
     <g id="text_78">
      <!-- 1.000 -->
      <g style="fill:#262626;" transform="translate(718.569063 35.232173)scale(0.11 -0.11)">
       <use xlink:href="#DejaVuSans-49"/>
       <use x="63.623047" xlink:href="#DejaVuSans-46"/>
       <use x="95.410156" xlink:href="#DejaVuSans-48"/>
       <use x="159.033203" xlink:href="#DejaVuSans-48"/>
       <use x="222.65625" xlink:href="#DejaVuSans-48"/>
      </g>
     </g>
    </g>
   </g>
   <g id="PathCollection_9">
    <g clip-path="url(#p3c85764493)">
     <use style="fill:#c44e52;stroke:#c44e52;" x="800.634029" xlink:href="#m07419329f0" y="47.841392"/>
    </g>
   </g>
   <g id="PathCollection_10">
    <g clip-path="url(#p3c85764493)">
     <use style="fill:#c44e52;stroke:#c44e52;" x="853.084054" xlink:href="#m07419329f0" y="45.914372"/>
    </g>
   </g>
   <g id="PathCollection_11">
    <g clip-path="url(#p3c85764493)">
     <use style="fill:#c44e52;stroke:#c44e52;" x="873.257141" xlink:href="#m07419329f0" y="47.015762"/>
    </g>
   </g>
   <g id="PathCollection_12">
    <g clip-path="url(#p3c85764493)">
     <use style="fill:#c44e52;stroke:#c44e52;" x="998.330279" xlink:href="#m07419329f0" y="41.511012"/>
    </g>
   </g>
   <g id="PathCollection_13">
    <g clip-path="url(#p3c85764493)">
     <use style="fill:#c44e52;stroke:#c44e52;" x="828.87635" xlink:href="#m07419329f0" y="150.88662"/>
    </g>
   </g>
   <g id="PathCollection_14">
    <g clip-path="url(#p3c85764493)">
     <use style="fill:#c44e52;stroke:#c44e52;" x="865.187906" xlink:href="#m07419329f0" y="146.64123"/>
    </g>
   </g>
   <g id="PathCollection_15">
    <g clip-path="url(#p3c85764493)">
     <use style="fill:#c44e52;stroke:#c44e52;" x="873.257141" xlink:href="#m07419329f0" y="152.067271"/>
    </g>
   </g>
   <g id="PathCollection_16">
    <g clip-path="url(#p3c85764493)">
     <use style="fill:#c44e52;stroke:#c44e52;" x="889.395611" xlink:href="#m07419329f0" y="136.733671"/>
    </g>
   </g>
   <g id="PathCollection_17">
    <g clip-path="url(#p3c85764493)">
     <use style="fill:#c44e52;stroke:#c44e52;" x="824.841733" xlink:href="#m07419329f0" y="141.137581"/>
    </g>
   </g>
   <g id="PathCollection_18">
    <g clip-path="url(#p3c85764493)">
     <use style="fill:#c44e52;stroke:#c44e52;" x="861.153289" xlink:href="#m07419329f0" y="136.733671"/>
    </g>
   </g>
   <g id="PathCollection_19">
    <g clip-path="url(#p3c85764493)">
     <use style="fill:#c44e52;stroke:#c44e52;" x="873.257141" xlink:href="#m07419329f0" y="139.486321"/>
    </g>
   </g>
   <g id="PathCollection_20">
    <g clip-path="url(#p3c85764493)">
     <use style="fill:#c44e52;stroke:#c44e52;" x="1022.537983" xlink:href="#m07419329f0" y="124.074011"/>
    </g>
   </g>
   <g id="line2d_71">
    <path clip-path="url(#p3c85764493)" d="M 772.391707 78.113942 
L 776.426325 64.078232 
L 780.460942 54.170672 
L 784.495559 50.868152 
L 788.530177 50.318282 
L 792.564794 48.115502 
L 796.599412 49.216892 
L 800.634029 47.841392 
L 804.668646 49.492652 
L 808.703264 50.042522 
L 812.737881 51.418022 
L 816.772498 49.766762 
L 820.807116 49.492652 
L 824.841733 50.592392 
L 828.87635 49.216892 
L 832.910968 49.216892 
L 836.945585 48.391262 
L 840.980202 48.941132 
L 845.01482 47.015762 
L 849.049437 48.391262 
L 853.084054 45.914372 
L 857.118672 48.115502 
L 861.153289 45.914372 
L 865.187906 45.914372 
L 869.222524 47.015762 
L 873.257141 47.015762 
L 877.291759 47.015762 
L 881.326376 47.015762 
L 885.360993 47.015762 
L 889.395611 42.336092 
L 893.430228 41.786222 
L 897.464845 42.061983 
L 901.499463 42.887062 
L 905.53408 42.611852 
L 909.568697 42.887062 
L 913.603315 43.162272 
L 917.637932 42.611852 
L 921.672549 42.887062 
L 925.707167 42.887062 
L 929.741784 43.162272 
L 933.776401 42.611852 
L 937.811019 42.061432 
L 941.845636 42.611852 
L 945.880253 42.061432 
L 949.914871 42.336642 
L 953.949488 42.611852 
L 957.984105 42.061432 
L 962.018723 42.336642 
L 966.05334 42.336642 
L 970.087958 42.061432 
L 974.122575 42.061432 
L 978.157192 42.336642 
L 982.19181 42.061432 
L 986.226427 41.786222 
L 990.261044 42.336642 
L 994.295662 42.061432 
L 998.330279 41.511012 
L 1002.364896 41.786222 
L 1006.399514 41.786222 
L 1010.434131 42.061432 
L 1014.468748 41.786222 
L 1018.503366 41.786222 
L 1022.537983 41.786222 
L 1026.5726 42.061432 
" style="fill:none;stroke:#4c72b0;stroke-linecap:round;stroke-width:1.5;"/>
   </g>
   <g id="line2d_72">
    <path clip-path="url(#p3c85764493)" d="M 772.391707 252.794129 
L 776.426325 207.737849 
L 780.460942 198.06642 
L 784.495559 179.66643 
L 788.530177 182.02608 
L 792.564794 173.29752 
L 796.599412 176.12778 
L 800.634029 174.71265 
L 804.668646 174.47652 
L 808.703264 169.52274 
L 812.737881 162.9177 
L 816.772498 161.7387 
L 820.807116 155.8404 
L 824.841733 160.559701 
L 828.87635 150.88662 
L 832.910968 153.4824 
L 836.945585 163.862221 
L 840.980202 152.77401 
L 845.01482 147.82023 
L 849.049437 151.59501 
L 853.084054 152.067271 
L 857.118672 151.831141 
L 861.153289 150.652141 
L 865.187906 146.64123 
L 869.222524 152.067271 
L 873.257141 152.067271 
L 877.291759 152.067271 
L 881.326376 152.067271 
L 885.360993 152.067271 
L 889.395611 136.733671 
L 893.430228 141.45132 
L 897.464845 144.51771 
L 901.499463 146.405336 
L 905.53408 145.697653 
L 909.568697 147.584808 
L 913.603315 148.29249 
L 917.637932 147.348913 
L 921.672549 147.584808 
L 925.707167 147.348913 
L 929.741784 147.113019 
L 933.776401 148.056596 
L 937.811019 149.471962 
L 941.845636 148.056596 
L 945.880253 149.000173 
L 949.914871 149.236068 
L 953.949488 147.584808 
L 957.984105 147.113019 
L 962.018723 146.405336 
L 966.05334 147.113019 
L 970.087958 146.64123 
L 974.122575 146.405336 
L 978.157192 147.820702 
L 982.19181 147.820702 
L 986.226427 148.29249 
L 990.261044 147.820702 
L 994.295662 147.348913 
L 998.330279 147.113019 
L 1002.364896 147.113019 
L 1006.399514 148.528385 
L 1010.434131 147.820702 
L 1014.468748 147.820702 
L 1018.503366 148.29249 
L 1022.537983 147.584808 
L 1026.5726 147.348913 
" style="fill:none;stroke:#dd8452;stroke-linecap:round;stroke-width:1.5;"/>
   </g>
   <g id="line2d_73">
    <path clip-path="url(#p3c85764493)" d="M 772.391707 313.142727 
L 776.426325 233.332379 
L 780.460942 208.287719 
L 784.495559 190.949489 
L 788.530177 190.39962 
L 792.564794 171.13437 
L 796.599412 179.66643 
L 800.634029 167.83185 
L 804.668646 166.732111 
L 808.703264 163.429591 
L 812.737881 163.429591 
L 816.772498 148.01673 
L 820.807116 162.603961 
L 824.841733 141.137581 
L 828.87635 149.94375 
L 832.910968 143.33871 
L 836.945585 144.440101 
L 840.980202 142.788841 
L 845.01482 140.861821 
L 849.049437 141.137581 
L 853.084054 138.9348 
L 857.118672 140.58606 
L 861.153289 136.733671 
L 865.187906 139.486321 
L 869.222524 139.486321 
L 873.257141 139.486321 
L 877.291759 139.486321 
L 881.326376 139.486321 
L 885.360993 139.486321 
L 889.395611 128.477371 
L 893.430228 130.404391 
L 897.464845 129.578761 
L 901.499463 127.376531 
L 905.53408 127.926951 
L 909.568697 127.101321 
L 913.603315 127.651741 
L 917.637932 127.651741 
L 921.672549 128.752581 
L 925.707167 128.477371 
L 929.741784 128.477371 
L 933.776401 127.926951 
L 937.811019 127.376531 
L 941.845636 126.826111 
L 945.880253 127.651741 
L 949.914871 126.826111 
L 953.949488 127.101321 
L 957.984105 125.725271 
L 962.018723 126.550901 
L 966.05334 127.101321 
L 970.087958 126.550901 
L 974.122575 125.174851 
L 978.157192 125.725271 
L 982.19181 126.000481 
L 986.226427 125.174851 
L 990.261044 124.624431 
L 994.295662 124.899641 
L 998.330279 125.450061 
L 1002.364896 124.899641 
L 1006.399514 124.349221 
L 1010.434131 125.174851 
L 1014.468748 125.174851 
L 1018.503366 124.624431 
L 1022.537983 124.074011 
L 1026.5726 124.624431 
" style="fill:none;stroke:#55a868;stroke-linecap:round;stroke-width:1.5;"/>
   </g>
   <g id="line2d_74">
    <path clip-path="url(#p3c85764493)" d="M 772.391707 311.783 
L 772.391707 42.557 
" style="fill:none;stroke:#1a1a1a;stroke-dasharray:5.55,2.4;stroke-dashoffset:0;stroke-width:1.5;"/>
   </g>
   <g id="line2d_75">
    <path clip-path="url(#p3c85764493)" d="M 832.910968 311.783 
L 832.910968 42.557 
" style="fill:none;stroke:#1a1a1a;stroke-dasharray:5.55,2.4;stroke-dashoffset:0;stroke-width:1.5;"/>
   </g>
   <g id="line2d_76">
    <path clip-path="url(#p3c85764493)" d="M 873.257141 311.783 
L 873.257141 42.557 
" style="fill:none;stroke:#1a1a1a;stroke-dasharray:5.55,2.4;stroke-dashoffset:0;stroke-width:1.5;"/>
   </g>
   <g id="line2d_77">
    <path clip-path="url(#p3c85764493)" d="M 889.395611 311.783 
L 889.395611 42.557 
" style="fill:none;stroke:#1a1a1a;stroke-dasharray:5.55,2.4;stroke-dashoffset:0;stroke-width:1.5;"/>
   </g>
   <g id="patch_13">
    <path d="M 759.56 326.74 
L 759.56 27.6 
" style="fill:none;stroke:#ffffff;stroke-linecap:square;stroke-linejoin:miter;stroke-width:1.25;"/>
   </g>
   <g id="patch_14">
    <path d="M 1041.857563 326.74 
L 1041.857563 27.6 
" style="fill:none;stroke:#ffffff;stroke-linecap:square;stroke-linejoin:miter;stroke-width:1.25;"/>
   </g>
   <g id="patch_15">
    <path d="M 759.56 326.74 
L 1041.857563 326.74 
" style="fill:none;stroke:#ffffff;stroke-linecap:square;stroke-linejoin:miter;stroke-width:1.25;"/>
   </g>
   <g id="patch_16">
    <path d="M 759.56 27.6 
L 1041.857563 27.6 
" style="fill:none;stroke:#ffffff;stroke-linecap:square;stroke-linejoin:miter;stroke-width:1.25;"/>
   </g>
   <g id="text_79">
    <!-- 0.9898 -->
    <g style="fill:#262626;" transform="translate(800.634029 45.345767)scale(0.12 -0.12)">
     <use xlink:href="#DejaVuSans-48"/>
     <use x="63.623047" xlink:href="#DejaVuSans-46"/>
     <use x="95.410156" xlink:href="#DejaVuSans-57"/>
     <use x="159.033203" xlink:href="#DejaVuSans-56"/>
     <use x="222.65625" xlink:href="#DejaVuSans-57"/>
     <use x="286.279297" xlink:href="#DejaVuSans-56"/>
    </g>
   </g>
   <g id="text_80">
    <!-- 0.9910 -->
    <g style="fill:#262626;" transform="translate(853.084054 43.418747)scale(0.12 -0.12)">
     <use xlink:href="#DejaVuSans-48"/>
     <use x="63.623047" xlink:href="#DejaVuSans-46"/>
     <use x="95.410156" xlink:href="#DejaVuSans-57"/>
     <use x="159.033203" xlink:href="#DejaVuSans-57"/>
     <use x="222.65625" xlink:href="#DejaVuSans-49"/>
     <use x="286.279297" xlink:href="#DejaVuSans-48"/>
    </g>
   </g>
   <g id="text_81">
    <!-- 0.9903 -->
    <g style="fill:#262626;" transform="translate(873.257141 44.520137)scale(0.12 -0.12)">
     <use xlink:href="#DejaVuSans-48"/>
     <use x="63.623047" xlink:href="#DejaVuSans-46"/>
     <use x="95.410156" xlink:href="#DejaVuSans-57"/>
     <use x="159.033203" xlink:href="#DejaVuSans-57"/>
     <use x="222.65625" xlink:href="#DejaVuSans-48"/>
     <use x="286.279297" xlink:href="#DejaVuSans-51"/>
    </g>
   </g>
   <g id="text_82">
    <!-- 0.9937 -->
    <g style="fill:#262626;" transform="translate(998.330279 39.015387)scale(0.12 -0.12)">
     <use xlink:href="#DejaVuSans-48"/>
     <use x="63.623047" xlink:href="#DejaVuSans-46"/>
     <use x="95.410156" xlink:href="#DejaVuSans-57"/>
     <use x="159.033203" xlink:href="#DejaVuSans-57"/>
     <use x="222.65625" xlink:href="#DejaVuSans-51"/>
     <use x="286.279297" xlink:href="#DejaVuSans-55"/>
    </g>
   </g>
   <g id="text_83">
    <!-- 0.9274 -->
    <g style="fill:#262626;" transform="translate(828.87635 148.390995)scale(0.12 -0.12)">
     <use xlink:href="#DejaVuSans-48"/>
     <use x="63.623047" xlink:href="#DejaVuSans-46"/>
     <use x="95.410156" xlink:href="#DejaVuSans-57"/>
     <use x="159.033203" xlink:href="#DejaVuSans-50"/>
     <use x="222.65625" xlink:href="#DejaVuSans-55"/>
     <use x="286.279297" xlink:href="#DejaVuSans-52"/>
    </g>
   </g>
   <g id="text_84">
    <!-- 0.9300 -->
    <g style="fill:#262626;" transform="translate(865.187906 144.145605)scale(0.12 -0.12)">
     <use xlink:href="#DejaVuSans-48"/>
     <use x="63.623047" xlink:href="#DejaVuSans-46"/>
     <use x="95.410156" xlink:href="#DejaVuSans-57"/>
     <use x="159.033203" xlink:href="#DejaVuSans-51"/>
     <use x="222.65625" xlink:href="#DejaVuSans-48"/>
     <use x="286.279297" xlink:href="#DejaVuSans-48"/>
    </g>
   </g>
   <g id="text_85">
    <!-- 0.9267 -->
    <g style="fill:#262626;" transform="translate(873.257141 149.571646)scale(0.12 -0.12)">
     <use xlink:href="#DejaVuSans-48"/>
     <use x="63.623047" xlink:href="#DejaVuSans-46"/>
     <use x="95.410156" xlink:href="#DejaVuSans-57"/>
     <use x="159.033203" xlink:href="#DejaVuSans-50"/>
     <use x="222.65625" xlink:href="#DejaVuSans-54"/>
     <use x="286.279297" xlink:href="#DejaVuSans-55"/>
    </g>
   </g>
   <g id="text_86">
    <!-- 0.9360 -->
    <g style="fill:#262626;" transform="translate(889.395611 134.238046)scale(0.12 -0.12)">
     <use xlink:href="#DejaVuSans-48"/>
     <use x="63.623047" xlink:href="#DejaVuSans-46"/>
     <use x="95.410156" xlink:href="#DejaVuSans-57"/>
     <use x="159.033203" xlink:href="#DejaVuSans-51"/>
     <use x="222.65625" xlink:href="#DejaVuSans-54"/>
     <use x="286.279297" xlink:href="#DejaVuSans-48"/>
    </g>
   </g>
   <g id="text_87">
    <!-- 0.9333 -->
    <g style="fill:#262626;" transform="translate(824.841733 138.641956)scale(0.12 -0.12)">
     <use xlink:href="#DejaVuSans-48"/>
     <use x="63.623047" xlink:href="#DejaVuSans-46"/>
     <use x="95.410156" xlink:href="#DejaVuSans-57"/>
     <use x="159.033203" xlink:href="#DejaVuSans-51"/>
     <use x="222.65625" xlink:href="#DejaVuSans-51"/>
     <use x="286.279297" xlink:href="#DejaVuSans-51"/>
    </g>
   </g>
   <g id="text_88">
    <!-- 0.9360 -->
    <g style="fill:#262626;" transform="translate(861.153289 134.238046)scale(0.12 -0.12)">
     <use xlink:href="#DejaVuSans-48"/>
     <use x="63.623047" xlink:href="#DejaVuSans-46"/>
     <use x="95.410156" xlink:href="#DejaVuSans-57"/>
     <use x="159.033203" xlink:href="#DejaVuSans-51"/>
     <use x="222.65625" xlink:href="#DejaVuSans-54"/>
     <use x="286.279297" xlink:href="#DejaVuSans-48"/>
    </g>
   </g>
   <g id="text_89">
    <!-- 0.9343 -->
    <g style="fill:#262626;" transform="translate(873.257141 136.990696)scale(0.12 -0.12)">
     <use xlink:href="#DejaVuSans-48"/>
     <use x="63.623047" xlink:href="#DejaVuSans-46"/>
     <use x="95.410156" xlink:href="#DejaVuSans-57"/>
     <use x="159.033203" xlink:href="#DejaVuSans-51"/>
     <use x="222.65625" xlink:href="#DejaVuSans-52"/>
     <use x="286.279297" xlink:href="#DejaVuSans-51"/>
    </g>
   </g>
   <g id="text_90">
    <!-- 0.9437 -->
    <g style="fill:#262626;" transform="translate(1022.537983 121.578386)scale(0.12 -0.12)">
     <use xlink:href="#DejaVuSans-48"/>
     <use x="63.623047" xlink:href="#DejaVuSans-46"/>
     <use x="95.410156" xlink:href="#DejaVuSans-57"/>
     <use x="159.033203" xlink:href="#DejaVuSans-52"/>
     <use x="222.65625" xlink:href="#DejaVuSans-51"/>
     <use x="286.279297" xlink:href="#DejaVuSans-55"/>
    </g>
   </g>
   <g id="text_91">
    <!-- Softmax -->
    <g style="fill:#262626;" transform="translate(786.991184 216.8795)rotate(-270)scale(0.12 -0.12)">
     <use xlink:href="#DejaVuSans-83"/>
     <use x="63.476562" xlink:href="#DejaVuSans-111"/>
     <use x="124.658203" xlink:href="#DejaVuSans-102"/>
     <use x="159.847656" xlink:href="#DejaVuSans-116"/>
     <use x="199.056641" xlink:href="#DejaVuSans-109"/>
     <use x="296.46875" xlink:href="#DejaVuSans-97"/>
     <use x="357.748047" xlink:href="#DejaVuSans-120"/>
    </g>
   </g>
   <g id="text_92">
    <!-- Margin Softmax -->
    <g style="fill:#262626;" transform="translate(843.475827 171.870125)rotate(-270)scale(0.12 -0.12)">
     <use xlink:href="#DejaVuSans-77"/>
     <use x="86.279297" xlink:href="#DejaVuSans-97"/>
     <use x="147.558594" xlink:href="#DejaVuSans-114"/>
     <use x="188.65625" xlink:href="#DejaVuSans-103"/>
     <use x="252.132812" xlink:href="#DejaVuSans-105"/>
     <use x="279.916016" xlink:href="#DejaVuSans-110"/>
     <use x="343.294922" xlink:href="#DejaVuSans-32"/>
     <use x="375.082031" xlink:href="#DejaVuSans-83"/>
     <use x="438.558594" xlink:href="#DejaVuSans-111"/>
     <use x="499.740234" xlink:href="#DejaVuSans-102"/>
     <use x="534.929688" xlink:href="#DejaVuSans-116"/>
     <use x="574.138672" xlink:href="#DejaVuSans-109"/>
     <use x="671.550781" xlink:href="#DejaVuSans-97"/>
     <use x="732.830078" xlink:href="#DejaVuSans-120"/>
    </g>
   </g>
   <g id="text_93">
    <!-- Bottleneck Arcface -->
    <g style="fill:#262626;" transform="translate(878.98046 153.5645)rotate(-270)scale(0.12 -0.12)">
     <use xlink:href="#DejaVuSans-66"/>
     <use x="68.603516" xlink:href="#DejaVuSans-111"/>
     <use x="129.785156" xlink:href="#DejaVuSans-116"/>
     <use x="168.994141" xlink:href="#DejaVuSans-116"/>
     <use x="208.203125" xlink:href="#DejaVuSans-108"/>
     <use x="235.986328" xlink:href="#DejaVuSans-101"/>
     <use x="297.509766" xlink:href="#DejaVuSans-110"/>
     <use x="360.888672" xlink:href="#DejaVuSans-101"/>
     <use x="422.412109" xlink:href="#DejaVuSans-99"/>
     <use x="477.392578" xlink:href="#DejaVuSans-107"/>
     <use x="535.302734" xlink:href="#DejaVuSans-32"/>
     <use x="567.089844" xlink:href="#DejaVuSans-65"/>
     <use x="635.498047" xlink:href="#DejaVuSans-114"/>
     <use x="676.580078" xlink:href="#DejaVuSans-99"/>
     <use x="731.560547" xlink:href="#DejaVuSans-102"/>
     <use x="766.765625" xlink:href="#DejaVuSans-97"/>
     <use x="828.044922" xlink:href="#DejaVuSans-99"/>
     <use x="883.025391" xlink:href="#DejaVuSans-101"/>
    </g>
   </g>
   <g id="text_94">
    <!-- Arcface scale=64 -->
    <g style="fill:#262626;" transform="translate(920.133557 161.55575)rotate(-270)scale(0.12 -0.12)">
     <use xlink:href="#DejaVuSans-65"/>
     <use x="68.408203" xlink:href="#DejaVuSans-114"/>
     <use x="109.490234" xlink:href="#DejaVuSans-99"/>
     <use x="164.470703" xlink:href="#DejaVuSans-102"/>
     <use x="199.675781" xlink:href="#DejaVuSans-97"/>
     <use x="260.955078" xlink:href="#DejaVuSans-99"/>
     <use x="315.935547" xlink:href="#DejaVuSans-101"/>
     <use x="377.458984" xlink:href="#DejaVuSans-32"/>
     <use x="409.246094" xlink:href="#DejaVuSans-115"/>
     <use x="461.345703" xlink:href="#DejaVuSans-99"/>
     <use x="516.326172" xlink:href="#DejaVuSans-97"/>
     <use x="577.605469" xlink:href="#DejaVuSans-108"/>
     <use x="605.388672" xlink:href="#DejaVuSans-101"/>
     <use x="666.912109" xlink:href="#DejaVuSans-61"/>
     <use x="750.701172" xlink:href="#DejaVuSans-54"/>
     <use x="814.324219" xlink:href="#DejaVuSans-52"/>
    </g>
   </g>
   <g id="text_95">
    <!-- customer objects -->
    <defs>
     <path d="M 48.6875 27.296875 
Q 48.6875 37.203125 44.609375 42.84375 
Q 40.53125 48.484375 33.40625 48.484375 
Q 26.265625 48.484375 22.1875 42.84375 
Q 18.109375 37.203125 18.109375 27.296875 
Q 18.109375 17.390625 22.1875 11.75 
Q 26.265625 6.109375 33.40625 6.109375 
Q 40.53125 6.109375 44.609375 11.75 
Q 48.6875 17.390625 48.6875 27.296875 
z
M 18.109375 46.390625 
Q 20.953125 51.265625 25.265625 53.625 
Q 29.59375 56 35.59375 56 
Q 45.5625 56 51.78125 48.09375 
Q 58.015625 40.1875 58.015625 27.296875 
Q 58.015625 14.40625 51.78125 6.484375 
Q 45.5625 -1.421875 35.59375 -1.421875 
Q 29.59375 -1.421875 25.265625 0.953125 
Q 20.953125 3.328125 18.109375 8.203125 
L 18.109375 0 
L 9.078125 0 
L 9.078125 75.984375 
L 18.109375 75.984375 
z
" id="DejaVuSans-98"/>
     <path d="M 9.421875 54.6875 
L 18.40625 54.6875 
L 18.40625 -0.984375 
Q 18.40625 -11.421875 14.421875 -16.109375 
Q 10.453125 -20.796875 1.609375 -20.796875 
L -1.8125 -20.796875 
L -1.8125 -13.1875 
L 0.59375 -13.1875 
Q 5.71875 -13.1875 7.5625 -10.8125 
Q 9.421875 -8.453125 9.421875 -0.984375 
z
M 9.421875 75.984375 
L 18.40625 75.984375 
L 18.40625 64.59375 
L 9.421875 64.59375 
z
" id="DejaVuSans-106"/>
    </defs>
    <g style="fill:#262626;" transform="translate(848.932532 21.6)scale(0.12 -0.12)">
     <use xlink:href="#DejaVuSans-99"/>
     <use x="54.980469" xlink:href="#DejaVuSans-117"/>
     <use x="118.359375" xlink:href="#DejaVuSans-115"/>
     <use x="170.458984" xlink:href="#DejaVuSans-116"/>
     <use x="209.667969" xlink:href="#DejaVuSans-111"/>
     <use x="270.849609" xlink:href="#DejaVuSans-109"/>
     <use x="368.261719" xlink:href="#DejaVuSans-101"/>
     <use x="429.785156" xlink:href="#DejaVuSans-114"/>
     <use x="470.898438" xlink:href="#DejaVuSans-32"/>
     <use x="502.685547" xlink:href="#DejaVuSans-111"/>
     <use x="563.867188" xlink:href="#DejaVuSans-98"/>
     <use x="627.34375" xlink:href="#DejaVuSans-106"/>
     <use x="655.126953" xlink:href="#DejaVuSans-101"/>
     <use x="716.650391" xlink:href="#DejaVuSans-99"/>
     <use x="771.630859" xlink:href="#DejaVuSans-116"/>
     <use x="810.839844" xlink:href="#DejaVuSans-115"/>
    </g>
   </g>
   <g id="legend_1">
    <g id="patch_17">
     <path d="M 945.000845 321.24 
L 1034.157563 321.24 
Q 1036.357563 321.24 1036.357563 319.04 
L 1036.357563 271.090312 
Q 1036.357563 268.890312 1034.157563 268.890312 
L 945.000845 268.890312 
Q 942.800845 268.890312 942.800845 271.090312 
L 942.800845 319.04 
Q 942.800845 321.24 945.000845 321.24 
z
" style="fill:#eaeaf2;opacity:0.8;stroke:#cccccc;stroke-linejoin:miter;"/>
    </g>
    <g id="line2d_78">
     <path d="M 947.200845 277.798594 
L 969.200845 277.798594 
" style="fill:none;stroke:#4c72b0;stroke-linecap:round;stroke-width:1.5;"/>
    </g>
    <g id="line2d_79"/>
    <g id="text_96">
     <!-- lfw -->
     <defs>
      <path d="M 4.203125 54.6875 
L 13.1875 54.6875 
L 24.421875 12.015625 
L 35.59375 54.6875 
L 46.1875 54.6875 
L 57.421875 12.015625 
L 68.609375 54.6875 
L 77.59375 54.6875 
L 63.28125 0 
L 52.6875 0 
L 40.921875 44.828125 
L 29.109375 0 
L 18.5 0 
z
" id="DejaVuSans-119"/>
     </defs>
     <g style="fill:#262626;" transform="translate(978.000845 281.648594)scale(0.11 -0.11)">
      <use xlink:href="#DejaVuSans-108"/>
      <use x="27.783203" xlink:href="#DejaVuSans-102"/>
      <use x="62.972656" xlink:href="#DejaVuSans-119"/>
     </g>
    </g>
    <g id="line2d_80">
     <path d="M 947.200845 293.944531 
L 969.200845 293.944531 
" style="fill:none;stroke:#dd8452;stroke-linecap:round;stroke-width:1.5;"/>
    </g>
    <g id="line2d_81"/>
    <g id="text_97">
     <!-- cfp_fp -->
     <defs>
      <path d="M 18.109375 8.203125 
L 18.109375 -20.796875 
L 9.078125 -20.796875 
L 9.078125 54.6875 
L 18.109375 54.6875 
L 18.109375 46.390625 
Q 20.953125 51.265625 25.265625 53.625 
Q 29.59375 56 35.59375 56 
Q 45.5625 56 51.78125 48.09375 
Q 58.015625 40.1875 58.015625 27.296875 
Q 58.015625 14.40625 51.78125 6.484375 
Q 45.5625 -1.421875 35.59375 -1.421875 
Q 29.59375 -1.421875 25.265625 0.953125 
Q 20.953125 3.328125 18.109375 8.203125 
z
M 48.6875 27.296875 
Q 48.6875 37.203125 44.609375 42.84375 
Q 40.53125 48.484375 33.40625 48.484375 
Q 26.265625 48.484375 22.1875 42.84375 
Q 18.109375 37.203125 18.109375 27.296875 
Q 18.109375 17.390625 22.1875 11.75 
Q 26.265625 6.109375 33.40625 6.109375 
Q 40.53125 6.109375 44.609375 11.75 
Q 48.6875 17.390625 48.6875 27.296875 
z
" id="DejaVuSans-112"/>
      <path d="M 50.984375 -16.609375 
L 50.984375 -23.578125 
L -0.984375 -23.578125 
L -0.984375 -16.609375 
z
" id="DejaVuSans-95"/>
     </defs>
     <g style="fill:#262626;" transform="translate(978.000845 297.794531)scale(0.11 -0.11)">
      <use xlink:href="#DejaVuSans-99"/>
      <use x="54.980469" xlink:href="#DejaVuSans-102"/>
      <use x="90.185547" xlink:href="#DejaVuSans-112"/>
      <use x="153.662109" xlink:href="#DejaVuSans-95"/>
      <use x="203.662109" xlink:href="#DejaVuSans-102"/>
      <use x="238.867188" xlink:href="#DejaVuSans-112"/>
     </g>
    </g>
    <g id="line2d_82">
     <path d="M 947.200845 310.396406 
L 969.200845 310.396406 
" style="fill:none;stroke:#55a868;stroke-linecap:round;stroke-width:1.5;"/>
    </g>
    <g id="line2d_83"/>
    <g id="text_98">
     <!-- agedb_30 -->
     <defs>
      <path d="M 45.40625 46.390625 
L 45.40625 75.984375 
L 54.390625 75.984375 
L 54.390625 0 
L 45.40625 0 
L 45.40625 8.203125 
Q 42.578125 3.328125 38.25 0.953125 
Q 33.9375 -1.421875 27.875 -1.421875 
Q 17.96875 -1.421875 11.734375 6.484375 
Q 5.515625 14.40625 5.515625 27.296875 
Q 5.515625 40.1875 11.734375 48.09375 
Q 17.96875 56 27.875 56 
Q 33.9375 56 38.25 53.625 
Q 42.578125 51.265625 45.40625 46.390625 
z
M 14.796875 27.296875 
Q 14.796875 17.390625 18.875 11.75 
Q 22.953125 6.109375 30.078125 6.109375 
Q 37.203125 6.109375 41.296875 11.75 
Q 45.40625 17.390625 45.40625 27.296875 
Q 45.40625 37.203125 41.296875 42.84375 
Q 37.203125 48.484375 30.078125 48.484375 
Q 22.953125 48.484375 18.875 42.84375 
Q 14.796875 37.203125 14.796875 27.296875 
z
" id="DejaVuSans-100"/>
     </defs>
     <g style="fill:#262626;" transform="translate(978.000845 314.246406)scale(0.11 -0.11)">
      <use xlink:href="#DejaVuSans-97"/>
      <use x="61.279297" xlink:href="#DejaVuSans-103"/>
      <use x="124.755859" xlink:href="#DejaVuSans-101"/>
      <use x="186.279297" xlink:href="#DejaVuSans-100"/>
      <use x="249.755859" xlink:href="#DejaVuSans-98"/>
      <use x="313.232422" xlink:href="#DejaVuSans-95"/>
      <use x="363.232422" xlink:href="#DejaVuSans-51"/>
      <use x="426.855469" xlink:href="#DejaVuSans-48"/>
     </g>
    </g>
   </g>
  </g>
 </g>
 <defs>
  <clipPath id="p6a0037f1b4">
   <rect height="299.14" width="282.297563" x="36.5" y="27.6"/>
  </clipPath>
  <clipPath id="pfe44dda38b">
   <rect height="299.14" width="282.297563" x="398.03" y="27.6"/>
  </clipPath>
  <clipPath id="p3c85764493">
   <rect height="299.14" width="282.297563" x="759.56" y="27.6"/>
  </clipPath>
 </defs>
</svg>
