<?xml version="1.0" encoding="utf-8" standalone="no"?>
<!DOCTYPE svg PUBLIC "-//W3C//DTD SVG 1.1//EN"
  "http://www.w3.org/Graphics/SVG/1.1/DTD/svg11.dtd">
<!-- Created with matplotlib (https://matplotlib.org/) -->
<svg height="431.28pt" version="1.1" viewBox="0 0 1007.28 431.28" width="1007.28pt" xmlns="http://www.w3.org/2000/svg" xmlns:xlink="http://www.w3.org/1999/xlink">
 <metadata>
  <rdf:RDF xmlns:cc="http://creativecommons.org/ns#" xmlns:dc="http://purl.org/dc/elements/1.1/" xmlns:rdf="http://www.w3.org/1999/02/22-rdf-syntax-ns#">
   <cc:Work>
    <dc:type rdf:resource="http://purl.org/dc/dcmitype/StillImage"/>
    <dc:date>2021-03-07T14:43:02.871104</dc:date>
    <dc:format>image/svg+xml</dc:format>
    <dc:creator>
     <cc:Agent>
      <dc:title>Matplotlib v3.3.2, https://matplotlib.org/</dc:title>
     </cc:Agent>
    </dc:creator>
   </cc:Work>
  </rdf:RDF>
 </metadata>
 <defs>
  <style type="text/css">*{stroke-linecap:butt;stroke-linejoin:round;}</style>
 </defs>
 <g id="figure_1">
  <g id="patch_1">
   <path d="M 0 431.28 
L 1007.28 431.28 
L 1007.28 0 
L 0 0 
z
" style="fill:#ffffff;"/>
  </g>
  <g id="axes_1">
   <g id="patch_2">
    <path d="M 35.342287 409.93562 
L 997.300874 409.93562 
L 997.300874 6.4692 
L 35.342287 6.4692 
z
" style="fill:#eaeaf2;"/>
   </g>
   <g id="matplotlib.axis_1">
    <g id="xtick_1">
     <g id="line2d_1">
      <path clip-path="url(#p2b2fbc2a07)" d="M 35.342287 409.93562 
L 35.342287 6.4692 
" style="fill:none;stroke:#ffffff;stroke-linecap:round;stroke-width:0.5;"/>
     </g>
     <g id="text_1">
      <!-- 0 -->
      <g style="fill:#262626;" transform="translate(33.592599 423.61476)scale(0.055 -0.055)">
       <defs>
        <path d="M 31.78125 66.40625 
Q 24.171875 66.40625 20.328125 58.90625 
Q 16.5 51.421875 16.5 36.375 
Q 16.5 21.390625 20.328125 13.890625 
Q 24.171875 6.390625 31.78125 6.390625 
Q 39.453125 6.390625 43.28125 13.890625 
Q 47.125 21.390625 47.125 36.375 
Q 47.125 51.421875 43.28125 58.90625 
Q 39.453125 66.40625 31.78125 66.40625 
z
M 31.78125 74.21875 
Q 44.046875 74.21875 50.515625 64.515625 
Q 56.984375 54.828125 56.984375 36.375 
Q 56.984375 17.96875 50.515625 8.265625 
Q 44.046875 -1.421875 31.78125 -1.421875 
Q 19.53125 -1.421875 13.0625 8.265625 
Q 6.59375 17.96875 6.59375 36.375 
Q 6.59375 54.828125 13.0625 64.515625 
Q 19.53125 74.21875 31.78125 74.21875 
z
" id="DejaVuSans-48"/>
       </defs>
       <use xlink:href="#DejaVuSans-48"/>
      </g>
     </g>
    </g>
    <g id="xtick_2">
     <g id="line2d_2">
      <path clip-path="url(#p2b2fbc2a07)" d="M 195.668718 409.93562 
L 195.668718 6.4692 
" style="fill:none;stroke:#ffffff;stroke-linecap:round;stroke-width:0.5;"/>
     </g>
     <g id="text_2">
      <!-- 10 -->
      <g style="fill:#262626;" transform="translate(192.169343 423.61476)scale(0.055 -0.055)">
       <defs>
        <path d="M 12.40625 8.296875 
L 28.515625 8.296875 
L 28.515625 63.921875 
L 10.984375 60.40625 
L 10.984375 69.390625 
L 28.421875 72.90625 
L 38.28125 72.90625 
L 38.28125 8.296875 
L 54.390625 8.296875 
L 54.390625 0 
L 12.40625 0 
z
" id="DejaVuSans-49"/>
       </defs>
       <use xlink:href="#DejaVuSans-49"/>
       <use x="63.623047" xlink:href="#DejaVuSans-48"/>
      </g>
     </g>
    </g>
    <g id="xtick_3">
     <g id="line2d_3">
      <path clip-path="url(#p2b2fbc2a07)" d="M 355.995149 409.93562 
L 355.995149 6.4692 
" style="fill:none;stroke:#ffffff;stroke-linecap:round;stroke-width:0.5;"/>
     </g>
     <g id="text_3">
      <!-- 20 -->
      <g style="fill:#262626;" transform="translate(352.495774 423.61476)scale(0.055 -0.055)">
       <defs>
        <path d="M 19.1875 8.296875 
L 53.609375 8.296875 
L 53.609375 0 
L 7.328125 0 
L 7.328125 8.296875 
Q 12.9375 14.109375 22.625 23.890625 
Q 32.328125 33.6875 34.8125 36.53125 
Q 39.546875 41.84375 41.421875 45.53125 
Q 43.3125 49.21875 43.3125 52.78125 
Q 43.3125 58.59375 39.234375 62.25 
Q 35.15625 65.921875 28.609375 65.921875 
Q 23.96875 65.921875 18.8125 64.3125 
Q 13.671875 62.703125 7.8125 59.421875 
L 7.8125 69.390625 
Q 13.765625 71.78125 18.9375 73 
Q 24.125 74.21875 28.421875 74.21875 
Q 39.75 74.21875 46.484375 68.546875 
Q 53.21875 62.890625 53.21875 53.421875 
Q 53.21875 48.921875 51.53125 44.890625 
Q 49.859375 40.875 45.40625 35.40625 
Q 44.1875 33.984375 37.640625 27.21875 
Q 31.109375 20.453125 19.1875 8.296875 
z
" id="DejaVuSans-50"/>
       </defs>
       <use xlink:href="#DejaVuSans-50"/>
       <use x="63.623047" xlink:href="#DejaVuSans-48"/>
      </g>
     </g>
    </g>
    <g id="xtick_4">
     <g id="line2d_4">
      <path clip-path="url(#p2b2fbc2a07)" d="M 516.32158 409.93562 
L 516.32158 6.4692 
" style="fill:none;stroke:#ffffff;stroke-linecap:round;stroke-width:0.5;"/>
     </g>
     <g id="text_4">
      <!-- 30 -->
      <g style="fill:#262626;" transform="translate(512.822205 423.61476)scale(0.055 -0.055)">
       <defs>
        <path d="M 40.578125 39.3125 
Q 47.65625 37.796875 51.625 33 
Q 55.609375 28.21875 55.609375 21.1875 
Q 55.609375 10.40625 48.1875 4.484375 
Q 40.765625 -1.421875 27.09375 -1.421875 
Q 22.515625 -1.421875 17.65625 -0.515625 
Q 12.796875 0.390625 7.625 2.203125 
L 7.625 11.71875 
Q 11.71875 9.328125 16.59375 8.109375 
Q 21.484375 6.890625 26.8125 6.890625 
Q 36.078125 6.890625 40.9375 10.546875 
Q 45.796875 14.203125 45.796875 21.1875 
Q 45.796875 27.640625 41.28125 31.265625 
Q 36.765625 34.90625 28.71875 34.90625 
L 20.21875 34.90625 
L 20.21875 43.015625 
L 29.109375 43.015625 
Q 36.375 43.015625 40.234375 45.921875 
Q 44.09375 48.828125 44.09375 54.296875 
Q 44.09375 59.90625 40.109375 62.90625 
Q 36.140625 65.921875 28.71875 65.921875 
Q 24.65625 65.921875 20.015625 65.03125 
Q 15.375 64.15625 9.8125 62.3125 
L 9.8125 71.09375 
Q 15.4375 72.65625 20.34375 73.4375 
Q 25.25 74.21875 29.59375 74.21875 
Q 40.828125 74.21875 47.359375 69.109375 
Q 53.90625 64.015625 53.90625 55.328125 
Q 53.90625 49.265625 50.4375 45.09375 
Q 46.96875 40.921875 40.578125 39.3125 
z
" id="DejaVuSans-51"/>
       </defs>
       <use xlink:href="#DejaVuSans-51"/>
       <use x="63.623047" xlink:href="#DejaVuSans-48"/>
      </g>
     </g>
    </g>
    <g id="xtick_5">
     <g id="line2d_5">
      <path clip-path="url(#p2b2fbc2a07)" d="M 676.648012 409.93562 
L 676.648012 6.4692 
" style="fill:none;stroke:#ffffff;stroke-linecap:round;stroke-width:0.5;"/>
     </g>
     <g id="text_5">
      <!-- 40 -->
      <g style="fill:#262626;" transform="translate(673.148637 423.61476)scale(0.055 -0.055)">
       <defs>
        <path d="M 37.796875 64.3125 
L 12.890625 25.390625 
L 37.796875 25.390625 
z
M 35.203125 72.90625 
L 47.609375 72.90625 
L 47.609375 25.390625 
L 58.015625 25.390625 
L 58.015625 17.1875 
L 47.609375 17.1875 
L 47.609375 0 
L 37.796875 0 
L 37.796875 17.1875 
L 4.890625 17.1875 
L 4.890625 26.703125 
z
" id="DejaVuSans-52"/>
       </defs>
       <use xlink:href="#DejaVuSans-52"/>
       <use x="63.623047" xlink:href="#DejaVuSans-48"/>
      </g>
     </g>
    </g>
    <g id="xtick_6">
     <g id="line2d_6">
      <path clip-path="url(#p2b2fbc2a07)" d="M 836.974443 409.93562 
L 836.974443 6.4692 
" style="fill:none;stroke:#ffffff;stroke-linecap:round;stroke-width:0.5;"/>
     </g>
     <g id="text_6">
      <!-- 50 -->
      <g style="fill:#262626;" transform="translate(833.475068 423.61476)scale(0.055 -0.055)">
       <defs>
        <path d="M 10.796875 72.90625 
L 49.515625 72.90625 
L 49.515625 64.59375 
L 19.828125 64.59375 
L 19.828125 46.734375 
Q 21.96875 47.46875 24.109375 47.828125 
Q 26.265625 48.1875 28.421875 48.1875 
Q 40.625 48.1875 47.75 41.5 
Q 54.890625 34.8125 54.890625 23.390625 
Q 54.890625 11.625 47.5625 5.09375 
Q 40.234375 -1.421875 26.90625 -1.421875 
Q 22.3125 -1.421875 17.546875 -0.640625 
Q 12.796875 0.140625 7.71875 1.703125 
L 7.71875 11.625 
Q 12.109375 9.234375 16.796875 8.0625 
Q 21.484375 6.890625 26.703125 6.890625 
Q 35.15625 6.890625 40.078125 11.328125 
Q 45.015625 15.765625 45.015625 23.390625 
Q 45.015625 31 40.078125 35.4375 
Q 35.15625 39.890625 26.703125 39.890625 
Q 22.75 39.890625 18.8125 39.015625 
Q 14.890625 38.140625 10.796875 36.28125 
z
" id="DejaVuSans-53"/>
       </defs>
       <use xlink:href="#DejaVuSans-53"/>
       <use x="63.623047" xlink:href="#DejaVuSans-48"/>
      </g>
     </g>
    </g>
    <g id="xtick_7">
     <g id="line2d_7">
      <path clip-path="url(#p2b2fbc2a07)" d="M 997.300874 409.93562 
L 997.300874 6.4692 
" style="fill:none;stroke:#ffffff;stroke-linecap:round;stroke-width:0.5;"/>
     </g>
     <g id="text_7">
      <!-- 60 -->
      <g style="fill:#262626;" transform="translate(993.801499 423.61476)scale(0.055 -0.055)">
       <defs>
        <path d="M 33.015625 40.375 
Q 26.375 40.375 22.484375 35.828125 
Q 18.609375 31.296875 18.609375 23.390625 
Q 18.609375 15.53125 22.484375 10.953125 
Q 26.375 6.390625 33.015625 6.390625 
Q 39.65625 6.390625 43.53125 10.953125 
Q 47.40625 15.53125 47.40625 23.390625 
Q 47.40625 31.296875 43.53125 35.828125 
Q 39.65625 40.375 33.015625 40.375 
z
M 52.59375 71.296875 
L 52.59375 62.3125 
Q 48.875 64.0625 45.09375 64.984375 
Q 41.3125 65.921875 37.59375 65.921875 
Q 27.828125 65.921875 22.671875 59.328125 
Q 17.53125 52.734375 16.796875 39.40625 
Q 19.671875 43.65625 24.015625 45.921875 
Q 28.375 48.1875 33.59375 48.1875 
Q 44.578125 48.1875 50.953125 41.515625 
Q 57.328125 34.859375 57.328125 23.390625 
Q 57.328125 12.15625 50.6875 5.359375 
Q 44.046875 -1.421875 33.015625 -1.421875 
Q 20.359375 -1.421875 13.671875 8.265625 
Q 6.984375 17.96875 6.984375 36.375 
Q 6.984375 53.65625 15.1875 63.9375 
Q 23.390625 74.21875 37.203125 74.21875 
Q 40.921875 74.21875 44.703125 73.484375 
Q 48.484375 72.75 52.59375 71.296875 
z
" id="DejaVuSans-54"/>
       </defs>
       <use xlink:href="#DejaVuSans-54"/>
       <use x="63.623047" xlink:href="#DejaVuSans-48"/>
      </g>
     </g>
    </g>
   </g>
   <g id="matplotlib.axis_2">
    <g id="ytick_1">
     <g id="line2d_8">
      <path clip-path="url(#p2b2fbc2a07)" d="M 35.342287 391.632919 
L 997.300874 391.632919 
" style="fill:none;stroke:#ffffff;stroke-linecap:round;stroke-width:0.5;"/>
     </g>
     <g id="text_8">
      <!-- 0.0000 -->
      <g style="fill:#262626;" transform="translate(6.597443 393.72249)scale(0.055 -0.055)">
       <defs>
        <path d="M 10.6875 12.40625 
L 21 12.40625 
L 21 0 
L 10.6875 0 
z
" id="DejaVuSans-46"/>
       </defs>
       <use xlink:href="#DejaVuSans-48"/>
       <use x="63.623047" xlink:href="#DejaVuSans-46"/>
       <use x="95.410156" xlink:href="#DejaVuSans-48"/>
       <use x="159.033203" xlink:href="#DejaVuSans-48"/>
       <use x="222.65625" xlink:href="#DejaVuSans-48"/>
       <use x="286.279297" xlink:href="#DejaVuSans-48"/>
      </g>
     </g>
    </g>
    <g id="ytick_2">
     <g id="line2d_9">
      <path clip-path="url(#p2b2fbc2a07)" d="M 35.342287 318.268056 
L 997.300874 318.268056 
" style="fill:none;stroke:#ffffff;stroke-linecap:round;stroke-width:0.5;"/>
     </g>
     <g id="text_9">
      <!-- 0.0002 -->
      <g style="fill:#262626;" transform="translate(6.597443 320.357626)scale(0.055 -0.055)">
       <use xlink:href="#DejaVuSans-48"/>
       <use x="63.623047" xlink:href="#DejaVuSans-46"/>
       <use x="95.410156" xlink:href="#DejaVuSans-48"/>
       <use x="159.033203" xlink:href="#DejaVuSans-48"/>
       <use x="222.65625" xlink:href="#DejaVuSans-48"/>
       <use x="286.279297" xlink:href="#DejaVuSans-50"/>
      </g>
     </g>
    </g>
    <g id="ytick_3">
     <g id="line2d_10">
      <path clip-path="url(#p2b2fbc2a07)" d="M 35.342287 244.903192 
L 997.300874 244.903192 
" style="fill:none;stroke:#ffffff;stroke-linecap:round;stroke-width:0.5;"/>
     </g>
     <g id="text_10">
      <!-- 0.0004 -->
      <g style="fill:#262626;" transform="translate(6.597443 246.992762)scale(0.055 -0.055)">
       <use xlink:href="#DejaVuSans-48"/>
       <use x="63.623047" xlink:href="#DejaVuSans-46"/>
       <use x="95.410156" xlink:href="#DejaVuSans-48"/>
       <use x="159.033203" xlink:href="#DejaVuSans-48"/>
       <use x="222.65625" xlink:href="#DejaVuSans-48"/>
       <use x="286.279297" xlink:href="#DejaVuSans-52"/>
      </g>
     </g>
    </g>
    <g id="ytick_4">
     <g id="line2d_11">
      <path clip-path="url(#p2b2fbc2a07)" d="M 35.342287 171.538328 
L 997.300874 171.538328 
" style="fill:none;stroke:#ffffff;stroke-linecap:round;stroke-width:0.5;"/>
     </g>
     <g id="text_11">
      <!-- 0.0006 -->
      <g style="fill:#262626;" transform="translate(6.597443 173.627898)scale(0.055 -0.055)">
       <use xlink:href="#DejaVuSans-48"/>
       <use x="63.623047" xlink:href="#DejaVuSans-46"/>
       <use x="95.410156" xlink:href="#DejaVuSans-48"/>
       <use x="159.033203" xlink:href="#DejaVuSans-48"/>
       <use x="222.65625" xlink:href="#DejaVuSans-48"/>
       <use x="286.279297" xlink:href="#DejaVuSans-54"/>
      </g>
     </g>
    </g>
    <g id="ytick_5">
     <g id="line2d_12">
      <path clip-path="url(#p2b2fbc2a07)" d="M 35.342287 98.173464 
L 997.300874 98.173464 
" style="fill:none;stroke:#ffffff;stroke-linecap:round;stroke-width:0.5;"/>
     </g>
     <g id="text_12">
      <!-- 0.0008 -->
      <g style="fill:#262626;" transform="translate(6.597443 100.263034)scale(0.055 -0.055)">
       <defs>
        <path d="M 31.78125 34.625 
Q 24.75 34.625 20.71875 30.859375 
Q 16.703125 27.09375 16.703125 20.515625 
Q 16.703125 13.921875 20.71875 10.15625 
Q 24.75 6.390625 31.78125 6.390625 
Q 38.8125 6.390625 42.859375 10.171875 
Q 46.921875 13.96875 46.921875 20.515625 
Q 46.921875 27.09375 42.890625 30.859375 
Q 38.875 34.625 31.78125 34.625 
z
M 21.921875 38.8125 
Q 15.578125 40.375 12.03125 44.71875 
Q 8.5 49.078125 8.5 55.328125 
Q 8.5 64.0625 14.71875 69.140625 
Q 20.953125 74.21875 31.78125 74.21875 
Q 42.671875 74.21875 48.875 69.140625 
Q 55.078125 64.0625 55.078125 55.328125 
Q 55.078125 49.078125 51.53125 44.71875 
Q 48 40.375 41.703125 38.8125 
Q 48.828125 37.15625 52.796875 32.3125 
Q 56.78125 27.484375 56.78125 20.515625 
Q 56.78125 9.90625 50.3125 4.234375 
Q 43.84375 -1.421875 31.78125 -1.421875 
Q 19.734375 -1.421875 13.25 4.234375 
Q 6.78125 9.90625 6.78125 20.515625 
Q 6.78125 27.484375 10.78125 32.3125 
Q 14.796875 37.15625 21.921875 38.8125 
z
M 18.3125 54.390625 
Q 18.3125 48.734375 21.84375 45.5625 
Q 25.390625 42.390625 31.78125 42.390625 
Q 38.140625 42.390625 41.71875 45.5625 
Q 45.3125 48.734375 45.3125 54.390625 
Q 45.3125 60.0625 41.71875 63.234375 
Q 38.140625 66.40625 31.78125 66.40625 
Q 25.390625 66.40625 21.84375 63.234375 
Q 18.3125 60.0625 18.3125 54.390625 
z
" id="DejaVuSans-56"/>
       </defs>
       <use xlink:href="#DejaVuSans-48"/>
       <use x="63.623047" xlink:href="#DejaVuSans-46"/>
       <use x="95.410156" xlink:href="#DejaVuSans-48"/>
       <use x="159.033203" xlink:href="#DejaVuSans-48"/>
       <use x="222.65625" xlink:href="#DejaVuSans-48"/>
       <use x="286.279297" xlink:href="#DejaVuSans-56"/>
      </g>
     </g>
    </g>
    <g id="ytick_6">
     <g id="line2d_13">
      <path clip-path="url(#p2b2fbc2a07)" d="M 35.342287 24.8086 
L 997.300874 24.8086 
" style="fill:none;stroke:#ffffff;stroke-linecap:round;stroke-width:0.5;"/>
     </g>
     <g id="text_13">
      <!-- 0.0010 -->
      <g style="fill:#262626;" transform="translate(6.597443 26.89817)scale(0.055 -0.055)">
       <use xlink:href="#DejaVuSans-48"/>
       <use x="63.623047" xlink:href="#DejaVuSans-46"/>
       <use x="95.410156" xlink:href="#DejaVuSans-48"/>
       <use x="159.033203" xlink:href="#DejaVuSans-48"/>
       <use x="222.65625" xlink:href="#DejaVuSans-49"/>
       <use x="286.279297" xlink:href="#DejaVuSans-48"/>
      </g>
     </g>
    </g>
   </g>
   <g id="PathCollection_1">
    <defs>
     <path d="M 0 1.5 
C 0.397805 1.5 0.77937 1.341951 1.06066 1.06066 
C 1.341951 0.77937 1.5 0.397805 1.5 0 
C 1.5 -0.397805 1.341951 -0.77937 1.06066 -1.06066 
C 0.77937 -1.341951 0.397805 -1.5 0 -1.5 
C -0.397805 -1.5 -0.77937 -1.341951 -1.06066 -1.06066 
C -1.341951 -0.77937 -1.5 -0.397805 -1.5 0 
C -1.5 0.397805 -1.341951 0.77937 -1.06066 1.06066 
C -0.77937 1.341951 -0.397805 1.5 0 1.5 
z
" id="mbe6ab92b20" style="stroke:#c44e52;"/>
    </defs>
    <g clip-path="url(#p2b2fbc2a07)">
     <use style="fill:#c44e52;stroke:#c44e52;" x="323.929863" xlink:href="#mbe6ab92b20" y="244.903192"/>
    </g>
   </g>
   <g id="PathCollection_2">
    <g clip-path="url(#p2b2fbc2a07)">
     <use style="fill:#c44e52;stroke:#c44e52;" x="323.929863" xlink:href="#mbe6ab92b20" y="208.22076"/>
    </g>
   </g>
   <g id="line2d_14">
    <path clip-path="url(#p2b2fbc2a07)" d="M 35.342287 24.8086 
L 51.37493 24.8086 
L 67.407573 24.8086 
L 83.440216 24.8086 
L 99.472859 24.8086 
L 115.505502 24.8086 
L 131.538146 24.8086 
L 147.570789 24.8086 
L 163.603432 24.8086 
L 179.636075 24.8086 
L 195.668718 24.8086 
L 211.701361 59.716549 
L 227.734004 91.302568 
L 243.766647 119.88278 
L 259.79929 145.743225 
L 275.831934 169.142723 
L 291.864577 190.315465 
L 307.89722 209.473353 
L 323.929863 226.808128 
L 339.962506 242.493281 
L 355.995149 256.685794 
L 372.027792 269.527711 
L 388.060435 281.147558 
L 404.093079 291.66163 
L 420.125722 301.175156 
L 436.158365 309.78335 
L 452.191008 317.572367 
L 468.223651 324.62016 
L 484.256294 330.997267 
L 500.288937 336.767512 
L 516.32158 341.988646 
L 532.354224 346.712923 
L 548.386867 350.987626 
L 564.41951 354.855537 
L 580.452153 358.355368 
L 596.484796 361.522146 
L 612.517439 364.387565 
L 628.550082 366.980303 
L 644.582725 369.32631 
L 660.615369 371.449064 
L 676.648012 373.369812 
L 692.680655 375.107776 
L 708.713298 376.680352 
L 724.745941 378.103277 
L 740.778584 379.390792 
L 756.811227 380.555785 
L 772.84387 381.609913 
L 788.876514 382.563729 
L 804.909157 383.426776 
L 820.9418 384.207694 
L 836.974443 384.914298 
L 853.007086 385.553659 
L 869.039729 386.132177 
L 885.072372 386.655642 
L 901.105015 387.129292 
L 917.137659 387.557869 
L 933.170302 387.945662 
L 949.202945 388.296551 
L 965.235588 388.614048 
L 981.268231 388.901332 
" style="fill:none;stroke:#4c72b0;stroke-linecap:round;stroke-width:0.75;"/>
   </g>
   <g id="line2d_15">
    <path clip-path="url(#p2b2fbc2a07)" d="M 35.342287 24.8086 
L 51.37493 24.8086 
L 67.407573 24.8086 
L 83.440216 24.8086 
L 99.472859 24.8086 
L 115.505502 24.8086 
L 131.538146 24.8086 
L 147.570789 24.8086 
L 163.603432 24.8086 
L 179.636075 24.8086 
L 195.668718 24.8086 
L 211.701361 42.698833 
L 227.734004 59.716549 
L 243.766647 75.904302 
L 259.79929 91.302568 
L 275.831934 105.949852 
L 291.864577 119.88278 
L 307.89722 133.136191 
L 323.929863 145.743225 
L 339.962506 157.735407 
L 355.995149 169.142723 
L 372.027792 179.993698 
L 388.060435 190.315465 
L 404.093079 200.133833 
L 420.125722 209.473353 
L 436.158365 218.35738 
L 452.191008 226.808128 
L 468.223651 234.846728 
L 484.256294 242.493281 
L 500.288937 249.766907 
L 516.32158 256.685794 
L 532.354224 263.267243 
L 548.386867 269.527711 
L 564.41951 275.482852 
L 580.452153 281.147558 
L 596.484796 286.535992 
L 612.517439 291.66163 
L 628.550082 296.537287 
L 644.582725 301.175156 
L 660.615369 305.586833 
L 676.648012 309.78335 
L 692.680655 313.775201 
L 708.713298 317.572367 
L 724.745941 321.184342 
L 740.778584 324.62016 
L 756.811227 327.888411 
L 772.84387 330.997267 
L 788.876514 333.954503 
L 804.909157 336.767512 
L 820.9418 339.44333 
L 836.974443 341.988646 
L 853.007086 344.409826 
L 869.039729 346.712923 
L 885.072372 348.903697 
L 901.105015 350.987626 
L 917.137659 352.969921 
L 933.170302 354.855537 
L 949.202945 356.649191 
L 965.235588 358.355368 
L 981.268231 359.978333 
" style="fill:none;stroke:#dd8452;stroke-linecap:round;stroke-width:0.75;"/>
   </g>
   <g id="line2d_16">
    <path clip-path="url(#p2b2fbc2a07)" d="M 35.342287 24.8086 
L 51.37493 24.8086 
L 67.407573 24.8086 
L 83.440216 24.8086 
L 99.472859 24.8086 
L 115.505502 24.8086 
L 131.538146 24.8086 
L 147.570789 24.8086 
L 163.603432 24.8086 
L 179.636075 24.8086 
L 195.668718 354.950487 
L 211.701361 354.950487 
L 227.734004 354.950487 
L 243.766647 354.950487 
L 259.79929 354.950487 
L 275.831934 354.950487 
L 291.864577 354.950487 
L 307.89722 354.950487 
L 323.929863 354.950487 
L 339.962506 354.950487 
L 355.995149 387.964676 
L 372.027792 387.964676 
L 388.060435 387.964676 
L 404.093079 387.964676 
L 420.125722 387.964676 
L 436.158365 387.964676 
L 452.191008 387.964676 
L 468.223651 387.964676 
L 484.256294 387.964676 
L 500.288937 387.964676 
L 516.32158 391.266095 
L 532.354224 391.266095 
L 548.386867 391.266095 
L 564.41951 391.266095 
L 580.452153 391.266095 
L 596.484796 391.266095 
L 612.517439 391.266095 
L 628.550082 391.266095 
L 644.582725 391.266095 
L 660.615369 391.266095 
L 676.648012 391.596237 
L 692.680655 391.596237 
L 708.713298 391.596237 
L 724.745941 391.596237 
L 740.778584 391.596237 
L 756.811227 391.596237 
L 772.84387 391.596237 
L 788.876514 391.596237 
L 804.909157 391.596237 
L 820.9418 391.596237 
L 836.974443 391.596237 
L 853.007086 391.596237 
L 869.039729 391.596237 
L 885.072372 391.596237 
L 901.105015 391.596237 
L 917.137659 391.596237 
L 933.170302 391.596237 
L 949.202945 391.596237 
L 965.235588 391.596237 
L 981.268231 391.596237 
" style="fill:none;stroke:#55a868;stroke-linecap:round;stroke-width:0.75;"/>
   </g>
   <g id="line2d_17">
    <path clip-path="url(#p2b2fbc2a07)" d="M 35.342287 24.808583 
L 44.320567 24.922004 
L 53.298847 25.262056 
L 62.277127 25.828439 
L 71.255407 26.620341 
L 80.233688 27.636867 
L 89.211968 28.876648 
L 98.350574 30.366334 
L 107.489181 32.08393 
L 116.627787 34.027153 
L 125.92672 36.233539 
L 135.225653 38.66805 
L 144.684913 41.375311 
L 154.144172 44.31155 
L 163.763758 47.52827 
L 173.54367 51.032365 
L 183.483909 54.830243 
L 193.584474 58.927412 
L 203.845366 63.328803 
L 214.42691 68.112715 
L 225.168781 73.215157 
L 236.070979 78.637963 
L 247.454155 84.551908 
L 258.997658 90.79999 
L 270.861814 97.471461 
L 283.367276 104.762054 
L 296.19339 112.49696 
L 309.821137 120.979356 
L 324.250516 130.230745 
L 339.481527 140.265324 
L 355.834823 151.307055 
L 374.272362 164.033073 
L 395.756104 179.146649 
L 424.775188 199.866103 
L 481.370418 240.333294 
L 503.174813 255.608686 
L 521.452026 268.150191 
L 537.965649 279.218164 
L 553.036333 289.060137 
L 567.145059 298.018469 
L 580.612479 306.313406 
L 593.438594 313.959243 
L 605.944056 321.156426 
L 617.808211 327.733734 
L 629.351714 333.885049 
L 640.574565 339.618724 
L 651.476762 344.944983 
L 662.218633 349.948591 
L 672.800177 354.631658 
L 683.061069 358.932209 
L 693.161634 362.927291 
L 703.101873 366.622074 
L 712.881785 370.02246 
L 722.501371 373.135026 
L 732.120957 376.01296 
L 741.580216 378.610194 
L 750.879149 380.934963 
L 760.178082 383.030146 
L 769.316689 384.862825 
L 778.455296 386.468713 
L 787.433576 387.823586 
L 796.411856 388.955894 
L 805.390136 389.86425 
L 814.368416 390.547518 
L 823.346696 391.004847 
L 832.324976 391.235679 
L 843.227174 391.266095 
L 997.140548 391.266095 
L 997.140548 391.266095 
" style="fill:none;stroke:#c44e52;stroke-linecap:round;stroke-width:0.75;"/>
   </g>
   <g id="line2d_18">
    <path clip-path="url(#p2b2fbc2a07)" d="M 35.342287 391.596237 
L 51.37493 24.808583 
L 54.260806 24.923072 
L 57.146681 25.26654 
L 60.032557 25.838474 
L 62.918433 26.638192 
L 65.804309 27.664667 
L 68.850511 28.992761 
L 71.896713 30.570245 
L 74.942915 32.3949 
L 78.149444 34.579892 
L 81.355973 37.032573 
L 84.722828 39.891882 
L 88.089683 43.037307 
L 91.616864 46.633557 
L 95.304372 50.715438 
L 99.152206 55.317068 
L 103.160367 60.471246 
L 107.328854 66.208908 
L 111.657668 72.558626 
L 116.146808 79.545892 
L 120.796275 87.192252 
L 125.766394 95.799024 
L 131.057166 105.417794 
L 136.668591 116.090008 
L 142.760996 128.167652 
L 149.334379 141.696227 
L 156.869722 157.729156 
L 165.848002 177.381352 
L 178.994769 206.762069 
L 196.47035 245.744912 
L 205.44863 265.216578 
L 212.983973 281.036915 
L 219.557356 294.335935 
L 225.649761 306.165512 
L 231.261186 316.580439 
L 236.551958 325.93239 
L 241.522077 334.268141 
L 246.171544 341.643987 
L 250.660684 348.355346 
L 254.989498 354.426097 
L 259.157985 359.883889 
L 263.166146 364.759201 
L 267.01398 369.084812 
L 270.701488 372.895139 
L 274.228669 376.225623 
L 277.595524 379.112402 
L 280.962379 381.708621 
L 284.168908 383.907077 
L 287.375437 385.834594 
L 290.421639 387.412076 
L 293.467841 388.740175 
L 296.514043 389.817033 
L 299.399919 390.604095 
L 302.285795 391.163343 
L 305.171671 391.494075 
L 308.057546 391.596237 
L 323.769537 391.596237 
L 323.929863 244.881171 
L 332.908143 244.992009 
L 341.886423 245.324192 
L 350.864703 245.876696 
L 360.00331 246.663624 
L 369.141917 247.674598 
L 378.44085 248.930062 
L 387.739783 250.410203 
L 397.199042 252.14139 
L 406.818628 254.129271 
L 416.59854 256.378201 
L 426.699105 258.933585 
L 436.959997 261.761688 
L 447.541541 264.911501 
L 458.443739 268.3907 
L 469.826915 272.260128 
L 481.691071 276.530429 
L 494.196533 281.269278 
L 507.503627 286.549186 
L 522.093332 292.578357 
L 538.767281 299.71655 
L 559.128738 308.687427 
L 630.794652 340.496078 
L 646.827295 347.240244 
L 661.096348 353.009588 
L 674.243115 358.091357 
L 686.58825 362.628841 
L 698.29208 366.696862 
L 709.51493 370.364317 
L 720.256801 373.644327 
L 730.678019 376.597518 
L 740.778584 379.233266 
L 750.718823 381.599483 
L 760.498735 383.698553 
L 770.118321 385.534294 
L 779.577581 387.111822 
L 788.876514 388.437488 
L 798.01512 389.518615 
L 807.153727 390.376595 
L 816.292333 391.008728 
L 825.270613 391.407929 
L 834.248894 391.586023 
L 850.922842 391.596237 
L 852.84676 391.596237 
L 853.007086 332.910208 
L 881.545191 333.022151 
L 910.083296 333.357105 
L 938.781727 333.916271 
L 967.800811 334.703972 
L 997.140548 335.721298 
L 997.140548 335.721298 
" style="fill:none;stroke:#8172b3;stroke-linecap:round;stroke-width:0.75;"/>
   </g>
   <g id="line2d_19">
    <path clip-path="url(#p2b2fbc2a07)" d="M 35.342287 391.596237 
L 99.472859 24.808583 
L 101.717429 24.913549 
L 103.961999 25.228235 
L 106.366896 25.79782 
L 108.771792 26.607103 
L 111.176689 27.654931 
L 113.581585 28.939978 
L 116.146808 30.570245 
L 118.712031 32.466045 
L 121.43758 34.768088 
L 124.16313 37.362867 
L 127.049005 40.424357 
L 130.095208 44.000132 
L 133.14141 47.922064 
L 136.347938 52.415227 
L 139.714793 57.524437 
L 143.241975 63.292846 
L 146.929483 69.761025 
L 150.777317 76.965975 
L 154.785478 84.940066 
L 159.114292 94.056339 
L 163.763758 104.387881 
L 168.733878 115.994223 
L 174.184976 129.316004 
L 180.117054 144.414933 
L 187.011091 162.594227 
L 195.668718 186.09672 
L 223.565517 262.339366 
L 230.299227 279.814759 
L 236.231305 294.604821 
L 241.522077 307.217012 
L 246.492197 318.492894 
L 250.981337 328.147504 
L 255.31015 336.937871 
L 259.318311 344.589397 
L 263.166146 351.466979 
L 266.853653 357.606203 
L 270.380835 363.04695 
L 273.74769 367.8324 
L 276.954219 372.008013 
L 280.000421 375.620628 
L 282.886297 378.717689 
L 285.772172 381.492162 
L 288.497722 383.811539 
L 291.223271 385.834594 
L 293.788494 387.464863 
L 296.353717 388.827154 
L 298.758613 389.859117 
L 301.16351 390.652411 
L 303.568406 391.205985 
L 305.973303 391.519129 
L 308.378199 391.596237 
L 323.769537 391.596237 
L 323.929863 208.20241 
L 330.503247 208.314913 
L 337.07663 208.652147 
L 343.650014 209.213277 
L 350.223398 209.996916 
L 356.796781 211.001164 
L 363.530491 212.256063 
L 370.264202 213.73662 
L 377.158238 215.482262 
L 384.052275 217.45572 
L 391.106638 219.705376 
L 398.321327 222.240497 
L 405.696343 225.069144 
L 413.231685 228.197936 
L 420.927354 231.631826 
L 428.943675 235.452732 
L 437.28065 239.675728 
L 445.938277 244.312493 
L 455.076884 249.463051 
L 464.856796 255.239361 
L 475.117688 261.559837 
L 486.500864 268.838099 
L 499.487305 277.417348 
L 515.359622 288.186852 
L 572.435831 327.179442 
L 584.941293 335.297067 
L 596.003817 342.218419 
L 606.264708 348.376399 
L 615.723968 353.79743 
L 624.702248 358.689934 
L 633.199549 363.07289 
L 641.536523 367.121504 
L 649.552845 370.764411 
L 657.248513 374.018509 
L 664.783856 376.963347 
L 672.158872 379.604996 
L 679.373561 381.951067 
L 686.427924 384.010529 
L 693.321961 385.793581 
L 700.055671 387.311412 
L 706.789381 388.604159 
L 713.523091 389.6685 
L 720.096475 390.484563 
L 726.669858 391.078353 
L 733.243242 391.44841 
L 739.816626 391.593827 
L 756.650901 391.596237 
L 756.811227 299.899334 
L 775.248767 300.009937 
L 793.846633 300.345089 
L 812.444499 300.903144 
L 831.202691 301.689015 
L 850.12121 302.704472 
L 869.200056 303.949955 
L 888.75988 305.450968 
L 908.640358 307.200768 
L 929.001814 309.216945 
L 950.004577 311.521716 
L 971.808972 314.140937 
L 994.414998 317.081367 
L 997.140548 317.450383 
L 997.140548 317.450383 
" style="fill:none;stroke:#937860;stroke-linecap:round;stroke-width:0.75;"/>
   </g>
   <g id="patch_3">
    <path d="M 35.342287 409.93562 
L 35.342287 6.4692 
" style="fill:none;stroke:#ffffff;stroke-linecap:square;stroke-linejoin:miter;stroke-width:0.625;"/>
   </g>
   <g id="patch_4">
    <path d="M 997.300874 409.93562 
L 997.300874 6.4692 
" style="fill:none;stroke:#ffffff;stroke-linecap:square;stroke-linejoin:miter;stroke-width:0.625;"/>
   </g>
   <g id="patch_5">
    <path d="M 35.342287 409.93562 
L 997.300874 409.93562 
" style="fill:none;stroke:#ffffff;stroke-linecap:square;stroke-linejoin:miter;stroke-width:0.625;"/>
   </g>
   <g id="patch_6">
    <path d="M 35.342287 6.4692 
L 997.300874 6.4692 
" style="fill:none;stroke:#ffffff;stroke-linecap:square;stroke-linejoin:miter;stroke-width:0.625;"/>
   </g>
   <g id="text_14">
    <!-- [Cosine] -->
    <g style="fill:#262626;" transform="translate(972.471187 383.299595)scale(0.06 -0.06)">
     <defs>
      <path d="M 8.59375 75.984375 
L 29.296875 75.984375 
L 29.296875 69 
L 17.578125 69 
L 17.578125 -6.203125 
L 29.296875 -6.203125 
L 29.296875 -13.1875 
L 8.59375 -13.1875 
z
" id="DejaVuSans-91"/>
      <path d="M 64.40625 67.28125 
L 64.40625 56.890625 
Q 59.421875 61.53125 53.78125 63.8125 
Q 48.140625 66.109375 41.796875 66.109375 
Q 29.296875 66.109375 22.65625 58.46875 
Q 16.015625 50.828125 16.015625 36.375 
Q 16.015625 21.96875 22.65625 14.328125 
Q 29.296875 6.6875 41.796875 6.6875 
Q 48.140625 6.6875 53.78125 8.984375 
Q 59.421875 11.28125 64.40625 15.921875 
L 64.40625 5.609375 
Q 59.234375 2.09375 53.4375 0.328125 
Q 47.65625 -1.421875 41.21875 -1.421875 
Q 24.65625 -1.421875 15.125 8.703125 
Q 5.609375 18.84375 5.609375 36.375 
Q 5.609375 53.953125 15.125 64.078125 
Q 24.65625 74.21875 41.21875 74.21875 
Q 47.75 74.21875 53.53125 72.484375 
Q 59.328125 70.75 64.40625 67.28125 
z
" id="DejaVuSans-67"/>
      <path d="M 30.609375 48.390625 
Q 23.390625 48.390625 19.1875 42.75 
Q 14.984375 37.109375 14.984375 27.296875 
Q 14.984375 17.484375 19.15625 11.84375 
Q 23.34375 6.203125 30.609375 6.203125 
Q 37.796875 6.203125 41.984375 11.859375 
Q 46.1875 17.53125 46.1875 27.296875 
Q 46.1875 37.015625 41.984375 42.703125 
Q 37.796875 48.390625 30.609375 48.390625 
z
M 30.609375 56 
Q 42.328125 56 49.015625 48.375 
Q 55.71875 40.765625 55.71875 27.296875 
Q 55.71875 13.875 49.015625 6.21875 
Q 42.328125 -1.421875 30.609375 -1.421875 
Q 18.84375 -1.421875 12.171875 6.21875 
Q 5.515625 13.875 5.515625 27.296875 
Q 5.515625 40.765625 12.171875 48.375 
Q 18.84375 56 30.609375 56 
z
" id="DejaVuSans-111"/>
      <path d="M 44.28125 53.078125 
L 44.28125 44.578125 
Q 40.484375 46.53125 36.375 47.5 
Q 32.28125 48.484375 27.875 48.484375 
Q 21.1875 48.484375 17.84375 46.4375 
Q 14.5 44.390625 14.5 40.28125 
Q 14.5 37.15625 16.890625 35.375 
Q 19.28125 33.59375 26.515625 31.984375 
L 29.59375 31.296875 
Q 39.15625 29.25 43.1875 25.515625 
Q 47.21875 21.78125 47.21875 15.09375 
Q 47.21875 7.46875 41.1875 3.015625 
Q 35.15625 -1.421875 24.609375 -1.421875 
Q 20.21875 -1.421875 15.453125 -0.5625 
Q 10.6875 0.296875 5.421875 2 
L 5.421875 11.28125 
Q 10.40625 8.6875 15.234375 7.390625 
Q 20.0625 6.109375 24.8125 6.109375 
Q 31.15625 6.109375 34.5625 8.28125 
Q 37.984375 10.453125 37.984375 14.40625 
Q 37.984375 18.0625 35.515625 20.015625 
Q 33.0625 21.96875 24.703125 23.78125 
L 21.578125 24.515625 
Q 13.234375 26.265625 9.515625 29.90625 
Q 5.8125 33.546875 5.8125 39.890625 
Q 5.8125 47.609375 11.28125 51.796875 
Q 16.75 56 26.8125 56 
Q 31.78125 56 36.171875 55.265625 
Q 40.578125 54.546875 44.28125 53.078125 
z
" id="DejaVuSans-115"/>
      <path d="M 9.421875 54.6875 
L 18.40625 54.6875 
L 18.40625 0 
L 9.421875 0 
z
M 9.421875 75.984375 
L 18.40625 75.984375 
L 18.40625 64.59375 
L 9.421875 64.59375 
z
" id="DejaVuSans-105"/>
      <path d="M 54.890625 33.015625 
L 54.890625 0 
L 45.90625 0 
L 45.90625 32.71875 
Q 45.90625 40.484375 42.875 44.328125 
Q 39.84375 48.1875 33.796875 48.1875 
Q 26.515625 48.1875 22.3125 43.546875 
Q 18.109375 38.921875 18.109375 30.90625 
L 18.109375 0 
L 9.078125 0 
L 9.078125 54.6875 
L 18.109375 54.6875 
L 18.109375 46.1875 
Q 21.34375 51.125 25.703125 53.5625 
Q 30.078125 56 35.796875 56 
Q 45.21875 56 50.046875 50.171875 
Q 54.890625 44.34375 54.890625 33.015625 
z
" id="DejaVuSans-110"/>
      <path d="M 56.203125 29.59375 
L 56.203125 25.203125 
L 14.890625 25.203125 
Q 15.484375 15.921875 20.484375 11.0625 
Q 25.484375 6.203125 34.421875 6.203125 
Q 39.59375 6.203125 44.453125 7.46875 
Q 49.3125 8.734375 54.109375 11.28125 
L 54.109375 2.78125 
Q 49.265625 0.734375 44.1875 -0.34375 
Q 39.109375 -1.421875 33.890625 -1.421875 
Q 20.796875 -1.421875 13.15625 6.1875 
Q 5.515625 13.8125 5.515625 26.8125 
Q 5.515625 40.234375 12.765625 48.109375 
Q 20.015625 56 32.328125 56 
Q 43.359375 56 49.78125 48.890625 
Q 56.203125 41.796875 56.203125 29.59375 
z
M 47.21875 32.234375 
Q 47.125 39.59375 43.09375 43.984375 
Q 39.0625 48.390625 32.421875 48.390625 
Q 24.90625 48.390625 20.390625 44.140625 
Q 15.875 39.890625 15.1875 32.171875 
z
" id="DejaVuSans-101"/>
      <path d="M 30.421875 75.984375 
L 30.421875 -13.1875 
L 9.71875 -13.1875 
L 9.71875 -6.203125 
L 21.390625 -6.203125 
L 21.390625 69 
L 9.71875 69 
L 9.71875 75.984375 
z
" id="DejaVuSans-93"/>
     </defs>
     <use xlink:href="#DejaVuSans-91"/>
     <use x="39.013672" xlink:href="#DejaVuSans-67"/>
     <use x="108.837891" xlink:href="#DejaVuSans-111"/>
     <use x="170.019531" xlink:href="#DejaVuSans-115"/>
     <use x="222.119141" xlink:href="#DejaVuSans-105"/>
     <use x="249.902344" xlink:href="#DejaVuSans-110"/>
     <use x="313.28125" xlink:href="#DejaVuSans-101"/>
     <use x="374.804688" xlink:href="#DejaVuSans-93"/>
    </g>
    <!-- (60, 1.00e-06) -->
    <g style="fill:#262626;" transform="translate(954.319312 390.018282)scale(0.06 -0.06)">
     <defs>
      <path d="M 31 75.875 
Q 24.46875 64.65625 21.28125 53.65625 
Q 18.109375 42.671875 18.109375 31.390625 
Q 18.109375 20.125 21.3125 9.0625 
Q 24.515625 -2 31 -13.1875 
L 23.1875 -13.1875 
Q 15.875 -1.703125 12.234375 9.375 
Q 8.59375 20.453125 8.59375 31.390625 
Q 8.59375 42.28125 12.203125 53.3125 
Q 15.828125 64.359375 23.1875 75.875 
z
" id="DejaVuSans-40"/>
      <path d="M 11.71875 12.40625 
L 22.015625 12.40625 
L 22.015625 4 
L 14.015625 -11.625 
L 7.71875 -11.625 
L 11.71875 4 
z
" id="DejaVuSans-44"/>
      <path id="DejaVuSans-32"/>
      <path d="M 4.890625 31.390625 
L 31.203125 31.390625 
L 31.203125 23.390625 
L 4.890625 23.390625 
z
" id="DejaVuSans-45"/>
      <path d="M 8.015625 75.875 
L 15.828125 75.875 
Q 23.140625 64.359375 26.78125 53.3125 
Q 30.421875 42.28125 30.421875 31.390625 
Q 30.421875 20.453125 26.78125 9.375 
Q 23.140625 -1.703125 15.828125 -13.1875 
L 8.015625 -13.1875 
Q 14.5 -2 17.703125 9.0625 
Q 20.90625 20.125 20.90625 31.390625 
Q 20.90625 42.671875 17.703125 53.65625 
Q 14.5 64.65625 8.015625 75.875 
z
" id="DejaVuSans-41"/>
     </defs>
     <use xlink:href="#DejaVuSans-40"/>
     <use x="39.013672" xlink:href="#DejaVuSans-54"/>
     <use x="102.636719" xlink:href="#DejaVuSans-48"/>
     <use x="166.259766" xlink:href="#DejaVuSans-44"/>
     <use x="198.046875" xlink:href="#DejaVuSans-32"/>
     <use x="229.833984" xlink:href="#DejaVuSans-49"/>
     <use x="293.457031" xlink:href="#DejaVuSans-46"/>
     <use x="325.244141" xlink:href="#DejaVuSans-48"/>
     <use x="388.867188" xlink:href="#DejaVuSans-48"/>
     <use x="452.490234" xlink:href="#DejaVuSans-101"/>
     <use x="514.013672" xlink:href="#DejaVuSans-45"/>
     <use x="550.097656" xlink:href="#DejaVuSans-48"/>
     <use x="613.720703" xlink:href="#DejaVuSans-54"/>
     <use x="677.34375" xlink:href="#DejaVuSans-41"/>
    </g>
   </g>
   <g id="text_15">
    <!-- (18, 0.0004) -->
    <g style="fill:#262626;" transform="translate(323.929863 244.903192)scale(0.06 -0.06)">
     <use xlink:href="#DejaVuSans-40"/>
     <use x="39.013672" xlink:href="#DejaVuSans-49"/>
     <use x="102.636719" xlink:href="#DejaVuSans-56"/>
     <use x="166.259766" xlink:href="#DejaVuSans-44"/>
     <use x="198.046875" xlink:href="#DejaVuSans-32"/>
     <use x="229.833984" xlink:href="#DejaVuSans-48"/>
     <use x="293.457031" xlink:href="#DejaVuSans-46"/>
     <use x="325.244141" xlink:href="#DejaVuSans-48"/>
     <use x="388.867188" xlink:href="#DejaVuSans-48"/>
     <use x="452.490234" xlink:href="#DejaVuSans-48"/>
     <use x="516.113281" xlink:href="#DejaVuSans-52"/>
     <use x="579.736328" xlink:href="#DejaVuSans-41"/>
    </g>
   </g>
   <g id="text_16">
    <!-- (18, 0.0005) -->
    <g style="fill:#262626;" transform="translate(323.929863 208.22076)scale(0.06 -0.06)">
     <use xlink:href="#DejaVuSans-40"/>
     <use x="39.013672" xlink:href="#DejaVuSans-49"/>
     <use x="102.636719" xlink:href="#DejaVuSans-56"/>
     <use x="166.259766" xlink:href="#DejaVuSans-44"/>
     <use x="198.046875" xlink:href="#DejaVuSans-32"/>
     <use x="229.833984" xlink:href="#DejaVuSans-48"/>
     <use x="293.457031" xlink:href="#DejaVuSans-46"/>
     <use x="325.244141" xlink:href="#DejaVuSans-48"/>
     <use x="388.867188" xlink:href="#DejaVuSans-48"/>
     <use x="452.490234" xlink:href="#DejaVuSans-48"/>
     <use x="516.113281" xlink:href="#DejaVuSans-53"/>
     <use x="579.736328" xlink:href="#DejaVuSans-41"/>
    </g>
   </g>
   <g id="legend_1">
    <g id="line2d_20">
     <path d="M 742.059624 13.673341 
L 753.059624 13.673341 
" style="fill:none;stroke:#4c72b0;stroke-linecap:round;stroke-width:0.75;"/>
    </g>
    <g id="line2d_21"/>
    <g id="text_17">
     <!-- lr=0.001, decay=0.1 -->
     <g style="fill:#262626;" transform="translate(757.459624 15.598341)scale(0.055 -0.055)">
      <defs>
       <path d="M 9.421875 75.984375 
L 18.40625 75.984375 
L 18.40625 0 
L 9.421875 0 
z
" id="DejaVuSans-108"/>
       <path d="M 41.109375 46.296875 
Q 39.59375 47.171875 37.8125 47.578125 
Q 36.03125 48 33.890625 48 
Q 26.265625 48 22.1875 43.046875 
Q 18.109375 38.09375 18.109375 28.8125 
L 18.109375 0 
L 9.078125 0 
L 9.078125 54.6875 
L 18.109375 54.6875 
L 18.109375 46.1875 
Q 20.953125 51.171875 25.484375 53.578125 
Q 30.03125 56 36.53125 56 
Q 37.453125 56 38.578125 55.875 
Q 39.703125 55.765625 41.0625 55.515625 
z
" id="DejaVuSans-114"/>
       <path d="M 10.59375 45.40625 
L 73.1875 45.40625 
L 73.1875 37.203125 
L 10.59375 37.203125 
z
M 10.59375 25.484375 
L 73.1875 25.484375 
L 73.1875 17.1875 
L 10.59375 17.1875 
z
" id="DejaVuSans-61"/>
       <path d="M 45.40625 46.390625 
L 45.40625 75.984375 
L 54.390625 75.984375 
L 54.390625 0 
L 45.40625 0 
L 45.40625 8.203125 
Q 42.578125 3.328125 38.25 0.953125 
Q 33.9375 -1.421875 27.875 -1.421875 
Q 17.96875 -1.421875 11.734375 6.484375 
Q 5.515625 14.40625 5.515625 27.296875 
Q 5.515625 40.1875 11.734375 48.09375 
Q 17.96875 56 27.875 56 
Q 33.9375 56 38.25 53.625 
Q 42.578125 51.265625 45.40625 46.390625 
z
M 14.796875 27.296875 
Q 14.796875 17.390625 18.875 11.75 
Q 22.953125 6.109375 30.078125 6.109375 
Q 37.203125 6.109375 41.296875 11.75 
Q 45.40625 17.390625 45.40625 27.296875 
Q 45.40625 37.203125 41.296875 42.84375 
Q 37.203125 48.484375 30.078125 48.484375 
Q 22.953125 48.484375 18.875 42.84375 
Q 14.796875 37.203125 14.796875 27.296875 
z
" id="DejaVuSans-100"/>
       <path d="M 48.78125 52.59375 
L 48.78125 44.1875 
Q 44.96875 46.296875 41.140625 47.34375 
Q 37.3125 48.390625 33.40625 48.390625 
Q 24.65625 48.390625 19.8125 42.84375 
Q 14.984375 37.3125 14.984375 27.296875 
Q 14.984375 17.28125 19.8125 11.734375 
Q 24.65625 6.203125 33.40625 6.203125 
Q 37.3125 6.203125 41.140625 7.25 
Q 44.96875 8.296875 48.78125 10.40625 
L 48.78125 2.09375 
Q 45.015625 0.34375 40.984375 -0.53125 
Q 36.96875 -1.421875 32.421875 -1.421875 
Q 20.0625 -1.421875 12.78125 6.34375 
Q 5.515625 14.109375 5.515625 27.296875 
Q 5.515625 40.671875 12.859375 48.328125 
Q 20.21875 56 33.015625 56 
Q 37.15625 56 41.109375 55.140625 
Q 45.0625 54.296875 48.78125 52.59375 
z
" id="DejaVuSans-99"/>
       <path d="M 34.28125 27.484375 
Q 23.390625 27.484375 19.1875 25 
Q 14.984375 22.515625 14.984375 16.5 
Q 14.984375 11.71875 18.140625 8.90625 
Q 21.296875 6.109375 26.703125 6.109375 
Q 34.1875 6.109375 38.703125 11.40625 
Q 43.21875 16.703125 43.21875 25.484375 
L 43.21875 27.484375 
z
M 52.203125 31.203125 
L 52.203125 0 
L 43.21875 0 
L 43.21875 8.296875 
Q 40.140625 3.328125 35.546875 0.953125 
Q 30.953125 -1.421875 24.3125 -1.421875 
Q 15.921875 -1.421875 10.953125 3.296875 
Q 6 8.015625 6 15.921875 
Q 6 25.140625 12.171875 29.828125 
Q 18.359375 34.515625 30.609375 34.515625 
L 43.21875 34.515625 
L 43.21875 35.40625 
Q 43.21875 41.609375 39.140625 45 
Q 35.0625 48.390625 27.6875 48.390625 
Q 23 48.390625 18.546875 47.265625 
Q 14.109375 46.140625 10.015625 43.890625 
L 10.015625 52.203125 
Q 14.9375 54.109375 19.578125 55.046875 
Q 24.21875 56 28.609375 56 
Q 40.484375 56 46.34375 49.84375 
Q 52.203125 43.703125 52.203125 31.203125 
z
" id="DejaVuSans-97"/>
       <path d="M 32.171875 -5.078125 
Q 28.375 -14.84375 24.75 -17.8125 
Q 21.140625 -20.796875 15.09375 -20.796875 
L 7.90625 -20.796875 
L 7.90625 -13.28125 
L 13.1875 -13.28125 
Q 16.890625 -13.28125 18.9375 -11.515625 
Q 21 -9.765625 23.484375 -3.21875 
L 25.09375 0.875 
L 2.984375 54.6875 
L 12.5 54.6875 
L 29.59375 11.921875 
L 46.6875 54.6875 
L 56.203125 54.6875 
z
" id="DejaVuSans-121"/>
      </defs>
      <use xlink:href="#DejaVuSans-108"/>
      <use x="27.783203" xlink:href="#DejaVuSans-114"/>
      <use x="68.896484" xlink:href="#DejaVuSans-61"/>
      <use x="152.685547" xlink:href="#DejaVuSans-48"/>
      <use x="216.308594" xlink:href="#DejaVuSans-46"/>
      <use x="248.095703" xlink:href="#DejaVuSans-48"/>
      <use x="311.71875" xlink:href="#DejaVuSans-48"/>
      <use x="375.341797" xlink:href="#DejaVuSans-49"/>
      <use x="438.964844" xlink:href="#DejaVuSans-44"/>
      <use x="470.751953" xlink:href="#DejaVuSans-32"/>
      <use x="502.539062" xlink:href="#DejaVuSans-100"/>
      <use x="566.015625" xlink:href="#DejaVuSans-101"/>
      <use x="627.539062" xlink:href="#DejaVuSans-99"/>
      <use x="682.519531" xlink:href="#DejaVuSans-97"/>
      <use x="743.798828" xlink:href="#DejaVuSans-121"/>
      <use x="802.978516" xlink:href="#DejaVuSans-61"/>
      <use x="886.767578" xlink:href="#DejaVuSans-48"/>
      <use x="950.390625" xlink:href="#DejaVuSans-46"/>
      <use x="982.177734" xlink:href="#DejaVuSans-49"/>
     </g>
    </g>
    <g id="line2d_22">
     <path d="M 742.059624 21.746309 
L 753.059624 21.746309 
" style="fill:none;stroke:#dd8452;stroke-linecap:round;stroke-width:0.75;"/>
    </g>
    <g id="line2d_23"/>
    <g id="text_18">
     <!-- lr=0.001, decay=0.05 -->
     <g style="fill:#262626;" transform="translate(757.459624 23.671309)scale(0.055 -0.055)">
      <use xlink:href="#DejaVuSans-108"/>
      <use x="27.783203" xlink:href="#DejaVuSans-114"/>
      <use x="68.896484" xlink:href="#DejaVuSans-61"/>
      <use x="152.685547" xlink:href="#DejaVuSans-48"/>
      <use x="216.308594" xlink:href="#DejaVuSans-46"/>
      <use x="248.095703" xlink:href="#DejaVuSans-48"/>
      <use x="311.71875" xlink:href="#DejaVuSans-48"/>
      <use x="375.341797" xlink:href="#DejaVuSans-49"/>
      <use x="438.964844" xlink:href="#DejaVuSans-44"/>
      <use x="470.751953" xlink:href="#DejaVuSans-32"/>
      <use x="502.539062" xlink:href="#DejaVuSans-100"/>
      <use x="566.015625" xlink:href="#DejaVuSans-101"/>
      <use x="627.539062" xlink:href="#DejaVuSans-99"/>
      <use x="682.519531" xlink:href="#DejaVuSans-97"/>
      <use x="743.798828" xlink:href="#DejaVuSans-121"/>
      <use x="802.978516" xlink:href="#DejaVuSans-61"/>
      <use x="886.767578" xlink:href="#DejaVuSans-48"/>
      <use x="950.390625" xlink:href="#DejaVuSans-46"/>
      <use x="982.177734" xlink:href="#DejaVuSans-48"/>
      <use x="1045.800781" xlink:href="#DejaVuSans-53"/>
     </g>
    </g>
    <g id="line2d_24">
     <path d="M 742.059624 29.819278 
L 753.059624 29.819278 
" style="fill:none;stroke:#55a868;stroke-linecap:round;stroke-width:0.75;"/>
    </g>
    <g id="line2d_25"/>
    <g id="text_19">
     <!-- Constant, lr=0.001, decay_steps=[10, 20, 30, 40], decay_rate=0.1 -->
     <g style="fill:#262626;" transform="translate(757.459624 31.744278)scale(0.055 -0.055)">
      <defs>
       <path d="M 18.3125 70.21875 
L 18.3125 54.6875 
L 36.8125 54.6875 
L 36.8125 47.703125 
L 18.3125 47.703125 
L 18.3125 18.015625 
Q 18.3125 11.328125 20.140625 9.421875 
Q 21.96875 7.515625 27.59375 7.515625 
L 36.8125 7.515625 
L 36.8125 0 
L 27.59375 0 
Q 17.1875 0 13.234375 3.875 
Q 9.28125 7.765625 9.28125 18.015625 
L 9.28125 47.703125 
L 2.6875 47.703125 
L 2.6875 54.6875 
L 9.28125 54.6875 
L 9.28125 70.21875 
z
" id="DejaVuSans-116"/>
       <path d="M 50.984375 -16.609375 
L 50.984375 -23.578125 
L -0.984375 -23.578125 
L -0.984375 -16.609375 
z
" id="DejaVuSans-95"/>
       <path d="M 18.109375 8.203125 
L 18.109375 -20.796875 
L 9.078125 -20.796875 
L 9.078125 54.6875 
L 18.109375 54.6875 
L 18.109375 46.390625 
Q 20.953125 51.265625 25.265625 53.625 
Q 29.59375 56 35.59375 56 
Q 45.5625 56 51.78125 48.09375 
Q 58.015625 40.1875 58.015625 27.296875 
Q 58.015625 14.40625 51.78125 6.484375 
Q 45.5625 -1.421875 35.59375 -1.421875 
Q 29.59375 -1.421875 25.265625 0.953125 
Q 20.953125 3.328125 18.109375 8.203125 
z
M 48.6875 27.296875 
Q 48.6875 37.203125 44.609375 42.84375 
Q 40.53125 48.484375 33.40625 48.484375 
Q 26.265625 48.484375 22.1875 42.84375 
Q 18.109375 37.203125 18.109375 27.296875 
Q 18.109375 17.390625 22.1875 11.75 
Q 26.265625 6.109375 33.40625 6.109375 
Q 40.53125 6.109375 44.609375 11.75 
Q 48.6875 17.390625 48.6875 27.296875 
z
" id="DejaVuSans-112"/>
      </defs>
      <use xlink:href="#DejaVuSans-67"/>
      <use x="69.824219" xlink:href="#DejaVuSans-111"/>
      <use x="131.005859" xlink:href="#DejaVuSans-110"/>
      <use x="194.384766" xlink:href="#DejaVuSans-115"/>
      <use x="246.484375" xlink:href="#DejaVuSans-116"/>
      <use x="285.693359" xlink:href="#DejaVuSans-97"/>
      <use x="346.972656" xlink:href="#DejaVuSans-110"/>
      <use x="410.351562" xlink:href="#DejaVuSans-116"/>
      <use x="449.560547" xlink:href="#DejaVuSans-44"/>
      <use x="481.347656" xlink:href="#DejaVuSans-32"/>
      <use x="513.134766" xlink:href="#DejaVuSans-108"/>
      <use x="540.917969" xlink:href="#DejaVuSans-114"/>
      <use x="582.03125" xlink:href="#DejaVuSans-61"/>
      <use x="665.820312" xlink:href="#DejaVuSans-48"/>
      <use x="729.443359" xlink:href="#DejaVuSans-46"/>
      <use x="761.230469" xlink:href="#DejaVuSans-48"/>
      <use x="824.853516" xlink:href="#DejaVuSans-48"/>
      <use x="888.476562" xlink:href="#DejaVuSans-49"/>
      <use x="952.099609" xlink:href="#DejaVuSans-44"/>
      <use x="983.886719" xlink:href="#DejaVuSans-32"/>
      <use x="1015.673828" xlink:href="#DejaVuSans-100"/>
      <use x="1079.150391" xlink:href="#DejaVuSans-101"/>
      <use x="1140.673828" xlink:href="#DejaVuSans-99"/>
      <use x="1195.654297" xlink:href="#DejaVuSans-97"/>
      <use x="1256.933594" xlink:href="#DejaVuSans-121"/>
      <use x="1316.113281" xlink:href="#DejaVuSans-95"/>
      <use x="1366.113281" xlink:href="#DejaVuSans-115"/>
      <use x="1418.212891" xlink:href="#DejaVuSans-116"/>
      <use x="1457.421875" xlink:href="#DejaVuSans-101"/>
      <use x="1518.945312" xlink:href="#DejaVuSans-112"/>
      <use x="1582.421875" xlink:href="#DejaVuSans-115"/>
      <use x="1634.521484" xlink:href="#DejaVuSans-61"/>
      <use x="1718.310547" xlink:href="#DejaVuSans-91"/>
      <use x="1757.324219" xlink:href="#DejaVuSans-49"/>
      <use x="1820.947266" xlink:href="#DejaVuSans-48"/>
      <use x="1884.570312" xlink:href="#DejaVuSans-44"/>
      <use x="1916.357422" xlink:href="#DejaVuSans-32"/>
      <use x="1948.144531" xlink:href="#DejaVuSans-50"/>
      <use x="2011.767578" xlink:href="#DejaVuSans-48"/>
      <use x="2075.390625" xlink:href="#DejaVuSans-44"/>
      <use x="2107.177734" xlink:href="#DejaVuSans-32"/>
      <use x="2138.964844" xlink:href="#DejaVuSans-51"/>
      <use x="2202.587891" xlink:href="#DejaVuSans-48"/>
      <use x="2266.210938" xlink:href="#DejaVuSans-44"/>
      <use x="2297.998047" xlink:href="#DejaVuSans-32"/>
      <use x="2329.785156" xlink:href="#DejaVuSans-52"/>
      <use x="2393.408203" xlink:href="#DejaVuSans-48"/>
      <use x="2457.03125" xlink:href="#DejaVuSans-93"/>
      <use x="2496.044922" xlink:href="#DejaVuSans-44"/>
      <use x="2527.832031" xlink:href="#DejaVuSans-32"/>
      <use x="2559.619141" xlink:href="#DejaVuSans-100"/>
      <use x="2623.095703" xlink:href="#DejaVuSans-101"/>
      <use x="2684.619141" xlink:href="#DejaVuSans-99"/>
      <use x="2739.599609" xlink:href="#DejaVuSans-97"/>
      <use x="2800.878906" xlink:href="#DejaVuSans-121"/>
      <use x="2860.058594" xlink:href="#DejaVuSans-95"/>
      <use x="2910.058594" xlink:href="#DejaVuSans-114"/>
      <use x="2951.171875" xlink:href="#DejaVuSans-97"/>
      <use x="3012.451172" xlink:href="#DejaVuSans-116"/>
      <use x="3051.660156" xlink:href="#DejaVuSans-101"/>
      <use x="3113.183594" xlink:href="#DejaVuSans-61"/>
      <use x="3196.972656" xlink:href="#DejaVuSans-48"/>
      <use x="3260.595703" xlink:href="#DejaVuSans-46"/>
      <use x="3292.382812" xlink:href="#DejaVuSans-49"/>
     </g>
    </g>
    <g id="line2d_26">
     <path d="M 742.059624 38.045216 
L 753.059624 38.045216 
" style="fill:none;stroke:#c44e52;stroke-linecap:round;stroke-width:0.75;"/>
    </g>
    <g id="line2d_27"/>
    <g id="text_20">
     <!-- Cosine, first_restart_step=50, min=1e-6, m_mul=1e-3 -->
     <g style="fill:#262626;" transform="translate(757.459624 39.970216)scale(0.055 -0.055)">
      <defs>
       <path d="M 37.109375 75.984375 
L 37.109375 68.5 
L 28.515625 68.5 
Q 23.6875 68.5 21.796875 66.546875 
Q 19.921875 64.59375 19.921875 59.515625 
L 19.921875 54.6875 
L 34.71875 54.6875 
L 34.71875 47.703125 
L 19.921875 47.703125 
L 19.921875 0 
L 10.890625 0 
L 10.890625 47.703125 
L 2.296875 47.703125 
L 2.296875 54.6875 
L 10.890625 54.6875 
L 10.890625 58.5 
Q 10.890625 67.625 15.140625 71.796875 
Q 19.390625 75.984375 28.609375 75.984375 
z
" id="DejaVuSans-102"/>
       <path d="M 52 44.1875 
Q 55.375 50.25 60.0625 53.125 
Q 64.75 56 71.09375 56 
Q 79.640625 56 84.28125 50.015625 
Q 88.921875 44.046875 88.921875 33.015625 
L 88.921875 0 
L 79.890625 0 
L 79.890625 32.71875 
Q 79.890625 40.578125 77.09375 44.375 
Q 74.3125 48.1875 68.609375 48.1875 
Q 61.625 48.1875 57.5625 43.546875 
Q 53.515625 38.921875 53.515625 30.90625 
L 53.515625 0 
L 44.484375 0 
L 44.484375 32.71875 
Q 44.484375 40.625 41.703125 44.40625 
Q 38.921875 48.1875 33.109375 48.1875 
Q 26.21875 48.1875 22.15625 43.53125 
Q 18.109375 38.875 18.109375 30.90625 
L 18.109375 0 
L 9.078125 0 
L 9.078125 54.6875 
L 18.109375 54.6875 
L 18.109375 46.1875 
Q 21.1875 51.21875 25.484375 53.609375 
Q 29.78125 56 35.6875 56 
Q 41.65625 56 45.828125 52.96875 
Q 50 49.953125 52 44.1875 
z
" id="DejaVuSans-109"/>
       <path d="M 8.5 21.578125 
L 8.5 54.6875 
L 17.484375 54.6875 
L 17.484375 21.921875 
Q 17.484375 14.15625 20.5 10.265625 
Q 23.53125 6.390625 29.59375 6.390625 
Q 36.859375 6.390625 41.078125 11.03125 
Q 45.3125 15.671875 45.3125 23.6875 
L 45.3125 54.6875 
L 54.296875 54.6875 
L 54.296875 0 
L 45.3125 0 
L 45.3125 8.40625 
Q 42.046875 3.421875 37.71875 1 
Q 33.40625 -1.421875 27.6875 -1.421875 
Q 18.265625 -1.421875 13.375 4.4375 
Q 8.5 10.296875 8.5 21.578125 
z
M 31.109375 56 
z
" id="DejaVuSans-117"/>
      </defs>
      <use xlink:href="#DejaVuSans-67"/>
      <use x="69.824219" xlink:href="#DejaVuSans-111"/>
      <use x="131.005859" xlink:href="#DejaVuSans-115"/>
      <use x="183.105469" xlink:href="#DejaVuSans-105"/>
      <use x="210.888672" xlink:href="#DejaVuSans-110"/>
      <use x="274.267578" xlink:href="#DejaVuSans-101"/>
      <use x="335.791016" xlink:href="#DejaVuSans-44"/>
      <use x="367.578125" xlink:href="#DejaVuSans-32"/>
      <use x="399.365234" xlink:href="#DejaVuSans-102"/>
      <use x="434.570312" xlink:href="#DejaVuSans-105"/>
      <use x="462.353516" xlink:href="#DejaVuSans-114"/>
      <use x="503.466797" xlink:href="#DejaVuSans-115"/>
      <use x="555.566406" xlink:href="#DejaVuSans-116"/>
      <use x="594.775391" xlink:href="#DejaVuSans-95"/>
      <use x="644.775391" xlink:href="#DejaVuSans-114"/>
      <use x="683.638672" xlink:href="#DejaVuSans-101"/>
      <use x="745.162109" xlink:href="#DejaVuSans-115"/>
      <use x="797.261719" xlink:href="#DejaVuSans-116"/>
      <use x="836.470703" xlink:href="#DejaVuSans-97"/>
      <use x="897.75" xlink:href="#DejaVuSans-114"/>
      <use x="938.863281" xlink:href="#DejaVuSans-116"/>
      <use x="978.072266" xlink:href="#DejaVuSans-95"/>
      <use x="1028.072266" xlink:href="#DejaVuSans-115"/>
      <use x="1080.171875" xlink:href="#DejaVuSans-116"/>
      <use x="1119.380859" xlink:href="#DejaVuSans-101"/>
      <use x="1180.904297" xlink:href="#DejaVuSans-112"/>
      <use x="1244.380859" xlink:href="#DejaVuSans-61"/>
      <use x="1328.169922" xlink:href="#DejaVuSans-53"/>
      <use x="1391.792969" xlink:href="#DejaVuSans-48"/>
      <use x="1455.416016" xlink:href="#DejaVuSans-44"/>
      <use x="1487.203125" xlink:href="#DejaVuSans-32"/>
      <use x="1518.990234" xlink:href="#DejaVuSans-109"/>
      <use x="1616.402344" xlink:href="#DejaVuSans-105"/>
      <use x="1644.185547" xlink:href="#DejaVuSans-110"/>
      <use x="1707.564453" xlink:href="#DejaVuSans-61"/>
      <use x="1791.353516" xlink:href="#DejaVuSans-49"/>
      <use x="1854.976562" xlink:href="#DejaVuSans-101"/>
      <use x="1916.5" xlink:href="#DejaVuSans-45"/>
      <use x="1952.583984" xlink:href="#DejaVuSans-54"/>
      <use x="2016.207031" xlink:href="#DejaVuSans-44"/>
      <use x="2047.994141" xlink:href="#DejaVuSans-32"/>
      <use x="2079.78125" xlink:href="#DejaVuSans-109"/>
      <use x="2177.193359" xlink:href="#DejaVuSans-95"/>
      <use x="2227.193359" xlink:href="#DejaVuSans-109"/>
      <use x="2324.605469" xlink:href="#DejaVuSans-117"/>
      <use x="2387.984375" xlink:href="#DejaVuSans-108"/>
      <use x="2415.767578" xlink:href="#DejaVuSans-61"/>
      <use x="2499.556641" xlink:href="#DejaVuSans-49"/>
      <use x="2563.179688" xlink:href="#DejaVuSans-101"/>
      <use x="2624.703125" xlink:href="#DejaVuSans-45"/>
      <use x="2660.787109" xlink:href="#DejaVuSans-51"/>
     </g>
    </g>
    <g id="line2d_28">
     <path d="M 742.059624 46.271153 
L 753.059624 46.271153 
" style="fill:none;stroke:#8172b3;stroke-linecap:round;stroke-width:0.75;"/>
    </g>
    <g id="line2d_29"/>
    <g id="text_21">
     <!-- Cosine restart, first_restart_step=16, min=1e-7, warmup=1, m_mul=0.4 -->
     <g style="fill:#262626;" transform="translate(757.459624 48.196153)scale(0.055 -0.055)">
      <defs>
       <path d="M 8.203125 72.90625 
L 55.078125 72.90625 
L 55.078125 68.703125 
L 28.609375 0 
L 18.3125 0 
L 43.21875 64.59375 
L 8.203125 64.59375 
z
" id="DejaVuSans-55"/>
       <path d="M 4.203125 54.6875 
L 13.1875 54.6875 
L 24.421875 12.015625 
L 35.59375 54.6875 
L 46.1875 54.6875 
L 57.421875 12.015625 
L 68.609375 54.6875 
L 77.59375 54.6875 
L 63.28125 0 
L 52.6875 0 
L 40.921875 44.828125 
L 29.109375 0 
L 18.5 0 
z
" id="DejaVuSans-119"/>
      </defs>
      <use xlink:href="#DejaVuSans-67"/>
      <use x="69.824219" xlink:href="#DejaVuSans-111"/>
      <use x="131.005859" xlink:href="#DejaVuSans-115"/>
      <use x="183.105469" xlink:href="#DejaVuSans-105"/>
      <use x="210.888672" xlink:href="#DejaVuSans-110"/>
      <use x="274.267578" xlink:href="#DejaVuSans-101"/>
      <use x="335.791016" xlink:href="#DejaVuSans-32"/>
      <use x="367.578125" xlink:href="#DejaVuSans-114"/>
      <use x="406.441406" xlink:href="#DejaVuSans-101"/>
      <use x="467.964844" xlink:href="#DejaVuSans-115"/>
      <use x="520.064453" xlink:href="#DejaVuSans-116"/>
      <use x="559.273438" xlink:href="#DejaVuSans-97"/>
      <use x="620.552734" xlink:href="#DejaVuSans-114"/>
      <use x="661.666016" xlink:href="#DejaVuSans-116"/>
      <use x="700.875" xlink:href="#DejaVuSans-44"/>
      <use x="732.662109" xlink:href="#DejaVuSans-32"/>
      <use x="764.449219" xlink:href="#DejaVuSans-102"/>
      <use x="799.654297" xlink:href="#DejaVuSans-105"/>
      <use x="827.4375" xlink:href="#DejaVuSans-114"/>
      <use x="868.550781" xlink:href="#DejaVuSans-115"/>
      <use x="920.650391" xlink:href="#DejaVuSans-116"/>
      <use x="959.859375" xlink:href="#DejaVuSans-95"/>
      <use x="1009.859375" xlink:href="#DejaVuSans-114"/>
      <use x="1048.722656" xlink:href="#DejaVuSans-101"/>
      <use x="1110.246094" xlink:href="#DejaVuSans-115"/>
      <use x="1162.345703" xlink:href="#DejaVuSans-116"/>
      <use x="1201.554688" xlink:href="#DejaVuSans-97"/>
      <use x="1262.833984" xlink:href="#DejaVuSans-114"/>
      <use x="1303.947266" xlink:href="#DejaVuSans-116"/>
      <use x="1343.15625" xlink:href="#DejaVuSans-95"/>
      <use x="1393.15625" xlink:href="#DejaVuSans-115"/>
      <use x="1445.255859" xlink:href="#DejaVuSans-116"/>
      <use x="1484.464844" xlink:href="#DejaVuSans-101"/>
      <use x="1545.988281" xlink:href="#DejaVuSans-112"/>
      <use x="1609.464844" xlink:href="#DejaVuSans-61"/>
      <use x="1693.253906" xlink:href="#DejaVuSans-49"/>
      <use x="1756.876953" xlink:href="#DejaVuSans-54"/>
      <use x="1820.5" xlink:href="#DejaVuSans-44"/>
      <use x="1852.287109" xlink:href="#DejaVuSans-32"/>
      <use x="1884.074219" xlink:href="#DejaVuSans-109"/>
      <use x="1981.486328" xlink:href="#DejaVuSans-105"/>
      <use x="2009.269531" xlink:href="#DejaVuSans-110"/>
      <use x="2072.648438" xlink:href="#DejaVuSans-61"/>
      <use x="2156.4375" xlink:href="#DejaVuSans-49"/>
      <use x="2220.060547" xlink:href="#DejaVuSans-101"/>
      <use x="2281.583984" xlink:href="#DejaVuSans-45"/>
      <use x="2317.667969" xlink:href="#DejaVuSans-55"/>
      <use x="2381.291016" xlink:href="#DejaVuSans-44"/>
      <use x="2413.078125" xlink:href="#DejaVuSans-32"/>
      <use x="2444.865234" xlink:href="#DejaVuSans-119"/>
      <use x="2526.652344" xlink:href="#DejaVuSans-97"/>
      <use x="2587.931641" xlink:href="#DejaVuSans-114"/>
      <use x="2627.294922" xlink:href="#DejaVuSans-109"/>
      <use x="2724.707031" xlink:href="#DejaVuSans-117"/>
      <use x="2788.085938" xlink:href="#DejaVuSans-112"/>
      <use x="2851.5625" xlink:href="#DejaVuSans-61"/>
      <use x="2935.351562" xlink:href="#DejaVuSans-49"/>
      <use x="2998.974609" xlink:href="#DejaVuSans-44"/>
      <use x="3030.761719" xlink:href="#DejaVuSans-32"/>
      <use x="3062.548828" xlink:href="#DejaVuSans-109"/>
      <use x="3159.960938" xlink:href="#DejaVuSans-95"/>
      <use x="3209.960938" xlink:href="#DejaVuSans-109"/>
      <use x="3307.373047" xlink:href="#DejaVuSans-117"/>
      <use x="3370.751953" xlink:href="#DejaVuSans-108"/>
      <use x="3398.535156" xlink:href="#DejaVuSans-61"/>
      <use x="3482.324219" xlink:href="#DejaVuSans-48"/>
      <use x="3545.947266" xlink:href="#DejaVuSans-46"/>
      <use x="3577.734375" xlink:href="#DejaVuSans-52"/>
     </g>
    </g>
    <g id="line2d_30">
     <path d="M 742.059624 54.497091 
L 753.059624 54.497091 
" style="fill:none;stroke:#937860;stroke-linecap:round;stroke-width:0.75;"/>
    </g>
    <g id="line2d_31"/>
    <g id="text_22">
     <!-- Cosine restart, on batch, first_restart_step=1300, min=1e-7, warmup=4, m_mul=0.5 -->
     <g style="fill:#262626;" transform="translate(757.459624 56.422091)scale(0.055 -0.055)">
      <defs>
       <path d="M 48.6875 27.296875 
Q 48.6875 37.203125 44.609375 42.84375 
Q 40.53125 48.484375 33.40625 48.484375 
Q 26.265625 48.484375 22.1875 42.84375 
Q 18.109375 37.203125 18.109375 27.296875 
Q 18.109375 17.390625 22.1875 11.75 
Q 26.265625 6.109375 33.40625 6.109375 
Q 40.53125 6.109375 44.609375 11.75 
Q 48.6875 17.390625 48.6875 27.296875 
z
M 18.109375 46.390625 
Q 20.953125 51.265625 25.265625 53.625 
Q 29.59375 56 35.59375 56 
Q 45.5625 56 51.78125 48.09375 
Q 58.015625 40.1875 58.015625 27.296875 
Q 58.015625 14.40625 51.78125 6.484375 
Q 45.5625 -1.421875 35.59375 -1.421875 
Q 29.59375 -1.421875 25.265625 0.953125 
Q 20.953125 3.328125 18.109375 8.203125 
L 18.109375 0 
L 9.078125 0 
L 9.078125 75.984375 
L 18.109375 75.984375 
z
" id="DejaVuSans-98"/>
       <path d="M 54.890625 33.015625 
L 54.890625 0 
L 45.90625 0 
L 45.90625 32.71875 
Q 45.90625 40.484375 42.875 44.328125 
Q 39.84375 48.1875 33.796875 48.1875 
Q 26.515625 48.1875 22.3125 43.546875 
Q 18.109375 38.921875 18.109375 30.90625 
L 18.109375 0 
L 9.078125 0 
L 9.078125 75.984375 
L 18.109375 75.984375 
L 18.109375 46.1875 
Q 21.34375 51.125 25.703125 53.5625 
Q 30.078125 56 35.796875 56 
Q 45.21875 56 50.046875 50.171875 
Q 54.890625 44.34375 54.890625 33.015625 
z
" id="DejaVuSans-104"/>
      </defs>
      <use xlink:href="#DejaVuSans-67"/>
      <use x="69.824219" xlink:href="#DejaVuSans-111"/>
      <use x="131.005859" xlink:href="#DejaVuSans-115"/>
      <use x="183.105469" xlink:href="#DejaVuSans-105"/>
      <use x="210.888672" xlink:href="#DejaVuSans-110"/>
      <use x="274.267578" xlink:href="#DejaVuSans-101"/>
      <use x="335.791016" xlink:href="#DejaVuSans-32"/>
      <use x="367.578125" xlink:href="#DejaVuSans-114"/>
      <use x="406.441406" xlink:href="#DejaVuSans-101"/>
      <use x="467.964844" xlink:href="#DejaVuSans-115"/>
      <use x="520.064453" xlink:href="#DejaVuSans-116"/>
      <use x="559.273438" xlink:href="#DejaVuSans-97"/>
      <use x="620.552734" xlink:href="#DejaVuSans-114"/>
      <use x="661.666016" xlink:href="#DejaVuSans-116"/>
      <use x="700.875" xlink:href="#DejaVuSans-44"/>
      <use x="732.662109" xlink:href="#DejaVuSans-32"/>
      <use x="764.449219" xlink:href="#DejaVuSans-111"/>
      <use x="825.630859" xlink:href="#DejaVuSans-110"/>
      <use x="889.009766" xlink:href="#DejaVuSans-32"/>
      <use x="920.796875" xlink:href="#DejaVuSans-98"/>
      <use x="984.273438" xlink:href="#DejaVuSans-97"/>
      <use x="1045.552734" xlink:href="#DejaVuSans-116"/>
      <use x="1084.761719" xlink:href="#DejaVuSans-99"/>
      <use x="1139.742188" xlink:href="#DejaVuSans-104"/>
      <use x="1203.121094" xlink:href="#DejaVuSans-44"/>
      <use x="1234.908203" xlink:href="#DejaVuSans-32"/>
      <use x="1266.695312" xlink:href="#DejaVuSans-102"/>
      <use x="1301.900391" xlink:href="#DejaVuSans-105"/>
      <use x="1329.683594" xlink:href="#DejaVuSans-114"/>
      <use x="1370.796875" xlink:href="#DejaVuSans-115"/>
      <use x="1422.896484" xlink:href="#DejaVuSans-116"/>
      <use x="1462.105469" xlink:href="#DejaVuSans-95"/>
      <use x="1512.105469" xlink:href="#DejaVuSans-114"/>
      <use x="1550.96875" xlink:href="#DejaVuSans-101"/>
      <use x="1612.492188" xlink:href="#DejaVuSans-115"/>
      <use x="1664.591797" xlink:href="#DejaVuSans-116"/>
      <use x="1703.800781" xlink:href="#DejaVuSans-97"/>
      <use x="1765.080078" xlink:href="#DejaVuSans-114"/>
      <use x="1806.193359" xlink:href="#DejaVuSans-116"/>
      <use x="1845.402344" xlink:href="#DejaVuSans-95"/>
      <use x="1895.402344" xlink:href="#DejaVuSans-115"/>
      <use x="1947.501953" xlink:href="#DejaVuSans-116"/>
      <use x="1986.710938" xlink:href="#DejaVuSans-101"/>
      <use x="2048.234375" xlink:href="#DejaVuSans-112"/>
      <use x="2111.710938" xlink:href="#DejaVuSans-61"/>
      <use x="2195.5" xlink:href="#DejaVuSans-49"/>
      <use x="2259.123047" xlink:href="#DejaVuSans-51"/>
      <use x="2322.746094" xlink:href="#DejaVuSans-48"/>
      <use x="2386.369141" xlink:href="#DejaVuSans-48"/>
      <use x="2449.992188" xlink:href="#DejaVuSans-44"/>
      <use x="2481.779297" xlink:href="#DejaVuSans-32"/>
      <use x="2513.566406" xlink:href="#DejaVuSans-109"/>
      <use x="2610.978516" xlink:href="#DejaVuSans-105"/>
      <use x="2638.761719" xlink:href="#DejaVuSans-110"/>
      <use x="2702.140625" xlink:href="#DejaVuSans-61"/>
      <use x="2785.929688" xlink:href="#DejaVuSans-49"/>
      <use x="2849.552734" xlink:href="#DejaVuSans-101"/>
      <use x="2911.076172" xlink:href="#DejaVuSans-45"/>
      <use x="2947.160156" xlink:href="#DejaVuSans-55"/>
      <use x="3010.783203" xlink:href="#DejaVuSans-44"/>
      <use x="3042.570312" xlink:href="#DejaVuSans-32"/>
      <use x="3074.357422" xlink:href="#DejaVuSans-119"/>
      <use x="3156.144531" xlink:href="#DejaVuSans-97"/>
      <use x="3217.423828" xlink:href="#DejaVuSans-114"/>
      <use x="3256.787109" xlink:href="#DejaVuSans-109"/>
      <use x="3354.199219" xlink:href="#DejaVuSans-117"/>
      <use x="3417.578125" xlink:href="#DejaVuSans-112"/>
      <use x="3481.054688" xlink:href="#DejaVuSans-61"/>
      <use x="3564.84375" xlink:href="#DejaVuSans-52"/>
      <use x="3628.466797" xlink:href="#DejaVuSans-44"/>
      <use x="3660.253906" xlink:href="#DejaVuSans-32"/>
      <use x="3692.041016" xlink:href="#DejaVuSans-109"/>
      <use x="3789.453125" xlink:href="#DejaVuSans-95"/>
      <use x="3839.453125" xlink:href="#DejaVuSans-109"/>
      <use x="3936.865234" xlink:href="#DejaVuSans-117"/>
      <use x="4000.244141" xlink:href="#DejaVuSans-108"/>
      <use x="4028.027344" xlink:href="#DejaVuSans-61"/>
      <use x="4111.816406" xlink:href="#DejaVuSans-48"/>
      <use x="4175.439453" xlink:href="#DejaVuSans-46"/>
      <use x="4207.226562" xlink:href="#DejaVuSans-53"/>
     </g>
    </g>
   </g>
  </g>
 </g>
 <defs>
  <clipPath id="p2b2fbc2a07">
   <rect height="403.46642" width="961.958587" x="35.342287" y="6.4692"/>
  </clipPath>
 </defs>
</svg>
