<?xml version="1.0" encoding="utf-8" standalone="no"?>
<!DOCTYPE svg PUBLIC "-//W3C//DTD SVG 1.1//EN"
  "http://www.w3.org/Graphics/SVG/1.1/DTD/svg11.dtd">
<!-- Created with matplotlib (https://matplotlib.org/) -->
<svg height="280.08pt" version="1.1" viewBox="0 0 614.16 280.08" width="614.16pt" xmlns="http://www.w3.org/2000/svg" xmlns:xlink="http://www.w3.org/1999/xlink">
 <metadata>
  <rdf:RDF xmlns:cc="http://creativecommons.org/ns#" xmlns:dc="http://purl.org/dc/elements/1.1/" xmlns:rdf="http://www.w3.org/1999/02/22-rdf-syntax-ns#">
   <cc:Work>
    <dc:type rdf:resource="http://purl.org/dc/dcmitype/StillImage"/>
    <dc:date>2020-12-03T18:47:10.791637</dc:date>
    <dc:format>image/svg+xml</dc:format>
    <dc:creator>
     <cc:Agent>
      <dc:title>Matplotlib v3.3.2, https://matplotlib.org/</dc:title>
     </cc:Agent>
    </dc:creator>
   </cc:Work>
  </rdf:RDF>
 </metadata>
 <defs>
  <style type="text/css">*{stroke-linecap:butt;stroke-linejoin:round;}</style>
 </defs>
 <g id="figure_1">
  <g id="patch_1">
   <path d="M 0 280.08 
L 614.16 280.08 
L 614.16 0 
L 0 0 
z
" style="fill:#ffffff;"/>
  </g>
  <g id="axes_1">
   <g id="patch_2">
    <path d="M 35.105 258.7 
L 607.68 258.7 
L 607.68 6.48 
L 35.105 6.48 
z
" style="fill:#eaeaf2;"/>
   </g>
   <g id="matplotlib.axis_1">
    <g id="xtick_1">
     <g id="line2d_1">
      <path clip-path="url(#pcd62bfc5f8)" d="M 61.131136 258.7 
L 61.131136 6.48 
" style="fill:none;stroke:#ffffff;stroke-linecap:round;stroke-width:0.5;"/>
     </g>
     <g id="text_1">
      <!-- 0 -->
      <g style="fill:#262626;" transform="translate(59.381449 272.379141)scale(0.055 -0.055)">
       <defs>
        <path d="M 31.78125 66.40625 
Q 24.171875 66.40625 20.328125 58.90625 
Q 16.5 51.421875 16.5 36.375 
Q 16.5 21.390625 20.328125 13.890625 
Q 24.171875 6.390625 31.78125 6.390625 
Q 39.453125 6.390625 43.28125 13.890625 
Q 47.125 21.390625 47.125 36.375 
Q 47.125 51.421875 43.28125 58.90625 
Q 39.453125 66.40625 31.78125 66.40625 
z
M 31.78125 74.21875 
Q 44.046875 74.21875 50.515625 64.515625 
Q 56.984375 54.828125 56.984375 36.375 
Q 56.984375 17.96875 50.515625 8.265625 
Q 44.046875 -1.421875 31.78125 -1.421875 
Q 19.53125 -1.421875 13.0625 8.265625 
Q 6.59375 17.96875 6.59375 36.375 
Q 6.59375 54.828125 13.0625 64.515625 
Q 19.53125 74.21875 31.78125 74.21875 
z
" id="DejaVuSans-48"/>
       </defs>
       <use xlink:href="#DejaVuSans-48"/>
      </g>
     </g>
    </g>
    <g id="xtick_2">
     <g id="line2d_2">
      <path clip-path="url(#pcd62bfc5f8)" d="M 148.613948 258.7 
L 148.613948 6.48 
" style="fill:none;stroke:#ffffff;stroke-linecap:round;stroke-width:0.5;"/>
     </g>
     <g id="text_2">
      <!-- 20 -->
      <g style="fill:#262626;" transform="translate(145.114573 272.379141)scale(0.055 -0.055)">
       <defs>
        <path d="M 19.1875 8.296875 
L 53.609375 8.296875 
L 53.609375 0 
L 7.328125 0 
L 7.328125 8.296875 
Q 12.9375 14.109375 22.625 23.890625 
Q 32.328125 33.6875 34.8125 36.53125 
Q 39.546875 41.84375 41.421875 45.53125 
Q 43.3125 49.21875 43.3125 52.78125 
Q 43.3125 58.59375 39.234375 62.25 
Q 35.15625 65.921875 28.609375 65.921875 
Q 23.96875 65.921875 18.8125 64.3125 
Q 13.671875 62.703125 7.8125 59.421875 
L 7.8125 69.390625 
Q 13.765625 71.78125 18.9375 73 
Q 24.125 74.21875 28.421875 74.21875 
Q 39.75 74.21875 46.484375 68.546875 
Q 53.21875 62.890625 53.21875 53.421875 
Q 53.21875 48.921875 51.53125 44.890625 
Q 49.859375 40.875 45.40625 35.40625 
Q 44.1875 33.984375 37.640625 27.21875 
Q 31.109375 20.453125 19.1875 8.296875 
z
" id="DejaVuSans-50"/>
       </defs>
       <use xlink:href="#DejaVuSans-50"/>
       <use x="63.623047" xlink:href="#DejaVuSans-48"/>
      </g>
     </g>
    </g>
    <g id="xtick_3">
     <g id="line2d_3">
      <path clip-path="url(#pcd62bfc5f8)" d="M 236.096759 258.7 
L 236.096759 6.48 
" style="fill:none;stroke:#ffffff;stroke-linecap:round;stroke-width:0.5;"/>
     </g>
     <g id="text_3">
      <!-- 40 -->
      <g style="fill:#262626;" transform="translate(232.597384 272.379141)scale(0.055 -0.055)">
       <defs>
        <path d="M 37.796875 64.3125 
L 12.890625 25.390625 
L 37.796875 25.390625 
z
M 35.203125 72.90625 
L 47.609375 72.90625 
L 47.609375 25.390625 
L 58.015625 25.390625 
L 58.015625 17.1875 
L 47.609375 17.1875 
L 47.609375 0 
L 37.796875 0 
L 37.796875 17.1875 
L 4.890625 17.1875 
L 4.890625 26.703125 
z
" id="DejaVuSans-52"/>
       </defs>
       <use xlink:href="#DejaVuSans-52"/>
       <use x="63.623047" xlink:href="#DejaVuSans-48"/>
      </g>
     </g>
    </g>
    <g id="xtick_4">
     <g id="line2d_4">
      <path clip-path="url(#pcd62bfc5f8)" d="M 323.57957 258.7 
L 323.57957 6.48 
" style="fill:none;stroke:#ffffff;stroke-linecap:round;stroke-width:0.5;"/>
     </g>
     <g id="text_4">
      <!-- 60 -->
      <g style="fill:#262626;" transform="translate(320.080195 272.379141)scale(0.055 -0.055)">
       <defs>
        <path d="M 33.015625 40.375 
Q 26.375 40.375 22.484375 35.828125 
Q 18.609375 31.296875 18.609375 23.390625 
Q 18.609375 15.53125 22.484375 10.953125 
Q 26.375 6.390625 33.015625 6.390625 
Q 39.65625 6.390625 43.53125 10.953125 
Q 47.40625 15.53125 47.40625 23.390625 
Q 47.40625 31.296875 43.53125 35.828125 
Q 39.65625 40.375 33.015625 40.375 
z
M 52.59375 71.296875 
L 52.59375 62.3125 
Q 48.875 64.0625 45.09375 64.984375 
Q 41.3125 65.921875 37.59375 65.921875 
Q 27.828125 65.921875 22.671875 59.328125 
Q 17.53125 52.734375 16.796875 39.40625 
Q 19.671875 43.65625 24.015625 45.921875 
Q 28.375 48.1875 33.59375 48.1875 
Q 44.578125 48.1875 50.953125 41.515625 
Q 57.328125 34.859375 57.328125 23.390625 
Q 57.328125 12.15625 50.6875 5.359375 
Q 44.046875 -1.421875 33.015625 -1.421875 
Q 20.359375 -1.421875 13.671875 8.265625 
Q 6.984375 17.96875 6.984375 36.375 
Q 6.984375 53.65625 15.1875 63.9375 
Q 23.390625 74.21875 37.203125 74.21875 
Q 40.921875 74.21875 44.703125 73.484375 
Q 48.484375 72.75 52.59375 71.296875 
z
" id="DejaVuSans-54"/>
       </defs>
       <use xlink:href="#DejaVuSans-54"/>
       <use x="63.623047" xlink:href="#DejaVuSans-48"/>
      </g>
     </g>
    </g>
    <g id="xtick_5">
     <g id="line2d_5">
      <path clip-path="url(#pcd62bfc5f8)" d="M 411.062382 258.7 
L 411.062382 6.48 
" style="fill:none;stroke:#ffffff;stroke-linecap:round;stroke-width:0.5;"/>
     </g>
     <g id="text_5">
      <!-- 80 -->
      <g style="fill:#262626;" transform="translate(407.563007 272.379141)scale(0.055 -0.055)">
       <defs>
        <path d="M 31.78125 34.625 
Q 24.75 34.625 20.71875 30.859375 
Q 16.703125 27.09375 16.703125 20.515625 
Q 16.703125 13.921875 20.71875 10.15625 
Q 24.75 6.390625 31.78125 6.390625 
Q 38.8125 6.390625 42.859375 10.171875 
Q 46.921875 13.96875 46.921875 20.515625 
Q 46.921875 27.09375 42.890625 30.859375 
Q 38.875 34.625 31.78125 34.625 
z
M 21.921875 38.8125 
Q 15.578125 40.375 12.03125 44.71875 
Q 8.5 49.078125 8.5 55.328125 
Q 8.5 64.0625 14.71875 69.140625 
Q 20.953125 74.21875 31.78125 74.21875 
Q 42.671875 74.21875 48.875 69.140625 
Q 55.078125 64.0625 55.078125 55.328125 
Q 55.078125 49.078125 51.53125 44.71875 
Q 48 40.375 41.703125 38.8125 
Q 48.828125 37.15625 52.796875 32.3125 
Q 56.78125 27.484375 56.78125 20.515625 
Q 56.78125 9.90625 50.3125 4.234375 
Q 43.84375 -1.421875 31.78125 -1.421875 
Q 19.734375 -1.421875 13.25 4.234375 
Q 6.78125 9.90625 6.78125 20.515625 
Q 6.78125 27.484375 10.78125 32.3125 
Q 14.796875 37.15625 21.921875 38.8125 
z
M 18.3125 54.390625 
Q 18.3125 48.734375 21.84375 45.5625 
Q 25.390625 42.390625 31.78125 42.390625 
Q 38.140625 42.390625 41.71875 45.5625 
Q 45.3125 48.734375 45.3125 54.390625 
Q 45.3125 60.0625 41.71875 63.234375 
Q 38.140625 66.40625 31.78125 66.40625 
Q 25.390625 66.40625 21.84375 63.234375 
Q 18.3125 60.0625 18.3125 54.390625 
z
" id="DejaVuSans-56"/>
       </defs>
       <use xlink:href="#DejaVuSans-56"/>
       <use x="63.623047" xlink:href="#DejaVuSans-48"/>
      </g>
     </g>
    </g>
    <g id="xtick_6">
     <g id="line2d_6">
      <path clip-path="url(#pcd62bfc5f8)" d="M 498.545193 258.7 
L 498.545193 6.48 
" style="fill:none;stroke:#ffffff;stroke-linecap:round;stroke-width:0.5;"/>
     </g>
     <g id="text_6">
      <!-- 100 -->
      <g style="fill:#262626;" transform="translate(493.29613 272.379141)scale(0.055 -0.055)">
       <defs>
        <path d="M 12.40625 8.296875 
L 28.515625 8.296875 
L 28.515625 63.921875 
L 10.984375 60.40625 
L 10.984375 69.390625 
L 28.421875 72.90625 
L 38.28125 72.90625 
L 38.28125 8.296875 
L 54.390625 8.296875 
L 54.390625 0 
L 12.40625 0 
z
" id="DejaVuSans-49"/>
       </defs>
       <use xlink:href="#DejaVuSans-49"/>
       <use x="63.623047" xlink:href="#DejaVuSans-48"/>
       <use x="127.246094" xlink:href="#DejaVuSans-48"/>
      </g>
     </g>
    </g>
    <g id="xtick_7">
     <g id="line2d_7">
      <path clip-path="url(#pcd62bfc5f8)" d="M 586.028004 258.7 
L 586.028004 6.48 
" style="fill:none;stroke:#ffffff;stroke-linecap:round;stroke-width:0.5;"/>
     </g>
     <g id="text_7">
      <!-- 120 -->
      <g style="fill:#262626;" transform="translate(580.778942 272.379141)scale(0.055 -0.055)">
       <use xlink:href="#DejaVuSans-49"/>
       <use x="63.623047" xlink:href="#DejaVuSans-50"/>
       <use x="127.246094" xlink:href="#DejaVuSans-48"/>
      </g>
     </g>
    </g>
   </g>
   <g id="matplotlib.axis_2">
    <g id="ytick_1">
     <g id="line2d_8">
      <path clip-path="url(#pcd62bfc5f8)" d="M 35.105 247.239687 
L 607.68 247.239687 
" style="fill:none;stroke:#ffffff;stroke-linecap:round;stroke-width:0.5;"/>
     </g>
     <g id="text_8">
      <!-- 0.0000 -->
      <g style="fill:#262626;" transform="translate(6.360156 249.329257)scale(0.055 -0.055)">
       <defs>
        <path d="M 10.6875 12.40625 
L 21 12.40625 
L 21 0 
L 10.6875 0 
z
" id="DejaVuSans-46"/>
       </defs>
       <use xlink:href="#DejaVuSans-48"/>
       <use x="63.623047" xlink:href="#DejaVuSans-46"/>
       <use x="95.410156" xlink:href="#DejaVuSans-48"/>
       <use x="159.033203" xlink:href="#DejaVuSans-48"/>
       <use x="222.65625" xlink:href="#DejaVuSans-48"/>
       <use x="286.279297" xlink:href="#DejaVuSans-48"/>
      </g>
     </g>
    </g>
    <g id="ytick_2">
     <g id="line2d_9">
      <path clip-path="url(#pcd62bfc5f8)" d="M 35.105 201.380661 
L 607.68 201.380661 
" style="fill:none;stroke:#ffffff;stroke-linecap:round;stroke-width:0.5;"/>
     </g>
     <g id="text_9">
      <!-- 0.0002 -->
      <g style="fill:#262626;" transform="translate(6.360156 203.470231)scale(0.055 -0.055)">
       <use xlink:href="#DejaVuSans-48"/>
       <use x="63.623047" xlink:href="#DejaVuSans-46"/>
       <use x="95.410156" xlink:href="#DejaVuSans-48"/>
       <use x="159.033203" xlink:href="#DejaVuSans-48"/>
       <use x="222.65625" xlink:href="#DejaVuSans-48"/>
       <use x="286.279297" xlink:href="#DejaVuSans-50"/>
      </g>
     </g>
    </g>
    <g id="ytick_3">
     <g id="line2d_10">
      <path clip-path="url(#pcd62bfc5f8)" d="M 35.105 155.521635 
L 607.68 155.521635 
" style="fill:none;stroke:#ffffff;stroke-linecap:round;stroke-width:0.5;"/>
     </g>
     <g id="text_10">
      <!-- 0.0004 -->
      <g style="fill:#262626;" transform="translate(6.360156 157.611205)scale(0.055 -0.055)">
       <use xlink:href="#DejaVuSans-48"/>
       <use x="63.623047" xlink:href="#DejaVuSans-46"/>
       <use x="95.410156" xlink:href="#DejaVuSans-48"/>
       <use x="159.033203" xlink:href="#DejaVuSans-48"/>
       <use x="222.65625" xlink:href="#DejaVuSans-48"/>
       <use x="286.279297" xlink:href="#DejaVuSans-52"/>
      </g>
     </g>
    </g>
    <g id="ytick_4">
     <g id="line2d_11">
      <path clip-path="url(#pcd62bfc5f8)" d="M 35.105 109.662609 
L 607.68 109.662609 
" style="fill:none;stroke:#ffffff;stroke-linecap:round;stroke-width:0.5;"/>
     </g>
     <g id="text_11">
      <!-- 0.0006 -->
      <g style="fill:#262626;" transform="translate(6.360156 111.752179)scale(0.055 -0.055)">
       <use xlink:href="#DejaVuSans-48"/>
       <use x="63.623047" xlink:href="#DejaVuSans-46"/>
       <use x="95.410156" xlink:href="#DejaVuSans-48"/>
       <use x="159.033203" xlink:href="#DejaVuSans-48"/>
       <use x="222.65625" xlink:href="#DejaVuSans-48"/>
       <use x="286.279297" xlink:href="#DejaVuSans-54"/>
      </g>
     </g>
    </g>
    <g id="ytick_5">
     <g id="line2d_12">
      <path clip-path="url(#pcd62bfc5f8)" d="M 35.105 63.803582 
L 607.68 63.803582 
" style="fill:none;stroke:#ffffff;stroke-linecap:round;stroke-width:0.5;"/>
     </g>
     <g id="text_12">
      <!-- 0.0008 -->
      <g style="fill:#262626;" transform="translate(6.360156 65.893153)scale(0.055 -0.055)">
       <use xlink:href="#DejaVuSans-48"/>
       <use x="63.623047" xlink:href="#DejaVuSans-46"/>
       <use x="95.410156" xlink:href="#DejaVuSans-48"/>
       <use x="159.033203" xlink:href="#DejaVuSans-48"/>
       <use x="222.65625" xlink:href="#DejaVuSans-48"/>
       <use x="286.279297" xlink:href="#DejaVuSans-56"/>
      </g>
     </g>
    </g>
    <g id="ytick_6">
     <g id="line2d_13">
      <path clip-path="url(#pcd62bfc5f8)" d="M 35.105 17.944556 
L 607.68 17.944556 
" style="fill:none;stroke:#ffffff;stroke-linecap:round;stroke-width:0.5;"/>
     </g>
     <g id="text_13">
      <!-- 0.0010 -->
      <g style="fill:#262626;" transform="translate(6.360156 20.034127)scale(0.055 -0.055)">
       <use xlink:href="#DejaVuSans-48"/>
       <use x="63.623047" xlink:href="#DejaVuSans-46"/>
       <use x="95.410156" xlink:href="#DejaVuSans-48"/>
       <use x="159.033203" xlink:href="#DejaVuSans-48"/>
       <use x="222.65625" xlink:href="#DejaVuSans-49"/>
       <use x="286.279297" xlink:href="#DejaVuSans-48"/>
      </g>
     </g>
    </g>
   </g>
   <g id="line2d_14">
    <path clip-path="url(#pcd62bfc5f8)" d="M 61.131136 17.944556 
L 65.505277 17.944556 
L 69.879417 17.944556 
L 74.253558 17.944556 
L 78.627699 17.944556 
L 83.001839 17.944556 
L 87.37598 17.944556 
L 91.75012 17.944556 
L 96.124261 17.944556 
L 100.498401 17.944556 
L 104.872542 17.944556 
L 109.246683 39.764873 
L 113.620823 59.508712 
L 117.994964 77.373676 
L 122.369104 93.538564 
L 126.743245 108.16516 
L 131.117385 121.399851 
L 135.491526 133.375095 
L 139.865667 144.210743 
L 144.239807 154.015244 
L 148.613948 162.886722 
L 152.988088 170.913968 
L 157.362229 178.177321 
L 161.736369 184.749474 
L 166.11051 190.696204 
L 170.48465 196.077028 
L 174.858791 200.945798 
L 179.232932 205.351244 
L 183.607072 209.337457 
L 187.981213 212.944331 
L 192.355353 216.207965 
L 196.729494 219.161024 
L 201.103634 221.833062 
L 205.477775 224.250822 
L 209.851916 226.438502 
L 214.226056 228.417996 
L 218.600197 230.209117 
L 222.974337 231.82979 
L 227.348478 233.296236 
L 231.722618 234.623131 
L 236.096759 235.823755 
L 240.4709 236.910124 
L 244.84504 237.893112 
L 249.219181 238.782556 
L 253.593321 239.587359 
L 257.967462 240.315574 
L 262.341602 240.97449 
L 266.715743 241.570703 
L 271.089883 242.110178 
L 275.464024 242.598315 
L 279.838165 243.04 
L 284.212305 243.439653 
L 288.586446 243.801274 
L 292.960586 244.128482 
L 297.334727 244.424553 
L 301.708867 244.692448 
L 306.083008 244.93485 
L 310.457149 245.154184 
L 314.831289 245.352646 
L 319.20543 245.532222 
L 323.57957 245.694708 
L 327.953711 245.841733 
L 332.327851 245.974766 
L 336.701992 246.095139 
L 341.076133 246.204057 
L 345.450273 246.30261 
L 349.824414 246.391785 
L 354.198554 246.472473 
L 358.572695 246.545483 
L 362.946835 246.611546 
L 367.320976 246.671321 
L 371.695117 246.725408 
L 376.069257 246.774348 
L 380.443398 246.818631 
L 384.817538 246.8587 
L 389.191679 246.894956 
L 393.565819 246.927761 
L 397.93996 246.957445 
L 402.3141 246.984304 
L 406.688241 247.008607 
L 411.062382 247.030597 
L 415.436522 247.050494 
L 419.810663 247.068498 
L 424.184803 247.084789 
L 428.558944 247.09953 
L 432.933084 247.112867 
L 437.307225 247.124936 
L 441.681366 247.135856 
L 446.055506 247.145737 
L 450.429647 247.154677 
L 454.803787 247.162767 
L 459.177928 247.170087 
L 463.552068 247.17671 
L 467.926209 247.182703 
L 472.30035 247.188126 
L 476.67449 247.193033 
L 481.048631 247.197472 
L 485.422771 247.20149 
L 489.796912 247.205125 
L 494.171052 247.208414 
L 498.545193 247.21139 
L 502.919333 247.214083 
L 507.293474 247.216519 
L 511.667615 247.218724 
L 516.041755 247.220719 
L 520.415896 247.222524 
L 524.790036 247.224157 
L 529.164177 247.225635 
L 533.538317 247.226972 
L 537.912458 247.228182 
L 542.286599 247.229277 
L 546.660739 247.230268 
L 551.03488 247.231164 
L 555.40902 247.231975 
L 559.783161 247.232709 
L 564.157301 247.233373 
L 568.531442 247.233974 
L 572.905583 247.234517 
L 577.279723 247.235009 
L 581.653864 247.235455 
" style="fill:none;stroke:#4c72b0;stroke-linecap:round;stroke-width:0.75;"/>
   </g>
   <g id="line2d_15">
    <path clip-path="url(#pcd62bfc5f8)" d="M 61.131136 17.944556 
L 65.505277 17.944556 
L 69.879417 17.944556 
L 74.253558 17.944556 
L 78.627699 17.944556 
L 83.001839 17.944556 
L 87.37598 17.944556 
L 91.75012 17.944556 
L 96.124261 17.944556 
L 100.498401 17.944556 
L 104.872542 17.944556 
L 109.246683 29.127412 
L 113.620823 39.764873 
L 117.994964 49.883539 
L 122.369104 59.508712 
L 126.743245 68.66446 
L 131.117385 77.373676 
L 135.491526 85.658139 
L 139.865667 93.538564 
L 144.239807 101.034657 
L 148.613948 108.16516 
L 152.988088 114.947905 
L 157.362229 121.399851 
L 161.736369 127.537132 
L 166.11051 133.375095 
L 170.48465 138.928337 
L 174.858791 144.210743 
L 179.232932 149.235524 
L 183.607072 154.015244 
L 187.981213 158.561853 
L 192.355353 162.886722 
L 196.729494 167.000665 
L 201.103634 170.913968 
L 205.477775 174.636418 
L 209.851916 178.177321 
L 214.226056 181.545532 
L 218.600197 184.749474 
L 222.974337 187.797158 
L 227.348478 190.696204 
L 231.722618 193.453862 
L 236.096759 196.077028 
L 240.4709 198.57226 
L 244.84504 200.945798 
L 249.219181 203.203578 
L 253.593321 205.351244 
L 257.967462 207.394168 
L 262.341602 209.337457 
L 266.715743 211.18597 
L 271.089883 212.944331 
L 275.464024 214.616935 
L 279.838165 216.207965 
L 284.212305 217.7214 
L 288.586446 219.161024 
L 292.960586 220.530437 
L 297.334727 221.833062 
L 301.708867 223.072158 
L 306.083008 224.250822 
L 310.457149 225.372002 
L 314.831289 226.438502 
L 319.20543 227.452988 
L 323.57957 228.417996 
L 327.953711 229.335941 
L 332.327851 230.209117 
L 336.701992 231.039708 
L 341.076133 231.82979 
L 345.450273 232.58134 
L 349.824414 233.296236 
L 354.198554 233.976266 
L 358.572695 234.623131 
L 362.946835 235.238447 
L 367.320976 235.823755 
L 371.695117 236.380516 
L 376.069257 236.910124 
L 380.443398 237.413903 
L 384.817538 237.893112 
L 389.191679 238.34895 
L 393.565819 238.782556 
L 397.93996 239.195015 
L 402.3141 239.587359 
L 406.688241 239.960567 
L 411.062382 240.315574 
L 415.436522 240.653267 
L 419.810663 240.97449 
L 424.184803 241.280048 
L 428.558944 241.570703 
L 432.933084 241.847182 
L 437.307225 242.110178 
L 441.681366 242.360347 
L 446.055506 242.598315 
L 450.429647 242.824678 
L 454.803787 243.04 
L 459.177928 243.244821 
L 463.552068 243.439653 
L 467.926209 243.624983 
L 472.30035 243.801274 
L 476.67449 243.968968 
L 481.048631 244.128482 
L 485.422771 244.280218 
L 489.796912 244.424553 
L 494.171052 244.561848 
L 498.545193 244.692448 
L 502.919333 244.816678 
L 507.293474 244.93485 
L 511.667615 245.047258 
L 516.041755 245.154184 
L 520.415896 245.255895 
L 524.790036 245.352646 
L 529.164177 245.444678 
L 533.538317 245.532222 
L 537.912458 245.615496 
L 542.286599 245.694708 
L 546.660739 245.770058 
L 551.03488 245.841733 
L 555.40902 245.909912 
L 559.783161 245.974766 
L 564.157301 246.036457 
L 568.531442 246.095139 
L 572.905583 246.150959 
L 577.279723 246.204057 
L 581.653864 246.254565 
" style="fill:none;stroke:#dd8452;stroke-linecap:round;stroke-width:0.75;"/>
   </g>
   <g id="line2d_16">
    <path clip-path="url(#pcd62bfc5f8)" d="M 61.131136 17.944556 
L 65.505277 17.944556 
L 69.879417 17.944556 
L 74.253558 17.944556 
L 78.627699 17.944556 
L 83.001839 17.944556 
L 87.37598 17.944556 
L 91.75012 17.944556 
L 96.124261 17.944556 
L 100.498401 17.944556 
L 104.872542 17.944556 
L 109.246683 22.484904 
L 113.620823 26.935347 
L 117.994964 31.297665 
L 122.369104 35.573604 
L 126.743245 39.764873 
L 131.117385 43.87315 
L 135.491526 47.900077 
L 139.865667 51.847266 
L 144.239807 55.716295 
L 148.613948 59.508712 
L 152.988088 63.226034 
L 157.362229 66.869749 
L 161.736369 70.441313 
L 166.11051 73.942155 
L 170.48465 77.373676 
L 174.858791 80.737249 
L 179.232932 84.034218 
L 183.607072 87.265903 
L 187.981213 90.433596 
L 192.355353 93.538564 
L 196.729494 96.582051 
L 201.103634 99.565272 
L 205.477775 102.489421 
L 209.851916 105.355668 
L 214.226056 108.16516 
L 218.600197 110.91902 
L 222.974337 113.61835 
L 227.348478 116.26423 
L 231.722618 118.857718 
L 236.096759 121.399851 
L 240.4709 123.891647 
L 244.84504 126.334102 
L 249.219181 128.728193 
L 253.593321 131.074878 
L 257.967462 133.375095 
L 262.341602 135.629765 
L 266.715743 137.839789 
L 271.089883 140.006052 
L 275.464024 142.129421 
L 279.838165 144.210743 
L 284.212305 146.250853 
L 288.586446 148.250566 
L 292.960586 150.210682 
L 297.334727 152.131985 
L 301.708867 154.015244 
L 306.083008 155.861211 
L 310.457149 157.670626 
L 314.831289 159.444213 
L 319.20543 161.18268 
L 323.57957 162.886722 
L 327.953711 164.557023 
L 332.327851 166.194249 
L 336.701992 167.799057 
L 341.076133 169.372087 
L 345.450273 170.913968 
L 349.824414 172.425319 
L 354.198554 173.906743 
L 358.572695 175.358832 
L 362.946835 176.782168 
L 367.320976 178.177321 
L 371.695117 179.544847 
L 376.069257 180.885295 
L 380.443398 182.1992 
L 384.817538 183.487088 
L 389.191679 184.749474 
L 393.565819 185.986863 
L 397.93996 187.19975 
L 402.3141 188.388621 
L 406.688241 189.55395 
L 411.062382 190.696204 
L 415.436522 191.81584 
L 419.810663 192.913306 
L 424.184803 193.98904 
L 428.558944 195.043473 
L 432.933084 196.077028 
L 437.307225 197.090116 
L 441.681366 198.083144 
L 446.055506 199.056509 
L 450.429647 200.0106 
L 454.803787 200.945798 
L 459.177928 201.862479 
L 463.552068 202.761008 
L 467.926209 203.641745 
L 472.30035 204.505042 
L 476.67449 205.351244 
L 481.048631 206.180691 
L 485.422771 206.993714 
L 489.796912 207.790637 
L 494.171052 208.571781 
L 498.545193 209.337457 
L 502.919333 210.087971 
L 507.293474 210.823624 
L 511.667615 211.544711 
L 516.041755 212.251519 
L 520.415896 212.944331 
L 524.790036 213.623424 
L 529.164177 214.289071 
L 533.538317 214.941537 
L 537.912458 215.581083 
L 542.286599 216.207965 
L 546.660739 216.822435 
L 551.03488 217.424737 
L 555.40902 218.015112 
L 559.783161 218.593798 
L 564.157301 219.161024 
L 568.531442 219.717019 
L 572.905583 220.262004 
L 577.279723 220.796198 
L 581.653864 221.319814 
" style="fill:none;stroke:#55a868;stroke-linecap:round;stroke-width:0.75;"/>
   </g>
   <g id="line2d_17">
    <path clip-path="url(#pcd62bfc5f8)" d="M 61.131136 17.944545 
L 65.505277 18.001082 
L 69.879417 18.170532 
L 74.253558 18.452842 
L 78.627699 18.847666 
L 83.001839 19.354655 
L 87.37598 19.973249 
L 91.75012 20.702861 
L 96.124261 21.542798 
L 100.498401 22.492231 
L 104.872542 23.550187 
L 109.246683 24.715637 
L 113.620823 25.98746 
L 117.994964 27.364349 
L 122.369104 28.844983 
L 126.743245 30.427892 
L 131.117385 32.111502 
L 135.491526 33.894159 
L 139.865667 35.774126 
L 144.239807 37.749523 
L 148.613948 39.8184 
L 152.988088 41.978702 
L 157.362229 44.228334 
L 161.736369 46.565053 
L 166.11051 48.986551 
L 170.48465 51.490452 
L 174.858791 54.074286 
L 179.232932 56.735491 
L 183.607072 59.471438 
L 187.981213 62.27943 
L 192.355353 65.156706 
L 196.729494 68.100421 
L 201.103634 71.107667 
L 205.477775 74.17548 
L 209.851916 77.300831 
L 214.226056 80.480624 
L 218.600197 83.711735 
L 222.974337 86.99096 
L 227.348478 90.315098 
L 231.722618 93.680823 
L 236.096759 97.084854 
L 240.4709 100.5238 
L 244.84504 103.994298 
L 249.219181 107.492877 
L 253.593321 111.016134 
L 257.967462 114.560573 
L 262.341602 118.122709 
L 266.715743 121.698966 
L 271.089883 125.285888 
L 275.464024 128.879909 
L 279.838165 132.477481 
L 284.212305 136.07504 
L 288.586446 139.669048 
L 292.960586 143.255969 
L 297.334727 146.83226 
L 301.708867 150.394369 
L 306.083008 153.938801 
L 310.457149 157.462052 
L 314.831289 160.960651 
L 319.20543 164.431129 
L 323.57957 167.870115 
L 327.953711 171.274119 
L 332.327851 174.639858 
L 336.701992 177.963995 
L 341.076133 181.243228 
L 345.450273 184.474318 
L 349.824414 187.654144 
L 354.198554 190.779482 
L 358.572695 193.847292 
L 362.946835 196.854538 
L 367.320976 199.79822 
L 371.695117 202.675499 
L 376.069257 205.483521 
L 380.443398 208.219468 
L 384.817538 210.880653 
L 389.191679 213.464474 
L 393.565819 215.968374 
L 397.93996 218.389886 
L 402.3141 220.726607 
L 406.688241 222.976235 
L 411.062382 225.136556 
L 415.436522 227.205428 
L 419.810663 229.180821 
L 424.184803 231.060775 
L 428.558944 232.843432 
L 432.933084 234.527059 
L 437.307225 236.109964 
L 441.681366 237.590599 
L 446.055506 238.967495 
L 450.429647 240.239294 
L 454.803787 241.404748 
L 459.177928 242.462721 
L 463.552068 243.412137 
L 467.926209 244.252066 
L 472.30035 244.981696 
L 476.67449 245.600304 
L 481.048631 246.107268 
L 485.422771 246.502097 
L 489.796912 246.784387 
L 494.171052 246.953874 
L 498.545193 247.010392 
L 502.919333 247.010392 
L 507.293474 247.010392 
L 511.667615 247.010392 
L 516.041755 247.010392 
L 520.415896 247.010392 
L 524.790036 247.010392 
L 529.164177 247.010392 
L 533.538317 247.010392 
L 537.912458 247.010392 
L 542.286599 247.010392 
L 546.660739 247.010392 
L 551.03488 247.010392 
L 555.40902 247.010392 
L 559.783161 247.010392 
L 564.157301 247.010392 
L 568.531442 247.010392 
L 572.905583 247.010392 
L 577.279723 247.010392 
L 581.653864 247.010392 
" style="fill:none;stroke:#c44e52;stroke-linecap:round;stroke-width:0.75;"/>
   </g>
   <g id="line2d_18">
    <path clip-path="url(#pcd62bfc5f8)" d="M 61.131136 17.944556 
L 65.505277 17.944556 
L 69.879417 17.944556 
L 74.253558 17.944556 
L 78.627699 17.944545 
L 83.001839 29.297103 
L 87.37598 61.106212 
L 91.75012 107.071734 
L 96.124261 158.089609 
L 100.498401 204.055117 
L 104.872542 235.864219 
L 109.246683 132.580651 
L 113.620823 134.017734 
L 117.994964 138.25693 
L 122.369104 145.085653 
L 126.743245 154.161485 
L 131.117385 165.029343 
L 135.491526 177.144246 
L 139.865667 189.898711 
L 144.239807 202.653166 
L 148.613948 214.768083 
L 152.988088 225.635937 
L 157.362229 234.711763 
L 161.736369 241.540485 
L 166.11051 245.779677 
L 170.48465 189.898711 
L 174.858791 190.078905 
L 179.232932 190.617246 
L 183.607072 191.506956 
L 187.981213 192.736844 
L 192.355353 194.291438 
L 196.729494 196.151202 
L 201.103634 198.292738 
L 205.477775 200.689118 
L 209.851916 203.310206 
L 214.226056 206.12304 
L 218.600197 209.092261 
L 222.974337 212.180505 
L 227.348478 215.348943 
L 231.722618 218.557734 
L 236.096759 221.766524 
L 240.4709 224.934962 
L 244.84504 228.023206 
L 249.219181 230.99242 
L 253.593321 233.805255 
L 257.967462 236.426347 
L 262.341602 238.822722 
L 266.715743 240.964261 
L 271.089883 242.824021 
L 275.464024 244.378621 
L 279.838165 245.608511 
L 284.212305 246.498217 
L 288.586446 247.036555 
L 292.960586 218.557731 
L 297.334727 218.580273 
L 301.708867 218.647831 
L 306.083008 218.760191 
L 310.457149 218.917001 
L 314.831289 219.117766 
L 319.20543 219.361856 
L 323.57957 219.648501 
L 327.953711 219.9768 
L 332.327851 220.345719 
L 336.701992 220.754099 
L 341.076133 221.200653 
L 345.450273 221.683979 
L 349.824414 222.202555 
L 354.198554 222.754748 
L 358.572695 223.338824 
L 362.946835 223.952937 
L 367.320976 224.595169 
L 371.695117 225.263482 
L 376.069257 225.955788 
L 380.443398 226.669899 
L 384.817538 227.403577 
L 389.191679 228.154509 
L 393.565819 228.920325 
L 397.93996 229.698631 
L 402.3141 230.486962 
L 406.688241 231.28285 
L 411.062382 232.083781 
L 415.436522 232.887246 
L 419.810663 233.690709 
L 424.184803 234.49164 
L 428.558944 235.287528 
L 432.933084 236.075859 
L 437.307225 236.854164 
L 441.681366 237.619981 
L 446.055506 238.370913 
L 450.429647 239.104589 
L 454.803787 239.818698 
L 459.177928 240.511006 
L 463.552068 241.179321 
L 467.926209 241.821552 
L 472.30035 242.435666 
L 476.67449 243.01974 
L 481.048631 243.571937 
L 485.422771 244.090509 
L 489.796912 244.573835 
L 494.171052 245.020389 
L 498.545193 245.42877 
L 502.919333 245.797689 
L 507.293474 246.12599 
L 511.667615 246.412634 
L 516.041755 246.656721 
L 520.415896 246.857487 
L 524.790036 247.014296 
L 529.164177 247.126656 
L 533.538317 247.194214 
L 537.912458 232.887244 
L 542.286599 232.890064 
L 546.660739 232.898515 
L 551.03488 232.912596 
L 555.40902 232.932294 
L 559.783161 232.957593 
L 564.157301 232.988474 
L 568.531442 233.024914 
L 572.905583 233.066879 
L 577.279723 233.114342 
L 581.653864 233.167262 
" style="fill:none;stroke:#8172b3;stroke-linecap:round;stroke-width:0.75;"/>
   </g>
   <g id="line2d_19">
    <path clip-path="url(#pcd62bfc5f8)" d="M 170.48465 247.010392 
L 170.48465 189.898711 
" style="fill:none;stroke:#1a1a1a;stroke-dasharray:0.75,1.2375;stroke-dashoffset:0;stroke-width:0.75;"/>
   </g>
   <g id="line2d_20">
    <path clip-path="url(#pcd62bfc5f8)" d="M 61.131136 17.944556 
L 65.505277 17.944545 
L 69.879417 26.670706 
L 74.253558 51.520669 
L 78.627699 88.711314 
L 83.001839 132.580665 
L 87.37598 176.450002 
L 91.75012 213.640617 
L 96.124261 238.490614 
L 100.498401 132.580651 
L 104.872542 133.68201 
L 109.246683 136.943732 
L 113.620823 142.240496 
L 117.994964 149.36872 
L 122.369104 158.054513 
L 126.743245 167.964042 
L 131.117385 178.716518 
L 135.491526 189.898711 
L 139.865667 201.080901 
L 144.239807 211.83338 
L 148.613948 221.742917 
L 152.988088 230.428687 
L 157.362229 237.556926 
L 161.736369 242.853686 
L 166.11051 246.115409 
L 170.48465 189.898711 
L 174.858791 190.03671 
L 179.232932 190.449384 
L 183.607072 191.13275 
L 187.981213 192.080245 
L 192.355353 193.282725 
L 196.729494 194.728627 
L 201.103634 196.404005 
L 205.477775 198.292738 
L 209.851916 200.376637 
L 214.226056 202.635632 
L 218.600197 205.047964 
L 222.974337 207.590396 
L 227.348478 210.238458 
L 231.722618 212.966634 
L 236.096759 215.748657 
L 240.4709 218.557734 
L 244.84504 221.366809 
L 249.219181 224.148829 
L 253.593321 226.87701 
L 257.967462 229.525068 
L 262.341602 232.067504 
L 266.715743 234.479837 
L 271.089883 236.738824 
L 275.464024 238.822722 
L 279.838165 240.711459 
L 284.212305 242.386842 
L 288.586446 243.832738 
L 292.960586 245.035222 
L 297.334727 245.98271 
L 301.708867 246.666083 
L 306.083008 247.078756 
L 310.457149 218.557731 
L 314.831289 218.574991 
L 319.20543 218.626733 
L 323.57957 218.712826 
L 327.953711 218.833071 
L 332.327851 218.987169 
L 336.701992 219.174754 
L 341.076133 219.395377 
L 345.450273 219.648501 
L 349.824414 219.933517 
L 354.198554 220.249741 
L 358.572695 220.596411 
L 362.946835 220.97269 
L 367.320976 221.377672 
L 371.695117 221.810381 
L 376.069257 222.269776 
L 380.443398 222.754748 
L 384.817538 223.264133 
L 389.191679 223.796697 
L 393.565819 224.351164 
L 397.93996 224.926195 
L 402.3141 225.520403 
L 406.688241 226.132361 
L 411.062382 226.760588 
L 415.436522 227.403577 
L 419.810663 228.059777 
L 424.184803 228.727608 
L 428.558944 229.405457 
L 432.933084 230.091696 
L 437.307225 230.784666 
L 441.681366 231.482706 
L 446.055506 232.184128 
L 450.429647 232.887246 
L 454.803787 233.590361 
L 459.177928 234.291783 
L 463.552068 234.989822 
L 467.926209 235.682793 
L 472.30035 236.369031 
L 476.67449 237.046884 
L 481.048631 237.714713 
L 485.422771 238.370913 
L 489.796912 239.013901 
L 494.171052 239.642131 
L 498.545193 240.254087 
L 502.919333 240.848298 
L 507.293474 241.423327 
L 511.667615 241.977791 
L 516.041755 242.510358 
L 520.415896 243.01974 
L 524.790036 243.504715 
L 529.164177 243.964109 
L 533.538317 244.396819 
L 537.912458 244.8018 
L 542.286599 245.178078 
L 546.660739 245.524748 
L 551.03488 245.840971 
L 555.40902 246.12599 
L 559.783161 246.379113 
L 564.157301 246.599734 
L 568.531442 246.78732 
L 572.905583 246.94142 
L 577.279723 247.061662 
L 581.653864 247.147757 
" style="fill:none;stroke:#937860;stroke-linecap:round;stroke-width:0.75;"/>
   </g>
   <g id="line2d_21">
    <path clip-path="url(#pcd62bfc5f8)" d="M 61.131136 17.944556 
L 65.505277 17.944556 
L 69.879417 17.944556 
L 74.253558 17.944556 
L 78.627699 17.944556 
L 83.001839 17.944556 
L 87.37598 17.944556 
L 91.75012 17.944556 
L 96.124261 17.944556 
L 100.498401 17.944556 
L 104.872542 224.310174 
L 109.246683 224.310174 
L 113.620823 224.310174 
L 117.994964 224.310174 
L 122.369104 224.310174 
L 126.743245 224.310174 
L 131.117385 224.310174 
L 135.491526 224.310174 
L 139.865667 224.310174 
L 144.239807 224.310174 
L 148.613948 244.946736 
L 152.988088 244.946736 
L 157.362229 244.946736 
L 161.736369 244.946736 
L 166.11051 244.946736 
L 170.48465 244.946736 
L 174.858791 244.946736 
L 179.232932 244.946736 
L 183.607072 244.946736 
L 187.981213 244.946736 
L 192.355353 247.010392 
L 196.729494 247.010392 
L 201.103634 247.010392 
L 205.477775 247.010392 
L 209.851916 247.010392 
L 214.226056 247.010392 
L 218.600197 247.010392 
L 222.974337 247.010392 
L 227.348478 247.010392 
L 231.722618 247.010392 
L 236.096759 247.216757 
L 240.4709 247.216757 
L 244.84504 247.216757 
L 249.219181 247.216757 
L 253.593321 247.216757 
L 257.967462 247.216757 
L 262.341602 247.216757 
L 266.715743 247.216757 
L 271.089883 247.216757 
L 275.464024 247.216757 
L 279.838165 247.216757 
L 284.212305 247.216757 
L 288.586446 247.216757 
L 292.960586 247.216757 
L 297.334727 247.216757 
L 301.708867 247.216757 
L 306.083008 247.216757 
L 310.457149 247.216757 
L 314.831289 247.216757 
L 319.20543 247.216757 
L 323.57957 247.216757 
L 327.953711 247.216757 
L 332.327851 247.216757 
L 336.701992 247.216757 
L 341.076133 247.216757 
L 345.450273 247.216757 
L 349.824414 247.216757 
L 354.198554 247.216757 
L 358.572695 247.216757 
L 362.946835 247.216757 
L 367.320976 247.216757 
L 371.695117 247.216757 
L 376.069257 247.216757 
L 380.443398 247.216757 
L 384.817538 247.216757 
L 389.191679 247.216757 
L 393.565819 247.216757 
L 397.93996 247.216757 
L 402.3141 247.216757 
L 406.688241 247.216757 
L 411.062382 247.216757 
L 415.436522 247.216757 
L 419.810663 247.216757 
L 424.184803 247.216757 
L 428.558944 247.216757 
L 432.933084 247.216757 
L 437.307225 247.216757 
L 441.681366 247.216757 
L 446.055506 247.216757 
L 450.429647 247.216757 
L 454.803787 247.216757 
L 459.177928 247.216757 
L 463.552068 247.216757 
L 467.926209 247.216757 
L 472.30035 247.216757 
L 476.67449 247.216757 
L 481.048631 247.216757 
L 485.422771 247.216757 
L 489.796912 247.216757 
L 494.171052 247.216757 
L 498.545193 247.216757 
L 502.919333 247.216757 
L 507.293474 247.216757 
L 511.667615 247.216757 
L 516.041755 247.216757 
L 520.415896 247.216757 
L 524.790036 247.216757 
L 529.164177 247.216757 
L 533.538317 247.216757 
L 537.912458 247.216757 
L 542.286599 247.216757 
L 546.660739 247.216757 
L 551.03488 247.216757 
L 555.40902 247.216757 
L 559.783161 247.216757 
L 564.157301 247.216757 
L 568.531442 247.216757 
L 572.905583 247.216757 
L 577.279723 247.216757 
L 581.653864 247.216757 
" style="fill:none;stroke:#da8bc3;stroke-linecap:round;stroke-width:0.75;"/>
   </g>
   <g id="patch_3">
    <path d="M 35.105 258.7 
L 35.105 6.48 
" style="fill:none;stroke:#ffffff;stroke-linecap:square;stroke-linejoin:miter;stroke-width:0.625;"/>
   </g>
   <g id="patch_4">
    <path d="M 607.68 258.7 
L 607.68 6.48 
" style="fill:none;stroke:#ffffff;stroke-linecap:square;stroke-linejoin:miter;stroke-width:0.625;"/>
   </g>
   <g id="patch_5">
    <path d="M 35.105 258.7 
L 607.68 258.7 
" style="fill:none;stroke:#ffffff;stroke-linecap:square;stroke-linejoin:miter;stroke-width:0.625;"/>
   </g>
   <g id="patch_6">
    <path d="M 35.105 6.48 
L 607.68 6.48 
" style="fill:none;stroke:#ffffff;stroke-linecap:square;stroke-linejoin:miter;stroke-width:0.625;"/>
   </g>
   <g id="text_14">
    <!-- (25, 0.00025007498) -->
    <g style="fill:#262626;" transform="translate(170.48465 189.898711)scale(0.06 -0.06)">
     <defs>
      <path d="M 31 75.875 
Q 24.46875 64.65625 21.28125 53.65625 
Q 18.109375 42.671875 18.109375 31.390625 
Q 18.109375 20.125 21.3125 9.0625 
Q 24.515625 -2 31 -13.1875 
L 23.1875 -13.1875 
Q 15.875 -1.703125 12.234375 9.375 
Q 8.59375 20.453125 8.59375 31.390625 
Q 8.59375 42.28125 12.203125 53.3125 
Q 15.828125 64.359375 23.1875 75.875 
z
" id="DejaVuSans-40"/>
      <path d="M 10.796875 72.90625 
L 49.515625 72.90625 
L 49.515625 64.59375 
L 19.828125 64.59375 
L 19.828125 46.734375 
Q 21.96875 47.46875 24.109375 47.828125 
Q 26.265625 48.1875 28.421875 48.1875 
Q 40.625 48.1875 47.75 41.5 
Q 54.890625 34.8125 54.890625 23.390625 
Q 54.890625 11.625 47.5625 5.09375 
Q 40.234375 -1.421875 26.90625 -1.421875 
Q 22.3125 -1.421875 17.546875 -0.640625 
Q 12.796875 0.140625 7.71875 1.703125 
L 7.71875 11.625 
Q 12.109375 9.234375 16.796875 8.0625 
Q 21.484375 6.890625 26.703125 6.890625 
Q 35.15625 6.890625 40.078125 11.328125 
Q 45.015625 15.765625 45.015625 23.390625 
Q 45.015625 31 40.078125 35.4375 
Q 35.15625 39.890625 26.703125 39.890625 
Q 22.75 39.890625 18.8125 39.015625 
Q 14.890625 38.140625 10.796875 36.28125 
z
" id="DejaVuSans-53"/>
      <path d="M 11.71875 12.40625 
L 22.015625 12.40625 
L 22.015625 4 
L 14.015625 -11.625 
L 7.71875 -11.625 
L 11.71875 4 
z
" id="DejaVuSans-44"/>
      <path id="DejaVuSans-32"/>
      <path d="M 8.203125 72.90625 
L 55.078125 72.90625 
L 55.078125 68.703125 
L 28.609375 0 
L 18.3125 0 
L 43.21875 64.59375 
L 8.203125 64.59375 
z
" id="DejaVuSans-55"/>
      <path d="M 10.984375 1.515625 
L 10.984375 10.5 
Q 14.703125 8.734375 18.5 7.8125 
Q 22.3125 6.890625 25.984375 6.890625 
Q 35.75 6.890625 40.890625 13.453125 
Q 46.046875 20.015625 46.78125 33.40625 
Q 43.953125 29.203125 39.59375 26.953125 
Q 35.25 24.703125 29.984375 24.703125 
Q 19.046875 24.703125 12.671875 31.3125 
Q 6.296875 37.9375 6.296875 49.421875 
Q 6.296875 60.640625 12.9375 67.421875 
Q 19.578125 74.21875 30.609375 74.21875 
Q 43.265625 74.21875 49.921875 64.515625 
Q 56.59375 54.828125 56.59375 36.375 
Q 56.59375 19.140625 48.40625 8.859375 
Q 40.234375 -1.421875 26.421875 -1.421875 
Q 22.703125 -1.421875 18.890625 -0.6875 
Q 15.09375 0.046875 10.984375 1.515625 
z
M 30.609375 32.421875 
Q 37.25 32.421875 41.125 36.953125 
Q 45.015625 41.5 45.015625 49.421875 
Q 45.015625 57.28125 41.125 61.84375 
Q 37.25 66.40625 30.609375 66.40625 
Q 23.96875 66.40625 20.09375 61.84375 
Q 16.21875 57.28125 16.21875 49.421875 
Q 16.21875 41.5 20.09375 36.953125 
Q 23.96875 32.421875 30.609375 32.421875 
z
" id="DejaVuSans-57"/>
      <path d="M 8.015625 75.875 
L 15.828125 75.875 
Q 23.140625 64.359375 26.78125 53.3125 
Q 30.421875 42.28125 30.421875 31.390625 
Q 30.421875 20.453125 26.78125 9.375 
Q 23.140625 -1.703125 15.828125 -13.1875 
L 8.015625 -13.1875 
Q 14.5 -2 17.703125 9.0625 
Q 20.90625 20.125 20.90625 31.390625 
Q 20.90625 42.671875 17.703125 53.65625 
Q 14.5 64.65625 8.015625 75.875 
z
" id="DejaVuSans-41"/>
     </defs>
     <use xlink:href="#DejaVuSans-40"/>
     <use x="39.013672" xlink:href="#DejaVuSans-50"/>
     <use x="102.636719" xlink:href="#DejaVuSans-53"/>
     <use x="166.259766" xlink:href="#DejaVuSans-44"/>
     <use x="198.046875" xlink:href="#DejaVuSans-32"/>
     <use x="229.833984" xlink:href="#DejaVuSans-48"/>
     <use x="293.457031" xlink:href="#DejaVuSans-46"/>
     <use x="325.244141" xlink:href="#DejaVuSans-48"/>
     <use x="388.867188" xlink:href="#DejaVuSans-48"/>
     <use x="452.490234" xlink:href="#DejaVuSans-48"/>
     <use x="516.113281" xlink:href="#DejaVuSans-50"/>
     <use x="579.736328" xlink:href="#DejaVuSans-53"/>
     <use x="643.359375" xlink:href="#DejaVuSans-48"/>
     <use x="706.982422" xlink:href="#DejaVuSans-48"/>
     <use x="770.605469" xlink:href="#DejaVuSans-55"/>
     <use x="834.228516" xlink:href="#DejaVuSans-52"/>
     <use x="897.851562" xlink:href="#DejaVuSans-57"/>
     <use x="961.474609" xlink:href="#DejaVuSans-56"/>
     <use x="1025.097656" xlink:href="#DejaVuSans-41"/>
    </g>
   </g>
   <g id="legend_1">
    <g id="line2d_22">
     <path d="M 322.268672 13.684141 
L 333.268672 13.684141 
" style="fill:none;stroke:#4c72b0;stroke-linecap:round;stroke-width:0.75;"/>
    </g>
    <g id="line2d_23"/>
    <g id="text_15">
     <!-- lr=0.001, decay=0.1 -->
     <g style="fill:#262626;" transform="translate(337.668672 15.609141)scale(0.055 -0.055)">
      <defs>
       <path d="M 9.421875 75.984375 
L 18.40625 75.984375 
L 18.40625 0 
L 9.421875 0 
z
" id="DejaVuSans-108"/>
       <path d="M 41.109375 46.296875 
Q 39.59375 47.171875 37.8125 47.578125 
Q 36.03125 48 33.890625 48 
Q 26.265625 48 22.1875 43.046875 
Q 18.109375 38.09375 18.109375 28.8125 
L 18.109375 0 
L 9.078125 0 
L 9.078125 54.6875 
L 18.109375 54.6875 
L 18.109375 46.1875 
Q 20.953125 51.171875 25.484375 53.578125 
Q 30.03125 56 36.53125 56 
Q 37.453125 56 38.578125 55.875 
Q 39.703125 55.765625 41.0625 55.515625 
z
" id="DejaVuSans-114"/>
       <path d="M 10.59375 45.40625 
L 73.1875 45.40625 
L 73.1875 37.203125 
L 10.59375 37.203125 
z
M 10.59375 25.484375 
L 73.1875 25.484375 
L 73.1875 17.1875 
L 10.59375 17.1875 
z
" id="DejaVuSans-61"/>
       <path d="M 45.40625 46.390625 
L 45.40625 75.984375 
L 54.390625 75.984375 
L 54.390625 0 
L 45.40625 0 
L 45.40625 8.203125 
Q 42.578125 3.328125 38.25 0.953125 
Q 33.9375 -1.421875 27.875 -1.421875 
Q 17.96875 -1.421875 11.734375 6.484375 
Q 5.515625 14.40625 5.515625 27.296875 
Q 5.515625 40.1875 11.734375 48.09375 
Q 17.96875 56 27.875 56 
Q 33.9375 56 38.25 53.625 
Q 42.578125 51.265625 45.40625 46.390625 
z
M 14.796875 27.296875 
Q 14.796875 17.390625 18.875 11.75 
Q 22.953125 6.109375 30.078125 6.109375 
Q 37.203125 6.109375 41.296875 11.75 
Q 45.40625 17.390625 45.40625 27.296875 
Q 45.40625 37.203125 41.296875 42.84375 
Q 37.203125 48.484375 30.078125 48.484375 
Q 22.953125 48.484375 18.875 42.84375 
Q 14.796875 37.203125 14.796875 27.296875 
z
" id="DejaVuSans-100"/>
       <path d="M 56.203125 29.59375 
L 56.203125 25.203125 
L 14.890625 25.203125 
Q 15.484375 15.921875 20.484375 11.0625 
Q 25.484375 6.203125 34.421875 6.203125 
Q 39.59375 6.203125 44.453125 7.46875 
Q 49.3125 8.734375 54.109375 11.28125 
L 54.109375 2.78125 
Q 49.265625 0.734375 44.1875 -0.34375 
Q 39.109375 -1.421875 33.890625 -1.421875 
Q 20.796875 -1.421875 13.15625 6.1875 
Q 5.515625 13.8125 5.515625 26.8125 
Q 5.515625 40.234375 12.765625 48.109375 
Q 20.015625 56 32.328125 56 
Q 43.359375 56 49.78125 48.890625 
Q 56.203125 41.796875 56.203125 29.59375 
z
M 47.21875 32.234375 
Q 47.125 39.59375 43.09375 43.984375 
Q 39.0625 48.390625 32.421875 48.390625 
Q 24.90625 48.390625 20.390625 44.140625 
Q 15.875 39.890625 15.1875 32.171875 
z
" id="DejaVuSans-101"/>
       <path d="M 48.78125 52.59375 
L 48.78125 44.1875 
Q 44.96875 46.296875 41.140625 47.34375 
Q 37.3125 48.390625 33.40625 48.390625 
Q 24.65625 48.390625 19.8125 42.84375 
Q 14.984375 37.3125 14.984375 27.296875 
Q 14.984375 17.28125 19.8125 11.734375 
Q 24.65625 6.203125 33.40625 6.203125 
Q 37.3125 6.203125 41.140625 7.25 
Q 44.96875 8.296875 48.78125 10.40625 
L 48.78125 2.09375 
Q 45.015625 0.34375 40.984375 -0.53125 
Q 36.96875 -1.421875 32.421875 -1.421875 
Q 20.0625 -1.421875 12.78125 6.34375 
Q 5.515625 14.109375 5.515625 27.296875 
Q 5.515625 40.671875 12.859375 48.328125 
Q 20.21875 56 33.015625 56 
Q 37.15625 56 41.109375 55.140625 
Q 45.0625 54.296875 48.78125 52.59375 
z
" id="DejaVuSans-99"/>
       <path d="M 34.28125 27.484375 
Q 23.390625 27.484375 19.1875 25 
Q 14.984375 22.515625 14.984375 16.5 
Q 14.984375 11.71875 18.140625 8.90625 
Q 21.296875 6.109375 26.703125 6.109375 
Q 34.1875 6.109375 38.703125 11.40625 
Q 43.21875 16.703125 43.21875 25.484375 
L 43.21875 27.484375 
z
M 52.203125 31.203125 
L 52.203125 0 
L 43.21875 0 
L 43.21875 8.296875 
Q 40.140625 3.328125 35.546875 0.953125 
Q 30.953125 -1.421875 24.3125 -1.421875 
Q 15.921875 -1.421875 10.953125 3.296875 
Q 6 8.015625 6 15.921875 
Q 6 25.140625 12.171875 29.828125 
Q 18.359375 34.515625 30.609375 34.515625 
L 43.21875 34.515625 
L 43.21875 35.40625 
Q 43.21875 41.609375 39.140625 45 
Q 35.0625 48.390625 27.6875 48.390625 
Q 23 48.390625 18.546875 47.265625 
Q 14.109375 46.140625 10.015625 43.890625 
L 10.015625 52.203125 
Q 14.9375 54.109375 19.578125 55.046875 
Q 24.21875 56 28.609375 56 
Q 40.484375 56 46.34375 49.84375 
Q 52.203125 43.703125 52.203125 31.203125 
z
" id="DejaVuSans-97"/>
       <path d="M 32.171875 -5.078125 
Q 28.375 -14.84375 24.75 -17.8125 
Q 21.140625 -20.796875 15.09375 -20.796875 
L 7.90625 -20.796875 
L 7.90625 -13.28125 
L 13.1875 -13.28125 
Q 16.890625 -13.28125 18.9375 -11.515625 
Q 21 -9.765625 23.484375 -3.21875 
L 25.09375 0.875 
L 2.984375 54.6875 
L 12.5 54.6875 
L 29.59375 11.921875 
L 46.6875 54.6875 
L 56.203125 54.6875 
z
" id="DejaVuSans-121"/>
      </defs>
      <use xlink:href="#DejaVuSans-108"/>
      <use x="27.783203" xlink:href="#DejaVuSans-114"/>
      <use x="68.896484" xlink:href="#DejaVuSans-61"/>
      <use x="152.685547" xlink:href="#DejaVuSans-48"/>
      <use x="216.308594" xlink:href="#DejaVuSans-46"/>
      <use x="248.095703" xlink:href="#DejaVuSans-48"/>
      <use x="311.71875" xlink:href="#DejaVuSans-48"/>
      <use x="375.341797" xlink:href="#DejaVuSans-49"/>
      <use x="438.964844" xlink:href="#DejaVuSans-44"/>
      <use x="470.751953" xlink:href="#DejaVuSans-32"/>
      <use x="502.539062" xlink:href="#DejaVuSans-100"/>
      <use x="566.015625" xlink:href="#DejaVuSans-101"/>
      <use x="627.539062" xlink:href="#DejaVuSans-99"/>
      <use x="682.519531" xlink:href="#DejaVuSans-97"/>
      <use x="743.798828" xlink:href="#DejaVuSans-121"/>
      <use x="802.978516" xlink:href="#DejaVuSans-61"/>
      <use x="886.767578" xlink:href="#DejaVuSans-48"/>
      <use x="950.390625" xlink:href="#DejaVuSans-46"/>
      <use x="982.177734" xlink:href="#DejaVuSans-49"/>
     </g>
    </g>
    <g id="line2d_24">
     <path d="M 322.268672 21.757109 
L 333.268672 21.757109 
" style="fill:none;stroke:#dd8452;stroke-linecap:round;stroke-width:0.75;"/>
    </g>
    <g id="line2d_25"/>
    <g id="text_16">
     <!-- lr=0.001, decay=0.05 -->
     <g style="fill:#262626;" transform="translate(337.668672 23.682109)scale(0.055 -0.055)">
      <use xlink:href="#DejaVuSans-108"/>
      <use x="27.783203" xlink:href="#DejaVuSans-114"/>
      <use x="68.896484" xlink:href="#DejaVuSans-61"/>
      <use x="152.685547" xlink:href="#DejaVuSans-48"/>
      <use x="216.308594" xlink:href="#DejaVuSans-46"/>
      <use x="248.095703" xlink:href="#DejaVuSans-48"/>
      <use x="311.71875" xlink:href="#DejaVuSans-48"/>
      <use x="375.341797" xlink:href="#DejaVuSans-49"/>
      <use x="438.964844" xlink:href="#DejaVuSans-44"/>
      <use x="470.751953" xlink:href="#DejaVuSans-32"/>
      <use x="502.539062" xlink:href="#DejaVuSans-100"/>
      <use x="566.015625" xlink:href="#DejaVuSans-101"/>
      <use x="627.539062" xlink:href="#DejaVuSans-99"/>
      <use x="682.519531" xlink:href="#DejaVuSans-97"/>
      <use x="743.798828" xlink:href="#DejaVuSans-121"/>
      <use x="802.978516" xlink:href="#DejaVuSans-61"/>
      <use x="886.767578" xlink:href="#DejaVuSans-48"/>
      <use x="950.390625" xlink:href="#DejaVuSans-46"/>
      <use x="982.177734" xlink:href="#DejaVuSans-48"/>
      <use x="1045.800781" xlink:href="#DejaVuSans-53"/>
     </g>
    </g>
    <g id="line2d_26">
     <path d="M 322.268672 29.830078 
L 333.268672 29.830078 
" style="fill:none;stroke:#55a868;stroke-linecap:round;stroke-width:0.75;"/>
    </g>
    <g id="line2d_27"/>
    <g id="text_17">
     <!-- lr=0.001, decay=0.02 -->
     <g style="fill:#262626;" transform="translate(337.668672 31.755078)scale(0.055 -0.055)">
      <use xlink:href="#DejaVuSans-108"/>
      <use x="27.783203" xlink:href="#DejaVuSans-114"/>
      <use x="68.896484" xlink:href="#DejaVuSans-61"/>
      <use x="152.685547" xlink:href="#DejaVuSans-48"/>
      <use x="216.308594" xlink:href="#DejaVuSans-46"/>
      <use x="248.095703" xlink:href="#DejaVuSans-48"/>
      <use x="311.71875" xlink:href="#DejaVuSans-48"/>
      <use x="375.341797" xlink:href="#DejaVuSans-49"/>
      <use x="438.964844" xlink:href="#DejaVuSans-44"/>
      <use x="470.751953" xlink:href="#DejaVuSans-32"/>
      <use x="502.539062" xlink:href="#DejaVuSans-100"/>
      <use x="566.015625" xlink:href="#DejaVuSans-101"/>
      <use x="627.539062" xlink:href="#DejaVuSans-99"/>
      <use x="682.519531" xlink:href="#DejaVuSans-97"/>
      <use x="743.798828" xlink:href="#DejaVuSans-121"/>
      <use x="802.978516" xlink:href="#DejaVuSans-61"/>
      <use x="886.767578" xlink:href="#DejaVuSans-48"/>
      <use x="950.390625" xlink:href="#DejaVuSans-46"/>
      <use x="982.177734" xlink:href="#DejaVuSans-48"/>
      <use x="1045.800781" xlink:href="#DejaVuSans-50"/>
     </g>
    </g>
    <g id="line2d_28">
     <path d="M 322.268672 37.903047 
L 333.268672 37.903047 
" style="fill:none;stroke:#c44e52;stroke-linecap:round;stroke-width:0.75;"/>
    </g>
    <g id="line2d_29"/>
    <g id="text_18">
     <!-- Cosine, lr=0.001, decay_steps=100, min=1e-6 -->
     <g style="fill:#262626;" transform="translate(337.668672 39.828047)scale(0.055 -0.055)">
      <defs>
       <path d="M 64.40625 67.28125 
L 64.40625 56.890625 
Q 59.421875 61.53125 53.78125 63.8125 
Q 48.140625 66.109375 41.796875 66.109375 
Q 29.296875 66.109375 22.65625 58.46875 
Q 16.015625 50.828125 16.015625 36.375 
Q 16.015625 21.96875 22.65625 14.328125 
Q 29.296875 6.6875 41.796875 6.6875 
Q 48.140625 6.6875 53.78125 8.984375 
Q 59.421875 11.28125 64.40625 15.921875 
L 64.40625 5.609375 
Q 59.234375 2.09375 53.4375 0.328125 
Q 47.65625 -1.421875 41.21875 -1.421875 
Q 24.65625 -1.421875 15.125 8.703125 
Q 5.609375 18.84375 5.609375 36.375 
Q 5.609375 53.953125 15.125 64.078125 
Q 24.65625 74.21875 41.21875 74.21875 
Q 47.75 74.21875 53.53125 72.484375 
Q 59.328125 70.75 64.40625 67.28125 
z
" id="DejaVuSans-67"/>
       <path d="M 30.609375 48.390625 
Q 23.390625 48.390625 19.1875 42.75 
Q 14.984375 37.109375 14.984375 27.296875 
Q 14.984375 17.484375 19.15625 11.84375 
Q 23.34375 6.203125 30.609375 6.203125 
Q 37.796875 6.203125 41.984375 11.859375 
Q 46.1875 17.53125 46.1875 27.296875 
Q 46.1875 37.015625 41.984375 42.703125 
Q 37.796875 48.390625 30.609375 48.390625 
z
M 30.609375 56 
Q 42.328125 56 49.015625 48.375 
Q 55.71875 40.765625 55.71875 27.296875 
Q 55.71875 13.875 49.015625 6.21875 
Q 42.328125 -1.421875 30.609375 -1.421875 
Q 18.84375 -1.421875 12.171875 6.21875 
Q 5.515625 13.875 5.515625 27.296875 
Q 5.515625 40.765625 12.171875 48.375 
Q 18.84375 56 30.609375 56 
z
" id="DejaVuSans-111"/>
       <path d="M 44.28125 53.078125 
L 44.28125 44.578125 
Q 40.484375 46.53125 36.375 47.5 
Q 32.28125 48.484375 27.875 48.484375 
Q 21.1875 48.484375 17.84375 46.4375 
Q 14.5 44.390625 14.5 40.28125 
Q 14.5 37.15625 16.890625 35.375 
Q 19.28125 33.59375 26.515625 31.984375 
L 29.59375 31.296875 
Q 39.15625 29.25 43.1875 25.515625 
Q 47.21875 21.78125 47.21875 15.09375 
Q 47.21875 7.46875 41.1875 3.015625 
Q 35.15625 -1.421875 24.609375 -1.421875 
Q 20.21875 -1.421875 15.453125 -0.5625 
Q 10.6875 0.296875 5.421875 2 
L 5.421875 11.28125 
Q 10.40625 8.6875 15.234375 7.390625 
Q 20.0625 6.109375 24.8125 6.109375 
Q 31.15625 6.109375 34.5625 8.28125 
Q 37.984375 10.453125 37.984375 14.40625 
Q 37.984375 18.0625 35.515625 20.015625 
Q 33.0625 21.96875 24.703125 23.78125 
L 21.578125 24.515625 
Q 13.234375 26.265625 9.515625 29.90625 
Q 5.8125 33.546875 5.8125 39.890625 
Q 5.8125 47.609375 11.28125 51.796875 
Q 16.75 56 26.8125 56 
Q 31.78125 56 36.171875 55.265625 
Q 40.578125 54.546875 44.28125 53.078125 
z
" id="DejaVuSans-115"/>
       <path d="M 9.421875 54.6875 
L 18.40625 54.6875 
L 18.40625 0 
L 9.421875 0 
z
M 9.421875 75.984375 
L 18.40625 75.984375 
L 18.40625 64.59375 
L 9.421875 64.59375 
z
" id="DejaVuSans-105"/>
       <path d="M 54.890625 33.015625 
L 54.890625 0 
L 45.90625 0 
L 45.90625 32.71875 
Q 45.90625 40.484375 42.875 44.328125 
Q 39.84375 48.1875 33.796875 48.1875 
Q 26.515625 48.1875 22.3125 43.546875 
Q 18.109375 38.921875 18.109375 30.90625 
L 18.109375 0 
L 9.078125 0 
L 9.078125 54.6875 
L 18.109375 54.6875 
L 18.109375 46.1875 
Q 21.34375 51.125 25.703125 53.5625 
Q 30.078125 56 35.796875 56 
Q 45.21875 56 50.046875 50.171875 
Q 54.890625 44.34375 54.890625 33.015625 
z
" id="DejaVuSans-110"/>
       <path d="M 50.984375 -16.609375 
L 50.984375 -23.578125 
L -0.984375 -23.578125 
L -0.984375 -16.609375 
z
" id="DejaVuSans-95"/>
       <path d="M 18.3125 70.21875 
L 18.3125 54.6875 
L 36.8125 54.6875 
L 36.8125 47.703125 
L 18.3125 47.703125 
L 18.3125 18.015625 
Q 18.3125 11.328125 20.140625 9.421875 
Q 21.96875 7.515625 27.59375 7.515625 
L 36.8125 7.515625 
L 36.8125 0 
L 27.59375 0 
Q 17.1875 0 13.234375 3.875 
Q 9.28125 7.765625 9.28125 18.015625 
L 9.28125 47.703125 
L 2.6875 47.703125 
L 2.6875 54.6875 
L 9.28125 54.6875 
L 9.28125 70.21875 
z
" id="DejaVuSans-116"/>
       <path d="M 18.109375 8.203125 
L 18.109375 -20.796875 
L 9.078125 -20.796875 
L 9.078125 54.6875 
L 18.109375 54.6875 
L 18.109375 46.390625 
Q 20.953125 51.265625 25.265625 53.625 
Q 29.59375 56 35.59375 56 
Q 45.5625 56 51.78125 48.09375 
Q 58.015625 40.1875 58.015625 27.296875 
Q 58.015625 14.40625 51.78125 6.484375 
Q 45.5625 -1.421875 35.59375 -1.421875 
Q 29.59375 -1.421875 25.265625 0.953125 
Q 20.953125 3.328125 18.109375 8.203125 
z
M 48.6875 27.296875 
Q 48.6875 37.203125 44.609375 42.84375 
Q 40.53125 48.484375 33.40625 48.484375 
Q 26.265625 48.484375 22.1875 42.84375 
Q 18.109375 37.203125 18.109375 27.296875 
Q 18.109375 17.390625 22.1875 11.75 
Q 26.265625 6.109375 33.40625 6.109375 
Q 40.53125 6.109375 44.609375 11.75 
Q 48.6875 17.390625 48.6875 27.296875 
z
" id="DejaVuSans-112"/>
       <path d="M 52 44.1875 
Q 55.375 50.25 60.0625 53.125 
Q 64.75 56 71.09375 56 
Q 79.640625 56 84.28125 50.015625 
Q 88.921875 44.046875 88.921875 33.015625 
L 88.921875 0 
L 79.890625 0 
L 79.890625 32.71875 
Q 79.890625 40.578125 77.09375 44.375 
Q 74.3125 48.1875 68.609375 48.1875 
Q 61.625 48.1875 57.5625 43.546875 
Q 53.515625 38.921875 53.515625 30.90625 
L 53.515625 0 
L 44.484375 0 
L 44.484375 32.71875 
Q 44.484375 40.625 41.703125 44.40625 
Q 38.921875 48.1875 33.109375 48.1875 
Q 26.21875 48.1875 22.15625 43.53125 
Q 18.109375 38.875 18.109375 30.90625 
L 18.109375 0 
L 9.078125 0 
L 9.078125 54.6875 
L 18.109375 54.6875 
L 18.109375 46.1875 
Q 21.1875 51.21875 25.484375 53.609375 
Q 29.78125 56 35.6875 56 
Q 41.65625 56 45.828125 52.96875 
Q 50 49.953125 52 44.1875 
z
" id="DejaVuSans-109"/>
       <path d="M 4.890625 31.390625 
L 31.203125 31.390625 
L 31.203125 23.390625 
L 4.890625 23.390625 
z
" id="DejaVuSans-45"/>
      </defs>
      <use xlink:href="#DejaVuSans-67"/>
      <use x="69.824219" xlink:href="#DejaVuSans-111"/>
      <use x="131.005859" xlink:href="#DejaVuSans-115"/>
      <use x="183.105469" xlink:href="#DejaVuSans-105"/>
      <use x="210.888672" xlink:href="#DejaVuSans-110"/>
      <use x="274.267578" xlink:href="#DejaVuSans-101"/>
      <use x="335.791016" xlink:href="#DejaVuSans-44"/>
      <use x="367.578125" xlink:href="#DejaVuSans-32"/>
      <use x="399.365234" xlink:href="#DejaVuSans-108"/>
      <use x="427.148438" xlink:href="#DejaVuSans-114"/>
      <use x="468.261719" xlink:href="#DejaVuSans-61"/>
      <use x="552.050781" xlink:href="#DejaVuSans-48"/>
      <use x="615.673828" xlink:href="#DejaVuSans-46"/>
      <use x="647.460938" xlink:href="#DejaVuSans-48"/>
      <use x="711.083984" xlink:href="#DejaVuSans-48"/>
      <use x="774.707031" xlink:href="#DejaVuSans-49"/>
      <use x="838.330078" xlink:href="#DejaVuSans-44"/>
      <use x="870.117188" xlink:href="#DejaVuSans-32"/>
      <use x="901.904297" xlink:href="#DejaVuSans-100"/>
      <use x="965.380859" xlink:href="#DejaVuSans-101"/>
      <use x="1026.904297" xlink:href="#DejaVuSans-99"/>
      <use x="1081.884766" xlink:href="#DejaVuSans-97"/>
      <use x="1143.164062" xlink:href="#DejaVuSans-121"/>
      <use x="1202.34375" xlink:href="#DejaVuSans-95"/>
      <use x="1252.34375" xlink:href="#DejaVuSans-115"/>
      <use x="1304.443359" xlink:href="#DejaVuSans-116"/>
      <use x="1343.652344" xlink:href="#DejaVuSans-101"/>
      <use x="1405.175781" xlink:href="#DejaVuSans-112"/>
      <use x="1468.652344" xlink:href="#DejaVuSans-115"/>
      <use x="1520.751953" xlink:href="#DejaVuSans-61"/>
      <use x="1604.541016" xlink:href="#DejaVuSans-49"/>
      <use x="1668.164062" xlink:href="#DejaVuSans-48"/>
      <use x="1731.787109" xlink:href="#DejaVuSans-48"/>
      <use x="1795.410156" xlink:href="#DejaVuSans-44"/>
      <use x="1827.197266" xlink:href="#DejaVuSans-32"/>
      <use x="1858.984375" xlink:href="#DejaVuSans-109"/>
      <use x="1956.396484" xlink:href="#DejaVuSans-105"/>
      <use x="1984.179688" xlink:href="#DejaVuSans-110"/>
      <use x="2047.558594" xlink:href="#DejaVuSans-61"/>
      <use x="2131.347656" xlink:href="#DejaVuSans-49"/>
      <use x="2194.970703" xlink:href="#DejaVuSans-101"/>
      <use x="2256.494141" xlink:href="#DejaVuSans-45"/>
      <use x="2292.578125" xlink:href="#DejaVuSans-54"/>
     </g>
    </g>
    <g id="line2d_30">
     <path d="M 322.268672 46.128984 
L 333.268672 46.128984 
" style="fill:none;stroke:#8172b3;stroke-linecap:round;stroke-width:0.75;"/>
    </g>
    <g id="line2d_31"/>
    <g id="text_19">
     <!-- Cosine restart, lr=0.001, decay_steps=105000, on batch, min=1e-7, warmup=5000, restarts=4 -->
     <g style="fill:#262626;" transform="translate(337.668672 48.053984)scale(0.055 -0.055)">
      <defs>
       <path d="M 48.6875 27.296875 
Q 48.6875 37.203125 44.609375 42.84375 
Q 40.53125 48.484375 33.40625 48.484375 
Q 26.265625 48.484375 22.1875 42.84375 
Q 18.109375 37.203125 18.109375 27.296875 
Q 18.109375 17.390625 22.1875 11.75 
Q 26.265625 6.109375 33.40625 6.109375 
Q 40.53125 6.109375 44.609375 11.75 
Q 48.6875 17.390625 48.6875 27.296875 
z
M 18.109375 46.390625 
Q 20.953125 51.265625 25.265625 53.625 
Q 29.59375 56 35.59375 56 
Q 45.5625 56 51.78125 48.09375 
Q 58.015625 40.1875 58.015625 27.296875 
Q 58.015625 14.40625 51.78125 6.484375 
Q 45.5625 -1.421875 35.59375 -1.421875 
Q 29.59375 -1.421875 25.265625 0.953125 
Q 20.953125 3.328125 18.109375 8.203125 
L 18.109375 0 
L 9.078125 0 
L 9.078125 75.984375 
L 18.109375 75.984375 
z
" id="DejaVuSans-98"/>
       <path d="M 54.890625 33.015625 
L 54.890625 0 
L 45.90625 0 
L 45.90625 32.71875 
Q 45.90625 40.484375 42.875 44.328125 
Q 39.84375 48.1875 33.796875 48.1875 
Q 26.515625 48.1875 22.3125 43.546875 
Q 18.109375 38.921875 18.109375 30.90625 
L 18.109375 0 
L 9.078125 0 
L 9.078125 75.984375 
L 18.109375 75.984375 
L 18.109375 46.1875 
Q 21.34375 51.125 25.703125 53.5625 
Q 30.078125 56 35.796875 56 
Q 45.21875 56 50.046875 50.171875 
Q 54.890625 44.34375 54.890625 33.015625 
z
" id="DejaVuSans-104"/>
       <path d="M 4.203125 54.6875 
L 13.1875 54.6875 
L 24.421875 12.015625 
L 35.59375 54.6875 
L 46.1875 54.6875 
L 57.421875 12.015625 
L 68.609375 54.6875 
L 77.59375 54.6875 
L 63.28125 0 
L 52.6875 0 
L 40.921875 44.828125 
L 29.109375 0 
L 18.5 0 
z
" id="DejaVuSans-119"/>
       <path d="M 8.5 21.578125 
L 8.5 54.6875 
L 17.484375 54.6875 
L 17.484375 21.921875 
Q 17.484375 14.15625 20.5 10.265625 
Q 23.53125 6.390625 29.59375 6.390625 
Q 36.859375 6.390625 41.078125 11.03125 
Q 45.3125 15.671875 45.3125 23.6875 
L 45.3125 54.6875 
L 54.296875 54.6875 
L 54.296875 0 
L 45.3125 0 
L 45.3125 8.40625 
Q 42.046875 3.421875 37.71875 1 
Q 33.40625 -1.421875 27.6875 -1.421875 
Q 18.265625 -1.421875 13.375 4.4375 
Q 8.5 10.296875 8.5 21.578125 
z
M 31.109375 56 
z
" id="DejaVuSans-117"/>
      </defs>
      <use xlink:href="#DejaVuSans-67"/>
      <use x="69.824219" xlink:href="#DejaVuSans-111"/>
      <use x="131.005859" xlink:href="#DejaVuSans-115"/>
      <use x="183.105469" xlink:href="#DejaVuSans-105"/>
      <use x="210.888672" xlink:href="#DejaVuSans-110"/>
      <use x="274.267578" xlink:href="#DejaVuSans-101"/>
      <use x="335.791016" xlink:href="#DejaVuSans-32"/>
      <use x="367.578125" xlink:href="#DejaVuSans-114"/>
      <use x="406.441406" xlink:href="#DejaVuSans-101"/>
      <use x="467.964844" xlink:href="#DejaVuSans-115"/>
      <use x="520.064453" xlink:href="#DejaVuSans-116"/>
      <use x="559.273438" xlink:href="#DejaVuSans-97"/>
      <use x="620.552734" xlink:href="#DejaVuSans-114"/>
      <use x="661.666016" xlink:href="#DejaVuSans-116"/>
      <use x="700.875" xlink:href="#DejaVuSans-44"/>
      <use x="732.662109" xlink:href="#DejaVuSans-32"/>
      <use x="764.449219" xlink:href="#DejaVuSans-108"/>
      <use x="792.232422" xlink:href="#DejaVuSans-114"/>
      <use x="833.345703" xlink:href="#DejaVuSans-61"/>
      <use x="917.134766" xlink:href="#DejaVuSans-48"/>
      <use x="980.757812" xlink:href="#DejaVuSans-46"/>
      <use x="1012.544922" xlink:href="#DejaVuSans-48"/>
      <use x="1076.167969" xlink:href="#DejaVuSans-48"/>
      <use x="1139.791016" xlink:href="#DejaVuSans-49"/>
      <use x="1203.414062" xlink:href="#DejaVuSans-44"/>
      <use x="1235.201172" xlink:href="#DejaVuSans-32"/>
      <use x="1266.988281" xlink:href="#DejaVuSans-100"/>
      <use x="1330.464844" xlink:href="#DejaVuSans-101"/>
      <use x="1391.988281" xlink:href="#DejaVuSans-99"/>
      <use x="1446.96875" xlink:href="#DejaVuSans-97"/>
      <use x="1508.248047" xlink:href="#DejaVuSans-121"/>
      <use x="1567.427734" xlink:href="#DejaVuSans-95"/>
      <use x="1617.427734" xlink:href="#DejaVuSans-115"/>
      <use x="1669.527344" xlink:href="#DejaVuSans-116"/>
      <use x="1708.736328" xlink:href="#DejaVuSans-101"/>
      <use x="1770.259766" xlink:href="#DejaVuSans-112"/>
      <use x="1833.736328" xlink:href="#DejaVuSans-115"/>
      <use x="1885.835938" xlink:href="#DejaVuSans-61"/>
      <use x="1969.625" xlink:href="#DejaVuSans-49"/>
      <use x="2033.248047" xlink:href="#DejaVuSans-48"/>
      <use x="2096.871094" xlink:href="#DejaVuSans-53"/>
      <use x="2160.494141" xlink:href="#DejaVuSans-48"/>
      <use x="2224.117188" xlink:href="#DejaVuSans-48"/>
      <use x="2287.740234" xlink:href="#DejaVuSans-48"/>
      <use x="2351.363281" xlink:href="#DejaVuSans-44"/>
      <use x="2383.150391" xlink:href="#DejaVuSans-32"/>
      <use x="2414.9375" xlink:href="#DejaVuSans-111"/>
      <use x="2476.119141" xlink:href="#DejaVuSans-110"/>
      <use x="2539.498047" xlink:href="#DejaVuSans-32"/>
      <use x="2571.285156" xlink:href="#DejaVuSans-98"/>
      <use x="2634.761719" xlink:href="#DejaVuSans-97"/>
      <use x="2696.041016" xlink:href="#DejaVuSans-116"/>
      <use x="2735.25" xlink:href="#DejaVuSans-99"/>
      <use x="2790.230469" xlink:href="#DejaVuSans-104"/>
      <use x="2853.609375" xlink:href="#DejaVuSans-44"/>
      <use x="2885.396484" xlink:href="#DejaVuSans-32"/>
      <use x="2917.183594" xlink:href="#DejaVuSans-109"/>
      <use x="3014.595703" xlink:href="#DejaVuSans-105"/>
      <use x="3042.378906" xlink:href="#DejaVuSans-110"/>
      <use x="3105.757812" xlink:href="#DejaVuSans-61"/>
      <use x="3189.546875" xlink:href="#DejaVuSans-49"/>
      <use x="3253.169922" xlink:href="#DejaVuSans-101"/>
      <use x="3314.693359" xlink:href="#DejaVuSans-45"/>
      <use x="3350.777344" xlink:href="#DejaVuSans-55"/>
      <use x="3414.400391" xlink:href="#DejaVuSans-44"/>
      <use x="3446.1875" xlink:href="#DejaVuSans-32"/>
      <use x="3477.974609" xlink:href="#DejaVuSans-119"/>
      <use x="3559.761719" xlink:href="#DejaVuSans-97"/>
      <use x="3621.041016" xlink:href="#DejaVuSans-114"/>
      <use x="3660.404297" xlink:href="#DejaVuSans-109"/>
      <use x="3757.816406" xlink:href="#DejaVuSans-117"/>
      <use x="3821.195312" xlink:href="#DejaVuSans-112"/>
      <use x="3884.671875" xlink:href="#DejaVuSans-61"/>
      <use x="3968.460938" xlink:href="#DejaVuSans-53"/>
      <use x="4032.083984" xlink:href="#DejaVuSans-48"/>
      <use x="4095.707031" xlink:href="#DejaVuSans-48"/>
      <use x="4159.330078" xlink:href="#DejaVuSans-48"/>
      <use x="4222.953125" xlink:href="#DejaVuSans-44"/>
      <use x="4254.740234" xlink:href="#DejaVuSans-32"/>
      <use x="4286.527344" xlink:href="#DejaVuSans-114"/>
      <use x="4325.390625" xlink:href="#DejaVuSans-101"/>
      <use x="4386.914062" xlink:href="#DejaVuSans-115"/>
      <use x="4439.013672" xlink:href="#DejaVuSans-116"/>
      <use x="4478.222656" xlink:href="#DejaVuSans-97"/>
      <use x="4539.501953" xlink:href="#DejaVuSans-114"/>
      <use x="4580.615234" xlink:href="#DejaVuSans-116"/>
      <use x="4619.824219" xlink:href="#DejaVuSans-115"/>
      <use x="4671.923828" xlink:href="#DejaVuSans-61"/>
      <use x="4755.712891" xlink:href="#DejaVuSans-52"/>
     </g>
    </g>
    <g id="line2d_32">
     <path d="M 322.268672 54.354922 
L 333.268672 54.354922 
" style="fill:none;stroke:#937860;stroke-linecap:round;stroke-width:0.75;"/>
    </g>
    <g id="line2d_33"/>
    <g id="text_20">
     <!-- Cosine restart, lr=0.001, decay_steps=120, min=1e-7, warmup=1, restarts=4 -->
     <g style="fill:#262626;" transform="translate(337.668672 56.279922)scale(0.055 -0.055)">
      <use xlink:href="#DejaVuSans-67"/>
      <use x="69.824219" xlink:href="#DejaVuSans-111"/>
      <use x="131.005859" xlink:href="#DejaVuSans-115"/>
      <use x="183.105469" xlink:href="#DejaVuSans-105"/>
      <use x="210.888672" xlink:href="#DejaVuSans-110"/>
      <use x="274.267578" xlink:href="#DejaVuSans-101"/>
      <use x="335.791016" xlink:href="#DejaVuSans-32"/>
      <use x="367.578125" xlink:href="#DejaVuSans-114"/>
      <use x="406.441406" xlink:href="#DejaVuSans-101"/>
      <use x="467.964844" xlink:href="#DejaVuSans-115"/>
      <use x="520.064453" xlink:href="#DejaVuSans-116"/>
      <use x="559.273438" xlink:href="#DejaVuSans-97"/>
      <use x="620.552734" xlink:href="#DejaVuSans-114"/>
      <use x="661.666016" xlink:href="#DejaVuSans-116"/>
      <use x="700.875" xlink:href="#DejaVuSans-44"/>
      <use x="732.662109" xlink:href="#DejaVuSans-32"/>
      <use x="764.449219" xlink:href="#DejaVuSans-108"/>
      <use x="792.232422" xlink:href="#DejaVuSans-114"/>
      <use x="833.345703" xlink:href="#DejaVuSans-61"/>
      <use x="917.134766" xlink:href="#DejaVuSans-48"/>
      <use x="980.757812" xlink:href="#DejaVuSans-46"/>
      <use x="1012.544922" xlink:href="#DejaVuSans-48"/>
      <use x="1076.167969" xlink:href="#DejaVuSans-48"/>
      <use x="1139.791016" xlink:href="#DejaVuSans-49"/>
      <use x="1203.414062" xlink:href="#DejaVuSans-44"/>
      <use x="1235.201172" xlink:href="#DejaVuSans-32"/>
      <use x="1266.988281" xlink:href="#DejaVuSans-100"/>
      <use x="1330.464844" xlink:href="#DejaVuSans-101"/>
      <use x="1391.988281" xlink:href="#DejaVuSans-99"/>
      <use x="1446.96875" xlink:href="#DejaVuSans-97"/>
      <use x="1508.248047" xlink:href="#DejaVuSans-121"/>
      <use x="1567.427734" xlink:href="#DejaVuSans-95"/>
      <use x="1617.427734" xlink:href="#DejaVuSans-115"/>
      <use x="1669.527344" xlink:href="#DejaVuSans-116"/>
      <use x="1708.736328" xlink:href="#DejaVuSans-101"/>
      <use x="1770.259766" xlink:href="#DejaVuSans-112"/>
      <use x="1833.736328" xlink:href="#DejaVuSans-115"/>
      <use x="1885.835938" xlink:href="#DejaVuSans-61"/>
      <use x="1969.625" xlink:href="#DejaVuSans-49"/>
      <use x="2033.248047" xlink:href="#DejaVuSans-50"/>
      <use x="2096.871094" xlink:href="#DejaVuSans-48"/>
      <use x="2160.494141" xlink:href="#DejaVuSans-44"/>
      <use x="2192.28125" xlink:href="#DejaVuSans-32"/>
      <use x="2224.068359" xlink:href="#DejaVuSans-109"/>
      <use x="2321.480469" xlink:href="#DejaVuSans-105"/>
      <use x="2349.263672" xlink:href="#DejaVuSans-110"/>
      <use x="2412.642578" xlink:href="#DejaVuSans-61"/>
      <use x="2496.431641" xlink:href="#DejaVuSans-49"/>
      <use x="2560.054688" xlink:href="#DejaVuSans-101"/>
      <use x="2621.578125" xlink:href="#DejaVuSans-45"/>
      <use x="2657.662109" xlink:href="#DejaVuSans-55"/>
      <use x="2721.285156" xlink:href="#DejaVuSans-44"/>
      <use x="2753.072266" xlink:href="#DejaVuSans-32"/>
      <use x="2784.859375" xlink:href="#DejaVuSans-119"/>
      <use x="2866.646484" xlink:href="#DejaVuSans-97"/>
      <use x="2927.925781" xlink:href="#DejaVuSans-114"/>
      <use x="2967.289062" xlink:href="#DejaVuSans-109"/>
      <use x="3064.701172" xlink:href="#DejaVuSans-117"/>
      <use x="3128.080078" xlink:href="#DejaVuSans-112"/>
      <use x="3191.556641" xlink:href="#DejaVuSans-61"/>
      <use x="3275.345703" xlink:href="#DejaVuSans-49"/>
      <use x="3338.96875" xlink:href="#DejaVuSans-44"/>
      <use x="3370.755859" xlink:href="#DejaVuSans-32"/>
      <use x="3402.542969" xlink:href="#DejaVuSans-114"/>
      <use x="3441.40625" xlink:href="#DejaVuSans-101"/>
      <use x="3502.929688" xlink:href="#DejaVuSans-115"/>
      <use x="3555.029297" xlink:href="#DejaVuSans-116"/>
      <use x="3594.238281" xlink:href="#DejaVuSans-97"/>
      <use x="3655.517578" xlink:href="#DejaVuSans-114"/>
      <use x="3696.630859" xlink:href="#DejaVuSans-116"/>
      <use x="3735.839844" xlink:href="#DejaVuSans-115"/>
      <use x="3787.939453" xlink:href="#DejaVuSans-61"/>
      <use x="3871.728516" xlink:href="#DejaVuSans-52"/>
     </g>
    </g>
    <g id="line2d_34">
     <path d="M 322.268672 62.580859 
L 333.268672 62.580859 
" style="fill:none;stroke:#da8bc3;stroke-linecap:round;stroke-width:0.75;"/>
    </g>
    <g id="line2d_35"/>
    <g id="text_21">
     <!-- Constant, lr=0.001, decay_steps=[10, 20, 30, 40], decay_rate=0.1 -->
     <g style="fill:#262626;" transform="translate(337.668672 64.505859)scale(0.055 -0.055)">
      <defs>
       <path d="M 8.59375 75.984375 
L 29.296875 75.984375 
L 29.296875 69 
L 17.578125 69 
L 17.578125 -6.203125 
L 29.296875 -6.203125 
L 29.296875 -13.1875 
L 8.59375 -13.1875 
z
" id="DejaVuSans-91"/>
       <path d="M 40.578125 39.3125 
Q 47.65625 37.796875 51.625 33 
Q 55.609375 28.21875 55.609375 21.1875 
Q 55.609375 10.40625 48.1875 4.484375 
Q 40.765625 -1.421875 27.09375 -1.421875 
Q 22.515625 -1.421875 17.65625 -0.515625 
Q 12.796875 0.390625 7.625 2.203125 
L 7.625 11.71875 
Q 11.71875 9.328125 16.59375 8.109375 
Q 21.484375 6.890625 26.8125 6.890625 
Q 36.078125 6.890625 40.9375 10.546875 
Q 45.796875 14.203125 45.796875 21.1875 
Q 45.796875 27.640625 41.28125 31.265625 
Q 36.765625 34.90625 28.71875 34.90625 
L 20.21875 34.90625 
L 20.21875 43.015625 
L 29.109375 43.015625 
Q 36.375 43.015625 40.234375 45.921875 
Q 44.09375 48.828125 44.09375 54.296875 
Q 44.09375 59.90625 40.109375 62.90625 
Q 36.140625 65.921875 28.71875 65.921875 
Q 24.65625 65.921875 20.015625 65.03125 
Q 15.375 64.15625 9.8125 62.3125 
L 9.8125 71.09375 
Q 15.4375 72.65625 20.34375 73.4375 
Q 25.25 74.21875 29.59375 74.21875 
Q 40.828125 74.21875 47.359375 69.109375 
Q 53.90625 64.015625 53.90625 55.328125 
Q 53.90625 49.265625 50.4375 45.09375 
Q 46.96875 40.921875 40.578125 39.3125 
z
" id="DejaVuSans-51"/>
       <path d="M 30.421875 75.984375 
L 30.421875 -13.1875 
L 9.71875 -13.1875 
L 9.71875 -6.203125 
L 21.390625 -6.203125 
L 21.390625 69 
L 9.71875 69 
L 9.71875 75.984375 
z
" id="DejaVuSans-93"/>
      </defs>
      <use xlink:href="#DejaVuSans-67"/>
      <use x="69.824219" xlink:href="#DejaVuSans-111"/>
      <use x="131.005859" xlink:href="#DejaVuSans-110"/>
      <use x="194.384766" xlink:href="#DejaVuSans-115"/>
      <use x="246.484375" xlink:href="#DejaVuSans-116"/>
      <use x="285.693359" xlink:href="#DejaVuSans-97"/>
      <use x="346.972656" xlink:href="#DejaVuSans-110"/>
      <use x="410.351562" xlink:href="#DejaVuSans-116"/>
      <use x="449.560547" xlink:href="#DejaVuSans-44"/>
      <use x="481.347656" xlink:href="#DejaVuSans-32"/>
      <use x="513.134766" xlink:href="#DejaVuSans-108"/>
      <use x="540.917969" xlink:href="#DejaVuSans-114"/>
      <use x="582.03125" xlink:href="#DejaVuSans-61"/>
      <use x="665.820312" xlink:href="#DejaVuSans-48"/>
      <use x="729.443359" xlink:href="#DejaVuSans-46"/>
      <use x="761.230469" xlink:href="#DejaVuSans-48"/>
      <use x="824.853516" xlink:href="#DejaVuSans-48"/>
      <use x="888.476562" xlink:href="#DejaVuSans-49"/>
      <use x="952.099609" xlink:href="#DejaVuSans-44"/>
      <use x="983.886719" xlink:href="#DejaVuSans-32"/>
      <use x="1015.673828" xlink:href="#DejaVuSans-100"/>
      <use x="1079.150391" xlink:href="#DejaVuSans-101"/>
      <use x="1140.673828" xlink:href="#DejaVuSans-99"/>
      <use x="1195.654297" xlink:href="#DejaVuSans-97"/>
      <use x="1256.933594" xlink:href="#DejaVuSans-121"/>
      <use x="1316.113281" xlink:href="#DejaVuSans-95"/>
      <use x="1366.113281" xlink:href="#DejaVuSans-115"/>
      <use x="1418.212891" xlink:href="#DejaVuSans-116"/>
      <use x="1457.421875" xlink:href="#DejaVuSans-101"/>
      <use x="1518.945312" xlink:href="#DejaVuSans-112"/>
      <use x="1582.421875" xlink:href="#DejaVuSans-115"/>
      <use x="1634.521484" xlink:href="#DejaVuSans-61"/>
      <use x="1718.310547" xlink:href="#DejaVuSans-91"/>
      <use x="1757.324219" xlink:href="#DejaVuSans-49"/>
      <use x="1820.947266" xlink:href="#DejaVuSans-48"/>
      <use x="1884.570312" xlink:href="#DejaVuSans-44"/>
      <use x="1916.357422" xlink:href="#DejaVuSans-32"/>
      <use x="1948.144531" xlink:href="#DejaVuSans-50"/>
      <use x="2011.767578" xlink:href="#DejaVuSans-48"/>
      <use x="2075.390625" xlink:href="#DejaVuSans-44"/>
      <use x="2107.177734" xlink:href="#DejaVuSans-32"/>
      <use x="2138.964844" xlink:href="#DejaVuSans-51"/>
      <use x="2202.587891" xlink:href="#DejaVuSans-48"/>
      <use x="2266.210938" xlink:href="#DejaVuSans-44"/>
      <use x="2297.998047" xlink:href="#DejaVuSans-32"/>
      <use x="2329.785156" xlink:href="#DejaVuSans-52"/>
      <use x="2393.408203" xlink:href="#DejaVuSans-48"/>
      <use x="2457.03125" xlink:href="#DejaVuSans-93"/>
      <use x="2496.044922" xlink:href="#DejaVuSans-44"/>
      <use x="2527.832031" xlink:href="#DejaVuSans-32"/>
      <use x="2559.619141" xlink:href="#DejaVuSans-100"/>
      <use x="2623.095703" xlink:href="#DejaVuSans-101"/>
      <use x="2684.619141" xlink:href="#DejaVuSans-99"/>
      <use x="2739.599609" xlink:href="#DejaVuSans-97"/>
      <use x="2800.878906" xlink:href="#DejaVuSans-121"/>
      <use x="2860.058594" xlink:href="#DejaVuSans-95"/>
      <use x="2910.058594" xlink:href="#DejaVuSans-114"/>
      <use x="2951.171875" xlink:href="#DejaVuSans-97"/>
      <use x="3012.451172" xlink:href="#DejaVuSans-116"/>
      <use x="3051.660156" xlink:href="#DejaVuSans-101"/>
      <use x="3113.183594" xlink:href="#DejaVuSans-61"/>
      <use x="3196.972656" xlink:href="#DejaVuSans-48"/>
      <use x="3260.595703" xlink:href="#DejaVuSans-46"/>
      <use x="3292.382812" xlink:href="#DejaVuSans-49"/>
     </g>
    </g>
   </g>
  </g>
 </g>
 <defs>
  <clipPath id="pcd62bfc5f8">
   <rect height="252.22" width="572.575" x="35.105" y="6.48"/>
  </clipPath>
 </defs>
</svg>
