<?xml version="1.0" encoding="utf-8" standalone="no"?>
<!DOCTYPE svg PUBLIC "-//W3C//DTD SVG 1.1//EN"
  "http://www.w3.org/Graphics/SVG/1.1/DTD/svg11.dtd">
<!-- Created with matplotlib (https://matplotlib.org/) -->
<svg height="431.28pt" version="1.1" viewBox="0 0 1007.28 431.28" width="1007.28pt" xmlns="http://www.w3.org/2000/svg" xmlns:xlink="http://www.w3.org/1999/xlink">
 <metadata>
  <rdf:RDF xmlns:cc="http://creativecommons.org/ns#" xmlns:dc="http://purl.org/dc/elements/1.1/" xmlns:rdf="http://www.w3.org/1999/02/22-rdf-syntax-ns#">
   <cc:Work>
    <dc:type rdf:resource="http://purl.org/dc/dcmitype/StillImage"/>
    <dc:date>2021-03-01T20:23:46.455254</dc:date>
    <dc:format>image/svg+xml</dc:format>
    <dc:creator>
     <cc:Agent>
      <dc:title>Matplotlib v3.3.2, https://matplotlib.org/</dc:title>
     </cc:Agent>
    </dc:creator>
   </cc:Work>
  </rdf:RDF>
 </metadata>
 <defs>
  <style type="text/css">*{stroke-linecap:butt;stroke-linejoin:round;}</style>
 </defs>
 <g id="figure_1">
  <g id="patch_1">
   <path d="M 0 431.28 
L 1007.28 431.28 
L 1007.28 0 
L 0 0 
z
" style="fill:#ffffff;"/>
  </g>
  <g id="axes_1">
   <g id="patch_2">
    <path d="M 64.314126 394.281738 
L 987.377958 394.281738 
L 987.377958 12.9384 
L 64.314126 12.9384 
z
" style="fill:#eaeaf2;"/>
   </g>
   <g id="matplotlib.axis_1">
    <g id="xtick_1">
     <g id="line2d_1">
      <path clip-path="url(#p35b26cbf44)" d="M 64.314126 394.281738 
L 64.314126 12.9384 
" style="fill:none;stroke:#ffffff;stroke-linecap:round;"/>
     </g>
     <g id="text_1">
      <!-- 0 -->
      <g style="fill:#262626;" transform="translate(60.814751 415.64002)scale(0.11 -0.11)">
       <defs>
        <path d="M 31.78125 66.40625 
Q 24.171875 66.40625 20.328125 58.90625 
Q 16.5 51.421875 16.5 36.375 
Q 16.5 21.390625 20.328125 13.890625 
Q 24.171875 6.390625 31.78125 6.390625 
Q 39.453125 6.390625 43.28125 13.890625 
Q 47.125 21.390625 47.125 36.375 
Q 47.125 51.421875 43.28125 58.90625 
Q 39.453125 66.40625 31.78125 66.40625 
z
M 31.78125 74.21875 
Q 44.046875 74.21875 50.515625 64.515625 
Q 56.984375 54.828125 56.984375 36.375 
Q 56.984375 17.96875 50.515625 8.265625 
Q 44.046875 -1.421875 31.78125 -1.421875 
Q 19.53125 -1.421875 13.0625 8.265625 
Q 6.59375 17.96875 6.59375 36.375 
Q 6.59375 54.828125 13.0625 64.515625 
Q 19.53125 74.21875 31.78125 74.21875 
z
" id="DejaVuSans-48"/>
       </defs>
       <use xlink:href="#DejaVuSans-48"/>
      </g>
     </g>
    </g>
    <g id="xtick_2">
     <g id="line2d_2">
      <path clip-path="url(#p35b26cbf44)" d="M 218.158098 394.281738 
L 218.158098 12.9384 
" style="fill:none;stroke:#ffffff;stroke-linecap:round;"/>
     </g>
     <g id="text_2">
      <!-- 10 -->
      <g style="fill:#262626;" transform="translate(211.159348 415.64002)scale(0.11 -0.11)">
       <defs>
        <path d="M 12.40625 8.296875 
L 28.515625 8.296875 
L 28.515625 63.921875 
L 10.984375 60.40625 
L 10.984375 69.390625 
L 28.421875 72.90625 
L 38.28125 72.90625 
L 38.28125 8.296875 
L 54.390625 8.296875 
L 54.390625 0 
L 12.40625 0 
z
" id="DejaVuSans-49"/>
       </defs>
       <use xlink:href="#DejaVuSans-49"/>
       <use x="63.623047" xlink:href="#DejaVuSans-48"/>
      </g>
     </g>
    </g>
    <g id="xtick_3">
     <g id="line2d_3">
      <path clip-path="url(#p35b26cbf44)" d="M 372.00207 394.281738 
L 372.00207 12.9384 
" style="fill:none;stroke:#ffffff;stroke-linecap:round;"/>
     </g>
     <g id="text_3">
      <!-- 20 -->
      <g style="fill:#262626;" transform="translate(365.00332 415.64002)scale(0.11 -0.11)">
       <defs>
        <path d="M 19.1875 8.296875 
L 53.609375 8.296875 
L 53.609375 0 
L 7.328125 0 
L 7.328125 8.296875 
Q 12.9375 14.109375 22.625 23.890625 
Q 32.328125 33.6875 34.8125 36.53125 
Q 39.546875 41.84375 41.421875 45.53125 
Q 43.3125 49.21875 43.3125 52.78125 
Q 43.3125 58.59375 39.234375 62.25 
Q 35.15625 65.921875 28.609375 65.921875 
Q 23.96875 65.921875 18.8125 64.3125 
Q 13.671875 62.703125 7.8125 59.421875 
L 7.8125 69.390625 
Q 13.765625 71.78125 18.9375 73 
Q 24.125 74.21875 28.421875 74.21875 
Q 39.75 74.21875 46.484375 68.546875 
Q 53.21875 62.890625 53.21875 53.421875 
Q 53.21875 48.921875 51.53125 44.890625 
Q 49.859375 40.875 45.40625 35.40625 
Q 44.1875 33.984375 37.640625 27.21875 
Q 31.109375 20.453125 19.1875 8.296875 
z
" id="DejaVuSans-50"/>
       </defs>
       <use xlink:href="#DejaVuSans-50"/>
       <use x="63.623047" xlink:href="#DejaVuSans-48"/>
      </g>
     </g>
    </g>
    <g id="xtick_4">
     <g id="line2d_4">
      <path clip-path="url(#p35b26cbf44)" d="M 525.846042 394.281738 
L 525.846042 12.9384 
" style="fill:none;stroke:#ffffff;stroke-linecap:round;"/>
     </g>
     <g id="text_4">
      <!-- 30 -->
      <g style="fill:#262626;" transform="translate(518.847292 415.64002)scale(0.11 -0.11)">
       <defs>
        <path d="M 40.578125 39.3125 
Q 47.65625 37.796875 51.625 33 
Q 55.609375 28.21875 55.609375 21.1875 
Q 55.609375 10.40625 48.1875 4.484375 
Q 40.765625 -1.421875 27.09375 -1.421875 
Q 22.515625 -1.421875 17.65625 -0.515625 
Q 12.796875 0.390625 7.625 2.203125 
L 7.625 11.71875 
Q 11.71875 9.328125 16.59375 8.109375 
Q 21.484375 6.890625 26.8125 6.890625 
Q 36.078125 6.890625 40.9375 10.546875 
Q 45.796875 14.203125 45.796875 21.1875 
Q 45.796875 27.640625 41.28125 31.265625 
Q 36.765625 34.90625 28.71875 34.90625 
L 20.21875 34.90625 
L 20.21875 43.015625 
L 29.109375 43.015625 
Q 36.375 43.015625 40.234375 45.921875 
Q 44.09375 48.828125 44.09375 54.296875 
Q 44.09375 59.90625 40.109375 62.90625 
Q 36.140625 65.921875 28.71875 65.921875 
Q 24.65625 65.921875 20.015625 65.03125 
Q 15.375 64.15625 9.8125 62.3125 
L 9.8125 71.09375 
Q 15.4375 72.65625 20.34375 73.4375 
Q 25.25 74.21875 29.59375 74.21875 
Q 40.828125 74.21875 47.359375 69.109375 
Q 53.90625 64.015625 53.90625 55.328125 
Q 53.90625 49.265625 50.4375 45.09375 
Q 46.96875 40.921875 40.578125 39.3125 
z
" id="DejaVuSans-51"/>
       </defs>
       <use xlink:href="#DejaVuSans-51"/>
       <use x="63.623047" xlink:href="#DejaVuSans-48"/>
      </g>
     </g>
    </g>
    <g id="xtick_5">
     <g id="line2d_5">
      <path clip-path="url(#p35b26cbf44)" d="M 679.690014 394.281738 
L 679.690014 12.9384 
" style="fill:none;stroke:#ffffff;stroke-linecap:round;"/>
     </g>
     <g id="text_5">
      <!-- 40 -->
      <g style="fill:#262626;" transform="translate(672.691264 415.64002)scale(0.11 -0.11)">
       <defs>
        <path d="M 37.796875 64.3125 
L 12.890625 25.390625 
L 37.796875 25.390625 
z
M 35.203125 72.90625 
L 47.609375 72.90625 
L 47.609375 25.390625 
L 58.015625 25.390625 
L 58.015625 17.1875 
L 47.609375 17.1875 
L 47.609375 0 
L 37.796875 0 
L 37.796875 17.1875 
L 4.890625 17.1875 
L 4.890625 26.703125 
z
" id="DejaVuSans-52"/>
       </defs>
       <use xlink:href="#DejaVuSans-52"/>
       <use x="63.623047" xlink:href="#DejaVuSans-48"/>
      </g>
     </g>
    </g>
    <g id="xtick_6">
     <g id="line2d_6">
      <path clip-path="url(#p35b26cbf44)" d="M 833.533986 394.281738 
L 833.533986 12.9384 
" style="fill:none;stroke:#ffffff;stroke-linecap:round;"/>
     </g>
     <g id="text_6">
      <!-- 50 -->
      <g style="fill:#262626;" transform="translate(826.535236 415.64002)scale(0.11 -0.11)">
       <defs>
        <path d="M 10.796875 72.90625 
L 49.515625 72.90625 
L 49.515625 64.59375 
L 19.828125 64.59375 
L 19.828125 46.734375 
Q 21.96875 47.46875 24.109375 47.828125 
Q 26.265625 48.1875 28.421875 48.1875 
Q 40.625 48.1875 47.75 41.5 
Q 54.890625 34.8125 54.890625 23.390625 
Q 54.890625 11.625 47.5625 5.09375 
Q 40.234375 -1.421875 26.90625 -1.421875 
Q 22.3125 -1.421875 17.546875 -0.640625 
Q 12.796875 0.140625 7.71875 1.703125 
L 7.71875 11.625 
Q 12.109375 9.234375 16.796875 8.0625 
Q 21.484375 6.890625 26.703125 6.890625 
Q 35.15625 6.890625 40.078125 11.328125 
Q 45.015625 15.765625 45.015625 23.390625 
Q 45.015625 31 40.078125 35.4375 
Q 35.15625 39.890625 26.703125 39.890625 
Q 22.75 39.890625 18.8125 39.015625 
Q 14.890625 38.140625 10.796875 36.28125 
z
" id="DejaVuSans-53"/>
       </defs>
       <use xlink:href="#DejaVuSans-53"/>
       <use x="63.623047" xlink:href="#DejaVuSans-48"/>
      </g>
     </g>
    </g>
    <g id="xtick_7">
     <g id="line2d_7">
      <path clip-path="url(#p35b26cbf44)" d="M 987.377958 394.281738 
L 987.377958 12.9384 
" style="fill:none;stroke:#ffffff;stroke-linecap:round;"/>
     </g>
     <g id="text_7">
      <!-- 60 -->
      <g style="fill:#262626;" transform="translate(980.379208 415.64002)scale(0.11 -0.11)">
       <defs>
        <path d="M 33.015625 40.375 
Q 26.375 40.375 22.484375 35.828125 
Q 18.609375 31.296875 18.609375 23.390625 
Q 18.609375 15.53125 22.484375 10.953125 
Q 26.375 6.390625 33.015625 6.390625 
Q 39.65625 6.390625 43.53125 10.953125 
Q 47.40625 15.53125 47.40625 23.390625 
Q 47.40625 31.296875 43.53125 35.828125 
Q 39.65625 40.375 33.015625 40.375 
z
M 52.59375 71.296875 
L 52.59375 62.3125 
Q 48.875 64.0625 45.09375 64.984375 
Q 41.3125 65.921875 37.59375 65.921875 
Q 27.828125 65.921875 22.671875 59.328125 
Q 17.53125 52.734375 16.796875 39.40625 
Q 19.671875 43.65625 24.015625 45.921875 
Q 28.375 48.1875 33.59375 48.1875 
Q 44.578125 48.1875 50.953125 41.515625 
Q 57.328125 34.859375 57.328125 23.390625 
Q 57.328125 12.15625 50.6875 5.359375 
Q 44.046875 -1.421875 33.015625 -1.421875 
Q 20.359375 -1.421875 13.671875 8.265625 
Q 6.984375 17.96875 6.984375 36.375 
Q 6.984375 53.65625 15.1875 63.9375 
Q 23.390625 74.21875 37.203125 74.21875 
Q 40.921875 74.21875 44.703125 73.484375 
Q 48.484375 72.75 52.59375 71.296875 
z
" id="DejaVuSans-54"/>
       </defs>
       <use xlink:href="#DejaVuSans-54"/>
       <use x="63.623047" xlink:href="#DejaVuSans-48"/>
      </g>
     </g>
    </g>
   </g>
   <g id="matplotlib.axis_2">
    <g id="ytick_1">
     <g id="line2d_8">
      <path clip-path="url(#p35b26cbf44)" d="M 64.314126 376.982621 
L 987.377958 376.982621 
" style="fill:none;stroke:#ffffff;stroke-linecap:round;"/>
     </g>
     <g id="text_8">
      <!-- 0.0000 -->
      <g style="fill:#262626;" transform="translate(12.824439 381.161762)scale(0.11 -0.11)">
       <defs>
        <path d="M 10.6875 12.40625 
L 21 12.40625 
L 21 0 
L 10.6875 0 
z
" id="DejaVuSans-46"/>
       </defs>
       <use xlink:href="#DejaVuSans-48"/>
       <use x="63.623047" xlink:href="#DejaVuSans-46"/>
       <use x="95.410156" xlink:href="#DejaVuSans-48"/>
       <use x="159.033203" xlink:href="#DejaVuSans-48"/>
       <use x="222.65625" xlink:href="#DejaVuSans-48"/>
       <use x="286.279297" xlink:href="#DejaVuSans-48"/>
      </g>
     </g>
    </g>
    <g id="ytick_2">
     <g id="line2d_9">
      <path clip-path="url(#p35b26cbf44)" d="M 64.314126 307.640538 
L 987.377958 307.640538 
" style="fill:none;stroke:#ffffff;stroke-linecap:round;"/>
     </g>
     <g id="text_9">
      <!-- 0.0002 -->
      <g style="fill:#262626;" transform="translate(12.824439 311.819679)scale(0.11 -0.11)">
       <use xlink:href="#DejaVuSans-48"/>
       <use x="63.623047" xlink:href="#DejaVuSans-46"/>
       <use x="95.410156" xlink:href="#DejaVuSans-48"/>
       <use x="159.033203" xlink:href="#DejaVuSans-48"/>
       <use x="222.65625" xlink:href="#DejaVuSans-48"/>
       <use x="286.279297" xlink:href="#DejaVuSans-50"/>
      </g>
     </g>
    </g>
    <g id="ytick_3">
     <g id="line2d_10">
      <path clip-path="url(#p35b26cbf44)" d="M 64.314126 238.298455 
L 987.377958 238.298455 
" style="fill:none;stroke:#ffffff;stroke-linecap:round;"/>
     </g>
     <g id="text_10">
      <!-- 0.0004 -->
      <g style="fill:#262626;" transform="translate(12.824439 242.477595)scale(0.11 -0.11)">
       <use xlink:href="#DejaVuSans-48"/>
       <use x="63.623047" xlink:href="#DejaVuSans-46"/>
       <use x="95.410156" xlink:href="#DejaVuSans-48"/>
       <use x="159.033203" xlink:href="#DejaVuSans-48"/>
       <use x="222.65625" xlink:href="#DejaVuSans-48"/>
       <use x="286.279297" xlink:href="#DejaVuSans-52"/>
      </g>
     </g>
    </g>
    <g id="ytick_4">
     <g id="line2d_11">
      <path clip-path="url(#p35b26cbf44)" d="M 64.314126 168.956371 
L 987.377958 168.956371 
" style="fill:none;stroke:#ffffff;stroke-linecap:round;"/>
     </g>
     <g id="text_11">
      <!-- 0.0006 -->
      <g style="fill:#262626;" transform="translate(12.824439 173.135512)scale(0.11 -0.11)">
       <use xlink:href="#DejaVuSans-48"/>
       <use x="63.623047" xlink:href="#DejaVuSans-46"/>
       <use x="95.410156" xlink:href="#DejaVuSans-48"/>
       <use x="159.033203" xlink:href="#DejaVuSans-48"/>
       <use x="222.65625" xlink:href="#DejaVuSans-48"/>
       <use x="286.279297" xlink:href="#DejaVuSans-54"/>
      </g>
     </g>
    </g>
    <g id="ytick_5">
     <g id="line2d_12">
      <path clip-path="url(#p35b26cbf44)" d="M 64.314126 99.614288 
L 987.377958 99.614288 
" style="fill:none;stroke:#ffffff;stroke-linecap:round;"/>
     </g>
     <g id="text_12">
      <!-- 0.0008 -->
      <g style="fill:#262626;" transform="translate(12.824439 103.793429)scale(0.11 -0.11)">
       <defs>
        <path d="M 31.78125 34.625 
Q 24.75 34.625 20.71875 30.859375 
Q 16.703125 27.09375 16.703125 20.515625 
Q 16.703125 13.921875 20.71875 10.15625 
Q 24.75 6.390625 31.78125 6.390625 
Q 38.8125 6.390625 42.859375 10.171875 
Q 46.921875 13.96875 46.921875 20.515625 
Q 46.921875 27.09375 42.890625 30.859375 
Q 38.875 34.625 31.78125 34.625 
z
M 21.921875 38.8125 
Q 15.578125 40.375 12.03125 44.71875 
Q 8.5 49.078125 8.5 55.328125 
Q 8.5 64.0625 14.71875 69.140625 
Q 20.953125 74.21875 31.78125 74.21875 
Q 42.671875 74.21875 48.875 69.140625 
Q 55.078125 64.0625 55.078125 55.328125 
Q 55.078125 49.078125 51.53125 44.71875 
Q 48 40.375 41.703125 38.8125 
Q 48.828125 37.15625 52.796875 32.3125 
Q 56.78125 27.484375 56.78125 20.515625 
Q 56.78125 9.90625 50.3125 4.234375 
Q 43.84375 -1.421875 31.78125 -1.421875 
Q 19.734375 -1.421875 13.25 4.234375 
Q 6.78125 9.90625 6.78125 20.515625 
Q 6.78125 27.484375 10.78125 32.3125 
Q 14.796875 37.15625 21.921875 38.8125 
z
M 18.3125 54.390625 
Q 18.3125 48.734375 21.84375 45.5625 
Q 25.390625 42.390625 31.78125 42.390625 
Q 38.140625 42.390625 41.71875 45.5625 
Q 45.3125 48.734375 45.3125 54.390625 
Q 45.3125 60.0625 41.71875 63.234375 
Q 38.140625 66.40625 31.78125 66.40625 
Q 25.390625 66.40625 21.84375 63.234375 
Q 18.3125 60.0625 18.3125 54.390625 
z
" id="DejaVuSans-56"/>
       </defs>
       <use xlink:href="#DejaVuSans-48"/>
       <use x="63.623047" xlink:href="#DejaVuSans-46"/>
       <use x="95.410156" xlink:href="#DejaVuSans-48"/>
       <use x="159.033203" xlink:href="#DejaVuSans-48"/>
       <use x="222.65625" xlink:href="#DejaVuSans-48"/>
       <use x="286.279297" xlink:href="#DejaVuSans-56"/>
      </g>
     </g>
    </g>
    <g id="ytick_6">
     <g id="line2d_13">
      <path clip-path="url(#p35b26cbf44)" d="M 64.314126 30.272205 
L 987.377958 30.272205 
" style="fill:none;stroke:#ffffff;stroke-linecap:round;"/>
     </g>
     <g id="text_13">
      <!-- 0.0010 -->
      <g style="fill:#262626;" transform="translate(12.824439 34.451345)scale(0.11 -0.11)">
       <use xlink:href="#DejaVuSans-48"/>
       <use x="63.623047" xlink:href="#DejaVuSans-46"/>
       <use x="95.410156" xlink:href="#DejaVuSans-48"/>
       <use x="159.033203" xlink:href="#DejaVuSans-48"/>
       <use x="222.65625" xlink:href="#DejaVuSans-49"/>
       <use x="286.279297" xlink:href="#DejaVuSans-48"/>
      </g>
     </g>
    </g>
   </g>
   <g id="PathCollection_1">
    <defs>
     <path d="M 0 3 
C 0.795609 3 1.55874 2.683901 2.12132 2.12132 
C 2.683901 1.55874 3 0.795609 3 0 
C 3 -0.795609 2.683901 -1.55874 2.12132 -2.12132 
C 1.55874 -2.683901 0.795609 -3 0 -3 
C -0.795609 -3 -1.55874 -2.683901 -2.12132 -2.12132 
C -2.683901 -1.55874 -3 -0.795609 -3 0 
C -3 0.795609 -2.683901 1.55874 -2.12132 2.12132 
C -1.55874 2.683901 -0.795609 3 0 3 
z
" id="m11512aa4e4" style="stroke:#c44e52;"/>
    </defs>
    <g clip-path="url(#p35b26cbf44)">
     <use style="fill:#c44e52;stroke:#c44e52;" x="464.308453" xlink:href="#m11512aa4e4" y="238.298455"/>
    </g>
   </g>
   <g id="PathCollection_2">
    <g clip-path="url(#p35b26cbf44)">
     <use style="fill:#c44e52;stroke:#c44e52;" x="464.308453" xlink:href="#m11512aa4e4" y="203.627413"/>
    </g>
   </g>
   <g id="line2d_14">
    <path clip-path="url(#p35b26cbf44)" d="M 64.314126 30.272205 
L 79.698523 30.272205 
L 95.082921 30.272205 
L 110.467318 30.272205 
L 125.851715 30.272205 
L 141.236112 30.272205 
L 156.620509 30.272205 
L 172.004907 30.272205 
L 187.389304 30.272205 
L 202.773701 30.272205 
L 218.158098 30.272205 
L 233.542495 63.266063 
L 248.926893 93.120141 
L 264.31129 120.133227 
L 279.695687 144.575679 
L 295.080084 166.692124 
L 310.464481 186.70391 
L 325.848879 204.811324 
L 341.233276 221.195589 
L 356.617673 236.020685 
L 372.00207 249.434987 
L 387.386467 261.572749 
L 402.770865 272.555451 
L 418.155262 282.49301 
L 433.539659 291.484885 
L 448.924056 299.621071 
L 464.308453 306.982996 
L 479.692851 313.644341 
L 495.077248 319.671775 
L 510.461645 325.125623 
L 525.846042 330.060469 
L 541.230439 334.525702 
L 556.614837 338.566012 
L 571.999234 342.221836 
L 587.383631 345.529762 
L 602.768028 348.522897 
L 618.152425 351.231198 
L 633.536823 353.68177 
L 648.92122 355.899139 
L 664.305617 357.905498 
L 679.690014 359.720926 
L 695.074411 361.363594 
L 710.458809 362.849941 
L 725.843206 364.194843 
L 741.227603 365.411761 
L 756.612 366.512874 
L 771.996397 367.509202 
L 787.380795 368.410717 
L 802.765192 369.226442 
L 818.149589 369.96454 
L 833.533986 370.632399 
L 848.918383 371.236702 
L 864.302781 371.783499 
L 879.687178 372.278261 
L 895.071575 372.72594 
L 910.455972 373.131017 
L 925.840369 373.497545 
L 941.224767 373.829194 
L 956.609164 374.129282 
L 971.993561 374.400813 
" style="fill:none;stroke:#4c72b0;stroke-linecap:round;stroke-width:1.5;"/>
   </g>
   <g id="line2d_15">
    <path clip-path="url(#p35b26cbf44)" d="M 64.314126 30.272205 
L 79.698523 30.272205 
L 95.082921 30.272205 
L 110.467318 30.272205 
L 125.851715 30.272205 
L 141.236112 30.272205 
L 156.620509 30.272205 
L 172.004907 30.272205 
L 187.389304 30.272205 
L 202.773701 30.272205 
L 218.158098 30.272205 
L 233.542495 47.181471 
L 248.926893 63.266063 
L 264.31129 78.5662 
L 279.695687 93.120141 
L 295.080084 106.964277 
L 310.464481 120.133227 
L 325.848879 132.65992 
L 341.233276 144.575679 
L 356.617673 155.910299 
L 372.00207 166.692124 
L 387.386467 176.948112 
L 402.770865 186.70391 
L 418.155262 195.983913 
L 433.539659 204.811324 
L 448.924056 213.208217 
L 464.308453 221.195589 
L 479.692851 228.793412 
L 495.077248 236.020685 
L 510.461645 242.89548 
L 525.846042 249.434987 
L 541.230439 255.655559 
L 556.614837 261.572749 
L 571.999234 267.201355 
L 587.383631 272.555451 
L 602.768028 277.648424 
L 618.152425 282.49301 
L 633.536823 287.101323 
L 648.92122 291.484885 
L 664.305617 295.654659 
L 679.690014 299.621071 
L 695.074411 303.394038 
L 710.458809 306.982996 
L 725.843206 310.396918 
L 741.227603 313.644341 
L 756.612 316.733385 
L 771.996397 319.671775 
L 787.380795 322.466858 
L 802.765192 325.125623 
L 818.149589 327.654719 
L 833.533986 330.060469 
L 848.918383 332.348889 
L 864.302781 334.525702 
L 879.687178 336.596351 
L 895.071575 338.566012 
L 910.455972 340.439612 
L 925.840369 342.221836 
L 941.224767 343.917139 
L 956.609164 345.529762 
L 971.993561 347.063736 
" style="fill:none;stroke:#dd8452;stroke-linecap:round;stroke-width:1.5;"/>
   </g>
   <g id="line2d_16">
    <path clip-path="url(#p35b26cbf44)" d="M 64.314126 30.272205 
L 79.698523 30.272205 
L 95.082921 30.272205 
L 110.467318 30.272205 
L 125.851715 30.272205 
L 141.236112 30.272205 
L 156.620509 30.272205 
L 172.004907 30.272205 
L 187.389304 30.272205 
L 202.773701 30.272205 
L 218.158098 342.31158 
L 233.542495 342.31158 
L 248.926893 342.31158 
L 264.31129 342.31158 
L 279.695687 342.31158 
L 295.080084 342.31158 
L 310.464481 342.31158 
L 325.848879 342.31158 
L 341.233276 342.31158 
L 356.617673 342.31158 
L 372.00207 373.515517 
L 387.386467 373.515517 
L 402.770865 373.515517 
L 418.155262 373.515517 
L 433.539659 373.515517 
L 448.924056 373.515517 
L 464.308453 373.515517 
L 479.692851 373.515517 
L 495.077248 373.515517 
L 510.461645 373.515517 
L 525.846042 376.635911 
L 541.230439 376.635911 
L 556.614837 376.635911 
L 571.999234 376.635911 
L 587.383631 376.635911 
L 602.768028 376.635911 
L 618.152425 376.635911 
L 633.536823 376.635911 
L 648.92122 376.635911 
L 664.305617 376.635911 
L 679.690014 376.94795 
L 695.074411 376.94795 
L 710.458809 376.94795 
L 725.843206 376.94795 
L 741.227603 376.94795 
L 756.612 376.94795 
L 771.996397 376.94795 
L 787.380795 376.94795 
L 802.765192 376.94795 
L 818.149589 376.94795 
L 833.533986 376.94795 
L 848.918383 376.94795 
L 864.302781 376.94795 
L 879.687178 376.94795 
L 895.071575 376.94795 
L 910.455972 376.94795 
L 925.840369 376.94795 
L 941.224767 376.94795 
L 956.609164 376.94795 
L 971.993561 376.94795 
" style="fill:none;stroke:#55a868;stroke-linecap:round;stroke-width:1.5;"/>
   </g>
   <g id="line2d_17">
    <path clip-path="url(#p35b26cbf44)" d="M 64.314126 30.272188 
L 79.544679 30.272188 
L 79.698523 30.613896 
L 94.929077 30.613896 
L 95.082921 31.637769 
L 110.313474 31.637769 
L 110.467318 33.339731 
L 125.697871 33.339731 
L 125.851715 35.713 
L 141.082268 35.713 
L 141.236112 38.748313 
L 156.466665 38.748313 
L 156.620509 42.433643 
L 171.851063 42.433643 
L 172.004907 46.754418 
L 187.23546 46.754418 
L 187.389304 51.693626 
L 202.619857 51.693626 
L 202.773701 57.231772 
L 218.004254 57.231772 
L 218.158098 63.346999 
L 233.388651 63.346999 
L 233.542495 70.015131 
L 248.773049 70.015131 
L 248.926893 77.209891 
L 264.157446 77.209891 
L 264.31129 84.902905 
L 279.541843 84.902905 
L 279.695687 93.063779 
L 294.92624 93.063779 
L 295.080084 101.660306 
L 310.310637 101.660306 
L 310.464481 110.658579 
L 325.695035 110.658579 
L 325.848879 120.023081 
L 341.079432 120.023081 
L 341.233276 129.716819 
L 356.463829 129.716819 
L 356.617673 139.701569 
L 371.848226 139.701569 
L 372.00207 149.937919 
L 387.232623 149.937919 
L 387.386467 160.385486 
L 402.617021 160.385486 
L 402.770865 171.002998 
L 418.001418 171.002998 
L 418.155262 181.74864 
L 433.385815 181.74864 
L 433.539659 192.579872 
L 448.770212 192.579872 
L 448.924056 203.454068 
L 464.154609 203.454068 
L 464.308453 214.328225 
L 479.539007 214.328225 
L 479.692851 225.159507 
L 494.923404 225.159507 
L 495.077248 235.905099 
L 510.307801 235.905099 
L 510.461645 246.522631 
L 525.692198 246.522631 
L 525.846042 256.970228 
L 541.076595 256.970228 
L 541.230439 267.206557 
L 556.460993 267.206557 
L 556.614837 277.191318 
L 571.84539 277.191318 
L 571.999234 286.885076 
L 587.229787 286.885076 
L 587.383631 296.249553 
L 602.614184 296.249553 
L 602.768028 305.247776 
L 617.998581 305.247776 
L 618.152425 313.844352 
L 633.382979 313.844352 
L 633.536823 322.005197 
L 648.767376 322.005197 
L 648.92122 329.69819 
L 664.151773 329.69819 
L 664.305617 336.892973 
L 679.53617 336.892973 
L 679.690014 343.561128 
L 694.920567 343.561128 
L 695.074411 349.676342 
L 710.304965 349.676342 
L 710.458809 355.214468 
L 725.689362 355.214468 
L 725.843206 360.153695 
L 741.073759 360.153695 
L 741.227603 364.474484 
L 756.458156 364.474484 
L 756.612 368.159781 
L 771.842553 368.159781 
L 771.996397 371.195095 
L 787.226951 371.195095 
L 787.380795 373.56838 
L 802.611348 373.56838 
L 802.765192 375.270324 
L 817.995745 375.270324 
L 818.149589 376.294176 
L 833.380142 376.294176 
L 833.533986 376.635911 
L 987.224114 376.635911 
L 987.224114 376.635911 
" style="fill:none;stroke:#c44e52;stroke-linecap:round;stroke-width:1.5;"/>
   </g>
   <g id="line2d_18">
    <path clip-path="url(#p35b26cbf44)" d="M 64.314126 376.94795 
L 79.698523 30.272188 
L 94.929077 30.272188 
L 95.082921 31.755143 
L 110.313474 31.755143 
L 110.467318 36.17854 
L 125.697871 36.17854 
L 125.851715 43.466759 
L 141.082268 43.466759 
L 141.236112 53.495061 
L 156.466665 53.495061 
L 156.620509 66.091885 
L 171.851063 66.091885 
L 172.004907 81.041655 
L 187.23546 81.041655 
L 187.389304 98.088657 
L 202.619857 98.088657 
L 202.773701 116.941108 
L 218.004254 116.941108 
L 218.158098 137.276536 
L 233.388651 137.276536 
L 233.542495 158.746913 
L 248.773049 158.746913 
L 248.926893 180.984963 
L 264.157446 180.984963 
L 264.31129 203.610089 
L 279.541843 203.610089 
L 279.695687 226.235225 
L 294.92624 226.235225 
L 295.080084 248.473225 
L 310.310637 248.473225 
L 310.464481 269.943623 
L 325.695035 269.943623 
L 325.848879 290.27903 
L 341.079432 290.27903 
L 341.233276 309.131487 
L 356.463829 309.131487 
L 356.617673 326.178458 
L 371.848226 326.178458 
L 372.00207 341.128284 
L 387.232623 341.128284 
L 387.386467 353.725075 
L 402.617021 353.725075 
L 402.770865 363.753406 
L 418.001418 363.753406 
L 418.155262 371.041613 
L 433.385815 371.041613 
L 433.539659 375.465025 
L 448.770212 375.465025 
L 448.924056 376.94795 
L 464.154609 376.94795 
L 464.308453 238.277641 
L 479.539007 238.277641 
L 479.692851 238.870827 
L 494.923404 238.870827 
L 495.077248 240.640194 
L 510.307801 240.640194 
L 510.461645 243.55547 
L 525.692198 243.55547 
L 525.846042 247.566786 
L 541.076595 247.566786 
L 541.230439 252.605528 
L 556.460993 252.605528 
L 556.614837 258.58545 
L 571.84539 258.58545 
L 571.999234 265.404235 
L 587.229787 265.404235 
L 587.383631 272.945234 
L 602.614184 272.945234 
L 602.768028 281.079398 
L 617.998581 281.079398 
L 618.152425 289.667529 
L 633.382979 289.667529 
L 633.536823 298.562757 
L 648.767376 298.562757 
L 648.92122 307.612801 
L 664.151773 307.612801 
L 664.305617 316.662839 
L 679.53617 316.662839 
L 679.690014 325.558072 
L 694.920567 325.558072 
L 695.074411 334.146218 
L 710.304965 334.146218 
L 710.458809 342.280365 
L 725.689362 342.280365 
L 725.843206 349.821379 
L 741.073759 349.821379 
L 741.227603 356.640154 
L 756.458156 356.640154 
L 756.612 362.620072 
L 771.842553 362.620072 
L 771.996397 367.658809 
L 787.226951 367.658809 
L 787.380795 371.670132 
L 802.611348 371.670132 
L 802.765192 374.585411 
L 817.995745 374.585411 
L 818.149589 376.35478 
L 833.380142 376.35478 
L 833.533986 376.94795 
L 848.764539 376.94795 
L 848.918383 321.479825 
L 864.148937 321.479825 
L 864.302781 321.71709 
L 879.533334 321.71709 
L 879.687178 322.42484 
L 894.917731 322.42484 
L 895.071575 323.590955 
L 910.302128 323.590955 
L 910.455972 325.195492 
L 925.686525 325.195492 
L 925.840369 327.210973 
L 941.070923 327.210973 
L 941.224767 329.60294 
L 956.45532 329.60294 
L 956.609164 332.33047 
L 971.839717 332.33047 
L 971.993561 335.346851 
L 987.224114 335.346851 
L 987.224114 335.346851 
" style="fill:none;stroke:#8172b3;stroke-linecap:round;stroke-width:1.5;"/>
   </g>
   <g id="line2d_19">
    <path clip-path="url(#p35b26cbf44)" d="M 64.314126 376.94795 
L 125.851715 30.272188 
L 141.082268 30.272188 
L 141.236112 32.208252 
L 156.466665 32.208252 
L 156.620509 37.973093 
L 171.851063 37.973093 
L 172.004907 47.438057 
L 187.23546 47.438057 
L 187.389304 60.391583 
L 202.619857 60.391583 
L 202.773701 76.544436 
L 218.004254 76.544436 
L 218.158098 95.535674 
L 233.388651 95.535674 
L 233.542495 116.941108 
L 248.773049 116.941108 
L 248.926893 140.282647 
L 264.157446 140.282647 
L 264.31129 165.038786 
L 279.541843 165.038786 
L 279.695687 190.656522 
L 294.92624 190.656522 
L 295.080084 216.563656 
L 310.310637 216.563656 
L 310.464481 242.181412 
L 325.695035 242.181412 
L 325.848879 266.937542 
L 341.079432 266.937542 
L 341.233276 290.27903 
L 356.463829 290.27903 
L 356.617673 311.684505 
L 371.848226 311.684505 
L 372.00207 330.675743 
L 387.232623 330.675743 
L 387.386467 346.828542 
L 402.617021 346.828542 
L 402.770865 359.782111 
L 418.001418 359.782111 
L 418.155262 369.247042 
L 433.385815 369.247042 
L 433.539659 375.011916 
L 448.770212 375.011916 
L 448.924056 376.94795 
L 464.154609 376.94795 
L 464.308453 203.610069 
L 479.539007 203.610069 
L 479.692851 204.578101 
L 494.923404 204.578101 
L 495.077248 207.460542 
L 510.307801 207.460542 
L 510.461645 212.193003 
L 525.692198 212.193003 
L 525.846042 218.669767 
L 541.076595 218.669767 
L 541.230439 226.746193 
L 556.460993 226.746193 
L 556.614837 236.241812 
L 571.84539 236.241812 
L 571.999234 246.944549 
L 587.229787 246.944549 
L 587.383631 258.615298 
L 602.614184 258.615298 
L 602.768028 270.993388 
L 617.998581 270.993388 
L 618.152425 283.802236 
L 633.382979 283.802236 
L 633.536823 296.755803 
L 648.767376 296.755803 
L 648.92122 309.564656 
L 664.151773 309.564656 
L 664.305617 321.942746 
L 679.53617 321.942746 
L 679.690014 333.61347 
L 694.920567 333.61347 
L 695.074411 344.316227 
L 710.304965 344.316227 
L 710.458809 353.811831 
L 725.689362 353.811831 
L 725.843206 361.888246 
L 741.073759 361.888246 
L 741.227603 368.365025 
L 756.458156 368.365025 
L 756.612 373.097496 
L 771.842553 373.097496 
L 771.996397 375.979928 
L 787.226951 375.979928 
L 787.380795 376.94795 
L 802.611348 376.94795 
L 802.765192 290.27902 
L 817.995745 290.27902 
L 818.149589 290.763025 
L 833.380142 290.763025 
L 833.533986 292.204246 
L 848.764539 292.204246 
L 848.918383 294.570467 
L 864.148937 294.570467 
L 864.302781 297.808858 
L 879.533334 297.808858 
L 879.687178 301.847072 
L 894.917731 301.847072 
L 895.071575 306.594891 
L 910.302128 306.594891 
L 910.455972 311.94624 
L 925.686525 311.94624 
L 925.840369 317.781619 
L 941.070923 317.781619 
L 941.224767 323.970664 
L 956.45532 323.970664 
L 956.609164 330.375103 
L 971.839717 330.375103 
L 971.993561 336.851859 
L 987.224114 336.851859 
L 987.224114 336.851859 
" style="fill:none;stroke:#937860;stroke-linecap:round;stroke-width:1.5;"/>
   </g>
   <g id="patch_3">
    <path d="M 64.314126 394.281738 
L 64.314126 12.9384 
" style="fill:none;stroke:#ffffff;stroke-linecap:square;stroke-linejoin:miter;stroke-width:1.25;"/>
   </g>
   <g id="patch_4">
    <path d="M 987.377958 394.281738 
L 987.377958 12.9384 
" style="fill:none;stroke:#ffffff;stroke-linecap:square;stroke-linejoin:miter;stroke-width:1.25;"/>
   </g>
   <g id="patch_5">
    <path d="M 64.314126 394.281738 
L 987.377958 394.281738 
" style="fill:none;stroke:#ffffff;stroke-linecap:square;stroke-linejoin:miter;stroke-width:1.25;"/>
   </g>
   <g id="patch_6">
    <path d="M 64.314126 12.9384 
L 987.377958 12.9384 
" style="fill:none;stroke:#ffffff;stroke-linecap:square;stroke-linejoin:miter;stroke-width:1.25;"/>
   </g>
   <g id="text_14">
    <!-- [Cosine] -->
    <g style="fill:#262626;" transform="translate(937.718583 360.702911)scale(0.12 -0.12)">
     <defs>
      <path d="M 8.59375 75.984375 
L 29.296875 75.984375 
L 29.296875 69 
L 17.578125 69 
L 17.578125 -6.203125 
L 29.296875 -6.203125 
L 29.296875 -13.1875 
L 8.59375 -13.1875 
z
" id="DejaVuSans-91"/>
      <path d="M 64.40625 67.28125 
L 64.40625 56.890625 
Q 59.421875 61.53125 53.78125 63.8125 
Q 48.140625 66.109375 41.796875 66.109375 
Q 29.296875 66.109375 22.65625 58.46875 
Q 16.015625 50.828125 16.015625 36.375 
Q 16.015625 21.96875 22.65625 14.328125 
Q 29.296875 6.6875 41.796875 6.6875 
Q 48.140625 6.6875 53.78125 8.984375 
Q 59.421875 11.28125 64.40625 15.921875 
L 64.40625 5.609375 
Q 59.234375 2.09375 53.4375 0.328125 
Q 47.65625 -1.421875 41.21875 -1.421875 
Q 24.65625 -1.421875 15.125 8.703125 
Q 5.609375 18.84375 5.609375 36.375 
Q 5.609375 53.953125 15.125 64.078125 
Q 24.65625 74.21875 41.21875 74.21875 
Q 47.75 74.21875 53.53125 72.484375 
Q 59.328125 70.75 64.40625 67.28125 
z
" id="DejaVuSans-67"/>
      <path d="M 30.609375 48.390625 
Q 23.390625 48.390625 19.1875 42.75 
Q 14.984375 37.109375 14.984375 27.296875 
Q 14.984375 17.484375 19.15625 11.84375 
Q 23.34375 6.203125 30.609375 6.203125 
Q 37.796875 6.203125 41.984375 11.859375 
Q 46.1875 17.53125 46.1875 27.296875 
Q 46.1875 37.015625 41.984375 42.703125 
Q 37.796875 48.390625 30.609375 48.390625 
z
M 30.609375 56 
Q 42.328125 56 49.015625 48.375 
Q 55.71875 40.765625 55.71875 27.296875 
Q 55.71875 13.875 49.015625 6.21875 
Q 42.328125 -1.421875 30.609375 -1.421875 
Q 18.84375 -1.421875 12.171875 6.21875 
Q 5.515625 13.875 5.515625 27.296875 
Q 5.515625 40.765625 12.171875 48.375 
Q 18.84375 56 30.609375 56 
z
" id="DejaVuSans-111"/>
      <path d="M 44.28125 53.078125 
L 44.28125 44.578125 
Q 40.484375 46.53125 36.375 47.5 
Q 32.28125 48.484375 27.875 48.484375 
Q 21.1875 48.484375 17.84375 46.4375 
Q 14.5 44.390625 14.5 40.28125 
Q 14.5 37.15625 16.890625 35.375 
Q 19.28125 33.59375 26.515625 31.984375 
L 29.59375 31.296875 
Q 39.15625 29.25 43.1875 25.515625 
Q 47.21875 21.78125 47.21875 15.09375 
Q 47.21875 7.46875 41.1875 3.015625 
Q 35.15625 -1.421875 24.609375 -1.421875 
Q 20.21875 -1.421875 15.453125 -0.5625 
Q 10.6875 0.296875 5.421875 2 
L 5.421875 11.28125 
Q 10.40625 8.6875 15.234375 7.390625 
Q 20.0625 6.109375 24.8125 6.109375 
Q 31.15625 6.109375 34.5625 8.28125 
Q 37.984375 10.453125 37.984375 14.40625 
Q 37.984375 18.0625 35.515625 20.015625 
Q 33.0625 21.96875 24.703125 23.78125 
L 21.578125 24.515625 
Q 13.234375 26.265625 9.515625 29.90625 
Q 5.8125 33.546875 5.8125 39.890625 
Q 5.8125 47.609375 11.28125 51.796875 
Q 16.75 56 26.8125 56 
Q 31.78125 56 36.171875 55.265625 
Q 40.578125 54.546875 44.28125 53.078125 
z
" id="DejaVuSans-115"/>
      <path d="M 9.421875 54.6875 
L 18.40625 54.6875 
L 18.40625 0 
L 9.421875 0 
z
M 9.421875 75.984375 
L 18.40625 75.984375 
L 18.40625 64.59375 
L 9.421875 64.59375 
z
" id="DejaVuSans-105"/>
      <path d="M 54.890625 33.015625 
L 54.890625 0 
L 45.90625 0 
L 45.90625 32.71875 
Q 45.90625 40.484375 42.875 44.328125 
Q 39.84375 48.1875 33.796875 48.1875 
Q 26.515625 48.1875 22.3125 43.546875 
Q 18.109375 38.921875 18.109375 30.90625 
L 18.109375 0 
L 9.078125 0 
L 9.078125 54.6875 
L 18.109375 54.6875 
L 18.109375 46.1875 
Q 21.34375 51.125 25.703125 53.5625 
Q 30.078125 56 35.796875 56 
Q 45.21875 56 50.046875 50.171875 
Q 54.890625 44.34375 54.890625 33.015625 
z
" id="DejaVuSans-110"/>
      <path d="M 56.203125 29.59375 
L 56.203125 25.203125 
L 14.890625 25.203125 
Q 15.484375 15.921875 20.484375 11.0625 
Q 25.484375 6.203125 34.421875 6.203125 
Q 39.59375 6.203125 44.453125 7.46875 
Q 49.3125 8.734375 54.109375 11.28125 
L 54.109375 2.78125 
Q 49.265625 0.734375 44.1875 -0.34375 
Q 39.109375 -1.421875 33.890625 -1.421875 
Q 20.796875 -1.421875 13.15625 6.1875 
Q 5.515625 13.8125 5.515625 26.8125 
Q 5.515625 40.234375 12.765625 48.109375 
Q 20.015625 56 32.328125 56 
Q 43.359375 56 49.78125 48.890625 
Q 56.203125 41.796875 56.203125 29.59375 
z
M 47.21875 32.234375 
Q 47.125 39.59375 43.09375 43.984375 
Q 39.0625 48.390625 32.421875 48.390625 
Q 24.90625 48.390625 20.390625 44.140625 
Q 15.875 39.890625 15.1875 32.171875 
z
" id="DejaVuSans-101"/>
      <path d="M 30.421875 75.984375 
L 30.421875 -13.1875 
L 9.71875 -13.1875 
L 9.71875 -6.203125 
L 21.390625 -6.203125 
L 21.390625 69 
L 9.71875 69 
L 9.71875 75.984375 
z
" id="DejaVuSans-93"/>
     </defs>
     <use xlink:href="#DejaVuSans-91"/>
     <use x="39.013672" xlink:href="#DejaVuSans-67"/>
     <use x="108.837891" xlink:href="#DejaVuSans-111"/>
     <use x="170.019531" xlink:href="#DejaVuSans-115"/>
     <use x="222.119141" xlink:href="#DejaVuSans-105"/>
     <use x="249.902344" xlink:href="#DejaVuSans-110"/>
     <use x="313.28125" xlink:href="#DejaVuSans-101"/>
     <use x="374.804688" xlink:href="#DejaVuSans-93"/>
    </g>
    <!-- (60, 1.00e-06) -->
    <g style="fill:#262626;" transform="translate(901.414833 374.140286)scale(0.12 -0.12)">
     <defs>
      <path d="M 31 75.875 
Q 24.46875 64.65625 21.28125 53.65625 
Q 18.109375 42.671875 18.109375 31.390625 
Q 18.109375 20.125 21.3125 9.0625 
Q 24.515625 -2 31 -13.1875 
L 23.1875 -13.1875 
Q 15.875 -1.703125 12.234375 9.375 
Q 8.59375 20.453125 8.59375 31.390625 
Q 8.59375 42.28125 12.203125 53.3125 
Q 15.828125 64.359375 23.1875 75.875 
z
" id="DejaVuSans-40"/>
      <path d="M 11.71875 12.40625 
L 22.015625 12.40625 
L 22.015625 4 
L 14.015625 -11.625 
L 7.71875 -11.625 
L 11.71875 4 
z
" id="DejaVuSans-44"/>
      <path id="DejaVuSans-32"/>
      <path d="M 4.890625 31.390625 
L 31.203125 31.390625 
L 31.203125 23.390625 
L 4.890625 23.390625 
z
" id="DejaVuSans-45"/>
      <path d="M 8.015625 75.875 
L 15.828125 75.875 
Q 23.140625 64.359375 26.78125 53.3125 
Q 30.421875 42.28125 30.421875 31.390625 
Q 30.421875 20.453125 26.78125 9.375 
Q 23.140625 -1.703125 15.828125 -13.1875 
L 8.015625 -13.1875 
Q 14.5 -2 17.703125 9.0625 
Q 20.90625 20.125 20.90625 31.390625 
Q 20.90625 42.671875 17.703125 53.65625 
Q 14.5 64.65625 8.015625 75.875 
z
" id="DejaVuSans-41"/>
     </defs>
     <use xlink:href="#DejaVuSans-40"/>
     <use x="39.013672" xlink:href="#DejaVuSans-54"/>
     <use x="102.636719" xlink:href="#DejaVuSans-48"/>
     <use x="166.259766" xlink:href="#DejaVuSans-44"/>
     <use x="198.046875" xlink:href="#DejaVuSans-32"/>
     <use x="229.833984" xlink:href="#DejaVuSans-49"/>
     <use x="293.457031" xlink:href="#DejaVuSans-46"/>
     <use x="325.244141" xlink:href="#DejaVuSans-48"/>
     <use x="388.867188" xlink:href="#DejaVuSans-48"/>
     <use x="452.490234" xlink:href="#DejaVuSans-101"/>
     <use x="514.013672" xlink:href="#DejaVuSans-45"/>
     <use x="550.097656" xlink:href="#DejaVuSans-48"/>
     <use x="613.720703" xlink:href="#DejaVuSans-54"/>
     <use x="677.34375" xlink:href="#DejaVuSans-41"/>
    </g>
   </g>
   <g id="text_15">
    <!-- (26, 0.0004) -->
    <g style="fill:#262626;" transform="translate(464.308453 238.298455)scale(0.12 -0.12)">
     <use xlink:href="#DejaVuSans-40"/>
     <use x="39.013672" xlink:href="#DejaVuSans-50"/>
     <use x="102.636719" xlink:href="#DejaVuSans-54"/>
     <use x="166.259766" xlink:href="#DejaVuSans-44"/>
     <use x="198.046875" xlink:href="#DejaVuSans-32"/>
     <use x="229.833984" xlink:href="#DejaVuSans-48"/>
     <use x="293.457031" xlink:href="#DejaVuSans-46"/>
     <use x="325.244141" xlink:href="#DejaVuSans-48"/>
     <use x="388.867188" xlink:href="#DejaVuSans-48"/>
     <use x="452.490234" xlink:href="#DejaVuSans-48"/>
     <use x="516.113281" xlink:href="#DejaVuSans-52"/>
     <use x="579.736328" xlink:href="#DejaVuSans-41"/>
    </g>
   </g>
   <g id="text_16">
    <!-- (26, 0.0005) -->
    <g style="fill:#262626;" transform="translate(464.308453 203.627413)scale(0.12 -0.12)">
     <use xlink:href="#DejaVuSans-40"/>
     <use x="39.013672" xlink:href="#DejaVuSans-50"/>
     <use x="102.636719" xlink:href="#DejaVuSans-54"/>
     <use x="166.259766" xlink:href="#DejaVuSans-44"/>
     <use x="198.046875" xlink:href="#DejaVuSans-32"/>
     <use x="229.833984" xlink:href="#DejaVuSans-48"/>
     <use x="293.457031" xlink:href="#DejaVuSans-46"/>
     <use x="325.244141" xlink:href="#DejaVuSans-48"/>
     <use x="388.867188" xlink:href="#DejaVuSans-48"/>
     <use x="452.490234" xlink:href="#DejaVuSans-48"/>
     <use x="516.113281" xlink:href="#DejaVuSans-53"/>
     <use x="579.736328" xlink:href="#DejaVuSans-41"/>
    </g>
   </g>
   <g id="legend_1">
    <g id="line2d_20">
     <path d="M 476.895458 27.346681 
L 498.895458 27.346681 
" style="fill:none;stroke:#4c72b0;stroke-linecap:round;stroke-width:1.5;"/>
    </g>
    <g id="line2d_21"/>
    <g id="text_17">
     <!-- lr=0.001, decay=0.1 -->
     <g style="fill:#262626;" transform="translate(507.695458 31.196681)scale(0.11 -0.11)">
      <defs>
       <path d="M 9.421875 75.984375 
L 18.40625 75.984375 
L 18.40625 0 
L 9.421875 0 
z
" id="DejaVuSans-108"/>
       <path d="M 41.109375 46.296875 
Q 39.59375 47.171875 37.8125 47.578125 
Q 36.03125 48 33.890625 48 
Q 26.265625 48 22.1875 43.046875 
Q 18.109375 38.09375 18.109375 28.8125 
L 18.109375 0 
L 9.078125 0 
L 9.078125 54.6875 
L 18.109375 54.6875 
L 18.109375 46.1875 
Q 20.953125 51.171875 25.484375 53.578125 
Q 30.03125 56 36.53125 56 
Q 37.453125 56 38.578125 55.875 
Q 39.703125 55.765625 41.0625 55.515625 
z
" id="DejaVuSans-114"/>
       <path d="M 10.59375 45.40625 
L 73.1875 45.40625 
L 73.1875 37.203125 
L 10.59375 37.203125 
z
M 10.59375 25.484375 
L 73.1875 25.484375 
L 73.1875 17.1875 
L 10.59375 17.1875 
z
" id="DejaVuSans-61"/>
       <path d="M 45.40625 46.390625 
L 45.40625 75.984375 
L 54.390625 75.984375 
L 54.390625 0 
L 45.40625 0 
L 45.40625 8.203125 
Q 42.578125 3.328125 38.25 0.953125 
Q 33.9375 -1.421875 27.875 -1.421875 
Q 17.96875 -1.421875 11.734375 6.484375 
Q 5.515625 14.40625 5.515625 27.296875 
Q 5.515625 40.1875 11.734375 48.09375 
Q 17.96875 56 27.875 56 
Q 33.9375 56 38.25 53.625 
Q 42.578125 51.265625 45.40625 46.390625 
z
M 14.796875 27.296875 
Q 14.796875 17.390625 18.875 11.75 
Q 22.953125 6.109375 30.078125 6.109375 
Q 37.203125 6.109375 41.296875 11.75 
Q 45.40625 17.390625 45.40625 27.296875 
Q 45.40625 37.203125 41.296875 42.84375 
Q 37.203125 48.484375 30.078125 48.484375 
Q 22.953125 48.484375 18.875 42.84375 
Q 14.796875 37.203125 14.796875 27.296875 
z
" id="DejaVuSans-100"/>
       <path d="M 48.78125 52.59375 
L 48.78125 44.1875 
Q 44.96875 46.296875 41.140625 47.34375 
Q 37.3125 48.390625 33.40625 48.390625 
Q 24.65625 48.390625 19.8125 42.84375 
Q 14.984375 37.3125 14.984375 27.296875 
Q 14.984375 17.28125 19.8125 11.734375 
Q 24.65625 6.203125 33.40625 6.203125 
Q 37.3125 6.203125 41.140625 7.25 
Q 44.96875 8.296875 48.78125 10.40625 
L 48.78125 2.09375 
Q 45.015625 0.34375 40.984375 -0.53125 
Q 36.96875 -1.421875 32.421875 -1.421875 
Q 20.0625 -1.421875 12.78125 6.34375 
Q 5.515625 14.109375 5.515625 27.296875 
Q 5.515625 40.671875 12.859375 48.328125 
Q 20.21875 56 33.015625 56 
Q 37.15625 56 41.109375 55.140625 
Q 45.0625 54.296875 48.78125 52.59375 
z
" id="DejaVuSans-99"/>
       <path d="M 34.28125 27.484375 
Q 23.390625 27.484375 19.1875 25 
Q 14.984375 22.515625 14.984375 16.5 
Q 14.984375 11.71875 18.140625 8.90625 
Q 21.296875 6.109375 26.703125 6.109375 
Q 34.1875 6.109375 38.703125 11.40625 
Q 43.21875 16.703125 43.21875 25.484375 
L 43.21875 27.484375 
z
M 52.203125 31.203125 
L 52.203125 0 
L 43.21875 0 
L 43.21875 8.296875 
Q 40.140625 3.328125 35.546875 0.953125 
Q 30.953125 -1.421875 24.3125 -1.421875 
Q 15.921875 -1.421875 10.953125 3.296875 
Q 6 8.015625 6 15.921875 
Q 6 25.140625 12.171875 29.828125 
Q 18.359375 34.515625 30.609375 34.515625 
L 43.21875 34.515625 
L 43.21875 35.40625 
Q 43.21875 41.609375 39.140625 45 
Q 35.0625 48.390625 27.6875 48.390625 
Q 23 48.390625 18.546875 47.265625 
Q 14.109375 46.140625 10.015625 43.890625 
L 10.015625 52.203125 
Q 14.9375 54.109375 19.578125 55.046875 
Q 24.21875 56 28.609375 56 
Q 40.484375 56 46.34375 49.84375 
Q 52.203125 43.703125 52.203125 31.203125 
z
" id="DejaVuSans-97"/>
       <path d="M 32.171875 -5.078125 
Q 28.375 -14.84375 24.75 -17.8125 
Q 21.140625 -20.796875 15.09375 -20.796875 
L 7.90625 -20.796875 
L 7.90625 -13.28125 
L 13.1875 -13.28125 
Q 16.890625 -13.28125 18.9375 -11.515625 
Q 21 -9.765625 23.484375 -3.21875 
L 25.09375 0.875 
L 2.984375 54.6875 
L 12.5 54.6875 
L 29.59375 11.921875 
L 46.6875 54.6875 
L 56.203125 54.6875 
z
" id="DejaVuSans-121"/>
      </defs>
      <use xlink:href="#DejaVuSans-108"/>
      <use x="27.783203" xlink:href="#DejaVuSans-114"/>
      <use x="68.896484" xlink:href="#DejaVuSans-61"/>
      <use x="152.685547" xlink:href="#DejaVuSans-48"/>
      <use x="216.308594" xlink:href="#DejaVuSans-46"/>
      <use x="248.095703" xlink:href="#DejaVuSans-48"/>
      <use x="311.71875" xlink:href="#DejaVuSans-48"/>
      <use x="375.341797" xlink:href="#DejaVuSans-49"/>
      <use x="438.964844" xlink:href="#DejaVuSans-44"/>
      <use x="470.751953" xlink:href="#DejaVuSans-32"/>
      <use x="502.539062" xlink:href="#DejaVuSans-100"/>
      <use x="566.015625" xlink:href="#DejaVuSans-101"/>
      <use x="627.539062" xlink:href="#DejaVuSans-99"/>
      <use x="682.519531" xlink:href="#DejaVuSans-97"/>
      <use x="743.798828" xlink:href="#DejaVuSans-121"/>
      <use x="802.978516" xlink:href="#DejaVuSans-61"/>
      <use x="886.767578" xlink:href="#DejaVuSans-48"/>
      <use x="950.390625" xlink:href="#DejaVuSans-46"/>
      <use x="982.177734" xlink:href="#DejaVuSans-49"/>
     </g>
    </g>
    <g id="line2d_22">
     <path d="M 476.895458 43.492619 
L 498.895458 43.492619 
" style="fill:none;stroke:#dd8452;stroke-linecap:round;stroke-width:1.5;"/>
    </g>
    <g id="line2d_23"/>
    <g id="text_18">
     <!-- lr=0.001, decay=0.05 -->
     <g style="fill:#262626;" transform="translate(507.695458 47.342619)scale(0.11 -0.11)">
      <use xlink:href="#DejaVuSans-108"/>
      <use x="27.783203" xlink:href="#DejaVuSans-114"/>
      <use x="68.896484" xlink:href="#DejaVuSans-61"/>
      <use x="152.685547" xlink:href="#DejaVuSans-48"/>
      <use x="216.308594" xlink:href="#DejaVuSans-46"/>
      <use x="248.095703" xlink:href="#DejaVuSans-48"/>
      <use x="311.71875" xlink:href="#DejaVuSans-48"/>
      <use x="375.341797" xlink:href="#DejaVuSans-49"/>
      <use x="438.964844" xlink:href="#DejaVuSans-44"/>
      <use x="470.751953" xlink:href="#DejaVuSans-32"/>
      <use x="502.539062" xlink:href="#DejaVuSans-100"/>
      <use x="566.015625" xlink:href="#DejaVuSans-101"/>
      <use x="627.539062" xlink:href="#DejaVuSans-99"/>
      <use x="682.519531" xlink:href="#DejaVuSans-97"/>
      <use x="743.798828" xlink:href="#DejaVuSans-121"/>
      <use x="802.978516" xlink:href="#DejaVuSans-61"/>
      <use x="886.767578" xlink:href="#DejaVuSans-48"/>
      <use x="950.390625" xlink:href="#DejaVuSans-46"/>
      <use x="982.177734" xlink:href="#DejaVuSans-48"/>
      <use x="1045.800781" xlink:href="#DejaVuSans-53"/>
     </g>
    </g>
    <g id="line2d_24">
     <path d="M 476.895458 59.638556 
L 498.895458 59.638556 
" style="fill:none;stroke:#55a868;stroke-linecap:round;stroke-width:1.5;"/>
    </g>
    <g id="line2d_25"/>
    <g id="text_19">
     <!-- Constant, lr=0.001, decay_steps=[10, 20, 30, 40], decay_rate=0.1 -->
     <g style="fill:#262626;" transform="translate(507.695458 63.488556)scale(0.11 -0.11)">
      <defs>
       <path d="M 18.3125 70.21875 
L 18.3125 54.6875 
L 36.8125 54.6875 
L 36.8125 47.703125 
L 18.3125 47.703125 
L 18.3125 18.015625 
Q 18.3125 11.328125 20.140625 9.421875 
Q 21.96875 7.515625 27.59375 7.515625 
L 36.8125 7.515625 
L 36.8125 0 
L 27.59375 0 
Q 17.1875 0 13.234375 3.875 
Q 9.28125 7.765625 9.28125 18.015625 
L 9.28125 47.703125 
L 2.6875 47.703125 
L 2.6875 54.6875 
L 9.28125 54.6875 
L 9.28125 70.21875 
z
" id="DejaVuSans-116"/>
       <path d="M 50.984375 -16.609375 
L 50.984375 -23.578125 
L -0.984375 -23.578125 
L -0.984375 -16.609375 
z
" id="DejaVuSans-95"/>
       <path d="M 18.109375 8.203125 
L 18.109375 -20.796875 
L 9.078125 -20.796875 
L 9.078125 54.6875 
L 18.109375 54.6875 
L 18.109375 46.390625 
Q 20.953125 51.265625 25.265625 53.625 
Q 29.59375 56 35.59375 56 
Q 45.5625 56 51.78125 48.09375 
Q 58.015625 40.1875 58.015625 27.296875 
Q 58.015625 14.40625 51.78125 6.484375 
Q 45.5625 -1.421875 35.59375 -1.421875 
Q 29.59375 -1.421875 25.265625 0.953125 
Q 20.953125 3.328125 18.109375 8.203125 
z
M 48.6875 27.296875 
Q 48.6875 37.203125 44.609375 42.84375 
Q 40.53125 48.484375 33.40625 48.484375 
Q 26.265625 48.484375 22.1875 42.84375 
Q 18.109375 37.203125 18.109375 27.296875 
Q 18.109375 17.390625 22.1875 11.75 
Q 26.265625 6.109375 33.40625 6.109375 
Q 40.53125 6.109375 44.609375 11.75 
Q 48.6875 17.390625 48.6875 27.296875 
z
" id="DejaVuSans-112"/>
      </defs>
      <use xlink:href="#DejaVuSans-67"/>
      <use x="69.824219" xlink:href="#DejaVuSans-111"/>
      <use x="131.005859" xlink:href="#DejaVuSans-110"/>
      <use x="194.384766" xlink:href="#DejaVuSans-115"/>
      <use x="246.484375" xlink:href="#DejaVuSans-116"/>
      <use x="285.693359" xlink:href="#DejaVuSans-97"/>
      <use x="346.972656" xlink:href="#DejaVuSans-110"/>
      <use x="410.351562" xlink:href="#DejaVuSans-116"/>
      <use x="449.560547" xlink:href="#DejaVuSans-44"/>
      <use x="481.347656" xlink:href="#DejaVuSans-32"/>
      <use x="513.134766" xlink:href="#DejaVuSans-108"/>
      <use x="540.917969" xlink:href="#DejaVuSans-114"/>
      <use x="582.03125" xlink:href="#DejaVuSans-61"/>
      <use x="665.820312" xlink:href="#DejaVuSans-48"/>
      <use x="729.443359" xlink:href="#DejaVuSans-46"/>
      <use x="761.230469" xlink:href="#DejaVuSans-48"/>
      <use x="824.853516" xlink:href="#DejaVuSans-48"/>
      <use x="888.476562" xlink:href="#DejaVuSans-49"/>
      <use x="952.099609" xlink:href="#DejaVuSans-44"/>
      <use x="983.886719" xlink:href="#DejaVuSans-32"/>
      <use x="1015.673828" xlink:href="#DejaVuSans-100"/>
      <use x="1079.150391" xlink:href="#DejaVuSans-101"/>
      <use x="1140.673828" xlink:href="#DejaVuSans-99"/>
      <use x="1195.654297" xlink:href="#DejaVuSans-97"/>
      <use x="1256.933594" xlink:href="#DejaVuSans-121"/>
      <use x="1316.113281" xlink:href="#DejaVuSans-95"/>
      <use x="1366.113281" xlink:href="#DejaVuSans-115"/>
      <use x="1418.212891" xlink:href="#DejaVuSans-116"/>
      <use x="1457.421875" xlink:href="#DejaVuSans-101"/>
      <use x="1518.945312" xlink:href="#DejaVuSans-112"/>
      <use x="1582.421875" xlink:href="#DejaVuSans-115"/>
      <use x="1634.521484" xlink:href="#DejaVuSans-61"/>
      <use x="1718.310547" xlink:href="#DejaVuSans-91"/>
      <use x="1757.324219" xlink:href="#DejaVuSans-49"/>
      <use x="1820.947266" xlink:href="#DejaVuSans-48"/>
      <use x="1884.570312" xlink:href="#DejaVuSans-44"/>
      <use x="1916.357422" xlink:href="#DejaVuSans-32"/>
      <use x="1948.144531" xlink:href="#DejaVuSans-50"/>
      <use x="2011.767578" xlink:href="#DejaVuSans-48"/>
      <use x="2075.390625" xlink:href="#DejaVuSans-44"/>
      <use x="2107.177734" xlink:href="#DejaVuSans-32"/>
      <use x="2138.964844" xlink:href="#DejaVuSans-51"/>
      <use x="2202.587891" xlink:href="#DejaVuSans-48"/>
      <use x="2266.210938" xlink:href="#DejaVuSans-44"/>
      <use x="2297.998047" xlink:href="#DejaVuSans-32"/>
      <use x="2329.785156" xlink:href="#DejaVuSans-52"/>
      <use x="2393.408203" xlink:href="#DejaVuSans-48"/>
      <use x="2457.03125" xlink:href="#DejaVuSans-93"/>
      <use x="2496.044922" xlink:href="#DejaVuSans-44"/>
      <use x="2527.832031" xlink:href="#DejaVuSans-32"/>
      <use x="2559.619141" xlink:href="#DejaVuSans-100"/>
      <use x="2623.095703" xlink:href="#DejaVuSans-101"/>
      <use x="2684.619141" xlink:href="#DejaVuSans-99"/>
      <use x="2739.599609" xlink:href="#DejaVuSans-97"/>
      <use x="2800.878906" xlink:href="#DejaVuSans-121"/>
      <use x="2860.058594" xlink:href="#DejaVuSans-95"/>
      <use x="2910.058594" xlink:href="#DejaVuSans-114"/>
      <use x="2951.171875" xlink:href="#DejaVuSans-97"/>
      <use x="3012.451172" xlink:href="#DejaVuSans-116"/>
      <use x="3051.660156" xlink:href="#DejaVuSans-101"/>
      <use x="3113.183594" xlink:href="#DejaVuSans-61"/>
      <use x="3196.972656" xlink:href="#DejaVuSans-48"/>
      <use x="3260.595703" xlink:href="#DejaVuSans-46"/>
      <use x="3292.382812" xlink:href="#DejaVuSans-49"/>
     </g>
    </g>
    <g id="line2d_26">
     <path d="M 476.895458 76.090431 
L 498.895458 76.090431 
" style="fill:none;stroke:#c44e52;stroke-linecap:round;stroke-width:1.5;"/>
    </g>
    <g id="line2d_27"/>
    <g id="text_20">
     <!-- Cosine, first_restart_step=100, min=1e-6, m_mul=1e-3 -->
     <g style="fill:#262626;" transform="translate(507.695458 79.940431)scale(0.11 -0.11)">
      <defs>
       <path d="M 37.109375 75.984375 
L 37.109375 68.5 
L 28.515625 68.5 
Q 23.6875 68.5 21.796875 66.546875 
Q 19.921875 64.59375 19.921875 59.515625 
L 19.921875 54.6875 
L 34.71875 54.6875 
L 34.71875 47.703125 
L 19.921875 47.703125 
L 19.921875 0 
L 10.890625 0 
L 10.890625 47.703125 
L 2.296875 47.703125 
L 2.296875 54.6875 
L 10.890625 54.6875 
L 10.890625 58.5 
Q 10.890625 67.625 15.140625 71.796875 
Q 19.390625 75.984375 28.609375 75.984375 
z
" id="DejaVuSans-102"/>
       <path d="M 52 44.1875 
Q 55.375 50.25 60.0625 53.125 
Q 64.75 56 71.09375 56 
Q 79.640625 56 84.28125 50.015625 
Q 88.921875 44.046875 88.921875 33.015625 
L 88.921875 0 
L 79.890625 0 
L 79.890625 32.71875 
Q 79.890625 40.578125 77.09375 44.375 
Q 74.3125 48.1875 68.609375 48.1875 
Q 61.625 48.1875 57.5625 43.546875 
Q 53.515625 38.921875 53.515625 30.90625 
L 53.515625 0 
L 44.484375 0 
L 44.484375 32.71875 
Q 44.484375 40.625 41.703125 44.40625 
Q 38.921875 48.1875 33.109375 48.1875 
Q 26.21875 48.1875 22.15625 43.53125 
Q 18.109375 38.875 18.109375 30.90625 
L 18.109375 0 
L 9.078125 0 
L 9.078125 54.6875 
L 18.109375 54.6875 
L 18.109375 46.1875 
Q 21.1875 51.21875 25.484375 53.609375 
Q 29.78125 56 35.6875 56 
Q 41.65625 56 45.828125 52.96875 
Q 50 49.953125 52 44.1875 
z
" id="DejaVuSans-109"/>
       <path d="M 8.5 21.578125 
L 8.5 54.6875 
L 17.484375 54.6875 
L 17.484375 21.921875 
Q 17.484375 14.15625 20.5 10.265625 
Q 23.53125 6.390625 29.59375 6.390625 
Q 36.859375 6.390625 41.078125 11.03125 
Q 45.3125 15.671875 45.3125 23.6875 
L 45.3125 54.6875 
L 54.296875 54.6875 
L 54.296875 0 
L 45.3125 0 
L 45.3125 8.40625 
Q 42.046875 3.421875 37.71875 1 
Q 33.40625 -1.421875 27.6875 -1.421875 
Q 18.265625 -1.421875 13.375 4.4375 
Q 8.5 10.296875 8.5 21.578125 
z
M 31.109375 56 
z
" id="DejaVuSans-117"/>
      </defs>
      <use xlink:href="#DejaVuSans-67"/>
      <use x="69.824219" xlink:href="#DejaVuSans-111"/>
      <use x="131.005859" xlink:href="#DejaVuSans-115"/>
      <use x="183.105469" xlink:href="#DejaVuSans-105"/>
      <use x="210.888672" xlink:href="#DejaVuSans-110"/>
      <use x="274.267578" xlink:href="#DejaVuSans-101"/>
      <use x="335.791016" xlink:href="#DejaVuSans-44"/>
      <use x="367.578125" xlink:href="#DejaVuSans-32"/>
      <use x="399.365234" xlink:href="#DejaVuSans-102"/>
      <use x="434.570312" xlink:href="#DejaVuSans-105"/>
      <use x="462.353516" xlink:href="#DejaVuSans-114"/>
      <use x="503.466797" xlink:href="#DejaVuSans-115"/>
      <use x="555.566406" xlink:href="#DejaVuSans-116"/>
      <use x="594.775391" xlink:href="#DejaVuSans-95"/>
      <use x="644.775391" xlink:href="#DejaVuSans-114"/>
      <use x="683.638672" xlink:href="#DejaVuSans-101"/>
      <use x="745.162109" xlink:href="#DejaVuSans-115"/>
      <use x="797.261719" xlink:href="#DejaVuSans-116"/>
      <use x="836.470703" xlink:href="#DejaVuSans-97"/>
      <use x="897.75" xlink:href="#DejaVuSans-114"/>
      <use x="938.863281" xlink:href="#DejaVuSans-116"/>
      <use x="978.072266" xlink:href="#DejaVuSans-95"/>
      <use x="1028.072266" xlink:href="#DejaVuSans-115"/>
      <use x="1080.171875" xlink:href="#DejaVuSans-116"/>
      <use x="1119.380859" xlink:href="#DejaVuSans-101"/>
      <use x="1180.904297" xlink:href="#DejaVuSans-112"/>
      <use x="1244.380859" xlink:href="#DejaVuSans-61"/>
      <use x="1328.169922" xlink:href="#DejaVuSans-49"/>
      <use x="1391.792969" xlink:href="#DejaVuSans-48"/>
      <use x="1455.416016" xlink:href="#DejaVuSans-48"/>
      <use x="1519.039062" xlink:href="#DejaVuSans-44"/>
      <use x="1550.826172" xlink:href="#DejaVuSans-32"/>
      <use x="1582.613281" xlink:href="#DejaVuSans-109"/>
      <use x="1680.025391" xlink:href="#DejaVuSans-105"/>
      <use x="1707.808594" xlink:href="#DejaVuSans-110"/>
      <use x="1771.1875" xlink:href="#DejaVuSans-61"/>
      <use x="1854.976562" xlink:href="#DejaVuSans-49"/>
      <use x="1918.599609" xlink:href="#DejaVuSans-101"/>
      <use x="1980.123047" xlink:href="#DejaVuSans-45"/>
      <use x="2016.207031" xlink:href="#DejaVuSans-54"/>
      <use x="2079.830078" xlink:href="#DejaVuSans-44"/>
      <use x="2111.617188" xlink:href="#DejaVuSans-32"/>
      <use x="2143.404297" xlink:href="#DejaVuSans-109"/>
      <use x="2240.816406" xlink:href="#DejaVuSans-95"/>
      <use x="2290.816406" xlink:href="#DejaVuSans-109"/>
      <use x="2388.228516" xlink:href="#DejaVuSans-117"/>
      <use x="2451.607422" xlink:href="#DejaVuSans-108"/>
      <use x="2479.390625" xlink:href="#DejaVuSans-61"/>
      <use x="2563.179688" xlink:href="#DejaVuSans-49"/>
      <use x="2626.802734" xlink:href="#DejaVuSans-101"/>
      <use x="2688.326172" xlink:href="#DejaVuSans-45"/>
      <use x="2724.410156" xlink:href="#DejaVuSans-51"/>
     </g>
    </g>
    <g id="line2d_28">
     <path d="M 476.895458 92.542306 
L 498.895458 92.542306 
" style="fill:none;stroke:#8172b3;stroke-linecap:round;stroke-width:1.5;"/>
    </g>
    <g id="line2d_29"/>
    <g id="text_21">
     <!-- Cosine restart, first_restart_step=24, min=1e-7, warmup=1, m_mul=0.4 -->
     <g style="fill:#262626;" transform="translate(507.695458 96.392306)scale(0.11 -0.11)">
      <defs>
       <path d="M 8.203125 72.90625 
L 55.078125 72.90625 
L 55.078125 68.703125 
L 28.609375 0 
L 18.3125 0 
L 43.21875 64.59375 
L 8.203125 64.59375 
z
" id="DejaVuSans-55"/>
       <path d="M 4.203125 54.6875 
L 13.1875 54.6875 
L 24.421875 12.015625 
L 35.59375 54.6875 
L 46.1875 54.6875 
L 57.421875 12.015625 
L 68.609375 54.6875 
L 77.59375 54.6875 
L 63.28125 0 
L 52.6875 0 
L 40.921875 44.828125 
L 29.109375 0 
L 18.5 0 
z
" id="DejaVuSans-119"/>
      </defs>
      <use xlink:href="#DejaVuSans-67"/>
      <use x="69.824219" xlink:href="#DejaVuSans-111"/>
      <use x="131.005859" xlink:href="#DejaVuSans-115"/>
      <use x="183.105469" xlink:href="#DejaVuSans-105"/>
      <use x="210.888672" xlink:href="#DejaVuSans-110"/>
      <use x="274.267578" xlink:href="#DejaVuSans-101"/>
      <use x="335.791016" xlink:href="#DejaVuSans-32"/>
      <use x="367.578125" xlink:href="#DejaVuSans-114"/>
      <use x="406.441406" xlink:href="#DejaVuSans-101"/>
      <use x="467.964844" xlink:href="#DejaVuSans-115"/>
      <use x="520.064453" xlink:href="#DejaVuSans-116"/>
      <use x="559.273438" xlink:href="#DejaVuSans-97"/>
      <use x="620.552734" xlink:href="#DejaVuSans-114"/>
      <use x="661.666016" xlink:href="#DejaVuSans-116"/>
      <use x="700.875" xlink:href="#DejaVuSans-44"/>
      <use x="732.662109" xlink:href="#DejaVuSans-32"/>
      <use x="764.449219" xlink:href="#DejaVuSans-102"/>
      <use x="799.654297" xlink:href="#DejaVuSans-105"/>
      <use x="827.4375" xlink:href="#DejaVuSans-114"/>
      <use x="868.550781" xlink:href="#DejaVuSans-115"/>
      <use x="920.650391" xlink:href="#DejaVuSans-116"/>
      <use x="959.859375" xlink:href="#DejaVuSans-95"/>
      <use x="1009.859375" xlink:href="#DejaVuSans-114"/>
      <use x="1048.722656" xlink:href="#DejaVuSans-101"/>
      <use x="1110.246094" xlink:href="#DejaVuSans-115"/>
      <use x="1162.345703" xlink:href="#DejaVuSans-116"/>
      <use x="1201.554688" xlink:href="#DejaVuSans-97"/>
      <use x="1262.833984" xlink:href="#DejaVuSans-114"/>
      <use x="1303.947266" xlink:href="#DejaVuSans-116"/>
      <use x="1343.15625" xlink:href="#DejaVuSans-95"/>
      <use x="1393.15625" xlink:href="#DejaVuSans-115"/>
      <use x="1445.255859" xlink:href="#DejaVuSans-116"/>
      <use x="1484.464844" xlink:href="#DejaVuSans-101"/>
      <use x="1545.988281" xlink:href="#DejaVuSans-112"/>
      <use x="1609.464844" xlink:href="#DejaVuSans-61"/>
      <use x="1693.253906" xlink:href="#DejaVuSans-50"/>
      <use x="1756.876953" xlink:href="#DejaVuSans-52"/>
      <use x="1820.5" xlink:href="#DejaVuSans-44"/>
      <use x="1852.287109" xlink:href="#DejaVuSans-32"/>
      <use x="1884.074219" xlink:href="#DejaVuSans-109"/>
      <use x="1981.486328" xlink:href="#DejaVuSans-105"/>
      <use x="2009.269531" xlink:href="#DejaVuSans-110"/>
      <use x="2072.648438" xlink:href="#DejaVuSans-61"/>
      <use x="2156.4375" xlink:href="#DejaVuSans-49"/>
      <use x="2220.060547" xlink:href="#DejaVuSans-101"/>
      <use x="2281.583984" xlink:href="#DejaVuSans-45"/>
      <use x="2317.667969" xlink:href="#DejaVuSans-55"/>
      <use x="2381.291016" xlink:href="#DejaVuSans-44"/>
      <use x="2413.078125" xlink:href="#DejaVuSans-32"/>
      <use x="2444.865234" xlink:href="#DejaVuSans-119"/>
      <use x="2526.652344" xlink:href="#DejaVuSans-97"/>
      <use x="2587.931641" xlink:href="#DejaVuSans-114"/>
      <use x="2627.294922" xlink:href="#DejaVuSans-109"/>
      <use x="2724.707031" xlink:href="#DejaVuSans-117"/>
      <use x="2788.085938" xlink:href="#DejaVuSans-112"/>
      <use x="2851.5625" xlink:href="#DejaVuSans-61"/>
      <use x="2935.351562" xlink:href="#DejaVuSans-49"/>
      <use x="2998.974609" xlink:href="#DejaVuSans-44"/>
      <use x="3030.761719" xlink:href="#DejaVuSans-32"/>
      <use x="3062.548828" xlink:href="#DejaVuSans-109"/>
      <use x="3159.960938" xlink:href="#DejaVuSans-95"/>
      <use x="3209.960938" xlink:href="#DejaVuSans-109"/>
      <use x="3307.373047" xlink:href="#DejaVuSans-117"/>
      <use x="3370.751953" xlink:href="#DejaVuSans-108"/>
      <use x="3398.535156" xlink:href="#DejaVuSans-61"/>
      <use x="3482.324219" xlink:href="#DejaVuSans-48"/>
      <use x="3545.947266" xlink:href="#DejaVuSans-46"/>
      <use x="3577.734375" xlink:href="#DejaVuSans-52"/>
     </g>
    </g>
    <g id="line2d_30">
     <path d="M 476.895458 108.994181 
L 498.895458 108.994181 
" style="fill:none;stroke:#937860;stroke-linecap:round;stroke-width:1.5;"/>
    </g>
    <g id="line2d_31"/>
    <g id="text_22">
     <!-- Cosine restart, on batch, first_restart_step=2100, min=1e-7, warmup=4, m_mul=0.5 -->
     <g style="fill:#262626;" transform="translate(507.695458 112.844181)scale(0.11 -0.11)">
      <defs>
       <path d="M 48.6875 27.296875 
Q 48.6875 37.203125 44.609375 42.84375 
Q 40.53125 48.484375 33.40625 48.484375 
Q 26.265625 48.484375 22.1875 42.84375 
Q 18.109375 37.203125 18.109375 27.296875 
Q 18.109375 17.390625 22.1875 11.75 
Q 26.265625 6.109375 33.40625 6.109375 
Q 40.53125 6.109375 44.609375 11.75 
Q 48.6875 17.390625 48.6875 27.296875 
z
M 18.109375 46.390625 
Q 20.953125 51.265625 25.265625 53.625 
Q 29.59375 56 35.59375 56 
Q 45.5625 56 51.78125 48.09375 
Q 58.015625 40.1875 58.015625 27.296875 
Q 58.015625 14.40625 51.78125 6.484375 
Q 45.5625 -1.421875 35.59375 -1.421875 
Q 29.59375 -1.421875 25.265625 0.953125 
Q 20.953125 3.328125 18.109375 8.203125 
L 18.109375 0 
L 9.078125 0 
L 9.078125 75.984375 
L 18.109375 75.984375 
z
" id="DejaVuSans-98"/>
       <path d="M 54.890625 33.015625 
L 54.890625 0 
L 45.90625 0 
L 45.90625 32.71875 
Q 45.90625 40.484375 42.875 44.328125 
Q 39.84375 48.1875 33.796875 48.1875 
Q 26.515625 48.1875 22.3125 43.546875 
Q 18.109375 38.921875 18.109375 30.90625 
L 18.109375 0 
L 9.078125 0 
L 9.078125 75.984375 
L 18.109375 75.984375 
L 18.109375 46.1875 
Q 21.34375 51.125 25.703125 53.5625 
Q 30.078125 56 35.796875 56 
Q 45.21875 56 50.046875 50.171875 
Q 54.890625 44.34375 54.890625 33.015625 
z
" id="DejaVuSans-104"/>
      </defs>
      <use xlink:href="#DejaVuSans-67"/>
      <use x="69.824219" xlink:href="#DejaVuSans-111"/>
      <use x="131.005859" xlink:href="#DejaVuSans-115"/>
      <use x="183.105469" xlink:href="#DejaVuSans-105"/>
      <use x="210.888672" xlink:href="#DejaVuSans-110"/>
      <use x="274.267578" xlink:href="#DejaVuSans-101"/>
      <use x="335.791016" xlink:href="#DejaVuSans-32"/>
      <use x="367.578125" xlink:href="#DejaVuSans-114"/>
      <use x="406.441406" xlink:href="#DejaVuSans-101"/>
      <use x="467.964844" xlink:href="#DejaVuSans-115"/>
      <use x="520.064453" xlink:href="#DejaVuSans-116"/>
      <use x="559.273438" xlink:href="#DejaVuSans-97"/>
      <use x="620.552734" xlink:href="#DejaVuSans-114"/>
      <use x="661.666016" xlink:href="#DejaVuSans-116"/>
      <use x="700.875" xlink:href="#DejaVuSans-44"/>
      <use x="732.662109" xlink:href="#DejaVuSans-32"/>
      <use x="764.449219" xlink:href="#DejaVuSans-111"/>
      <use x="825.630859" xlink:href="#DejaVuSans-110"/>
      <use x="889.009766" xlink:href="#DejaVuSans-32"/>
      <use x="920.796875" xlink:href="#DejaVuSans-98"/>
      <use x="984.273438" xlink:href="#DejaVuSans-97"/>
      <use x="1045.552734" xlink:href="#DejaVuSans-116"/>
      <use x="1084.761719" xlink:href="#DejaVuSans-99"/>
      <use x="1139.742188" xlink:href="#DejaVuSans-104"/>
      <use x="1203.121094" xlink:href="#DejaVuSans-44"/>
      <use x="1234.908203" xlink:href="#DejaVuSans-32"/>
      <use x="1266.695312" xlink:href="#DejaVuSans-102"/>
      <use x="1301.900391" xlink:href="#DejaVuSans-105"/>
      <use x="1329.683594" xlink:href="#DejaVuSans-114"/>
      <use x="1370.796875" xlink:href="#DejaVuSans-115"/>
      <use x="1422.896484" xlink:href="#DejaVuSans-116"/>
      <use x="1462.105469" xlink:href="#DejaVuSans-95"/>
      <use x="1512.105469" xlink:href="#DejaVuSans-114"/>
      <use x="1550.96875" xlink:href="#DejaVuSans-101"/>
      <use x="1612.492188" xlink:href="#DejaVuSans-115"/>
      <use x="1664.591797" xlink:href="#DejaVuSans-116"/>
      <use x="1703.800781" xlink:href="#DejaVuSans-97"/>
      <use x="1765.080078" xlink:href="#DejaVuSans-114"/>
      <use x="1806.193359" xlink:href="#DejaVuSans-116"/>
      <use x="1845.402344" xlink:href="#DejaVuSans-95"/>
      <use x="1895.402344" xlink:href="#DejaVuSans-115"/>
      <use x="1947.501953" xlink:href="#DejaVuSans-116"/>
      <use x="1986.710938" xlink:href="#DejaVuSans-101"/>
      <use x="2048.234375" xlink:href="#DejaVuSans-112"/>
      <use x="2111.710938" xlink:href="#DejaVuSans-61"/>
      <use x="2195.5" xlink:href="#DejaVuSans-50"/>
      <use x="2259.123047" xlink:href="#DejaVuSans-49"/>
      <use x="2322.746094" xlink:href="#DejaVuSans-48"/>
      <use x="2386.369141" xlink:href="#DejaVuSans-48"/>
      <use x="2449.992188" xlink:href="#DejaVuSans-44"/>
      <use x="2481.779297" xlink:href="#DejaVuSans-32"/>
      <use x="2513.566406" xlink:href="#DejaVuSans-109"/>
      <use x="2610.978516" xlink:href="#DejaVuSans-105"/>
      <use x="2638.761719" xlink:href="#DejaVuSans-110"/>
      <use x="2702.140625" xlink:href="#DejaVuSans-61"/>
      <use x="2785.929688" xlink:href="#DejaVuSans-49"/>
      <use x="2849.552734" xlink:href="#DejaVuSans-101"/>
      <use x="2911.076172" xlink:href="#DejaVuSans-45"/>
      <use x="2947.160156" xlink:href="#DejaVuSans-55"/>
      <use x="3010.783203" xlink:href="#DejaVuSans-44"/>
      <use x="3042.570312" xlink:href="#DejaVuSans-32"/>
      <use x="3074.357422" xlink:href="#DejaVuSans-119"/>
      <use x="3156.144531" xlink:href="#DejaVuSans-97"/>
      <use x="3217.423828" xlink:href="#DejaVuSans-114"/>
      <use x="3256.787109" xlink:href="#DejaVuSans-109"/>
      <use x="3354.199219" xlink:href="#DejaVuSans-117"/>
      <use x="3417.578125" xlink:href="#DejaVuSans-112"/>
      <use x="3481.054688" xlink:href="#DejaVuSans-61"/>
      <use x="3564.84375" xlink:href="#DejaVuSans-52"/>
      <use x="3628.466797" xlink:href="#DejaVuSans-44"/>
      <use x="3660.253906" xlink:href="#DejaVuSans-32"/>
      <use x="3692.041016" xlink:href="#DejaVuSans-109"/>
      <use x="3789.453125" xlink:href="#DejaVuSans-95"/>
      <use x="3839.453125" xlink:href="#DejaVuSans-109"/>
      <use x="3936.865234" xlink:href="#DejaVuSans-117"/>
      <use x="4000.244141" xlink:href="#DejaVuSans-108"/>
      <use x="4028.027344" xlink:href="#DejaVuSans-61"/>
      <use x="4111.816406" xlink:href="#DejaVuSans-48"/>
      <use x="4175.439453" xlink:href="#DejaVuSans-46"/>
      <use x="4207.226562" xlink:href="#DejaVuSans-53"/>
     </g>
    </g>
   </g>
  </g>
 </g>
 <defs>
  <clipPath id="p35b26cbf44">
   <rect height="381.343338" width="923.063832" x="64.314126" y="12.9384"/>
  </clipPath>
 </defs>
</svg>
