<?xml version="1.0" encoding="utf-8" standalone="no"?>
<!DOCTYPE svg PUBLIC "-//W3C//DTD SVG 1.1//EN"
  "http://www.w3.org/Graphics/SVG/1.1/DTD/svg11.dtd">
<!-- Created with matplotlib (https://matplotlib.org/) -->
<svg height="432pt" version="1.1" viewBox="0 0 1008 432" width="1008pt" xmlns="http://www.w3.org/2000/svg" xmlns:xlink="http://www.w3.org/1999/xlink">
 <metadata>
  <rdf:RDF xmlns:cc="http://creativecommons.org/ns#" xmlns:dc="http://purl.org/dc/elements/1.1/" xmlns:rdf="http://www.w3.org/1999/02/22-rdf-syntax-ns#">
   <cc:Work>
    <dc:type rdf:resource="http://purl.org/dc/dcmitype/StillImage"/>
    <dc:date>2021-01-19T13:19:40.066978</dc:date>
    <dc:format>image/svg+xml</dc:format>
    <dc:creator>
     <cc:Agent>
      <dc:title>Matplotlib v3.3.2, https://matplotlib.org/</dc:title>
     </cc:Agent>
    </dc:creator>
   </cc:Work>
  </rdf:RDF>
 </metadata>
 <defs>
  <style type="text/css">*{stroke-linecap:butt;stroke-linejoin:round;}</style>
 </defs>
 <g id="figure_1">
  <g id="patch_1">
   <path d="M 0 432 
L 1008 432 
L 1008 0 
L 0 0 
z
" style="fill:#ffffff;"/>
  </g>
  <g id="axes_1">
   <g id="patch_2">
    <path d="M 35.105 410.62 
L 996.3225 410.62 
L 996.3225 6.48 
L 35.105 6.48 
z
" style="fill:#eaeaf2;"/>
   </g>
   <g id="matplotlib.axis_1">
    <g id="xtick_1">
     <g id="line2d_1">
      <path clip-path="url(#p2bda6a8803)" d="M 35.105 410.62 
L 35.105 6.48 
" style="fill:none;stroke:#ffffff;stroke-linecap:round;stroke-width:0.5;"/>
     </g>
     <g id="text_1">
      <!-- 0 -->
      <g style="fill:#262626;" transform="translate(33.355313 424.299141)scale(0.055 -0.055)">
       <defs>
        <path d="M 31.78125 66.40625 
Q 24.171875 66.40625 20.328125 58.90625 
Q 16.5 51.421875 16.5 36.375 
Q 16.5 21.390625 20.328125 13.890625 
Q 24.171875 6.390625 31.78125 6.390625 
Q 39.453125 6.390625 43.28125 13.890625 
Q 47.125 21.390625 47.125 36.375 
Q 47.125 51.421875 43.28125 58.90625 
Q 39.453125 66.40625 31.78125 66.40625 
z
M 31.78125 74.21875 
Q 44.046875 74.21875 50.515625 64.515625 
Q 56.984375 54.828125 56.984375 36.375 
Q 56.984375 17.96875 50.515625 8.265625 
Q 44.046875 -1.421875 31.78125 -1.421875 
Q 19.53125 -1.421875 13.0625 8.265625 
Q 6.59375 17.96875 6.59375 36.375 
Q 6.59375 54.828125 13.0625 64.515625 
Q 19.53125 74.21875 31.78125 74.21875 
z
" id="DejaVuSans-48"/>
       </defs>
       <use xlink:href="#DejaVuSans-48"/>
      </g>
     </g>
    </g>
    <g id="xtick_2">
     <g id="line2d_2">
      <path clip-path="url(#p2bda6a8803)" d="M 195.307917 410.62 
L 195.307917 6.48 
" style="fill:none;stroke:#ffffff;stroke-linecap:round;stroke-width:0.5;"/>
     </g>
     <g id="text_2">
      <!-- 20 -->
      <g style="fill:#262626;" transform="translate(191.808542 424.299141)scale(0.055 -0.055)">
       <defs>
        <path d="M 19.1875 8.296875 
L 53.609375 8.296875 
L 53.609375 0 
L 7.328125 0 
L 7.328125 8.296875 
Q 12.9375 14.109375 22.625 23.890625 
Q 32.328125 33.6875 34.8125 36.53125 
Q 39.546875 41.84375 41.421875 45.53125 
Q 43.3125 49.21875 43.3125 52.78125 
Q 43.3125 58.59375 39.234375 62.25 
Q 35.15625 65.921875 28.609375 65.921875 
Q 23.96875 65.921875 18.8125 64.3125 
Q 13.671875 62.703125 7.8125 59.421875 
L 7.8125 69.390625 
Q 13.765625 71.78125 18.9375 73 
Q 24.125 74.21875 28.421875 74.21875 
Q 39.75 74.21875 46.484375 68.546875 
Q 53.21875 62.890625 53.21875 53.421875 
Q 53.21875 48.921875 51.53125 44.890625 
Q 49.859375 40.875 45.40625 35.40625 
Q 44.1875 33.984375 37.640625 27.21875 
Q 31.109375 20.453125 19.1875 8.296875 
z
" id="DejaVuSans-50"/>
       </defs>
       <use xlink:href="#DejaVuSans-50"/>
       <use x="63.623047" xlink:href="#DejaVuSans-48"/>
      </g>
     </g>
    </g>
    <g id="xtick_3">
     <g id="line2d_3">
      <path clip-path="url(#p2bda6a8803)" d="M 355.510833 410.62 
L 355.510833 6.48 
" style="fill:none;stroke:#ffffff;stroke-linecap:round;stroke-width:0.5;"/>
     </g>
     <g id="text_3">
      <!-- 40 -->
      <g style="fill:#262626;" transform="translate(352.011458 424.299141)scale(0.055 -0.055)">
       <defs>
        <path d="M 37.796875 64.3125 
L 12.890625 25.390625 
L 37.796875 25.390625 
z
M 35.203125 72.90625 
L 47.609375 72.90625 
L 47.609375 25.390625 
L 58.015625 25.390625 
L 58.015625 17.1875 
L 47.609375 17.1875 
L 47.609375 0 
L 37.796875 0 
L 37.796875 17.1875 
L 4.890625 17.1875 
L 4.890625 26.703125 
z
" id="DejaVuSans-52"/>
       </defs>
       <use xlink:href="#DejaVuSans-52"/>
       <use x="63.623047" xlink:href="#DejaVuSans-48"/>
      </g>
     </g>
    </g>
    <g id="xtick_4">
     <g id="line2d_4">
      <path clip-path="url(#p2bda6a8803)" d="M 515.71375 410.62 
L 515.71375 6.48 
" style="fill:none;stroke:#ffffff;stroke-linecap:round;stroke-width:0.5;"/>
     </g>
     <g id="text_4">
      <!-- 60 -->
      <g style="fill:#262626;" transform="translate(512.214375 424.299141)scale(0.055 -0.055)">
       <defs>
        <path d="M 33.015625 40.375 
Q 26.375 40.375 22.484375 35.828125 
Q 18.609375 31.296875 18.609375 23.390625 
Q 18.609375 15.53125 22.484375 10.953125 
Q 26.375 6.390625 33.015625 6.390625 
Q 39.65625 6.390625 43.53125 10.953125 
Q 47.40625 15.53125 47.40625 23.390625 
Q 47.40625 31.296875 43.53125 35.828125 
Q 39.65625 40.375 33.015625 40.375 
z
M 52.59375 71.296875 
L 52.59375 62.3125 
Q 48.875 64.0625 45.09375 64.984375 
Q 41.3125 65.921875 37.59375 65.921875 
Q 27.828125 65.921875 22.671875 59.328125 
Q 17.53125 52.734375 16.796875 39.40625 
Q 19.671875 43.65625 24.015625 45.921875 
Q 28.375 48.1875 33.59375 48.1875 
Q 44.578125 48.1875 50.953125 41.515625 
Q 57.328125 34.859375 57.328125 23.390625 
Q 57.328125 12.15625 50.6875 5.359375 
Q 44.046875 -1.421875 33.015625 -1.421875 
Q 20.359375 -1.421875 13.671875 8.265625 
Q 6.984375 17.96875 6.984375 36.375 
Q 6.984375 53.65625 15.1875 63.9375 
Q 23.390625 74.21875 37.203125 74.21875 
Q 40.921875 74.21875 44.703125 73.484375 
Q 48.484375 72.75 52.59375 71.296875 
z
" id="DejaVuSans-54"/>
       </defs>
       <use xlink:href="#DejaVuSans-54"/>
       <use x="63.623047" xlink:href="#DejaVuSans-48"/>
      </g>
     </g>
    </g>
    <g id="xtick_5">
     <g id="line2d_5">
      <path clip-path="url(#p2bda6a8803)" d="M 675.916667 410.62 
L 675.916667 6.48 
" style="fill:none;stroke:#ffffff;stroke-linecap:round;stroke-width:0.5;"/>
     </g>
     <g id="text_5">
      <!-- 80 -->
      <g style="fill:#262626;" transform="translate(672.417292 424.299141)scale(0.055 -0.055)">
       <defs>
        <path d="M 31.78125 34.625 
Q 24.75 34.625 20.71875 30.859375 
Q 16.703125 27.09375 16.703125 20.515625 
Q 16.703125 13.921875 20.71875 10.15625 
Q 24.75 6.390625 31.78125 6.390625 
Q 38.8125 6.390625 42.859375 10.171875 
Q 46.921875 13.96875 46.921875 20.515625 
Q 46.921875 27.09375 42.890625 30.859375 
Q 38.875 34.625 31.78125 34.625 
z
M 21.921875 38.8125 
Q 15.578125 40.375 12.03125 44.71875 
Q 8.5 49.078125 8.5 55.328125 
Q 8.5 64.0625 14.71875 69.140625 
Q 20.953125 74.21875 31.78125 74.21875 
Q 42.671875 74.21875 48.875 69.140625 
Q 55.078125 64.0625 55.078125 55.328125 
Q 55.078125 49.078125 51.53125 44.71875 
Q 48 40.375 41.703125 38.8125 
Q 48.828125 37.15625 52.796875 32.3125 
Q 56.78125 27.484375 56.78125 20.515625 
Q 56.78125 9.90625 50.3125 4.234375 
Q 43.84375 -1.421875 31.78125 -1.421875 
Q 19.734375 -1.421875 13.25 4.234375 
Q 6.78125 9.90625 6.78125 20.515625 
Q 6.78125 27.484375 10.78125 32.3125 
Q 14.796875 37.15625 21.921875 38.8125 
z
M 18.3125 54.390625 
Q 18.3125 48.734375 21.84375 45.5625 
Q 25.390625 42.390625 31.78125 42.390625 
Q 38.140625 42.390625 41.71875 45.5625 
Q 45.3125 48.734375 45.3125 54.390625 
Q 45.3125 60.0625 41.71875 63.234375 
Q 38.140625 66.40625 31.78125 66.40625 
Q 25.390625 66.40625 21.84375 63.234375 
Q 18.3125 60.0625 18.3125 54.390625 
z
" id="DejaVuSans-56"/>
       </defs>
       <use xlink:href="#DejaVuSans-56"/>
       <use x="63.623047" xlink:href="#DejaVuSans-48"/>
      </g>
     </g>
    </g>
    <g id="xtick_6">
     <g id="line2d_6">
      <path clip-path="url(#p2bda6a8803)" d="M 836.119583 410.62 
L 836.119583 6.48 
" style="fill:none;stroke:#ffffff;stroke-linecap:round;stroke-width:0.5;"/>
     </g>
     <g id="text_6">
      <!-- 100 -->
      <g style="fill:#262626;" transform="translate(830.870521 424.299141)scale(0.055 -0.055)">
       <defs>
        <path d="M 12.40625 8.296875 
L 28.515625 8.296875 
L 28.515625 63.921875 
L 10.984375 60.40625 
L 10.984375 69.390625 
L 28.421875 72.90625 
L 38.28125 72.90625 
L 38.28125 8.296875 
L 54.390625 8.296875 
L 54.390625 0 
L 12.40625 0 
z
" id="DejaVuSans-49"/>
       </defs>
       <use xlink:href="#DejaVuSans-49"/>
       <use x="63.623047" xlink:href="#DejaVuSans-48"/>
       <use x="127.246094" xlink:href="#DejaVuSans-48"/>
      </g>
     </g>
    </g>
    <g id="xtick_7">
     <g id="line2d_7">
      <path clip-path="url(#p2bda6a8803)" d="M 996.3225 410.62 
L 996.3225 6.48 
" style="fill:none;stroke:#ffffff;stroke-linecap:round;stroke-width:0.5;"/>
     </g>
     <g id="text_7">
      <!-- 120 -->
      <g style="fill:#262626;" transform="translate(991.073437 424.299141)scale(0.055 -0.055)">
       <use xlink:href="#DejaVuSans-49"/>
       <use x="63.623047" xlink:href="#DejaVuSans-50"/>
       <use x="127.246094" xlink:href="#DejaVuSans-48"/>
      </g>
     </g>
    </g>
   </g>
   <g id="matplotlib.axis_2">
    <g id="ytick_1">
     <g id="line2d_8">
      <path clip-path="url(#p2bda6a8803)" d="M 35.105 392.256782 
L 996.3225 392.256782 
" style="fill:none;stroke:#ffffff;stroke-linecap:round;stroke-width:0.5;"/>
     </g>
     <g id="text_8">
      <!-- 0.0000 -->
      <g style="fill:#262626;" transform="translate(6.360156 394.346352)scale(0.055 -0.055)">
       <defs>
        <path d="M 10.6875 12.40625 
L 21 12.40625 
L 21 0 
L 10.6875 0 
z
" id="DejaVuSans-46"/>
       </defs>
       <use xlink:href="#DejaVuSans-48"/>
       <use x="63.623047" xlink:href="#DejaVuSans-46"/>
       <use x="95.410156" xlink:href="#DejaVuSans-48"/>
       <use x="159.033203" xlink:href="#DejaVuSans-48"/>
       <use x="222.65625" xlink:href="#DejaVuSans-48"/>
       <use x="286.279297" xlink:href="#DejaVuSans-48"/>
      </g>
     </g>
    </g>
    <g id="ytick_2">
     <g id="line2d_9">
      <path clip-path="url(#p2bda6a8803)" d="M 35.105 318.775429 
L 996.3225 318.775429 
" style="fill:none;stroke:#ffffff;stroke-linecap:round;stroke-width:0.5;"/>
     </g>
     <g id="text_9">
      <!-- 0.0002 -->
      <g style="fill:#262626;" transform="translate(6.360156 320.864999)scale(0.055 -0.055)">
       <use xlink:href="#DejaVuSans-48"/>
       <use x="63.623047" xlink:href="#DejaVuSans-46"/>
       <use x="95.410156" xlink:href="#DejaVuSans-48"/>
       <use x="159.033203" xlink:href="#DejaVuSans-48"/>
       <use x="222.65625" xlink:href="#DejaVuSans-48"/>
       <use x="286.279297" xlink:href="#DejaVuSans-50"/>
      </g>
     </g>
    </g>
    <g id="ytick_3">
     <g id="line2d_10">
      <path clip-path="url(#p2bda6a8803)" d="M 35.105 245.294076 
L 996.3225 245.294076 
" style="fill:none;stroke:#ffffff;stroke-linecap:round;stroke-width:0.5;"/>
     </g>
     <g id="text_10">
      <!-- 0.0004 -->
      <g style="fill:#262626;" transform="translate(6.360156 247.383646)scale(0.055 -0.055)">
       <use xlink:href="#DejaVuSans-48"/>
       <use x="63.623047" xlink:href="#DejaVuSans-46"/>
       <use x="95.410156" xlink:href="#DejaVuSans-48"/>
       <use x="159.033203" xlink:href="#DejaVuSans-48"/>
       <use x="222.65625" xlink:href="#DejaVuSans-48"/>
       <use x="286.279297" xlink:href="#DejaVuSans-52"/>
      </g>
     </g>
    </g>
    <g id="ytick_4">
     <g id="line2d_11">
      <path clip-path="url(#p2bda6a8803)" d="M 35.105 171.812723 
L 996.3225 171.812723 
" style="fill:none;stroke:#ffffff;stroke-linecap:round;stroke-width:0.5;"/>
     </g>
     <g id="text_11">
      <!-- 0.0006 -->
      <g style="fill:#262626;" transform="translate(6.360156 173.902293)scale(0.055 -0.055)">
       <use xlink:href="#DejaVuSans-48"/>
       <use x="63.623047" xlink:href="#DejaVuSans-46"/>
       <use x="95.410156" xlink:href="#DejaVuSans-48"/>
       <use x="159.033203" xlink:href="#DejaVuSans-48"/>
       <use x="222.65625" xlink:href="#DejaVuSans-48"/>
       <use x="286.279297" xlink:href="#DejaVuSans-54"/>
      </g>
     </g>
    </g>
    <g id="ytick_5">
     <g id="line2d_12">
      <path clip-path="url(#p2bda6a8803)" d="M 35.105 98.33137 
L 996.3225 98.33137 
" style="fill:none;stroke:#ffffff;stroke-linecap:round;stroke-width:0.5;"/>
     </g>
     <g id="text_12">
      <!-- 0.0008 -->
      <g style="fill:#262626;" transform="translate(6.360156 100.420941)scale(0.055 -0.055)">
       <use xlink:href="#DejaVuSans-48"/>
       <use x="63.623047" xlink:href="#DejaVuSans-46"/>
       <use x="95.410156" xlink:href="#DejaVuSans-48"/>
       <use x="159.033203" xlink:href="#DejaVuSans-48"/>
       <use x="222.65625" xlink:href="#DejaVuSans-48"/>
       <use x="286.279297" xlink:href="#DejaVuSans-56"/>
      </g>
     </g>
    </g>
    <g id="ytick_6">
     <g id="line2d_13">
      <path clip-path="url(#p2bda6a8803)" d="M 35.105 24.850017 
L 996.3225 24.850017 
" style="fill:none;stroke:#ffffff;stroke-linecap:round;stroke-width:0.5;"/>
     </g>
     <g id="text_13">
      <!-- 0.0010 -->
      <g style="fill:#262626;" transform="translate(6.360156 26.939588)scale(0.055 -0.055)">
       <use xlink:href="#DejaVuSans-48"/>
       <use x="63.623047" xlink:href="#DejaVuSans-46"/>
       <use x="95.410156" xlink:href="#DejaVuSans-48"/>
       <use x="159.033203" xlink:href="#DejaVuSans-48"/>
       <use x="222.65625" xlink:href="#DejaVuSans-49"/>
       <use x="286.279297" xlink:href="#DejaVuSans-48"/>
      </g>
     </g>
    </g>
   </g>
   <g id="line2d_14">
    <path clip-path="url(#p2bda6a8803)" d="M 35.105 24.850017 
L 43.115146 24.850017 
L 51.125292 24.850017 
L 59.135438 24.850017 
L 67.145583 24.850017 
L 75.155729 24.850017 
L 83.165875 24.850017 
L 91.176021 24.850017 
L 99.186167 24.850017 
L 107.196313 24.850017 
L 115.206458 24.850017 
L 123.216604 59.813394 
L 131.22675 91.449565 
L 139.236896 120.075156 
L 147.247042 145.976663 
L 155.257188 169.413315 
L 163.267333 190.619674 
L 171.277479 209.807982 
L 179.287625 227.170281 
L 187.297771 242.880339 
L 195.307917 257.095387 
L 203.318062 269.957694 
L 211.328208 281.595991 
L 219.338354 292.126757 
L 227.3485 301.655389 
L 235.358646 310.277252 
L 243.368792 318.078635 
L 251.378938 325.137619 
L 259.389083 331.524852 
L 267.399229 337.304259 
L 275.409375 342.533683 
L 283.419521 347.265462 
L 291.429667 351.546952 
L 299.439813 355.421004 
L 307.449958 358.926392 
L 315.460104 362.098198 
L 323.47025 364.968167 
L 331.480396 367.565022 
L 339.490542 369.914753 
L 347.500687 372.040878 
L 355.510833 373.964676 
L 363.520979 375.7054 
L 371.531125 377.280472 
L 379.541271 378.705656 
L 387.551417 379.995217 
L 395.561562 381.162059 
L 403.571708 382.217861 
L 411.581854 383.173191 
L 419.592 384.037609 
L 427.602146 384.819766 
L 435.612292 385.527492 
L 443.622437 386.167869 
L 451.632583 386.747305 
L 459.642729 387.271601 
L 467.652875 387.746004 
L 475.663021 388.175261 
L 483.673167 388.563669 
L 491.683312 388.915115 
L 499.693458 389.233117 
L 507.703604 389.520857 
L 515.71375 389.781214 
L 523.723896 390.016796 
L 531.734042 390.229959 
L 539.744187 390.422836 
L 547.754333 390.597359 
L 555.764479 390.755274 
L 563.774625 390.898162 
L 571.784771 391.027451 
L 579.794917 391.144438 
L 587.805062 391.250291 
L 595.815208 391.346071 
L 603.825354 391.432737 
L 611.8355 391.511155 
L 619.845646 391.582111 
L 627.855792 391.646314 
L 635.865937 391.704408 
L 643.876083 391.756973 
L 651.886229 391.804536 
L 659.896375 391.847573 
L 667.906521 391.886514 
L 675.916667 391.92175 
L 683.926812 391.953633 
L 691.936958 391.982481 
L 699.947104 392.008584 
L 707.95725 392.032203 
L 715.967396 392.053575 
L 723.977542 392.072912 
L 731.987687 392.09041 
L 739.997833 392.106242 
L 748.007979 392.120568 
L 756.018125 392.13353 
L 764.028271 392.145259 
L 772.038417 392.155872 
L 780.048563 392.165475 
L 788.058708 392.174164 
L 796.068854 392.182026 
L 804.079 392.18914 
L 812.089146 392.195577 
L 820.099292 392.201401 
L 828.109437 392.206671 
L 836.119583 392.21144 
L 844.129729 392.215755 
L 852.139875 392.219659 
L 860.150021 392.223192 
L 868.160167 392.226388 
L 876.170312 392.229281 
L 884.180458 392.231898 
L 892.190604 392.234266 
L 900.20075 392.236408 
L 908.210896 392.238347 
L 916.221042 392.240101 
L 924.231187 392.241689 
L 932.241333 392.243125 
L 940.251479 392.244425 
L 948.261625 392.245601 
L 956.271771 392.246665 
L 964.281917 392.247627 
L 972.292062 392.248499 
L 980.302208 392.249287 
L 988.312354 392.25 
" style="fill:none;stroke:#4c72b0;stroke-linecap:round;stroke-width:0.75;"/>
   </g>
   <g id="line2d_15">
    <path clip-path="url(#p2bda6a8803)" d="M 35.105 24.850017 
L 43.115146 24.850017 
L 51.125292 24.850017 
L 59.135438 24.850017 
L 67.145583 24.850017 
L 75.155729 24.850017 
L 83.165875 24.850017 
L 91.176021 24.850017 
L 99.186167 24.850017 
L 107.196313 24.850017 
L 115.206458 24.850017 
L 123.216604 42.768657 
L 131.22675 59.813394 
L 139.236896 76.026849 
L 147.247042 91.449565 
L 155.257188 106.120106 
L 163.267333 120.075156 
L 171.277479 133.349611 
L 179.287625 145.976663 
L 187.297771 157.987886 
L 195.307917 169.413315 
L 203.318062 180.281519 
L 211.328208 190.619674 
L 219.338354 200.453632 
L 227.3485 209.807982 
L 235.358646 218.706115 
L 243.368792 227.170281 
L 251.378938 235.221645 
L 259.389083 242.880339 
L 267.399229 250.165514 
L 275.409375 257.095387 
L 283.419521 263.687286 
L 291.429667 269.957694 
L 299.439813 275.922291 
L 307.449958 281.595991 
L 315.460104 286.992981 
L 323.47025 292.126757 
L 331.480396 297.010156 
L 339.490542 301.655389 
L 347.500687 306.074071 
L 355.510833 310.277252 
L 363.520979 314.27544 
L 371.531125 318.078635 
L 379.541271 321.696346 
L 387.551417 325.137619 
L 395.561562 328.411059 
L 403.571708 331.524852 
L 411.581854 334.486783 
L 419.592 337.304259 
L 427.602146 339.984325 
L 435.612292 342.533683 
L 443.622437 344.958707 
L 451.632583 347.265462 
L 459.642729 349.459714 
L 467.652875 351.546952 
L 475.663021 353.532394 
L 483.673167 355.421004 
L 491.683312 357.217506 
L 499.693458 358.926392 
L 507.703604 360.551934 
L 515.71375 362.098198 
L 523.723896 363.569049 
L 531.734042 364.968167 
L 539.744187 366.299048 
L 547.754333 367.565022 
L 555.764479 368.769253 
L 563.774625 369.914753 
L 571.784771 371.004387 
L 579.794917 372.040878 
L 587.805062 373.02682 
L 595.815208 373.964676 
L 603.825354 374.856793 
L 611.8355 375.7054 
L 619.845646 376.51262 
L 627.855792 377.280472 
L 635.865937 378.010875 
L 643.876083 378.705656 
L 651.886229 379.366553 
L 659.896375 379.995217 
L 667.906521 380.59322 
L 675.916667 381.162059 
L 683.926812 381.703155 
L 691.936958 382.217861 
L 699.947104 382.707465 
L 707.95725 383.173191 
L 715.967396 383.616203 
L 723.977542 384.037609 
L 731.987687 384.438463 
L 739.997833 384.819766 
L 748.007979 385.182474 
L 756.018125 385.527492 
L 764.028271 385.855683 
L 772.038417 386.167869 
L 780.048563 386.464828 
L 788.058708 386.747305 
L 796.068854 387.016006 
L 804.079 387.271601 
L 812.089146 387.514731 
L 820.099292 387.746004 
L 828.109437 387.965997 
L 836.119583 388.175261 
L 844.129729 388.374319 
L 852.139875 388.563669 
L 860.150021 388.743784 
L 868.160167 388.915115 
L 876.170312 389.07809 
L 884.180458 389.233117 
L 892.190604 389.380583 
L 900.20075 389.520857 
L 908.210896 389.654289 
L 916.221042 389.781214 
L 924.231187 389.901949 
L 932.241333 390.016796 
L 940.251479 390.126041 
L 948.261625 390.229959 
L 956.271771 390.328808 
L 964.281917 390.422836 
L 972.292062 390.512279 
L 980.302208 390.597359 
L 988.312354 390.67829 
" style="fill:none;stroke:#dd8452;stroke-linecap:round;stroke-width:0.75;"/>
   </g>
   <g id="line2d_16">
    <path clip-path="url(#p2bda6a8803)" d="M 35.105 24.850017 
L 43.115146 24.850017 
L 51.125292 24.850017 
L 59.135438 24.850017 
L 67.145583 24.850017 
L 75.155729 24.850017 
L 83.165875 24.850017 
L 91.176021 24.850017 
L 99.186167 24.850017 
L 107.196313 24.850017 
L 115.206458 24.850017 
L 123.216604 32.125159 
L 131.22675 39.256243 
L 139.236896 46.246122 
L 147.247042 53.097592 
L 155.257188 59.813394 
L 163.267333 66.396214 
L 171.277479 72.848685 
L 179.287625 79.17339 
L 187.297771 85.372856 
L 195.307917 91.449565 
L 203.318062 97.405947 
L 211.328208 103.244385 
L 219.338354 108.967213 
L 227.3485 114.576723 
L 235.358646 120.075156 
L 243.368792 125.464714 
L 251.378938 130.747551 
L 259.389083 135.92578 
L 267.399229 141.001474 
L 275.409375 145.976663 
L 283.419521 150.853336 
L 291.429667 155.633444 
L 299.439813 160.3189 
L 307.449958 164.911578 
L 315.460104 169.413315 
L 323.47025 173.825911 
L 331.480396 178.151132 
L 339.490542 182.390708 
L 347.500687 186.546335 
L 355.510833 190.619674 
L 363.520979 194.612357 
L 371.531125 198.525978 
L 379.541271 202.362105 
L 387.551417 206.122272 
L 395.561562 209.807982 
L 403.571708 213.42071 
L 411.581854 216.961902 
L 419.592 220.432973 
L 427.602146 223.835312 
L 435.612292 227.170281 
L 443.622437 230.439213 
L 451.632583 233.643415 
L 459.642729 236.78417 
L 467.652875 239.862734 
L 475.663021 242.880339 
L 483.673167 245.83819 
L 491.683312 248.737473 
L 499.693458 251.579345 
L 507.703604 254.364945 
L 515.71375 257.095387 
L 523.723896 259.771762 
L 531.734042 262.395141 
L 539.744187 264.966573 
L 547.754333 267.487088 
L 555.764479 269.957694 
L 563.774625 272.379378 
L 571.784771 274.75311 
L 579.794917 277.079838 
L 587.805062 279.360495 
L 595.815208 281.595991 
L 603.825354 283.787221 
L 611.8355 285.935063 
L 619.845646 288.040374 
L 627.855792 290.103997 
L 635.865937 292.126757 
L 643.876083 294.109465 
L 651.886229 296.052912 
L 659.896375 297.957876 
L 667.906521 299.82512 
L 675.916667 301.655389 
L 683.926812 303.449417 
L 691.936958 305.207921 
L 699.947104 306.931603 
L 707.95725 308.621155 
L 715.967396 310.277252 
L 723.977542 311.900555 
L 731.987687 313.491715 
L 739.997833 315.051368 
L 748.007979 316.580137 
L 756.018125 318.078635 
L 764.028271 319.547461 
L 772.038417 320.987202 
L 780.048563 322.398434 
L 788.058708 323.781722 
L 796.068854 325.137619 
L 804.079 326.466668 
L 812.089146 327.769399 
L 820.099292 329.046335 
L 828.109437 330.297986 
L 836.119583 331.524852 
L 844.129729 332.727425 
L 852.139875 333.906185 
L 860.150021 335.061604 
L 868.160167 336.194145 
L 876.170312 337.304259 
L 884.180458 338.392392 
L 892.190604 339.458978 
L 900.20075 340.504445 
L 908.210896 341.52921 
L 916.221042 342.533683 
L 924.231187 343.518266 
L 932.241333 344.483354 
L 940.251479 345.429331 
L 948.261625 346.356577 
L 956.271771 347.265462 
L 964.281917 348.156349 
L 972.292062 349.029597 
L 980.302208 349.885552 
L 988.312354 350.724559 
" style="fill:none;stroke:#55a868;stroke-linecap:round;stroke-width:0.75;"/>
   </g>
   <g id="line2d_17">
    <path clip-path="url(#p2bda6a8803)" d="M 35.105 24.850017 
L 43.115146 24.850017 
L 51.125292 24.850017 
L 59.135438 24.850017 
L 67.145583 24.850017 
L 75.155729 24.850017 
L 83.165875 24.850017 
L 91.176021 24.850017 
L 99.186167 24.850017 
L 107.196313 24.850017 
L 115.206458 355.516105 
L 123.216604 355.516105 
L 131.22675 355.516105 
L 139.236896 355.516105 
L 147.247042 355.516105 
L 155.257188 355.516105 
L 163.267333 355.516105 
L 171.277479 355.516105 
L 179.287625 355.516105 
L 187.297771 355.516105 
L 195.307917 388.582714 
L 203.318062 388.582714 
L 211.328208 388.582714 
L 219.338354 388.582714 
L 227.3485 388.582714 
L 235.358646 388.582714 
L 243.368792 388.582714 
L 251.378938 388.582714 
L 259.389083 388.582714 
L 267.399229 388.582714 
L 275.409375 391.889375 
L 283.419521 391.889375 
L 291.429667 391.889375 
L 299.439813 391.889375 
L 307.449958 391.889375 
L 315.460104 391.889375 
L 323.47025 391.889375 
L 331.480396 391.889375 
L 339.490542 391.889375 
L 347.500687 391.889375 
L 355.510833 392.220041 
L 363.520979 392.220041 
L 371.531125 392.220041 
L 379.541271 392.220041 
L 387.551417 392.220041 
L 395.561562 392.220041 
L 403.571708 392.220041 
L 411.581854 392.220041 
L 419.592 392.220041 
L 427.602146 392.220041 
L 435.612292 392.220041 
L 443.622437 392.220041 
L 451.632583 392.220041 
L 459.642729 392.220041 
L 467.652875 392.220041 
L 475.663021 392.220041 
L 483.673167 392.220041 
L 491.683312 392.220041 
L 499.693458 392.220041 
L 507.703604 392.220041 
L 515.71375 392.220041 
L 523.723896 392.220041 
L 531.734042 392.220041 
L 539.744187 392.220041 
L 547.754333 392.220041 
L 555.764479 392.220041 
L 563.774625 392.220041 
L 571.784771 392.220041 
L 579.794917 392.220041 
L 587.805062 392.220041 
L 595.815208 392.220041 
L 603.825354 392.220041 
L 611.8355 392.220041 
L 619.845646 392.220041 
L 627.855792 392.220041 
L 635.865937 392.220041 
L 643.876083 392.220041 
L 651.886229 392.220041 
L 659.896375 392.220041 
L 667.906521 392.220041 
L 675.916667 392.220041 
L 683.926812 392.220041 
L 691.936958 392.220041 
L 699.947104 392.220041 
L 707.95725 392.220041 
L 715.967396 392.220041 
L 723.977542 392.220041 
L 731.987687 392.220041 
L 739.997833 392.220041 
L 748.007979 392.220041 
L 756.018125 392.220041 
L 764.028271 392.220041 
L 772.038417 392.220041 
L 780.048563 392.220041 
L 788.058708 392.220041 
L 796.068854 392.220041 
L 804.079 392.220041 
L 812.089146 392.220041 
L 820.099292 392.220041 
L 828.109437 392.220041 
L 836.119583 392.220041 
L 844.129729 392.220041 
L 852.139875 392.220041 
L 860.150021 392.220041 
L 868.160167 392.220041 
L 876.170312 392.220041 
L 884.180458 392.220041 
L 892.190604 392.220041 
L 900.20075 392.220041 
L 908.210896 392.220041 
L 916.221042 392.220041 
L 924.231187 392.220041 
L 932.241333 392.220041 
L 940.251479 392.220041 
L 948.261625 392.220041 
L 956.271771 392.220041 
L 964.281917 392.220041 
L 972.292062 392.220041 
L 980.302208 392.220041 
L 988.312354 392.220041 
" style="fill:none;stroke:#c44e52;stroke-linecap:round;stroke-width:0.75;"/>
   </g>
   <g id="line2d_18">
    <path clip-path="url(#p2bda6a8803)" d="M 35.105 24.85 
L 43.115146 24.940591 
L 51.125292 25.212106 
L 59.135438 25.66446 
L 67.145583 26.297098 
L 75.155729 27.109462 
L 83.165875 28.100655 
L 91.176021 29.269736 
L 99.186167 30.615593 
L 107.196313 32.136899 
L 115.206458 33.832094 
L 123.216604 35.699532 
L 131.22675 37.737414 
L 139.236896 39.943647 
L 147.247042 42.316112 
L 155.257188 44.852457 
L 163.267333 47.550158 
L 171.277479 50.406564 
L 179.287625 53.418895 
L 187.297771 56.584135 
L 195.307917 59.899161 
L 203.318062 63.360681 
L 211.328208 66.965337 
L 219.338354 70.709535 
L 227.3485 74.589577 
L 235.358646 78.601655 
L 243.368792 82.741814 
L 251.378938 87.005946 
L 259.389083 91.389839 
L 267.399229 95.889173 
L 275.409375 100.499522 
L 283.419521 105.216329 
L 291.429667 110.034933 
L 299.439813 114.950587 
L 307.449958 119.958435 
L 315.460104 125.053516 
L 323.47025 130.230825 
L 331.480396 135.485231 
L 339.490542 140.811601 
L 347.500687 146.204608 
L 355.510833 151.658994 
L 363.520979 157.169324 
L 371.531125 162.730211 
L 379.541271 168.336094 
L 387.551417 173.98152 
L 395.561562 179.660885 
L 403.571708 185.368607 
L 411.581854 191.098956 
L 419.592 196.846392 
L 427.602146 202.605205 
L 435.612292 208.369707 
L 443.622437 214.134188 
L 451.632583 219.89298 
L 459.642729 225.640416 
L 467.652875 231.370818 
L 475.663021 237.078498 
L 483.673167 242.757852 
L 491.683312 248.403267 
L 499.693458 254.009182 
L 507.703604 259.570037 
L 515.71375 265.080432 
L 523.723896 270.534774 
L 531.734042 275.927804 
L 539.744187 281.254173 
L 547.754333 286.508589 
L 555.764479 291.685867 
L 563.774625 296.781002 
L 571.784771 301.788828 
L 579.794917 306.704476 
L 587.805062 311.52308 
L 595.815208 316.239834 
L 603.825354 320.850188 
L 611.8355 325.34957 
L 619.845646 329.733464 
L 627.855792 333.997564 
L 635.865937 338.137701 
L 643.876083 342.149779 
L 651.886229 346.029842 
L 659.896375 349.774043 
L 667.906521 353.378694 
L 675.916667 356.840243 
L 683.926812 360.155261 
L 691.936958 363.320496 
L 699.947104 366.332805 
L 707.95725 369.189211 
L 715.967396 371.88694 
L 723.977542 374.423278 
L 731.987687 376.795745 
L 739.997833 379.00199 
L 748.007979 381.039832 
L 756.018125 382.907276 
L 764.028271 384.6025 
L 772.038417 386.123778 
L 780.048563 387.469623 
L 788.058708 388.638732 
L 796.068854 389.629947 
L 804.079 390.442271 
L 812.089146 391.074918 
L 820.099292 391.527241 
L 828.109437 391.798814 
L 836.119583 391.889375 
L 844.129729 391.889375 
L 852.139875 391.889375 
L 860.150021 391.889375 
L 868.160167 391.889375 
L 876.170312 391.889375 
L 884.180458 391.889375 
L 892.190604 391.889375 
L 900.20075 391.889375 
L 908.210896 391.889375 
L 916.221042 391.889375 
L 924.231187 391.889375 
L 932.241333 391.889375 
L 940.251479 391.889375 
L 948.261625 391.889375 
L 956.271771 391.889375 
L 964.281917 391.889375 
L 972.292062 391.889375 
L 980.302208 391.889375 
L 988.312354 391.889375 
" style="fill:none;stroke:#8172b3;stroke-linecap:round;stroke-width:0.75;"/>
   </g>
   <g id="line2d_19">
    <path clip-path="url(#p2bda6a8803)" d="M 35.105 24.850017 
L 43.115146 24.85 
L 51.125292 26.421478 
L 59.135438 31.108922 
L 67.145583 38.832201 
L 75.155729 49.459127 
L 83.165875 62.807899 
L 91.176021 78.650073 
L 99.186167 96.714669 
L 107.196313 116.692489 
L 115.206458 138.241808 
L 123.216604 160.993827 
L 131.22675 184.559344 
L 139.236896 208.535042 
L 147.247042 232.51075 
L 155.257188 256.076214 
L 163.267333 278.828254 
L 171.277479 300.377552 
L 179.287625 320.355377 
L 187.297771 338.419941 
L 195.307917 354.262174 
L 203.318062 367.610911 
L 211.328208 378.237868 
L 219.338354 385.961134 
L 227.3485 390.648595 
L 235.358646 245.27202 
L 243.368792 245.429335 
L 251.378938 245.900616 
L 259.389083 246.68382 
L 267.399229 247.775602 
L 275.409375 249.171288 
L 283.419521 250.8649 
L 291.429667 252.849201 
L 299.439813 255.115667 
L 307.449958 257.654642 
L 315.460104 260.455188 
L 323.47025 263.505361 
L 331.480396 266.792073 
L 339.490542 270.301251 
L 347.500687 274.017905 
L 355.510833 277.926069 
L 363.520979 282.009031 
L 371.531125 286.249318 
L 379.541271 290.628763 
L 387.551417 295.128589 
L 395.561562 299.72957 
L 403.571708 304.411962 
L 411.581854 309.155748 
L 419.592 313.9406 
L 427.602146 318.746036 
L 435.612292 323.551477 
L 443.622437 328.336302 
L 451.632583 333.080104 
L 459.642729 337.762523 
L 467.652875 342.363477 
L 475.663021 346.863325 
L 483.673167 351.242767 
L 491.683312 355.483028 
L 499.693458 359.566013 
L 507.703604 363.474191 
L 515.71375 367.19081 
L 523.723896 370.700001 
L 531.734042 373.986722 
L 539.744187 377.036882 
L 547.754333 379.83744 
L 555.764479 382.376398 
L 563.774625 384.64287 
L 571.784771 386.627172 
L 579.794917 388.320792 
L 587.805062 389.716474 
L 595.815208 390.808261 
L 603.825354 391.591462 
L 611.8355 392.062729 
L 619.845646 333.44083 
L 627.855792 333.45657 
L 635.865937 333.503753 
L 643.876083 333.582351 
L 651.886229 333.692259 
L 659.896375 333.833379 
L 667.906521 334.005546 
L 675.916667 334.208578 
L 683.926812 334.442257 
L 691.936958 334.706335 
L 699.947104 335.00053 
L 707.95725 335.324531 
L 715.967396 335.677981 
L 723.977542 336.060505 
L 731.987687 336.471703 
L 739.997833 336.911118 
L 748.007979 337.378288 
L 756.018125 337.872719 
L 764.028271 338.393872 
L 772.038417 338.94119 
L 780.048563 339.514097 
L 788.058708 340.111966 
L 796.068854 340.734161 
L 804.079 341.380015 
L 812.089146 342.048843 
L 820.099292 342.739928 
L 828.109437 343.452527 
L 836.119583 344.185876 
L 844.129729 344.939178 
L 852.139875 345.711652 
L 860.150021 346.502449 
L 868.160167 347.310728 
L 876.170312 348.135638 
L 884.180458 348.976272 
L 892.190604 349.831742 
L 900.20075 350.701146 
L 908.210896 351.583522 
L 916.221042 352.477944 
L 924.231187 353.38346 
L 932.241333 354.299086 
L 940.251479 355.223841 
L 948.261625 356.156761 
L 956.271771 357.096809 
L 964.281917 358.042999 
L 972.292062 358.994326 
L 980.302208 359.949751 
L 988.312354 360.908259 
" style="fill:none;stroke:#937860;stroke-linecap:round;stroke-width:0.75;"/>
   </g>
   <g id="line2d_20">
    <path clip-path="url(#p2bda6a8803)" d="M 235.358646 391.889375 
L 235.358646 245.27202 
" style="fill:none;stroke:#1a1a1a;stroke-dasharray:0.75,1.2375;stroke-dashoffset:0;stroke-width:0.75;"/>
   </g>
   <g id="line2d_21">
    <path clip-path="url(#p2bda6a8803)" d="M 35.105 24.850017 
L 43.115146 24.850017 
L 51.125292 24.850017 
L 59.135438 24.850017 
L 67.145583 24.85 
L 75.155729 26.901634 
L 83.165875 33.010598 
L 91.176021 43.040559 
L 99.186167 56.767326 
L 107.196313 73.884399 
L 115.206458 94.00929 
L 123.216604 116.692489 
L 131.22675 141.427364 
L 139.236896 167.661284 
L 147.247042 194.808231 
L 155.257188 222.261852 
L 163.267333 249.408821 
L 171.277479 275.64273 
L 179.287625 300.377552 
L 187.297771 323.060794 
L 195.307917 343.185685 
L 203.318062 360.302701 
L 211.328208 374.029513 
L 219.338354 384.059438 
L 227.3485 390.168438 
L 235.358646 208.53502 
L 243.368792 208.791843 
L 251.378938 209.560837 
L 259.389083 210.837703 
L 267.399229 212.615341 
L 275.409375 214.883763 
L 283.419521 217.6303 
L 291.429667 220.839594 
L 299.439813 224.493684 
L 307.449958 228.572176 
L 315.460104 233.052209 
L 323.47025 237.908773 
L 331.480396 243.114665 
L 339.490542 248.640822 
L 347.500687 254.456275 
L 355.510833 260.528574 
L 363.520979 266.823703 
L 371.531125 273.306471 
L 379.541271 279.940662 
L 387.551417 286.689118 
L 395.561562 293.514136 
L 403.571708 300.377541 
L 411.581854 307.240946 
L 419.592 314.065964 
L 427.602146 320.814404 
L 435.612292 327.44859 
L 443.622437 333.931385 
L 451.632583 340.226514 
L 459.642729 346.298775 
L 467.652875 352.114256 
L 475.663021 357.640417 
L 483.673167 362.846312 
L 491.683312 367.702847 
L 499.693458 372.182898 
L 507.703604 376.261371 
L 515.71375 379.915487 
L 523.723896 383.124771 
L 531.734042 385.871318 
L 539.744187 388.13974 
L 547.754333 389.917362 
L 555.764479 391.194234 
L 563.774625 391.963228 
L 571.784771 300.377541 
L 579.794917 300.409641 
L 587.805062 300.505942 
L 595.815208 300.666272 
L 603.825354 300.890439 
L 611.8355 301.178101 
L 619.845646 301.528872 
L 627.855792 301.942261 
L 635.865937 302.41768 
L 643.876083 302.954482 
L 651.886229 303.551902 
L 659.896375 304.209096 
L 667.906521 304.92517 
L 675.916667 305.699099 
L 683.926812 306.529812 
L 691.936958 307.416145 
L 699.947104 308.356862 
L 707.95725 309.350643 
L 715.967396 310.396103 
L 723.977542 311.491771 
L 731.987687 312.636125 
L 739.997833 313.827554 
L 748.007979 315.064402 
L 756.018125 316.34493 
L 764.028271 317.667348 
L 772.038417 319.029821 
L 780.048563 320.430431 
L 788.058708 321.867199 
L 796.068854 323.338163 
L 804.079 324.841228 
L 812.089146 326.374291 
L 820.099292 327.935247 
L 828.109437 329.521866 
L 836.119583 331.131967 
L 844.129729 332.763256 
L 852.139875 334.413482 
L 860.150021 336.080357 
L 868.160167 337.761496 
L 876.170312 339.454574 
L 884.180458 341.157244 
L 892.190604 342.867083 
L 900.20075 344.581745 
L 908.210896 346.298791 
L 916.221042 348.015829 
L 924.231187 349.730494 
L 932.241333 351.440335 
L 940.251479 353.143002 
L 948.261625 354.836083 
L 956.271771 356.517222 
L 964.281917 358.184092 
L 972.292062 359.834315 
L 980.302208 361.465612 
L 988.312354 363.075713 
" style="fill:none;stroke:#da8bc3;stroke-linecap:round;stroke-width:0.75;"/>
   </g>
   <g id="line2d_22">
    <path clip-path="url(#p2bda6a8803)" d="M 235.358646 391.889375 
L 235.358646 208.53502 
" style="fill:none;stroke:#1a1a1a;stroke-dasharray:0.75,1.2375;stroke-dashoffset:0;stroke-width:0.75;"/>
   </g>
   <g id="patch_3">
    <path d="M 35.105 410.62 
L 35.105 6.48 
" style="fill:none;stroke:#ffffff;stroke-linecap:square;stroke-linejoin:miter;stroke-width:0.625;"/>
   </g>
   <g id="patch_4">
    <path d="M 996.3225 410.62 
L 996.3225 6.48 
" style="fill:none;stroke:#ffffff;stroke-linecap:square;stroke-linejoin:miter;stroke-width:0.625;"/>
   </g>
   <g id="patch_5">
    <path d="M 35.105 410.62 
L 996.3225 410.62 
" style="fill:none;stroke:#ffffff;stroke-linecap:square;stroke-linejoin:miter;stroke-width:0.625;"/>
   </g>
   <g id="patch_6">
    <path d="M 35.105 6.48 
L 996.3225 6.48 
" style="fill:none;stroke:#ffffff;stroke-linecap:square;stroke-linejoin:miter;stroke-width:0.625;"/>
   </g>
   <g id="text_14">
    <!-- [Cosine] -->
    <g style="fill:#262626;" transform="translate(971.492813 383.922875)scale(0.06 -0.06)">
     <defs>
      <path d="M 8.59375 75.984375 
L 29.296875 75.984375 
L 29.296875 69 
L 17.578125 69 
L 17.578125 -6.203125 
L 29.296875 -6.203125 
L 29.296875 -13.1875 
L 8.59375 -13.1875 
z
" id="DejaVuSans-91"/>
      <path d="M 64.40625 67.28125 
L 64.40625 56.890625 
Q 59.421875 61.53125 53.78125 63.8125 
Q 48.140625 66.109375 41.796875 66.109375 
Q 29.296875 66.109375 22.65625 58.46875 
Q 16.015625 50.828125 16.015625 36.375 
Q 16.015625 21.96875 22.65625 14.328125 
Q 29.296875 6.6875 41.796875 6.6875 
Q 48.140625 6.6875 53.78125 8.984375 
Q 59.421875 11.28125 64.40625 15.921875 
L 64.40625 5.609375 
Q 59.234375 2.09375 53.4375 0.328125 
Q 47.65625 -1.421875 41.21875 -1.421875 
Q 24.65625 -1.421875 15.125 8.703125 
Q 5.609375 18.84375 5.609375 36.375 
Q 5.609375 53.953125 15.125 64.078125 
Q 24.65625 74.21875 41.21875 74.21875 
Q 47.75 74.21875 53.53125 72.484375 
Q 59.328125 70.75 64.40625 67.28125 
z
" id="DejaVuSans-67"/>
      <path d="M 30.609375 48.390625 
Q 23.390625 48.390625 19.1875 42.75 
Q 14.984375 37.109375 14.984375 27.296875 
Q 14.984375 17.484375 19.15625 11.84375 
Q 23.34375 6.203125 30.609375 6.203125 
Q 37.796875 6.203125 41.984375 11.859375 
Q 46.1875 17.53125 46.1875 27.296875 
Q 46.1875 37.015625 41.984375 42.703125 
Q 37.796875 48.390625 30.609375 48.390625 
z
M 30.609375 56 
Q 42.328125 56 49.015625 48.375 
Q 55.71875 40.765625 55.71875 27.296875 
Q 55.71875 13.875 49.015625 6.21875 
Q 42.328125 -1.421875 30.609375 -1.421875 
Q 18.84375 -1.421875 12.171875 6.21875 
Q 5.515625 13.875 5.515625 27.296875 
Q 5.515625 40.765625 12.171875 48.375 
Q 18.84375 56 30.609375 56 
z
" id="DejaVuSans-111"/>
      <path d="M 44.28125 53.078125 
L 44.28125 44.578125 
Q 40.484375 46.53125 36.375 47.5 
Q 32.28125 48.484375 27.875 48.484375 
Q 21.1875 48.484375 17.84375 46.4375 
Q 14.5 44.390625 14.5 40.28125 
Q 14.5 37.15625 16.890625 35.375 
Q 19.28125 33.59375 26.515625 31.984375 
L 29.59375 31.296875 
Q 39.15625 29.25 43.1875 25.515625 
Q 47.21875 21.78125 47.21875 15.09375 
Q 47.21875 7.46875 41.1875 3.015625 
Q 35.15625 -1.421875 24.609375 -1.421875 
Q 20.21875 -1.421875 15.453125 -0.5625 
Q 10.6875 0.296875 5.421875 2 
L 5.421875 11.28125 
Q 10.40625 8.6875 15.234375 7.390625 
Q 20.0625 6.109375 24.8125 6.109375 
Q 31.15625 6.109375 34.5625 8.28125 
Q 37.984375 10.453125 37.984375 14.40625 
Q 37.984375 18.0625 35.515625 20.015625 
Q 33.0625 21.96875 24.703125 23.78125 
L 21.578125 24.515625 
Q 13.234375 26.265625 9.515625 29.90625 
Q 5.8125 33.546875 5.8125 39.890625 
Q 5.8125 47.609375 11.28125 51.796875 
Q 16.75 56 26.8125 56 
Q 31.78125 56 36.171875 55.265625 
Q 40.578125 54.546875 44.28125 53.078125 
z
" id="DejaVuSans-115"/>
      <path d="M 9.421875 54.6875 
L 18.40625 54.6875 
L 18.40625 0 
L 9.421875 0 
z
M 9.421875 75.984375 
L 18.40625 75.984375 
L 18.40625 64.59375 
L 9.421875 64.59375 
z
" id="DejaVuSans-105"/>
      <path d="M 54.890625 33.015625 
L 54.890625 0 
L 45.90625 0 
L 45.90625 32.71875 
Q 45.90625 40.484375 42.875 44.328125 
Q 39.84375 48.1875 33.796875 48.1875 
Q 26.515625 48.1875 22.3125 43.546875 
Q 18.109375 38.921875 18.109375 30.90625 
L 18.109375 0 
L 9.078125 0 
L 9.078125 54.6875 
L 18.109375 54.6875 
L 18.109375 46.1875 
Q 21.34375 51.125 25.703125 53.5625 
Q 30.078125 56 35.796875 56 
Q 45.21875 56 50.046875 50.171875 
Q 54.890625 44.34375 54.890625 33.015625 
z
" id="DejaVuSans-110"/>
      <path d="M 56.203125 29.59375 
L 56.203125 25.203125 
L 14.890625 25.203125 
Q 15.484375 15.921875 20.484375 11.0625 
Q 25.484375 6.203125 34.421875 6.203125 
Q 39.59375 6.203125 44.453125 7.46875 
Q 49.3125 8.734375 54.109375 11.28125 
L 54.109375 2.78125 
Q 49.265625 0.734375 44.1875 -0.34375 
Q 39.109375 -1.421875 33.890625 -1.421875 
Q 20.796875 -1.421875 13.15625 6.1875 
Q 5.515625 13.8125 5.515625 26.8125 
Q 5.515625 40.234375 12.765625 48.109375 
Q 20.015625 56 32.328125 56 
Q 43.359375 56 49.78125 48.890625 
Q 56.203125 41.796875 56.203125 29.59375 
z
M 47.21875 32.234375 
Q 47.125 39.59375 43.09375 43.984375 
Q 39.0625 48.390625 32.421875 48.390625 
Q 24.90625 48.390625 20.390625 44.140625 
Q 15.875 39.890625 15.1875 32.171875 
z
" id="DejaVuSans-101"/>
      <path d="M 30.421875 75.984375 
L 30.421875 -13.1875 
L 9.71875 -13.1875 
L 9.71875 -6.203125 
L 21.390625 -6.203125 
L 21.390625 69 
L 9.71875 69 
L 9.71875 75.984375 
z
" id="DejaVuSans-93"/>
     </defs>
     <use xlink:href="#DejaVuSans-91"/>
     <use x="39.013672" xlink:href="#DejaVuSans-67"/>
     <use x="108.837891" xlink:href="#DejaVuSans-111"/>
     <use x="170.019531" xlink:href="#DejaVuSans-115"/>
     <use x="222.119141" xlink:href="#DejaVuSans-105"/>
     <use x="249.902344" xlink:href="#DejaVuSans-110"/>
     <use x="313.28125" xlink:href="#DejaVuSans-101"/>
     <use x="374.804688" xlink:href="#DejaVuSans-93"/>
    </g>
    <!-- (120, 1.00e-06) -->
    <g style="fill:#262626;" transform="translate(949.523438 390.641562)scale(0.06 -0.06)">
     <defs>
      <path d="M 31 75.875 
Q 24.46875 64.65625 21.28125 53.65625 
Q 18.109375 42.671875 18.109375 31.390625 
Q 18.109375 20.125 21.3125 9.0625 
Q 24.515625 -2 31 -13.1875 
L 23.1875 -13.1875 
Q 15.875 -1.703125 12.234375 9.375 
Q 8.59375 20.453125 8.59375 31.390625 
Q 8.59375 42.28125 12.203125 53.3125 
Q 15.828125 64.359375 23.1875 75.875 
z
" id="DejaVuSans-40"/>
      <path d="M 11.71875 12.40625 
L 22.015625 12.40625 
L 22.015625 4 
L 14.015625 -11.625 
L 7.71875 -11.625 
L 11.71875 4 
z
" id="DejaVuSans-44"/>
      <path id="DejaVuSans-32"/>
      <path d="M 4.890625 31.390625 
L 31.203125 31.390625 
L 31.203125 23.390625 
L 4.890625 23.390625 
z
" id="DejaVuSans-45"/>
      <path d="M 8.015625 75.875 
L 15.828125 75.875 
Q 23.140625 64.359375 26.78125 53.3125 
Q 30.421875 42.28125 30.421875 31.390625 
Q 30.421875 20.453125 26.78125 9.375 
Q 23.140625 -1.703125 15.828125 -13.1875 
L 8.015625 -13.1875 
Q 14.5 -2 17.703125 9.0625 
Q 20.90625 20.125 20.90625 31.390625 
Q 20.90625 42.671875 17.703125 53.65625 
Q 14.5 64.65625 8.015625 75.875 
z
" id="DejaVuSans-41"/>
     </defs>
     <use xlink:href="#DejaVuSans-40"/>
     <use x="39.013672" xlink:href="#DejaVuSans-49"/>
     <use x="102.636719" xlink:href="#DejaVuSans-50"/>
     <use x="166.259766" xlink:href="#DejaVuSans-48"/>
     <use x="229.882812" xlink:href="#DejaVuSans-44"/>
     <use x="261.669922" xlink:href="#DejaVuSans-32"/>
     <use x="293.457031" xlink:href="#DejaVuSans-49"/>
     <use x="357.080078" xlink:href="#DejaVuSans-46"/>
     <use x="388.867188" xlink:href="#DejaVuSans-48"/>
     <use x="452.490234" xlink:href="#DejaVuSans-48"/>
     <use x="516.113281" xlink:href="#DejaVuSans-101"/>
     <use x="577.636719" xlink:href="#DejaVuSans-45"/>
     <use x="613.720703" xlink:href="#DejaVuSans-48"/>
     <use x="677.34375" xlink:href="#DejaVuSans-54"/>
     <use x="740.966797" xlink:href="#DejaVuSans-41"/>
    </g>
   </g>
   <g id="text_15">
    <!-- (25, 0.00040006003) -->
    <g style="fill:#262626;" transform="translate(235.358646 245.27202)scale(0.06 -0.06)">
     <defs>
      <path d="M 10.796875 72.90625 
L 49.515625 72.90625 
L 49.515625 64.59375 
L 19.828125 64.59375 
L 19.828125 46.734375 
Q 21.96875 47.46875 24.109375 47.828125 
Q 26.265625 48.1875 28.421875 48.1875 
Q 40.625 48.1875 47.75 41.5 
Q 54.890625 34.8125 54.890625 23.390625 
Q 54.890625 11.625 47.5625 5.09375 
Q 40.234375 -1.421875 26.90625 -1.421875 
Q 22.3125 -1.421875 17.546875 -0.640625 
Q 12.796875 0.140625 7.71875 1.703125 
L 7.71875 11.625 
Q 12.109375 9.234375 16.796875 8.0625 
Q 21.484375 6.890625 26.703125 6.890625 
Q 35.15625 6.890625 40.078125 11.328125 
Q 45.015625 15.765625 45.015625 23.390625 
Q 45.015625 31 40.078125 35.4375 
Q 35.15625 39.890625 26.703125 39.890625 
Q 22.75 39.890625 18.8125 39.015625 
Q 14.890625 38.140625 10.796875 36.28125 
z
" id="DejaVuSans-53"/>
      <path d="M 40.578125 39.3125 
Q 47.65625 37.796875 51.625 33 
Q 55.609375 28.21875 55.609375 21.1875 
Q 55.609375 10.40625 48.1875 4.484375 
Q 40.765625 -1.421875 27.09375 -1.421875 
Q 22.515625 -1.421875 17.65625 -0.515625 
Q 12.796875 0.390625 7.625 2.203125 
L 7.625 11.71875 
Q 11.71875 9.328125 16.59375 8.109375 
Q 21.484375 6.890625 26.8125 6.890625 
Q 36.078125 6.890625 40.9375 10.546875 
Q 45.796875 14.203125 45.796875 21.1875 
Q 45.796875 27.640625 41.28125 31.265625 
Q 36.765625 34.90625 28.71875 34.90625 
L 20.21875 34.90625 
L 20.21875 43.015625 
L 29.109375 43.015625 
Q 36.375 43.015625 40.234375 45.921875 
Q 44.09375 48.828125 44.09375 54.296875 
Q 44.09375 59.90625 40.109375 62.90625 
Q 36.140625 65.921875 28.71875 65.921875 
Q 24.65625 65.921875 20.015625 65.03125 
Q 15.375 64.15625 9.8125 62.3125 
L 9.8125 71.09375 
Q 15.4375 72.65625 20.34375 73.4375 
Q 25.25 74.21875 29.59375 74.21875 
Q 40.828125 74.21875 47.359375 69.109375 
Q 53.90625 64.015625 53.90625 55.328125 
Q 53.90625 49.265625 50.4375 45.09375 
Q 46.96875 40.921875 40.578125 39.3125 
z
" id="DejaVuSans-51"/>
     </defs>
     <use xlink:href="#DejaVuSans-40"/>
     <use x="39.013672" xlink:href="#DejaVuSans-50"/>
     <use x="102.636719" xlink:href="#DejaVuSans-53"/>
     <use x="166.259766" xlink:href="#DejaVuSans-44"/>
     <use x="198.046875" xlink:href="#DejaVuSans-32"/>
     <use x="229.833984" xlink:href="#DejaVuSans-48"/>
     <use x="293.457031" xlink:href="#DejaVuSans-46"/>
     <use x="325.244141" xlink:href="#DejaVuSans-48"/>
     <use x="388.867188" xlink:href="#DejaVuSans-48"/>
     <use x="452.490234" xlink:href="#DejaVuSans-48"/>
     <use x="516.113281" xlink:href="#DejaVuSans-52"/>
     <use x="579.736328" xlink:href="#DejaVuSans-48"/>
     <use x="643.359375" xlink:href="#DejaVuSans-48"/>
     <use x="706.982422" xlink:href="#DejaVuSans-48"/>
     <use x="770.605469" xlink:href="#DejaVuSans-54"/>
     <use x="834.228516" xlink:href="#DejaVuSans-48"/>
     <use x="897.851562" xlink:href="#DejaVuSans-48"/>
     <use x="961.474609" xlink:href="#DejaVuSans-51"/>
     <use x="1025.097656" xlink:href="#DejaVuSans-41"/>
    </g>
   </g>
   <g id="text_16">
    <!-- (25, 0.00050005) -->
    <g style="fill:#262626;" transform="translate(235.358646 208.53502)scale(0.06 -0.06)">
     <use xlink:href="#DejaVuSans-40"/>
     <use x="39.013672" xlink:href="#DejaVuSans-50"/>
     <use x="102.636719" xlink:href="#DejaVuSans-53"/>
     <use x="166.259766" xlink:href="#DejaVuSans-44"/>
     <use x="198.046875" xlink:href="#DejaVuSans-32"/>
     <use x="229.833984" xlink:href="#DejaVuSans-48"/>
     <use x="293.457031" xlink:href="#DejaVuSans-46"/>
     <use x="325.244141" xlink:href="#DejaVuSans-48"/>
     <use x="388.867188" xlink:href="#DejaVuSans-48"/>
     <use x="452.490234" xlink:href="#DejaVuSans-48"/>
     <use x="516.113281" xlink:href="#DejaVuSans-53"/>
     <use x="579.736328" xlink:href="#DejaVuSans-48"/>
     <use x="643.359375" xlink:href="#DejaVuSans-48"/>
     <use x="706.982422" xlink:href="#DejaVuSans-48"/>
     <use x="770.605469" xlink:href="#DejaVuSans-53"/>
     <use x="834.228516" xlink:href="#DejaVuSans-41"/>
    </g>
   </g>
   <g id="legend_1">
    <g id="line2d_23">
     <path d="M 727.08375 13.684141 
L 738.08375 13.684141 
" style="fill:none;stroke:#4c72b0;stroke-linecap:round;stroke-width:0.75;"/>
    </g>
    <g id="line2d_24"/>
    <g id="text_17">
     <!-- lr=0.001, decay=0.1 -->
     <g style="fill:#262626;" transform="translate(742.48375 15.609141)scale(0.055 -0.055)">
      <defs>
       <path d="M 9.421875 75.984375 
L 18.40625 75.984375 
L 18.40625 0 
L 9.421875 0 
z
" id="DejaVuSans-108"/>
       <path d="M 41.109375 46.296875 
Q 39.59375 47.171875 37.8125 47.578125 
Q 36.03125 48 33.890625 48 
Q 26.265625 48 22.1875 43.046875 
Q 18.109375 38.09375 18.109375 28.8125 
L 18.109375 0 
L 9.078125 0 
L 9.078125 54.6875 
L 18.109375 54.6875 
L 18.109375 46.1875 
Q 20.953125 51.171875 25.484375 53.578125 
Q 30.03125 56 36.53125 56 
Q 37.453125 56 38.578125 55.875 
Q 39.703125 55.765625 41.0625 55.515625 
z
" id="DejaVuSans-114"/>
       <path d="M 10.59375 45.40625 
L 73.1875 45.40625 
L 73.1875 37.203125 
L 10.59375 37.203125 
z
M 10.59375 25.484375 
L 73.1875 25.484375 
L 73.1875 17.1875 
L 10.59375 17.1875 
z
" id="DejaVuSans-61"/>
       <path d="M 45.40625 46.390625 
L 45.40625 75.984375 
L 54.390625 75.984375 
L 54.390625 0 
L 45.40625 0 
L 45.40625 8.203125 
Q 42.578125 3.328125 38.25 0.953125 
Q 33.9375 -1.421875 27.875 -1.421875 
Q 17.96875 -1.421875 11.734375 6.484375 
Q 5.515625 14.40625 5.515625 27.296875 
Q 5.515625 40.1875 11.734375 48.09375 
Q 17.96875 56 27.875 56 
Q 33.9375 56 38.25 53.625 
Q 42.578125 51.265625 45.40625 46.390625 
z
M 14.796875 27.296875 
Q 14.796875 17.390625 18.875 11.75 
Q 22.953125 6.109375 30.078125 6.109375 
Q 37.203125 6.109375 41.296875 11.75 
Q 45.40625 17.390625 45.40625 27.296875 
Q 45.40625 37.203125 41.296875 42.84375 
Q 37.203125 48.484375 30.078125 48.484375 
Q 22.953125 48.484375 18.875 42.84375 
Q 14.796875 37.203125 14.796875 27.296875 
z
" id="DejaVuSans-100"/>
       <path d="M 48.78125 52.59375 
L 48.78125 44.1875 
Q 44.96875 46.296875 41.140625 47.34375 
Q 37.3125 48.390625 33.40625 48.390625 
Q 24.65625 48.390625 19.8125 42.84375 
Q 14.984375 37.3125 14.984375 27.296875 
Q 14.984375 17.28125 19.8125 11.734375 
Q 24.65625 6.203125 33.40625 6.203125 
Q 37.3125 6.203125 41.140625 7.25 
Q 44.96875 8.296875 48.78125 10.40625 
L 48.78125 2.09375 
Q 45.015625 0.34375 40.984375 -0.53125 
Q 36.96875 -1.421875 32.421875 -1.421875 
Q 20.0625 -1.421875 12.78125 6.34375 
Q 5.515625 14.109375 5.515625 27.296875 
Q 5.515625 40.671875 12.859375 48.328125 
Q 20.21875 56 33.015625 56 
Q 37.15625 56 41.109375 55.140625 
Q 45.0625 54.296875 48.78125 52.59375 
z
" id="DejaVuSans-99"/>
       <path d="M 34.28125 27.484375 
Q 23.390625 27.484375 19.1875 25 
Q 14.984375 22.515625 14.984375 16.5 
Q 14.984375 11.71875 18.140625 8.90625 
Q 21.296875 6.109375 26.703125 6.109375 
Q 34.1875 6.109375 38.703125 11.40625 
Q 43.21875 16.703125 43.21875 25.484375 
L 43.21875 27.484375 
z
M 52.203125 31.203125 
L 52.203125 0 
L 43.21875 0 
L 43.21875 8.296875 
Q 40.140625 3.328125 35.546875 0.953125 
Q 30.953125 -1.421875 24.3125 -1.421875 
Q 15.921875 -1.421875 10.953125 3.296875 
Q 6 8.015625 6 15.921875 
Q 6 25.140625 12.171875 29.828125 
Q 18.359375 34.515625 30.609375 34.515625 
L 43.21875 34.515625 
L 43.21875 35.40625 
Q 43.21875 41.609375 39.140625 45 
Q 35.0625 48.390625 27.6875 48.390625 
Q 23 48.390625 18.546875 47.265625 
Q 14.109375 46.140625 10.015625 43.890625 
L 10.015625 52.203125 
Q 14.9375 54.109375 19.578125 55.046875 
Q 24.21875 56 28.609375 56 
Q 40.484375 56 46.34375 49.84375 
Q 52.203125 43.703125 52.203125 31.203125 
z
" id="DejaVuSans-97"/>
       <path d="M 32.171875 -5.078125 
Q 28.375 -14.84375 24.75 -17.8125 
Q 21.140625 -20.796875 15.09375 -20.796875 
L 7.90625 -20.796875 
L 7.90625 -13.28125 
L 13.1875 -13.28125 
Q 16.890625 -13.28125 18.9375 -11.515625 
Q 21 -9.765625 23.484375 -3.21875 
L 25.09375 0.875 
L 2.984375 54.6875 
L 12.5 54.6875 
L 29.59375 11.921875 
L 46.6875 54.6875 
L 56.203125 54.6875 
z
" id="DejaVuSans-121"/>
      </defs>
      <use xlink:href="#DejaVuSans-108"/>
      <use x="27.783203" xlink:href="#DejaVuSans-114"/>
      <use x="68.896484" xlink:href="#DejaVuSans-61"/>
      <use x="152.685547" xlink:href="#DejaVuSans-48"/>
      <use x="216.308594" xlink:href="#DejaVuSans-46"/>
      <use x="248.095703" xlink:href="#DejaVuSans-48"/>
      <use x="311.71875" xlink:href="#DejaVuSans-48"/>
      <use x="375.341797" xlink:href="#DejaVuSans-49"/>
      <use x="438.964844" xlink:href="#DejaVuSans-44"/>
      <use x="470.751953" xlink:href="#DejaVuSans-32"/>
      <use x="502.539062" xlink:href="#DejaVuSans-100"/>
      <use x="566.015625" xlink:href="#DejaVuSans-101"/>
      <use x="627.539062" xlink:href="#DejaVuSans-99"/>
      <use x="682.519531" xlink:href="#DejaVuSans-97"/>
      <use x="743.798828" xlink:href="#DejaVuSans-121"/>
      <use x="802.978516" xlink:href="#DejaVuSans-61"/>
      <use x="886.767578" xlink:href="#DejaVuSans-48"/>
      <use x="950.390625" xlink:href="#DejaVuSans-46"/>
      <use x="982.177734" xlink:href="#DejaVuSans-49"/>
     </g>
    </g>
    <g id="line2d_25">
     <path d="M 727.08375 21.757109 
L 738.08375 21.757109 
" style="fill:none;stroke:#dd8452;stroke-linecap:round;stroke-width:0.75;"/>
    </g>
    <g id="line2d_26"/>
    <g id="text_18">
     <!-- lr=0.001, decay=0.05 -->
     <g style="fill:#262626;" transform="translate(742.48375 23.682109)scale(0.055 -0.055)">
      <use xlink:href="#DejaVuSans-108"/>
      <use x="27.783203" xlink:href="#DejaVuSans-114"/>
      <use x="68.896484" xlink:href="#DejaVuSans-61"/>
      <use x="152.685547" xlink:href="#DejaVuSans-48"/>
      <use x="216.308594" xlink:href="#DejaVuSans-46"/>
      <use x="248.095703" xlink:href="#DejaVuSans-48"/>
      <use x="311.71875" xlink:href="#DejaVuSans-48"/>
      <use x="375.341797" xlink:href="#DejaVuSans-49"/>
      <use x="438.964844" xlink:href="#DejaVuSans-44"/>
      <use x="470.751953" xlink:href="#DejaVuSans-32"/>
      <use x="502.539062" xlink:href="#DejaVuSans-100"/>
      <use x="566.015625" xlink:href="#DejaVuSans-101"/>
      <use x="627.539062" xlink:href="#DejaVuSans-99"/>
      <use x="682.519531" xlink:href="#DejaVuSans-97"/>
      <use x="743.798828" xlink:href="#DejaVuSans-121"/>
      <use x="802.978516" xlink:href="#DejaVuSans-61"/>
      <use x="886.767578" xlink:href="#DejaVuSans-48"/>
      <use x="950.390625" xlink:href="#DejaVuSans-46"/>
      <use x="982.177734" xlink:href="#DejaVuSans-48"/>
      <use x="1045.800781" xlink:href="#DejaVuSans-53"/>
     </g>
    </g>
    <g id="line2d_27">
     <path d="M 727.08375 29.830078 
L 738.08375 29.830078 
" style="fill:none;stroke:#55a868;stroke-linecap:round;stroke-width:0.75;"/>
    </g>
    <g id="line2d_28"/>
    <g id="text_19">
     <!-- lr=0.001, decay=0.02 -->
     <g style="fill:#262626;" transform="translate(742.48375 31.755078)scale(0.055 -0.055)">
      <use xlink:href="#DejaVuSans-108"/>
      <use x="27.783203" xlink:href="#DejaVuSans-114"/>
      <use x="68.896484" xlink:href="#DejaVuSans-61"/>
      <use x="152.685547" xlink:href="#DejaVuSans-48"/>
      <use x="216.308594" xlink:href="#DejaVuSans-46"/>
      <use x="248.095703" xlink:href="#DejaVuSans-48"/>
      <use x="311.71875" xlink:href="#DejaVuSans-48"/>
      <use x="375.341797" xlink:href="#DejaVuSans-49"/>
      <use x="438.964844" xlink:href="#DejaVuSans-44"/>
      <use x="470.751953" xlink:href="#DejaVuSans-32"/>
      <use x="502.539062" xlink:href="#DejaVuSans-100"/>
      <use x="566.015625" xlink:href="#DejaVuSans-101"/>
      <use x="627.539062" xlink:href="#DejaVuSans-99"/>
      <use x="682.519531" xlink:href="#DejaVuSans-97"/>
      <use x="743.798828" xlink:href="#DejaVuSans-121"/>
      <use x="802.978516" xlink:href="#DejaVuSans-61"/>
      <use x="886.767578" xlink:href="#DejaVuSans-48"/>
      <use x="950.390625" xlink:href="#DejaVuSans-46"/>
      <use x="982.177734" xlink:href="#DejaVuSans-48"/>
      <use x="1045.800781" xlink:href="#DejaVuSans-50"/>
     </g>
    </g>
    <g id="line2d_29">
     <path d="M 727.08375 37.903047 
L 738.08375 37.903047 
" style="fill:none;stroke:#c44e52;stroke-linecap:round;stroke-width:0.75;"/>
    </g>
    <g id="line2d_30"/>
    <g id="text_20">
     <!-- Constant, lr=0.001, decay_steps=[10, 20, 30, 40], decay_rate=0.1 -->
     <g style="fill:#262626;" transform="translate(742.48375 39.828047)scale(0.055 -0.055)">
      <defs>
       <path d="M 18.3125 70.21875 
L 18.3125 54.6875 
L 36.8125 54.6875 
L 36.8125 47.703125 
L 18.3125 47.703125 
L 18.3125 18.015625 
Q 18.3125 11.328125 20.140625 9.421875 
Q 21.96875 7.515625 27.59375 7.515625 
L 36.8125 7.515625 
L 36.8125 0 
L 27.59375 0 
Q 17.1875 0 13.234375 3.875 
Q 9.28125 7.765625 9.28125 18.015625 
L 9.28125 47.703125 
L 2.6875 47.703125 
L 2.6875 54.6875 
L 9.28125 54.6875 
L 9.28125 70.21875 
z
" id="DejaVuSans-116"/>
       <path d="M 50.984375 -16.609375 
L 50.984375 -23.578125 
L -0.984375 -23.578125 
L -0.984375 -16.609375 
z
" id="DejaVuSans-95"/>
       <path d="M 18.109375 8.203125 
L 18.109375 -20.796875 
L 9.078125 -20.796875 
L 9.078125 54.6875 
L 18.109375 54.6875 
L 18.109375 46.390625 
Q 20.953125 51.265625 25.265625 53.625 
Q 29.59375 56 35.59375 56 
Q 45.5625 56 51.78125 48.09375 
Q 58.015625 40.1875 58.015625 27.296875 
Q 58.015625 14.40625 51.78125 6.484375 
Q 45.5625 -1.421875 35.59375 -1.421875 
Q 29.59375 -1.421875 25.265625 0.953125 
Q 20.953125 3.328125 18.109375 8.203125 
z
M 48.6875 27.296875 
Q 48.6875 37.203125 44.609375 42.84375 
Q 40.53125 48.484375 33.40625 48.484375 
Q 26.265625 48.484375 22.1875 42.84375 
Q 18.109375 37.203125 18.109375 27.296875 
Q 18.109375 17.390625 22.1875 11.75 
Q 26.265625 6.109375 33.40625 6.109375 
Q 40.53125 6.109375 44.609375 11.75 
Q 48.6875 17.390625 48.6875 27.296875 
z
" id="DejaVuSans-112"/>
      </defs>
      <use xlink:href="#DejaVuSans-67"/>
      <use x="69.824219" xlink:href="#DejaVuSans-111"/>
      <use x="131.005859" xlink:href="#DejaVuSans-110"/>
      <use x="194.384766" xlink:href="#DejaVuSans-115"/>
      <use x="246.484375" xlink:href="#DejaVuSans-116"/>
      <use x="285.693359" xlink:href="#DejaVuSans-97"/>
      <use x="346.972656" xlink:href="#DejaVuSans-110"/>
      <use x="410.351562" xlink:href="#DejaVuSans-116"/>
      <use x="449.560547" xlink:href="#DejaVuSans-44"/>
      <use x="481.347656" xlink:href="#DejaVuSans-32"/>
      <use x="513.134766" xlink:href="#DejaVuSans-108"/>
      <use x="540.917969" xlink:href="#DejaVuSans-114"/>
      <use x="582.03125" xlink:href="#DejaVuSans-61"/>
      <use x="665.820312" xlink:href="#DejaVuSans-48"/>
      <use x="729.443359" xlink:href="#DejaVuSans-46"/>
      <use x="761.230469" xlink:href="#DejaVuSans-48"/>
      <use x="824.853516" xlink:href="#DejaVuSans-48"/>
      <use x="888.476562" xlink:href="#DejaVuSans-49"/>
      <use x="952.099609" xlink:href="#DejaVuSans-44"/>
      <use x="983.886719" xlink:href="#DejaVuSans-32"/>
      <use x="1015.673828" xlink:href="#DejaVuSans-100"/>
      <use x="1079.150391" xlink:href="#DejaVuSans-101"/>
      <use x="1140.673828" xlink:href="#DejaVuSans-99"/>
      <use x="1195.654297" xlink:href="#DejaVuSans-97"/>
      <use x="1256.933594" xlink:href="#DejaVuSans-121"/>
      <use x="1316.113281" xlink:href="#DejaVuSans-95"/>
      <use x="1366.113281" xlink:href="#DejaVuSans-115"/>
      <use x="1418.212891" xlink:href="#DejaVuSans-116"/>
      <use x="1457.421875" xlink:href="#DejaVuSans-101"/>
      <use x="1518.945312" xlink:href="#DejaVuSans-112"/>
      <use x="1582.421875" xlink:href="#DejaVuSans-115"/>
      <use x="1634.521484" xlink:href="#DejaVuSans-61"/>
      <use x="1718.310547" xlink:href="#DejaVuSans-91"/>
      <use x="1757.324219" xlink:href="#DejaVuSans-49"/>
      <use x="1820.947266" xlink:href="#DejaVuSans-48"/>
      <use x="1884.570312" xlink:href="#DejaVuSans-44"/>
      <use x="1916.357422" xlink:href="#DejaVuSans-32"/>
      <use x="1948.144531" xlink:href="#DejaVuSans-50"/>
      <use x="2011.767578" xlink:href="#DejaVuSans-48"/>
      <use x="2075.390625" xlink:href="#DejaVuSans-44"/>
      <use x="2107.177734" xlink:href="#DejaVuSans-32"/>
      <use x="2138.964844" xlink:href="#DejaVuSans-51"/>
      <use x="2202.587891" xlink:href="#DejaVuSans-48"/>
      <use x="2266.210938" xlink:href="#DejaVuSans-44"/>
      <use x="2297.998047" xlink:href="#DejaVuSans-32"/>
      <use x="2329.785156" xlink:href="#DejaVuSans-52"/>
      <use x="2393.408203" xlink:href="#DejaVuSans-48"/>
      <use x="2457.03125" xlink:href="#DejaVuSans-93"/>
      <use x="2496.044922" xlink:href="#DejaVuSans-44"/>
      <use x="2527.832031" xlink:href="#DejaVuSans-32"/>
      <use x="2559.619141" xlink:href="#DejaVuSans-100"/>
      <use x="2623.095703" xlink:href="#DejaVuSans-101"/>
      <use x="2684.619141" xlink:href="#DejaVuSans-99"/>
      <use x="2739.599609" xlink:href="#DejaVuSans-97"/>
      <use x="2800.878906" xlink:href="#DejaVuSans-121"/>
      <use x="2860.058594" xlink:href="#DejaVuSans-95"/>
      <use x="2910.058594" xlink:href="#DejaVuSans-114"/>
      <use x="2951.171875" xlink:href="#DejaVuSans-97"/>
      <use x="3012.451172" xlink:href="#DejaVuSans-116"/>
      <use x="3051.660156" xlink:href="#DejaVuSans-101"/>
      <use x="3113.183594" xlink:href="#DejaVuSans-61"/>
      <use x="3196.972656" xlink:href="#DejaVuSans-48"/>
      <use x="3260.595703" xlink:href="#DejaVuSans-46"/>
      <use x="3292.382812" xlink:href="#DejaVuSans-49"/>
     </g>
    </g>
    <g id="line2d_31">
     <path d="M 727.08375 46.128984 
L 738.08375 46.128984 
" style="fill:none;stroke:#8172b3;stroke-linecap:round;stroke-width:0.75;"/>
    </g>
    <g id="line2d_32"/>
    <g id="text_21">
     <!-- Cosine, first_restart_step=100, min=1e-6, m_mul=1e-3 -->
     <g style="fill:#262626;" transform="translate(742.48375 48.053984)scale(0.055 -0.055)">
      <defs>
       <path d="M 37.109375 75.984375 
L 37.109375 68.5 
L 28.515625 68.5 
Q 23.6875 68.5 21.796875 66.546875 
Q 19.921875 64.59375 19.921875 59.515625 
L 19.921875 54.6875 
L 34.71875 54.6875 
L 34.71875 47.703125 
L 19.921875 47.703125 
L 19.921875 0 
L 10.890625 0 
L 10.890625 47.703125 
L 2.296875 47.703125 
L 2.296875 54.6875 
L 10.890625 54.6875 
L 10.890625 58.5 
Q 10.890625 67.625 15.140625 71.796875 
Q 19.390625 75.984375 28.609375 75.984375 
z
" id="DejaVuSans-102"/>
       <path d="M 52 44.1875 
Q 55.375 50.25 60.0625 53.125 
Q 64.75 56 71.09375 56 
Q 79.640625 56 84.28125 50.015625 
Q 88.921875 44.046875 88.921875 33.015625 
L 88.921875 0 
L 79.890625 0 
L 79.890625 32.71875 
Q 79.890625 40.578125 77.09375 44.375 
Q 74.3125 48.1875 68.609375 48.1875 
Q 61.625 48.1875 57.5625 43.546875 
Q 53.515625 38.921875 53.515625 30.90625 
L 53.515625 0 
L 44.484375 0 
L 44.484375 32.71875 
Q 44.484375 40.625 41.703125 44.40625 
Q 38.921875 48.1875 33.109375 48.1875 
Q 26.21875 48.1875 22.15625 43.53125 
Q 18.109375 38.875 18.109375 30.90625 
L 18.109375 0 
L 9.078125 0 
L 9.078125 54.6875 
L 18.109375 54.6875 
L 18.109375 46.1875 
Q 21.1875 51.21875 25.484375 53.609375 
Q 29.78125 56 35.6875 56 
Q 41.65625 56 45.828125 52.96875 
Q 50 49.953125 52 44.1875 
z
" id="DejaVuSans-109"/>
       <path d="M 8.5 21.578125 
L 8.5 54.6875 
L 17.484375 54.6875 
L 17.484375 21.921875 
Q 17.484375 14.15625 20.5 10.265625 
Q 23.53125 6.390625 29.59375 6.390625 
Q 36.859375 6.390625 41.078125 11.03125 
Q 45.3125 15.671875 45.3125 23.6875 
L 45.3125 54.6875 
L 54.296875 54.6875 
L 54.296875 0 
L 45.3125 0 
L 45.3125 8.40625 
Q 42.046875 3.421875 37.71875 1 
Q 33.40625 -1.421875 27.6875 -1.421875 
Q 18.265625 -1.421875 13.375 4.4375 
Q 8.5 10.296875 8.5 21.578125 
z
M 31.109375 56 
z
" id="DejaVuSans-117"/>
      </defs>
      <use xlink:href="#DejaVuSans-67"/>
      <use x="69.824219" xlink:href="#DejaVuSans-111"/>
      <use x="131.005859" xlink:href="#DejaVuSans-115"/>
      <use x="183.105469" xlink:href="#DejaVuSans-105"/>
      <use x="210.888672" xlink:href="#DejaVuSans-110"/>
      <use x="274.267578" xlink:href="#DejaVuSans-101"/>
      <use x="335.791016" xlink:href="#DejaVuSans-44"/>
      <use x="367.578125" xlink:href="#DejaVuSans-32"/>
      <use x="399.365234" xlink:href="#DejaVuSans-102"/>
      <use x="434.570312" xlink:href="#DejaVuSans-105"/>
      <use x="462.353516" xlink:href="#DejaVuSans-114"/>
      <use x="503.466797" xlink:href="#DejaVuSans-115"/>
      <use x="555.566406" xlink:href="#DejaVuSans-116"/>
      <use x="594.775391" xlink:href="#DejaVuSans-95"/>
      <use x="644.775391" xlink:href="#DejaVuSans-114"/>
      <use x="683.638672" xlink:href="#DejaVuSans-101"/>
      <use x="745.162109" xlink:href="#DejaVuSans-115"/>
      <use x="797.261719" xlink:href="#DejaVuSans-116"/>
      <use x="836.470703" xlink:href="#DejaVuSans-97"/>
      <use x="897.75" xlink:href="#DejaVuSans-114"/>
      <use x="938.863281" xlink:href="#DejaVuSans-116"/>
      <use x="978.072266" xlink:href="#DejaVuSans-95"/>
      <use x="1028.072266" xlink:href="#DejaVuSans-115"/>
      <use x="1080.171875" xlink:href="#DejaVuSans-116"/>
      <use x="1119.380859" xlink:href="#DejaVuSans-101"/>
      <use x="1180.904297" xlink:href="#DejaVuSans-112"/>
      <use x="1244.380859" xlink:href="#DejaVuSans-61"/>
      <use x="1328.169922" xlink:href="#DejaVuSans-49"/>
      <use x="1391.792969" xlink:href="#DejaVuSans-48"/>
      <use x="1455.416016" xlink:href="#DejaVuSans-48"/>
      <use x="1519.039062" xlink:href="#DejaVuSans-44"/>
      <use x="1550.826172" xlink:href="#DejaVuSans-32"/>
      <use x="1582.613281" xlink:href="#DejaVuSans-109"/>
      <use x="1680.025391" xlink:href="#DejaVuSans-105"/>
      <use x="1707.808594" xlink:href="#DejaVuSans-110"/>
      <use x="1771.1875" xlink:href="#DejaVuSans-61"/>
      <use x="1854.976562" xlink:href="#DejaVuSans-49"/>
      <use x="1918.599609" xlink:href="#DejaVuSans-101"/>
      <use x="1980.123047" xlink:href="#DejaVuSans-45"/>
      <use x="2016.207031" xlink:href="#DejaVuSans-54"/>
      <use x="2079.830078" xlink:href="#DejaVuSans-44"/>
      <use x="2111.617188" xlink:href="#DejaVuSans-32"/>
      <use x="2143.404297" xlink:href="#DejaVuSans-109"/>
      <use x="2240.816406" xlink:href="#DejaVuSans-95"/>
      <use x="2290.816406" xlink:href="#DejaVuSans-109"/>
      <use x="2388.228516" xlink:href="#DejaVuSans-117"/>
      <use x="2451.607422" xlink:href="#DejaVuSans-108"/>
      <use x="2479.390625" xlink:href="#DejaVuSans-61"/>
      <use x="2563.179688" xlink:href="#DejaVuSans-49"/>
      <use x="2626.802734" xlink:href="#DejaVuSans-101"/>
      <use x="2688.326172" xlink:href="#DejaVuSans-45"/>
      <use x="2724.410156" xlink:href="#DejaVuSans-51"/>
     </g>
    </g>
    <g id="line2d_33">
     <path d="M 727.08375 54.354922 
L 738.08375 54.354922 
" style="fill:none;stroke:#937860;stroke-linecap:round;stroke-width:0.75;"/>
    </g>
    <g id="line2d_34"/>
    <g id="text_22">
     <!-- Cosine restart, first_restart_step=24, min=1e-7, warmup=1, m_mul=0.4 -->
     <g style="fill:#262626;" transform="translate(742.48375 56.279922)scale(0.055 -0.055)">
      <defs>
       <path d="M 8.203125 72.90625 
L 55.078125 72.90625 
L 55.078125 68.703125 
L 28.609375 0 
L 18.3125 0 
L 43.21875 64.59375 
L 8.203125 64.59375 
z
" id="DejaVuSans-55"/>
       <path d="M 4.203125 54.6875 
L 13.1875 54.6875 
L 24.421875 12.015625 
L 35.59375 54.6875 
L 46.1875 54.6875 
L 57.421875 12.015625 
L 68.609375 54.6875 
L 77.59375 54.6875 
L 63.28125 0 
L 52.6875 0 
L 40.921875 44.828125 
L 29.109375 0 
L 18.5 0 
z
" id="DejaVuSans-119"/>
      </defs>
      <use xlink:href="#DejaVuSans-67"/>
      <use x="69.824219" xlink:href="#DejaVuSans-111"/>
      <use x="131.005859" xlink:href="#DejaVuSans-115"/>
      <use x="183.105469" xlink:href="#DejaVuSans-105"/>
      <use x="210.888672" xlink:href="#DejaVuSans-110"/>
      <use x="274.267578" xlink:href="#DejaVuSans-101"/>
      <use x="335.791016" xlink:href="#DejaVuSans-32"/>
      <use x="367.578125" xlink:href="#DejaVuSans-114"/>
      <use x="406.441406" xlink:href="#DejaVuSans-101"/>
      <use x="467.964844" xlink:href="#DejaVuSans-115"/>
      <use x="520.064453" xlink:href="#DejaVuSans-116"/>
      <use x="559.273438" xlink:href="#DejaVuSans-97"/>
      <use x="620.552734" xlink:href="#DejaVuSans-114"/>
      <use x="661.666016" xlink:href="#DejaVuSans-116"/>
      <use x="700.875" xlink:href="#DejaVuSans-44"/>
      <use x="732.662109" xlink:href="#DejaVuSans-32"/>
      <use x="764.449219" xlink:href="#DejaVuSans-102"/>
      <use x="799.654297" xlink:href="#DejaVuSans-105"/>
      <use x="827.4375" xlink:href="#DejaVuSans-114"/>
      <use x="868.550781" xlink:href="#DejaVuSans-115"/>
      <use x="920.650391" xlink:href="#DejaVuSans-116"/>
      <use x="959.859375" xlink:href="#DejaVuSans-95"/>
      <use x="1009.859375" xlink:href="#DejaVuSans-114"/>
      <use x="1048.722656" xlink:href="#DejaVuSans-101"/>
      <use x="1110.246094" xlink:href="#DejaVuSans-115"/>
      <use x="1162.345703" xlink:href="#DejaVuSans-116"/>
      <use x="1201.554688" xlink:href="#DejaVuSans-97"/>
      <use x="1262.833984" xlink:href="#DejaVuSans-114"/>
      <use x="1303.947266" xlink:href="#DejaVuSans-116"/>
      <use x="1343.15625" xlink:href="#DejaVuSans-95"/>
      <use x="1393.15625" xlink:href="#DejaVuSans-115"/>
      <use x="1445.255859" xlink:href="#DejaVuSans-116"/>
      <use x="1484.464844" xlink:href="#DejaVuSans-101"/>
      <use x="1545.988281" xlink:href="#DejaVuSans-112"/>
      <use x="1609.464844" xlink:href="#DejaVuSans-61"/>
      <use x="1693.253906" xlink:href="#DejaVuSans-50"/>
      <use x="1756.876953" xlink:href="#DejaVuSans-52"/>
      <use x="1820.5" xlink:href="#DejaVuSans-44"/>
      <use x="1852.287109" xlink:href="#DejaVuSans-32"/>
      <use x="1884.074219" xlink:href="#DejaVuSans-109"/>
      <use x="1981.486328" xlink:href="#DejaVuSans-105"/>
      <use x="2009.269531" xlink:href="#DejaVuSans-110"/>
      <use x="2072.648438" xlink:href="#DejaVuSans-61"/>
      <use x="2156.4375" xlink:href="#DejaVuSans-49"/>
      <use x="2220.060547" xlink:href="#DejaVuSans-101"/>
      <use x="2281.583984" xlink:href="#DejaVuSans-45"/>
      <use x="2317.667969" xlink:href="#DejaVuSans-55"/>
      <use x="2381.291016" xlink:href="#DejaVuSans-44"/>
      <use x="2413.078125" xlink:href="#DejaVuSans-32"/>
      <use x="2444.865234" xlink:href="#DejaVuSans-119"/>
      <use x="2526.652344" xlink:href="#DejaVuSans-97"/>
      <use x="2587.931641" xlink:href="#DejaVuSans-114"/>
      <use x="2627.294922" xlink:href="#DejaVuSans-109"/>
      <use x="2724.707031" xlink:href="#DejaVuSans-117"/>
      <use x="2788.085938" xlink:href="#DejaVuSans-112"/>
      <use x="2851.5625" xlink:href="#DejaVuSans-61"/>
      <use x="2935.351562" xlink:href="#DejaVuSans-49"/>
      <use x="2998.974609" xlink:href="#DejaVuSans-44"/>
      <use x="3030.761719" xlink:href="#DejaVuSans-32"/>
      <use x="3062.548828" xlink:href="#DejaVuSans-109"/>
      <use x="3159.960938" xlink:href="#DejaVuSans-95"/>
      <use x="3209.960938" xlink:href="#DejaVuSans-109"/>
      <use x="3307.373047" xlink:href="#DejaVuSans-117"/>
      <use x="3370.751953" xlink:href="#DejaVuSans-108"/>
      <use x="3398.535156" xlink:href="#DejaVuSans-61"/>
      <use x="3482.324219" xlink:href="#DejaVuSans-48"/>
      <use x="3545.947266" xlink:href="#DejaVuSans-46"/>
      <use x="3577.734375" xlink:href="#DejaVuSans-52"/>
     </g>
    </g>
    <g id="line2d_35">
     <path d="M 727.08375 62.580859 
L 738.08375 62.580859 
" style="fill:none;stroke:#da8bc3;stroke-linecap:round;stroke-width:0.75;"/>
    </g>
    <g id="line2d_36"/>
    <g id="text_23">
     <!-- Cosine restart, on batch, first_restart_step=21000, min=1e-7, warmup=4000, m_mul=0.5 -->
     <g style="fill:#262626;" transform="translate(742.48375 64.505859)scale(0.055 -0.055)">
      <defs>
       <path d="M 48.6875 27.296875 
Q 48.6875 37.203125 44.609375 42.84375 
Q 40.53125 48.484375 33.40625 48.484375 
Q 26.265625 48.484375 22.1875 42.84375 
Q 18.109375 37.203125 18.109375 27.296875 
Q 18.109375 17.390625 22.1875 11.75 
Q 26.265625 6.109375 33.40625 6.109375 
Q 40.53125 6.109375 44.609375 11.75 
Q 48.6875 17.390625 48.6875 27.296875 
z
M 18.109375 46.390625 
Q 20.953125 51.265625 25.265625 53.625 
Q 29.59375 56 35.59375 56 
Q 45.5625 56 51.78125 48.09375 
Q 58.015625 40.1875 58.015625 27.296875 
Q 58.015625 14.40625 51.78125 6.484375 
Q 45.5625 -1.421875 35.59375 -1.421875 
Q 29.59375 -1.421875 25.265625 0.953125 
Q 20.953125 3.328125 18.109375 8.203125 
L 18.109375 0 
L 9.078125 0 
L 9.078125 75.984375 
L 18.109375 75.984375 
z
" id="DejaVuSans-98"/>
       <path d="M 54.890625 33.015625 
L 54.890625 0 
L 45.90625 0 
L 45.90625 32.71875 
Q 45.90625 40.484375 42.875 44.328125 
Q 39.84375 48.1875 33.796875 48.1875 
Q 26.515625 48.1875 22.3125 43.546875 
Q 18.109375 38.921875 18.109375 30.90625 
L 18.109375 0 
L 9.078125 0 
L 9.078125 75.984375 
L 18.109375 75.984375 
L 18.109375 46.1875 
Q 21.34375 51.125 25.703125 53.5625 
Q 30.078125 56 35.796875 56 
Q 45.21875 56 50.046875 50.171875 
Q 54.890625 44.34375 54.890625 33.015625 
z
" id="DejaVuSans-104"/>
      </defs>
      <use xlink:href="#DejaVuSans-67"/>
      <use x="69.824219" xlink:href="#DejaVuSans-111"/>
      <use x="131.005859" xlink:href="#DejaVuSans-115"/>
      <use x="183.105469" xlink:href="#DejaVuSans-105"/>
      <use x="210.888672" xlink:href="#DejaVuSans-110"/>
      <use x="274.267578" xlink:href="#DejaVuSans-101"/>
      <use x="335.791016" xlink:href="#DejaVuSans-32"/>
      <use x="367.578125" xlink:href="#DejaVuSans-114"/>
      <use x="406.441406" xlink:href="#DejaVuSans-101"/>
      <use x="467.964844" xlink:href="#DejaVuSans-115"/>
      <use x="520.064453" xlink:href="#DejaVuSans-116"/>
      <use x="559.273438" xlink:href="#DejaVuSans-97"/>
      <use x="620.552734" xlink:href="#DejaVuSans-114"/>
      <use x="661.666016" xlink:href="#DejaVuSans-116"/>
      <use x="700.875" xlink:href="#DejaVuSans-44"/>
      <use x="732.662109" xlink:href="#DejaVuSans-32"/>
      <use x="764.449219" xlink:href="#DejaVuSans-111"/>
      <use x="825.630859" xlink:href="#DejaVuSans-110"/>
      <use x="889.009766" xlink:href="#DejaVuSans-32"/>
      <use x="920.796875" xlink:href="#DejaVuSans-98"/>
      <use x="984.273438" xlink:href="#DejaVuSans-97"/>
      <use x="1045.552734" xlink:href="#DejaVuSans-116"/>
      <use x="1084.761719" xlink:href="#DejaVuSans-99"/>
      <use x="1139.742188" xlink:href="#DejaVuSans-104"/>
      <use x="1203.121094" xlink:href="#DejaVuSans-44"/>
      <use x="1234.908203" xlink:href="#DejaVuSans-32"/>
      <use x="1266.695312" xlink:href="#DejaVuSans-102"/>
      <use x="1301.900391" xlink:href="#DejaVuSans-105"/>
      <use x="1329.683594" xlink:href="#DejaVuSans-114"/>
      <use x="1370.796875" xlink:href="#DejaVuSans-115"/>
      <use x="1422.896484" xlink:href="#DejaVuSans-116"/>
      <use x="1462.105469" xlink:href="#DejaVuSans-95"/>
      <use x="1512.105469" xlink:href="#DejaVuSans-114"/>
      <use x="1550.96875" xlink:href="#DejaVuSans-101"/>
      <use x="1612.492188" xlink:href="#DejaVuSans-115"/>
      <use x="1664.591797" xlink:href="#DejaVuSans-116"/>
      <use x="1703.800781" xlink:href="#DejaVuSans-97"/>
      <use x="1765.080078" xlink:href="#DejaVuSans-114"/>
      <use x="1806.193359" xlink:href="#DejaVuSans-116"/>
      <use x="1845.402344" xlink:href="#DejaVuSans-95"/>
      <use x="1895.402344" xlink:href="#DejaVuSans-115"/>
      <use x="1947.501953" xlink:href="#DejaVuSans-116"/>
      <use x="1986.710938" xlink:href="#DejaVuSans-101"/>
      <use x="2048.234375" xlink:href="#DejaVuSans-112"/>
      <use x="2111.710938" xlink:href="#DejaVuSans-61"/>
      <use x="2195.5" xlink:href="#DejaVuSans-50"/>
      <use x="2259.123047" xlink:href="#DejaVuSans-49"/>
      <use x="2322.746094" xlink:href="#DejaVuSans-48"/>
      <use x="2386.369141" xlink:href="#DejaVuSans-48"/>
      <use x="2449.992188" xlink:href="#DejaVuSans-48"/>
      <use x="2513.615234" xlink:href="#DejaVuSans-44"/>
      <use x="2545.402344" xlink:href="#DejaVuSans-32"/>
      <use x="2577.189453" xlink:href="#DejaVuSans-109"/>
      <use x="2674.601562" xlink:href="#DejaVuSans-105"/>
      <use x="2702.384766" xlink:href="#DejaVuSans-110"/>
      <use x="2765.763672" xlink:href="#DejaVuSans-61"/>
      <use x="2849.552734" xlink:href="#DejaVuSans-49"/>
      <use x="2913.175781" xlink:href="#DejaVuSans-101"/>
      <use x="2974.699219" xlink:href="#DejaVuSans-45"/>
      <use x="3010.783203" xlink:href="#DejaVuSans-55"/>
      <use x="3074.40625" xlink:href="#DejaVuSans-44"/>
      <use x="3106.193359" xlink:href="#DejaVuSans-32"/>
      <use x="3137.980469" xlink:href="#DejaVuSans-119"/>
      <use x="3219.767578" xlink:href="#DejaVuSans-97"/>
      <use x="3281.046875" xlink:href="#DejaVuSans-114"/>
      <use x="3320.410156" xlink:href="#DejaVuSans-109"/>
      <use x="3417.822266" xlink:href="#DejaVuSans-117"/>
      <use x="3481.201172" xlink:href="#DejaVuSans-112"/>
      <use x="3544.677734" xlink:href="#DejaVuSans-61"/>
      <use x="3628.466797" xlink:href="#DejaVuSans-52"/>
      <use x="3692.089844" xlink:href="#DejaVuSans-48"/>
      <use x="3755.712891" xlink:href="#DejaVuSans-48"/>
      <use x="3819.335938" xlink:href="#DejaVuSans-48"/>
      <use x="3882.958984" xlink:href="#DejaVuSans-44"/>
      <use x="3914.746094" xlink:href="#DejaVuSans-32"/>
      <use x="3946.533203" xlink:href="#DejaVuSans-109"/>
      <use x="4043.945312" xlink:href="#DejaVuSans-95"/>
      <use x="4093.945312" xlink:href="#DejaVuSans-109"/>
      <use x="4191.357422" xlink:href="#DejaVuSans-117"/>
      <use x="4254.736328" xlink:href="#DejaVuSans-108"/>
      <use x="4282.519531" xlink:href="#DejaVuSans-61"/>
      <use x="4366.308594" xlink:href="#DejaVuSans-48"/>
      <use x="4429.931641" xlink:href="#DejaVuSans-46"/>
      <use x="4461.71875" xlink:href="#DejaVuSans-53"/>
     </g>
    </g>
   </g>
  </g>
 </g>
 <defs>
  <clipPath id="p2bda6a8803">
   <rect height="404.14" width="961.2175" x="35.105" y="6.48"/>
  </clipPath>
 </defs>
</svg>
