<?xml version="1.0" encoding="utf-8" standalone="no"?>
<!DOCTYPE svg PUBLIC "-//W3C//DTD SVG 1.1//EN"
  "http://www.w3.org/Graphics/SVG/1.1/DTD/svg11.dtd">
<!-- Created with matplotlib (https://matplotlib.org/) -->
<svg height="432pt" version="1.1" viewBox="0 0 1008 432" width="1008pt" xmlns="http://www.w3.org/2000/svg" xmlns:xlink="http://www.w3.org/1999/xlink">
 <metadata>
  <rdf:RDF xmlns:cc="http://creativecommons.org/ns#" xmlns:dc="http://purl.org/dc/elements/1.1/" xmlns:rdf="http://www.w3.org/1999/02/22-rdf-syntax-ns#">
   <cc:Work>
    <dc:type rdf:resource="http://purl.org/dc/dcmitype/StillImage"/>
    <dc:date>2021-01-19T12:55:07.293705</dc:date>
    <dc:format>image/svg+xml</dc:format>
    <dc:creator>
     <cc:Agent>
      <dc:title>Matplotlib v3.3.2, https://matplotlib.org/</dc:title>
     </cc:Agent>
    </dc:creator>
   </cc:Work>
  </rdf:RDF>
 </metadata>
 <defs>
  <style type="text/css">*{stroke-linecap:butt;stroke-linejoin:round;}</style>
 </defs>
 <g id="figure_1">
  <g id="patch_1">
   <path d="M 0 432 
L 1008 432 
L 1008 0 
L 0 0 
z
" style="fill:#ffffff;"/>
  </g>
  <g id="axes_1">
   <g id="patch_2">
    <path d="M 35.105 410.62 
L 987.54 410.62 
L 987.54 6.48 
L 35.105 6.48 
z
" style="fill:#eaeaf2;"/>
   </g>
   <g id="matplotlib.axis_1">
    <g id="xtick_1">
     <g id="line2d_1">
      <path clip-path="url(#p73f1f7726c)" d="M 35.105 410.62 
L 35.105 6.48 
" style="fill:none;stroke:#ffffff;stroke-linecap:round;stroke-width:0.5;"/>
     </g>
     <g id="text_1">
      <!-- 0 -->
      <g style="fill:#262626;" transform="translate(33.355313 424.299141)scale(0.055 -0.055)">
       <defs>
        <path d="M 31.78125 66.40625 
Q 24.171875 66.40625 20.328125 58.90625 
Q 16.5 51.421875 16.5 36.375 
Q 16.5 21.390625 20.328125 13.890625 
Q 24.171875 6.390625 31.78125 6.390625 
Q 39.453125 6.390625 43.28125 13.890625 
Q 47.125 21.390625 47.125 36.375 
Q 47.125 51.421875 43.28125 58.90625 
Q 39.453125 66.40625 31.78125 66.40625 
z
M 31.78125 74.21875 
Q 44.046875 74.21875 50.515625 64.515625 
Q 56.984375 54.828125 56.984375 36.375 
Q 56.984375 17.96875 50.515625 8.265625 
Q 44.046875 -1.421875 31.78125 -1.421875 
Q 19.53125 -1.421875 13.0625 8.265625 
Q 6.59375 17.96875 6.59375 36.375 
Q 6.59375 54.828125 13.0625 64.515625 
Q 19.53125 74.21875 31.78125 74.21875 
z
" id="DejaVuSans-48"/>
       </defs>
       <use xlink:href="#DejaVuSans-48"/>
      </g>
     </g>
    </g>
    <g id="xtick_2">
     <g id="line2d_2">
      <path clip-path="url(#p73f1f7726c)" d="M 193.844167 410.62 
L 193.844167 6.48 
" style="fill:none;stroke:#ffffff;stroke-linecap:round;stroke-width:0.5;"/>
     </g>
     <g id="text_2">
      <!-- 20 -->
      <g style="fill:#262626;" transform="translate(190.344792 424.299141)scale(0.055 -0.055)">
       <defs>
        <path d="M 19.1875 8.296875 
L 53.609375 8.296875 
L 53.609375 0 
L 7.328125 0 
L 7.328125 8.296875 
Q 12.9375 14.109375 22.625 23.890625 
Q 32.328125 33.6875 34.8125 36.53125 
Q 39.546875 41.84375 41.421875 45.53125 
Q 43.3125 49.21875 43.3125 52.78125 
Q 43.3125 58.59375 39.234375 62.25 
Q 35.15625 65.921875 28.609375 65.921875 
Q 23.96875 65.921875 18.8125 64.3125 
Q 13.671875 62.703125 7.8125 59.421875 
L 7.8125 69.390625 
Q 13.765625 71.78125 18.9375 73 
Q 24.125 74.21875 28.421875 74.21875 
Q 39.75 74.21875 46.484375 68.546875 
Q 53.21875 62.890625 53.21875 53.421875 
Q 53.21875 48.921875 51.53125 44.890625 
Q 49.859375 40.875 45.40625 35.40625 
Q 44.1875 33.984375 37.640625 27.21875 
Q 31.109375 20.453125 19.1875 8.296875 
z
" id="DejaVuSans-50"/>
       </defs>
       <use xlink:href="#DejaVuSans-50"/>
       <use x="63.623047" xlink:href="#DejaVuSans-48"/>
      </g>
     </g>
    </g>
    <g id="xtick_3">
     <g id="line2d_3">
      <path clip-path="url(#p73f1f7726c)" d="M 352.583333 410.62 
L 352.583333 6.48 
" style="fill:none;stroke:#ffffff;stroke-linecap:round;stroke-width:0.5;"/>
     </g>
     <g id="text_3">
      <!-- 40 -->
      <g style="fill:#262626;" transform="translate(349.083958 424.299141)scale(0.055 -0.055)">
       <defs>
        <path d="M 37.796875 64.3125 
L 12.890625 25.390625 
L 37.796875 25.390625 
z
M 35.203125 72.90625 
L 47.609375 72.90625 
L 47.609375 25.390625 
L 58.015625 25.390625 
L 58.015625 17.1875 
L 47.609375 17.1875 
L 47.609375 0 
L 37.796875 0 
L 37.796875 17.1875 
L 4.890625 17.1875 
L 4.890625 26.703125 
z
" id="DejaVuSans-52"/>
       </defs>
       <use xlink:href="#DejaVuSans-52"/>
       <use x="63.623047" xlink:href="#DejaVuSans-48"/>
      </g>
     </g>
    </g>
    <g id="xtick_4">
     <g id="line2d_4">
      <path clip-path="url(#p73f1f7726c)" d="M 511.3225 410.62 
L 511.3225 6.48 
" style="fill:none;stroke:#ffffff;stroke-linecap:round;stroke-width:0.5;"/>
     </g>
     <g id="text_4">
      <!-- 60 -->
      <g style="fill:#262626;" transform="translate(507.823125 424.299141)scale(0.055 -0.055)">
       <defs>
        <path d="M 33.015625 40.375 
Q 26.375 40.375 22.484375 35.828125 
Q 18.609375 31.296875 18.609375 23.390625 
Q 18.609375 15.53125 22.484375 10.953125 
Q 26.375 6.390625 33.015625 6.390625 
Q 39.65625 6.390625 43.53125 10.953125 
Q 47.40625 15.53125 47.40625 23.390625 
Q 47.40625 31.296875 43.53125 35.828125 
Q 39.65625 40.375 33.015625 40.375 
z
M 52.59375 71.296875 
L 52.59375 62.3125 
Q 48.875 64.0625 45.09375 64.984375 
Q 41.3125 65.921875 37.59375 65.921875 
Q 27.828125 65.921875 22.671875 59.328125 
Q 17.53125 52.734375 16.796875 39.40625 
Q 19.671875 43.65625 24.015625 45.921875 
Q 28.375 48.1875 33.59375 48.1875 
Q 44.578125 48.1875 50.953125 41.515625 
Q 57.328125 34.859375 57.328125 23.390625 
Q 57.328125 12.15625 50.6875 5.359375 
Q 44.046875 -1.421875 33.015625 -1.421875 
Q 20.359375 -1.421875 13.671875 8.265625 
Q 6.984375 17.96875 6.984375 36.375 
Q 6.984375 53.65625 15.1875 63.9375 
Q 23.390625 74.21875 37.203125 74.21875 
Q 40.921875 74.21875 44.703125 73.484375 
Q 48.484375 72.75 52.59375 71.296875 
z
" id="DejaVuSans-54"/>
       </defs>
       <use xlink:href="#DejaVuSans-54"/>
       <use x="63.623047" xlink:href="#DejaVuSans-48"/>
      </g>
     </g>
    </g>
    <g id="xtick_5">
     <g id="line2d_5">
      <path clip-path="url(#p73f1f7726c)" d="M 670.061667 410.62 
L 670.061667 6.48 
" style="fill:none;stroke:#ffffff;stroke-linecap:round;stroke-width:0.5;"/>
     </g>
     <g id="text_5">
      <!-- 80 -->
      <g style="fill:#262626;" transform="translate(666.562292 424.299141)scale(0.055 -0.055)">
       <defs>
        <path d="M 31.78125 34.625 
Q 24.75 34.625 20.71875 30.859375 
Q 16.703125 27.09375 16.703125 20.515625 
Q 16.703125 13.921875 20.71875 10.15625 
Q 24.75 6.390625 31.78125 6.390625 
Q 38.8125 6.390625 42.859375 10.171875 
Q 46.921875 13.96875 46.921875 20.515625 
Q 46.921875 27.09375 42.890625 30.859375 
Q 38.875 34.625 31.78125 34.625 
z
M 21.921875 38.8125 
Q 15.578125 40.375 12.03125 44.71875 
Q 8.5 49.078125 8.5 55.328125 
Q 8.5 64.0625 14.71875 69.140625 
Q 20.953125 74.21875 31.78125 74.21875 
Q 42.671875 74.21875 48.875 69.140625 
Q 55.078125 64.0625 55.078125 55.328125 
Q 55.078125 49.078125 51.53125 44.71875 
Q 48 40.375 41.703125 38.8125 
Q 48.828125 37.15625 52.796875 32.3125 
Q 56.78125 27.484375 56.78125 20.515625 
Q 56.78125 9.90625 50.3125 4.234375 
Q 43.84375 -1.421875 31.78125 -1.421875 
Q 19.734375 -1.421875 13.25 4.234375 
Q 6.78125 9.90625 6.78125 20.515625 
Q 6.78125 27.484375 10.78125 32.3125 
Q 14.796875 37.15625 21.921875 38.8125 
z
M 18.3125 54.390625 
Q 18.3125 48.734375 21.84375 45.5625 
Q 25.390625 42.390625 31.78125 42.390625 
Q 38.140625 42.390625 41.71875 45.5625 
Q 45.3125 48.734375 45.3125 54.390625 
Q 45.3125 60.0625 41.71875 63.234375 
Q 38.140625 66.40625 31.78125 66.40625 
Q 25.390625 66.40625 21.84375 63.234375 
Q 18.3125 60.0625 18.3125 54.390625 
z
" id="DejaVuSans-56"/>
       </defs>
       <use xlink:href="#DejaVuSans-56"/>
       <use x="63.623047" xlink:href="#DejaVuSans-48"/>
      </g>
     </g>
    </g>
    <g id="xtick_6">
     <g id="line2d_6">
      <path clip-path="url(#p73f1f7726c)" d="M 828.800833 410.62 
L 828.800833 6.48 
" style="fill:none;stroke:#ffffff;stroke-linecap:round;stroke-width:0.5;"/>
     </g>
     <g id="text_6">
      <!-- 100 -->
      <g style="fill:#262626;" transform="translate(823.551771 424.299141)scale(0.055 -0.055)">
       <defs>
        <path d="M 12.40625 8.296875 
L 28.515625 8.296875 
L 28.515625 63.921875 
L 10.984375 60.40625 
L 10.984375 69.390625 
L 28.421875 72.90625 
L 38.28125 72.90625 
L 38.28125 8.296875 
L 54.390625 8.296875 
L 54.390625 0 
L 12.40625 0 
z
" id="DejaVuSans-49"/>
       </defs>
       <use xlink:href="#DejaVuSans-49"/>
       <use x="63.623047" xlink:href="#DejaVuSans-48"/>
       <use x="127.246094" xlink:href="#DejaVuSans-48"/>
      </g>
     </g>
    </g>
    <g id="xtick_7">
     <g id="line2d_7">
      <path clip-path="url(#p73f1f7726c)" d="M 987.54 410.62 
L 987.54 6.48 
" style="fill:none;stroke:#ffffff;stroke-linecap:round;stroke-width:0.5;"/>
     </g>
     <g id="text_7">
      <!-- 120 -->
      <g style="fill:#262626;" transform="translate(982.290938 424.299141)scale(0.055 -0.055)">
       <use xlink:href="#DejaVuSans-49"/>
       <use x="63.623047" xlink:href="#DejaVuSans-50"/>
       <use x="127.246094" xlink:href="#DejaVuSans-48"/>
      </g>
     </g>
    </g>
   </g>
   <g id="matplotlib.axis_2">
    <g id="ytick_1">
     <g id="line2d_8">
      <path clip-path="url(#p73f1f7726c)" d="M 35.105 392.256782 
L 987.54 392.256782 
" style="fill:none;stroke:#ffffff;stroke-linecap:round;stroke-width:0.5;"/>
     </g>
     <g id="text_8">
      <!-- 0.0000 -->
      <g style="fill:#262626;" transform="translate(6.360156 394.346352)scale(0.055 -0.055)">
       <defs>
        <path d="M 10.6875 12.40625 
L 21 12.40625 
L 21 0 
L 10.6875 0 
z
" id="DejaVuSans-46"/>
       </defs>
       <use xlink:href="#DejaVuSans-48"/>
       <use x="63.623047" xlink:href="#DejaVuSans-46"/>
       <use x="95.410156" xlink:href="#DejaVuSans-48"/>
       <use x="159.033203" xlink:href="#DejaVuSans-48"/>
       <use x="222.65625" xlink:href="#DejaVuSans-48"/>
       <use x="286.279297" xlink:href="#DejaVuSans-48"/>
      </g>
     </g>
    </g>
    <g id="ytick_2">
     <g id="line2d_9">
      <path clip-path="url(#p73f1f7726c)" d="M 35.105 318.775429 
L 987.54 318.775429 
" style="fill:none;stroke:#ffffff;stroke-linecap:round;stroke-width:0.5;"/>
     </g>
     <g id="text_9">
      <!-- 0.0002 -->
      <g style="fill:#262626;" transform="translate(6.360156 320.864999)scale(0.055 -0.055)">
       <use xlink:href="#DejaVuSans-48"/>
       <use x="63.623047" xlink:href="#DejaVuSans-46"/>
       <use x="95.410156" xlink:href="#DejaVuSans-48"/>
       <use x="159.033203" xlink:href="#DejaVuSans-48"/>
       <use x="222.65625" xlink:href="#DejaVuSans-48"/>
       <use x="286.279297" xlink:href="#DejaVuSans-50"/>
      </g>
     </g>
    </g>
    <g id="ytick_3">
     <g id="line2d_10">
      <path clip-path="url(#p73f1f7726c)" d="M 35.105 245.294076 
L 987.54 245.294076 
" style="fill:none;stroke:#ffffff;stroke-linecap:round;stroke-width:0.5;"/>
     </g>
     <g id="text_10">
      <!-- 0.0004 -->
      <g style="fill:#262626;" transform="translate(6.360156 247.383646)scale(0.055 -0.055)">
       <use xlink:href="#DejaVuSans-48"/>
       <use x="63.623047" xlink:href="#DejaVuSans-46"/>
       <use x="95.410156" xlink:href="#DejaVuSans-48"/>
       <use x="159.033203" xlink:href="#DejaVuSans-48"/>
       <use x="222.65625" xlink:href="#DejaVuSans-48"/>
       <use x="286.279297" xlink:href="#DejaVuSans-52"/>
      </g>
     </g>
    </g>
    <g id="ytick_4">
     <g id="line2d_11">
      <path clip-path="url(#p73f1f7726c)" d="M 35.105 171.812723 
L 987.54 171.812723 
" style="fill:none;stroke:#ffffff;stroke-linecap:round;stroke-width:0.5;"/>
     </g>
     <g id="text_11">
      <!-- 0.0006 -->
      <g style="fill:#262626;" transform="translate(6.360156 173.902293)scale(0.055 -0.055)">
       <use xlink:href="#DejaVuSans-48"/>
       <use x="63.623047" xlink:href="#DejaVuSans-46"/>
       <use x="95.410156" xlink:href="#DejaVuSans-48"/>
       <use x="159.033203" xlink:href="#DejaVuSans-48"/>
       <use x="222.65625" xlink:href="#DejaVuSans-48"/>
       <use x="286.279297" xlink:href="#DejaVuSans-54"/>
      </g>
     </g>
    </g>
    <g id="ytick_5">
     <g id="line2d_12">
      <path clip-path="url(#p73f1f7726c)" d="M 35.105 98.33137 
L 987.54 98.33137 
" style="fill:none;stroke:#ffffff;stroke-linecap:round;stroke-width:0.5;"/>
     </g>
     <g id="text_12">
      <!-- 0.0008 -->
      <g style="fill:#262626;" transform="translate(6.360156 100.420941)scale(0.055 -0.055)">
       <use xlink:href="#DejaVuSans-48"/>
       <use x="63.623047" xlink:href="#DejaVuSans-46"/>
       <use x="95.410156" xlink:href="#DejaVuSans-48"/>
       <use x="159.033203" xlink:href="#DejaVuSans-48"/>
       <use x="222.65625" xlink:href="#DejaVuSans-48"/>
       <use x="286.279297" xlink:href="#DejaVuSans-56"/>
      </g>
     </g>
    </g>
    <g id="ytick_6">
     <g id="line2d_13">
      <path clip-path="url(#p73f1f7726c)" d="M 35.105 24.850017 
L 987.54 24.850017 
" style="fill:none;stroke:#ffffff;stroke-linecap:round;stroke-width:0.5;"/>
     </g>
     <g id="text_13">
      <!-- 0.0010 -->
      <g style="fill:#262626;" transform="translate(6.360156 26.939588)scale(0.055 -0.055)">
       <use xlink:href="#DejaVuSans-48"/>
       <use x="63.623047" xlink:href="#DejaVuSans-46"/>
       <use x="95.410156" xlink:href="#DejaVuSans-48"/>
       <use x="159.033203" xlink:href="#DejaVuSans-48"/>
       <use x="222.65625" xlink:href="#DejaVuSans-49"/>
       <use x="286.279297" xlink:href="#DejaVuSans-48"/>
      </g>
     </g>
    </g>
   </g>
   <g id="line2d_14">
    <path clip-path="url(#p73f1f7726c)" d="M 35.105 24.850017 
L 43.041958 24.850017 
L 50.978917 24.850017 
L 58.915875 24.850017 
L 66.852833 24.850017 
L 74.789792 24.850017 
L 82.72675 24.850017 
L 90.663708 24.850017 
L 98.600667 24.850017 
L 106.537625 24.850017 
L 114.474583 24.850017 
L 122.411542 59.813394 
L 130.3485 91.449565 
L 138.285458 120.075156 
L 146.222417 145.976663 
L 154.159375 169.413315 
L 162.096333 190.619674 
L 170.033292 209.807982 
L 177.97025 227.170281 
L 185.907208 242.880339 
L 193.844167 257.095387 
L 201.781125 269.957694 
L 209.718083 281.595991 
L 217.655042 292.126757 
L 225.592 301.655389 
L 233.528958 310.277252 
L 241.465917 318.078635 
L 249.402875 325.137619 
L 257.339833 331.524852 
L 265.276792 337.304259 
L 273.21375 342.533683 
L 281.150708 347.265462 
L 289.087667 351.546952 
L 297.024625 355.421004 
L 304.961583 358.926392 
L 312.898542 362.098198 
L 320.8355 364.968167 
L 328.772458 367.565022 
L 336.709417 369.914753 
L 344.646375 372.040878 
L 352.583333 373.964676 
L 360.520292 375.7054 
L 368.45725 377.280472 
L 376.394208 378.705656 
L 384.331167 379.995217 
L 392.268125 381.162059 
L 400.205083 382.217861 
L 408.142042 383.173191 
L 416.079 384.037609 
L 424.015958 384.819766 
L 431.952917 385.527492 
L 439.889875 386.167869 
L 447.826833 386.747305 
L 455.763792 387.271601 
L 463.70075 387.746004 
L 471.637708 388.175261 
L 479.574667 388.563669 
L 487.511625 388.915115 
L 495.448583 389.233117 
L 503.385542 389.520857 
L 511.3225 389.781214 
L 519.259458 390.016796 
L 527.196417 390.229959 
L 535.133375 390.422836 
L 543.070333 390.597359 
L 551.007292 390.755274 
L 558.94425 390.898162 
L 566.881208 391.027451 
L 574.818167 391.144438 
L 582.755125 391.250291 
L 590.692083 391.346071 
L 598.629042 391.432737 
L 606.566 391.511155 
L 614.502958 391.582111 
L 622.439917 391.646314 
L 630.376875 391.704408 
L 638.313833 391.756973 
L 646.250792 391.804536 
L 654.18775 391.847573 
L 662.124708 391.886514 
L 670.061667 391.92175 
L 677.998625 391.953633 
L 685.935583 391.982481 
L 693.872542 392.008584 
L 701.8095 392.032203 
L 709.746458 392.053575 
L 717.683417 392.072912 
L 725.620375 392.09041 
L 733.557333 392.106242 
L 741.494292 392.120568 
L 749.43125 392.13353 
L 757.368208 392.145259 
L 765.305167 392.155872 
L 773.242125 392.165475 
L 781.179083 392.174164 
L 789.116042 392.182026 
L 797.053 392.18914 
L 804.989958 392.195577 
L 812.926917 392.201401 
L 820.863875 392.206671 
L 828.800833 392.21144 
L 836.737792 392.215755 
L 844.67475 392.219659 
L 852.611708 392.223192 
L 860.548667 392.226388 
L 868.485625 392.229281 
L 876.422583 392.231898 
L 884.359542 392.234266 
L 892.2965 392.236408 
L 900.233458 392.238347 
L 908.170417 392.240101 
L 916.107375 392.241689 
L 924.044333 392.243125 
L 931.981292 392.244425 
L 939.91825 392.245601 
L 947.855208 392.246665 
L 955.792167 392.247627 
L 963.729125 392.248499 
L 971.666083 392.249287 
L 979.603042 392.25 
" style="fill:none;stroke:#4c72b0;stroke-linecap:round;stroke-width:0.75;"/>
   </g>
   <g id="line2d_15">
    <path clip-path="url(#p73f1f7726c)" d="M 35.105 24.850017 
L 43.041958 24.850017 
L 50.978917 24.850017 
L 58.915875 24.850017 
L 66.852833 24.850017 
L 74.789792 24.850017 
L 82.72675 24.850017 
L 90.663708 24.850017 
L 98.600667 24.850017 
L 106.537625 24.850017 
L 114.474583 24.850017 
L 122.411542 42.768657 
L 130.3485 59.813394 
L 138.285458 76.026849 
L 146.222417 91.449565 
L 154.159375 106.120106 
L 162.096333 120.075156 
L 170.033292 133.349611 
L 177.97025 145.976663 
L 185.907208 157.987886 
L 193.844167 169.413315 
L 201.781125 180.281519 
L 209.718083 190.619674 
L 217.655042 200.453632 
L 225.592 209.807982 
L 233.528958 218.706115 
L 241.465917 227.170281 
L 249.402875 235.221645 
L 257.339833 242.880339 
L 265.276792 250.165514 
L 273.21375 257.095387 
L 281.150708 263.687286 
L 289.087667 269.957694 
L 297.024625 275.922291 
L 304.961583 281.595991 
L 312.898542 286.992981 
L 320.8355 292.126757 
L 328.772458 297.010156 
L 336.709417 301.655389 
L 344.646375 306.074071 
L 352.583333 310.277252 
L 360.520292 314.27544 
L 368.45725 318.078635 
L 376.394208 321.696346 
L 384.331167 325.137619 
L 392.268125 328.411059 
L 400.205083 331.524852 
L 408.142042 334.486783 
L 416.079 337.304259 
L 424.015958 339.984325 
L 431.952917 342.533683 
L 439.889875 344.958707 
L 447.826833 347.265462 
L 455.763792 349.459714 
L 463.70075 351.546952 
L 471.637708 353.532394 
L 479.574667 355.421004 
L 487.511625 357.217506 
L 495.448583 358.926392 
L 503.385542 360.551934 
L 511.3225 362.098198 
L 519.259458 363.569049 
L 527.196417 364.968167 
L 535.133375 366.299048 
L 543.070333 367.565022 
L 551.007292 368.769253 
L 558.94425 369.914753 
L 566.881208 371.004387 
L 574.818167 372.040878 
L 582.755125 373.02682 
L 590.692083 373.964676 
L 598.629042 374.856793 
L 606.566 375.7054 
L 614.502958 376.51262 
L 622.439917 377.280472 
L 630.376875 378.010875 
L 638.313833 378.705656 
L 646.250792 379.366553 
L 654.18775 379.995217 
L 662.124708 380.59322 
L 670.061667 381.162059 
L 677.998625 381.703155 
L 685.935583 382.217861 
L 693.872542 382.707465 
L 701.8095 383.173191 
L 709.746458 383.616203 
L 717.683417 384.037609 
L 725.620375 384.438463 
L 733.557333 384.819766 
L 741.494292 385.182474 
L 749.43125 385.527492 
L 757.368208 385.855683 
L 765.305167 386.167869 
L 773.242125 386.464828 
L 781.179083 386.747305 
L 789.116042 387.016006 
L 797.053 387.271601 
L 804.989958 387.514731 
L 812.926917 387.746004 
L 820.863875 387.965997 
L 828.800833 388.175261 
L 836.737792 388.374319 
L 844.67475 388.563669 
L 852.611708 388.743784 
L 860.548667 388.915115 
L 868.485625 389.07809 
L 876.422583 389.233117 
L 884.359542 389.380583 
L 892.2965 389.520857 
L 900.233458 389.654289 
L 908.170417 389.781214 
L 916.107375 389.901949 
L 924.044333 390.016796 
L 931.981292 390.126041 
L 939.91825 390.229959 
L 947.855208 390.328808 
L 955.792167 390.422836 
L 963.729125 390.512279 
L 971.666083 390.597359 
L 979.603042 390.67829 
" style="fill:none;stroke:#dd8452;stroke-linecap:round;stroke-width:0.75;"/>
   </g>
   <g id="line2d_16">
    <path clip-path="url(#p73f1f7726c)" d="M 35.105 24.850017 
L 43.041958 24.850017 
L 50.978917 24.850017 
L 58.915875 24.850017 
L 66.852833 24.850017 
L 74.789792 24.850017 
L 82.72675 24.850017 
L 90.663708 24.850017 
L 98.600667 24.850017 
L 106.537625 24.850017 
L 114.474583 24.850017 
L 122.411542 32.125159 
L 130.3485 39.256243 
L 138.285458 46.246122 
L 146.222417 53.097592 
L 154.159375 59.813394 
L 162.096333 66.396214 
L 170.033292 72.848685 
L 177.97025 79.17339 
L 185.907208 85.372856 
L 193.844167 91.449565 
L 201.781125 97.405947 
L 209.718083 103.244385 
L 217.655042 108.967213 
L 225.592 114.576723 
L 233.528958 120.075156 
L 241.465917 125.464714 
L 249.402875 130.747551 
L 257.339833 135.92578 
L 265.276792 141.001474 
L 273.21375 145.976663 
L 281.150708 150.853336 
L 289.087667 155.633444 
L 297.024625 160.3189 
L 304.961583 164.911578 
L 312.898542 169.413315 
L 320.8355 173.825911 
L 328.772458 178.151132 
L 336.709417 182.390708 
L 344.646375 186.546335 
L 352.583333 190.619674 
L 360.520292 194.612357 
L 368.45725 198.525978 
L 376.394208 202.362105 
L 384.331167 206.122272 
L 392.268125 209.807982 
L 400.205083 213.42071 
L 408.142042 216.961902 
L 416.079 220.432973 
L 424.015958 223.835312 
L 431.952917 227.170281 
L 439.889875 230.439213 
L 447.826833 233.643415 
L 455.763792 236.78417 
L 463.70075 239.862734 
L 471.637708 242.880339 
L 479.574667 245.83819 
L 487.511625 248.737473 
L 495.448583 251.579345 
L 503.385542 254.364945 
L 511.3225 257.095387 
L 519.259458 259.771762 
L 527.196417 262.395141 
L 535.133375 264.966573 
L 543.070333 267.487088 
L 551.007292 269.957694 
L 558.94425 272.379378 
L 566.881208 274.75311 
L 574.818167 277.079838 
L 582.755125 279.360495 
L 590.692083 281.595991 
L 598.629042 283.787221 
L 606.566 285.935063 
L 614.502958 288.040374 
L 622.439917 290.103997 
L 630.376875 292.126757 
L 638.313833 294.109465 
L 646.250792 296.052912 
L 654.18775 297.957876 
L 662.124708 299.82512 
L 670.061667 301.655389 
L 677.998625 303.449417 
L 685.935583 305.207921 
L 693.872542 306.931603 
L 701.8095 308.621155 
L 709.746458 310.277252 
L 717.683417 311.900555 
L 725.620375 313.491715 
L 733.557333 315.051368 
L 741.494292 316.580137 
L 749.43125 318.078635 
L 757.368208 319.547461 
L 765.305167 320.987202 
L 773.242125 322.398434 
L 781.179083 323.781722 
L 789.116042 325.137619 
L 797.053 326.466668 
L 804.989958 327.769399 
L 812.926917 329.046335 
L 820.863875 330.297986 
L 828.800833 331.524852 
L 836.737792 332.727425 
L 844.67475 333.906185 
L 852.611708 335.061604 
L 860.548667 336.194145 
L 868.485625 337.304259 
L 876.422583 338.392392 
L 884.359542 339.458978 
L 892.2965 340.504445 
L 900.233458 341.52921 
L 908.170417 342.533683 
L 916.107375 343.518266 
L 924.044333 344.483354 
L 931.981292 345.429331 
L 939.91825 346.356577 
L 947.855208 347.265462 
L 955.792167 348.156349 
L 963.729125 349.029597 
L 971.666083 349.885552 
L 979.603042 350.724559 
" style="fill:none;stroke:#55a868;stroke-linecap:round;stroke-width:0.75;"/>
   </g>
   <g id="line2d_17">
    <path clip-path="url(#p73f1f7726c)" d="M 35.105 24.85 
L 43.041958 24.940591 
L 50.978917 25.212106 
L 58.915875 25.66446 
L 66.852833 26.297098 
L 74.789792 27.109462 
L 82.72675 28.100655 
L 90.663708 29.269736 
L 98.600667 30.615593 
L 106.537625 32.136899 
L 114.474583 33.832094 
L 122.411542 35.699532 
L 130.3485 37.737414 
L 138.285458 39.943647 
L 146.222417 42.316112 
L 154.159375 44.852457 
L 162.096333 47.550158 
L 170.033292 50.406564 
L 177.97025 53.418895 
L 185.907208 56.584135 
L 193.844167 59.899161 
L 201.781125 63.360681 
L 209.718083 66.965337 
L 217.655042 70.709535 
L 225.592 74.589577 
L 233.528958 78.601655 
L 241.465917 82.741814 
L 249.402875 87.005946 
L 257.339833 91.389839 
L 265.276792 95.889173 
L 273.21375 100.499522 
L 281.150708 105.216329 
L 289.087667 110.034933 
L 297.024625 114.950587 
L 304.961583 119.958435 
L 312.898542 125.053516 
L 320.8355 130.230825 
L 328.772458 135.485231 
L 336.709417 140.811601 
L 344.646375 146.204608 
L 352.583333 151.658994 
L 360.520292 157.169324 
L 368.45725 162.730211 
L 376.394208 168.336094 
L 384.331167 173.98152 
L 392.268125 179.660885 
L 400.205083 185.368607 
L 408.142042 191.098956 
L 416.079 196.846392 
L 424.015958 202.605205 
L 431.952917 208.369707 
L 439.889875 214.134188 
L 447.826833 219.89298 
L 455.763792 225.640416 
L 463.70075 231.370818 
L 471.637708 237.078498 
L 479.574667 242.757852 
L 487.511625 248.403267 
L 495.448583 254.009182 
L 503.385542 259.570037 
L 511.3225 265.080432 
L 519.259458 270.534774 
L 527.196417 275.927804 
L 535.133375 281.254173 
L 543.070333 286.508589 
L 551.007292 291.685867 
L 558.94425 296.781002 
L 566.881208 301.788828 
L 574.818167 306.704476 
L 582.755125 311.52308 
L 590.692083 316.239834 
L 598.629042 320.850188 
L 606.566 325.34957 
L 614.502958 329.733464 
L 622.439917 333.997564 
L 630.376875 338.137701 
L 638.313833 342.149779 
L 646.250792 346.029842 
L 654.18775 349.774043 
L 662.124708 353.378694 
L 670.061667 356.840243 
L 677.998625 360.155261 
L 685.935583 363.320496 
L 693.872542 366.332805 
L 701.8095 369.189211 
L 709.746458 371.88694 
L 717.683417 374.423278 
L 725.620375 376.795745 
L 733.557333 379.00199 
L 741.494292 381.039832 
L 749.43125 382.907276 
L 757.368208 384.6025 
L 765.305167 386.123778 
L 773.242125 387.469623 
L 781.179083 388.638732 
L 789.116042 389.629947 
L 797.053 390.442271 
L 804.989958 391.074918 
L 812.926917 391.527241 
L 820.863875 391.798814 
L 828.800833 391.889375 
L 836.737792 391.889375 
L 844.67475 391.889375 
L 852.611708 391.889375 
L 860.548667 391.889375 
L 868.485625 391.889375 
L 876.422583 391.889375 
L 884.359542 391.889375 
L 892.2965 391.889375 
L 900.233458 391.889375 
L 908.170417 391.889375 
L 916.107375 391.889375 
L 924.044333 391.889375 
L 931.981292 391.889375 
L 939.91825 391.889375 
L 947.855208 391.889375 
L 955.792167 391.889375 
L 963.729125 391.889375 
L 971.666083 391.889375 
L 979.603042 391.889375 
" style="fill:none;stroke:#c44e52;stroke-linecap:round;stroke-width:0.75;"/>
   </g>
   <g id="line2d_18">
    <path clip-path="url(#p73f1f7726c)" d="M 35.105 24.850017 
L 43.041958 24.850017 
L 50.978917 24.850017 
L 58.915875 24.850017 
L 66.852833 24.85 
L 74.789792 26.901634 
L 82.72675 33.010598 
L 90.663708 43.040559 
L 98.600667 56.767326 
L 106.537625 73.884399 
L 114.474583 94.00929 
L 122.411542 116.692489 
L 130.3485 141.427364 
L 138.285458 167.661284 
L 146.222417 194.808231 
L 154.159375 222.261852 
L 162.096333 249.408821 
L 170.033292 275.64273 
L 177.97025 300.377552 
L 185.907208 323.060794 
L 193.844167 343.185685 
L 201.781125 360.302701 
L 209.718083 374.029513 
L 217.655042 384.059438 
L 225.592 390.168438 
L 233.528958 208.53502 
L 241.465917 208.791843 
L 249.402875 209.560837 
L 257.339833 210.837703 
L 265.276792 212.615341 
L 273.21375 214.883763 
L 281.150708 217.6303 
L 289.087667 220.839594 
L 297.024625 224.493684 
L 304.961583 228.572176 
L 312.898542 233.052209 
L 320.8355 237.908773 
L 328.772458 243.114665 
L 336.709417 248.640822 
L 344.646375 254.456275 
L 352.583333 260.528574 
L 360.520292 266.823703 
L 368.45725 273.306471 
L 376.394208 279.940662 
L 384.331167 286.689118 
L 392.268125 293.514136 
L 400.205083 300.377541 
L 408.142042 307.240946 
L 416.079 314.065964 
L 424.015958 320.814404 
L 431.952917 327.44859 
L 439.889875 333.931385 
L 447.826833 340.226514 
L 455.763792 346.298775 
L 463.70075 352.114256 
L 471.637708 357.640417 
L 479.574667 362.846312 
L 487.511625 367.702847 
L 495.448583 372.182898 
L 503.385542 376.261371 
L 511.3225 379.915487 
L 519.259458 383.124771 
L 527.196417 385.871318 
L 535.133375 388.13974 
L 543.070333 389.917362 
L 551.007292 391.194234 
L 558.94425 391.963228 
L 566.881208 300.377541 
L 574.818167 300.409641 
L 582.755125 300.505942 
L 590.692083 300.666272 
L 598.629042 300.890439 
L 606.566 301.178101 
L 614.502958 301.528872 
L 622.439917 301.942261 
L 630.376875 302.41768 
L 638.313833 302.954482 
L 646.250792 303.551902 
L 654.18775 304.209096 
L 662.124708 304.92517 
L 670.061667 305.699099 
L 677.998625 306.529812 
L 685.935583 307.416145 
L 693.872542 308.356862 
L 701.8095 309.350643 
L 709.746458 310.396103 
L 717.683417 311.491771 
L 725.620375 312.636125 
L 733.557333 313.827554 
L 741.494292 315.064402 
L 749.43125 316.34493 
L 757.368208 317.667348 
L 765.305167 319.029821 
L 773.242125 320.430431 
L 781.179083 321.867199 
L 789.116042 323.338163 
L 797.053 324.841228 
L 804.989958 326.374291 
L 812.926917 327.935247 
L 820.863875 329.521866 
L 828.800833 331.131967 
L 836.737792 332.763256 
L 844.67475 334.413482 
L 852.611708 336.080357 
L 860.548667 337.761496 
L 868.485625 339.454574 
L 876.422583 341.157244 
L 884.359542 342.867083 
L 892.2965 344.581745 
L 900.233458 346.298791 
L 908.170417 348.015829 
L 916.107375 349.730494 
L 924.044333 351.440335 
L 931.981292 353.143002 
L 939.91825 354.836083 
L 947.855208 356.517222 
L 955.792167 358.184092 
L 963.729125 359.834315 
L 971.666083 361.465612 
L 979.603042 363.075713 
" style="fill:none;stroke:#8172b3;stroke-linecap:round;stroke-width:0.75;"/>
   </g>
   <g id="line2d_19">
    <path clip-path="url(#p73f1f7726c)" d="M 233.528958 391.889375 
L 233.528958 208.53502 
" style="fill:none;stroke:#1a1a1a;stroke-dasharray:0.75,1.2375;stroke-dashoffset:0;stroke-width:0.75;"/>
   </g>
   <g id="line2d_20">
    <path clip-path="url(#p73f1f7726c)" d="M 35.105 24.850017 
L 43.041958 24.85 
L 50.978917 26.421478 
L 58.915875 31.108922 
L 66.852833 38.832201 
L 74.789792 49.459127 
L 82.72675 62.807899 
L 90.663708 78.650073 
L 98.600667 96.714669 
L 106.537625 116.692489 
L 114.474583 138.241808 
L 122.411542 160.993827 
L 130.3485 184.559344 
L 138.285458 208.535042 
L 146.222417 232.51075 
L 154.159375 256.076214 
L 162.096333 278.828254 
L 170.033292 300.377552 
L 177.97025 320.355377 
L 185.907208 338.419941 
L 193.844167 354.262174 
L 201.781125 367.610911 
L 209.718083 378.237868 
L 217.655042 385.961134 
L 225.592 390.648595 
L 233.528958 245.27202 
L 241.465917 245.429335 
L 249.402875 245.900616 
L 257.339833 246.68382 
L 265.276792 247.775602 
L 273.21375 249.171288 
L 281.150708 250.8649 
L 289.087667 252.849201 
L 297.024625 255.115667 
L 304.961583 257.654642 
L 312.898542 260.455188 
L 320.8355 263.505361 
L 328.772458 266.792073 
L 336.709417 270.301251 
L 344.646375 274.017905 
L 352.583333 277.926069 
L 360.520292 282.009031 
L 368.45725 286.249318 
L 376.394208 290.628763 
L 384.331167 295.128589 
L 392.268125 299.72957 
L 400.205083 304.411962 
L 408.142042 309.155748 
L 416.079 313.9406 
L 424.015958 318.746036 
L 431.952917 323.551477 
L 439.889875 328.336302 
L 447.826833 333.080104 
L 455.763792 337.762523 
L 463.70075 342.363477 
L 471.637708 346.863325 
L 479.574667 351.242767 
L 487.511625 355.483028 
L 495.448583 359.566013 
L 503.385542 363.474191 
L 511.3225 367.19081 
L 519.259458 370.700001 
L 527.196417 373.986722 
L 535.133375 377.036882 
L 543.070333 379.83744 
L 551.007292 382.376398 
L 558.94425 384.64287 
L 566.881208 386.627172 
L 574.818167 388.320792 
L 582.755125 389.716474 
L 590.692083 390.808261 
L 598.629042 391.591462 
L 606.566 392.062729 
L 614.502958 333.44083 
L 622.439917 333.45657 
L 630.376875 333.503753 
L 638.313833 333.582351 
L 646.250792 333.692259 
L 654.18775 333.833379 
L 662.124708 334.005546 
L 670.061667 334.208578 
L 677.998625 334.442257 
L 685.935583 334.706335 
L 693.872542 335.00053 
L 701.8095 335.324531 
L 709.746458 335.677981 
L 717.683417 336.060505 
L 725.620375 336.471703 
L 733.557333 336.911118 
L 741.494292 337.378288 
L 749.43125 337.872719 
L 757.368208 338.393872 
L 765.305167 338.94119 
L 773.242125 339.514097 
L 781.179083 340.111966 
L 789.116042 340.734161 
L 797.053 341.380015 
L 804.989958 342.048843 
L 812.926917 342.739928 
L 820.863875 343.452527 
L 828.800833 344.185876 
L 836.737792 344.939178 
L 844.67475 345.711652 
L 852.611708 346.502449 
L 860.548667 347.310728 
L 868.485625 348.135638 
L 876.422583 348.976272 
L 884.359542 349.831742 
L 892.2965 350.701146 
L 900.233458 351.583522 
L 908.170417 352.477944 
L 916.107375 353.38346 
L 924.044333 354.299086 
L 931.981292 355.223841 
L 939.91825 356.156761 
L 947.855208 357.096809 
L 955.792167 358.042999 
L 963.729125 358.994326 
L 971.666083 359.949751 
L 979.603042 360.908259 
" style="fill:none;stroke:#937860;stroke-linecap:round;stroke-width:0.75;"/>
   </g>
   <g id="line2d_21">
    <path clip-path="url(#p73f1f7726c)" d="M 233.528958 391.889375 
L 233.528958 245.27202 
" style="fill:none;stroke:#1a1a1a;stroke-dasharray:0.75,1.2375;stroke-dashoffset:0;stroke-width:0.75;"/>
   </g>
   <g id="line2d_22">
    <path clip-path="url(#p73f1f7726c)" d="M 35.105 24.850017 
L 43.041958 24.850017 
L 50.978917 24.850017 
L 58.915875 24.850017 
L 66.852833 24.850017 
L 74.789792 24.850017 
L 82.72675 24.850017 
L 90.663708 24.850017 
L 98.600667 24.850017 
L 106.537625 24.850017 
L 114.474583 355.516105 
L 122.411542 355.516105 
L 130.3485 355.516105 
L 138.285458 355.516105 
L 146.222417 355.516105 
L 154.159375 355.516105 
L 162.096333 355.516105 
L 170.033292 355.516105 
L 177.97025 355.516105 
L 185.907208 355.516105 
L 193.844167 388.582714 
L 201.781125 388.582714 
L 209.718083 388.582714 
L 217.655042 388.582714 
L 225.592 388.582714 
L 233.528958 388.582714 
L 241.465917 388.582714 
L 249.402875 388.582714 
L 257.339833 388.582714 
L 265.276792 388.582714 
L 273.21375 391.889375 
L 281.150708 391.889375 
L 289.087667 391.889375 
L 297.024625 391.889375 
L 304.961583 391.889375 
L 312.898542 391.889375 
L 320.8355 391.889375 
L 328.772458 391.889375 
L 336.709417 391.889375 
L 344.646375 391.889375 
L 352.583333 392.220041 
L 360.520292 392.220041 
L 368.45725 392.220041 
L 376.394208 392.220041 
L 384.331167 392.220041 
L 392.268125 392.220041 
L 400.205083 392.220041 
L 408.142042 392.220041 
L 416.079 392.220041 
L 424.015958 392.220041 
L 431.952917 392.220041 
L 439.889875 392.220041 
L 447.826833 392.220041 
L 455.763792 392.220041 
L 463.70075 392.220041 
L 471.637708 392.220041 
L 479.574667 392.220041 
L 487.511625 392.220041 
L 495.448583 392.220041 
L 503.385542 392.220041 
L 511.3225 392.220041 
L 519.259458 392.220041 
L 527.196417 392.220041 
L 535.133375 392.220041 
L 543.070333 392.220041 
L 551.007292 392.220041 
L 558.94425 392.220041 
L 566.881208 392.220041 
L 574.818167 392.220041 
L 582.755125 392.220041 
L 590.692083 392.220041 
L 598.629042 392.220041 
L 606.566 392.220041 
L 614.502958 392.220041 
L 622.439917 392.220041 
L 630.376875 392.220041 
L 638.313833 392.220041 
L 646.250792 392.220041 
L 654.18775 392.220041 
L 662.124708 392.220041 
L 670.061667 392.220041 
L 677.998625 392.220041 
L 685.935583 392.220041 
L 693.872542 392.220041 
L 701.8095 392.220041 
L 709.746458 392.220041 
L 717.683417 392.220041 
L 725.620375 392.220041 
L 733.557333 392.220041 
L 741.494292 392.220041 
L 749.43125 392.220041 
L 757.368208 392.220041 
L 765.305167 392.220041 
L 773.242125 392.220041 
L 781.179083 392.220041 
L 789.116042 392.220041 
L 797.053 392.220041 
L 804.989958 392.220041 
L 812.926917 392.220041 
L 820.863875 392.220041 
L 828.800833 392.220041 
L 836.737792 392.220041 
L 844.67475 392.220041 
L 852.611708 392.220041 
L 860.548667 392.220041 
L 868.485625 392.220041 
L 876.422583 392.220041 
L 884.359542 392.220041 
L 892.2965 392.220041 
L 900.233458 392.220041 
L 908.170417 392.220041 
L 916.107375 392.220041 
L 924.044333 392.220041 
L 931.981292 392.220041 
L 939.91825 392.220041 
L 947.855208 392.220041 
L 955.792167 392.220041 
L 963.729125 392.220041 
L 971.666083 392.220041 
L 979.603042 392.220041 
" style="fill:none;stroke:#da8bc3;stroke-linecap:round;stroke-width:0.75;"/>
   </g>
   <g id="patch_3">
    <path d="M 35.105 410.62 
L 35.105 6.48 
" style="fill:none;stroke:#ffffff;stroke-linecap:square;stroke-linejoin:miter;stroke-width:0.625;"/>
   </g>
   <g id="patch_4">
    <path d="M 987.54 410.62 
L 987.54 6.48 
" style="fill:none;stroke:#ffffff;stroke-linecap:square;stroke-linejoin:miter;stroke-width:0.625;"/>
   </g>
   <g id="patch_5">
    <path d="M 35.105 410.62 
L 987.54 410.62 
" style="fill:none;stroke:#ffffff;stroke-linecap:square;stroke-linejoin:miter;stroke-width:0.625;"/>
   </g>
   <g id="patch_6">
    <path d="M 35.105 6.48 
L 987.54 6.48 
" style="fill:none;stroke:#ffffff;stroke-linecap:square;stroke-linejoin:miter;stroke-width:0.625;"/>
   </g>
   <g id="text_14">
    <!-- [Red line] -->
    <g style="fill:#262626;" transform="translate(947.855208 381.864027)scale(0.06 -0.06)">
     <defs>
      <path d="M 8.59375 75.984375 
L 29.296875 75.984375 
L 29.296875 69 
L 17.578125 69 
L 17.578125 -6.203125 
L 29.296875 -6.203125 
L 29.296875 -13.1875 
L 8.59375 -13.1875 
z
" id="DejaVuSans-91"/>
      <path d="M 44.390625 34.1875 
Q 47.5625 33.109375 50.5625 29.59375 
Q 53.5625 26.078125 56.59375 19.921875 
L 66.609375 0 
L 56 0 
L 46.6875 18.703125 
Q 43.0625 26.03125 39.671875 28.421875 
Q 36.28125 30.8125 30.421875 30.8125 
L 19.671875 30.8125 
L 19.671875 0 
L 9.8125 0 
L 9.8125 72.90625 
L 32.078125 72.90625 
Q 44.578125 72.90625 50.734375 67.671875 
Q 56.890625 62.453125 56.890625 51.90625 
Q 56.890625 45.015625 53.6875 40.46875 
Q 50.484375 35.9375 44.390625 34.1875 
z
M 19.671875 64.796875 
L 19.671875 38.921875 
L 32.078125 38.921875 
Q 39.203125 38.921875 42.84375 42.21875 
Q 46.484375 45.515625 46.484375 51.90625 
Q 46.484375 58.296875 42.84375 61.546875 
Q 39.203125 64.796875 32.078125 64.796875 
z
" id="DejaVuSans-82"/>
      <path d="M 56.203125 29.59375 
L 56.203125 25.203125 
L 14.890625 25.203125 
Q 15.484375 15.921875 20.484375 11.0625 
Q 25.484375 6.203125 34.421875 6.203125 
Q 39.59375 6.203125 44.453125 7.46875 
Q 49.3125 8.734375 54.109375 11.28125 
L 54.109375 2.78125 
Q 49.265625 0.734375 44.1875 -0.34375 
Q 39.109375 -1.421875 33.890625 -1.421875 
Q 20.796875 -1.421875 13.15625 6.1875 
Q 5.515625 13.8125 5.515625 26.8125 
Q 5.515625 40.234375 12.765625 48.109375 
Q 20.015625 56 32.328125 56 
Q 43.359375 56 49.78125 48.890625 
Q 56.203125 41.796875 56.203125 29.59375 
z
M 47.21875 32.234375 
Q 47.125 39.59375 43.09375 43.984375 
Q 39.0625 48.390625 32.421875 48.390625 
Q 24.90625 48.390625 20.390625 44.140625 
Q 15.875 39.890625 15.1875 32.171875 
z
" id="DejaVuSans-101"/>
      <path d="M 45.40625 46.390625 
L 45.40625 75.984375 
L 54.390625 75.984375 
L 54.390625 0 
L 45.40625 0 
L 45.40625 8.203125 
Q 42.578125 3.328125 38.25 0.953125 
Q 33.9375 -1.421875 27.875 -1.421875 
Q 17.96875 -1.421875 11.734375 6.484375 
Q 5.515625 14.40625 5.515625 27.296875 
Q 5.515625 40.1875 11.734375 48.09375 
Q 17.96875 56 27.875 56 
Q 33.9375 56 38.25 53.625 
Q 42.578125 51.265625 45.40625 46.390625 
z
M 14.796875 27.296875 
Q 14.796875 17.390625 18.875 11.75 
Q 22.953125 6.109375 30.078125 6.109375 
Q 37.203125 6.109375 41.296875 11.75 
Q 45.40625 17.390625 45.40625 27.296875 
Q 45.40625 37.203125 41.296875 42.84375 
Q 37.203125 48.484375 30.078125 48.484375 
Q 22.953125 48.484375 18.875 42.84375 
Q 14.796875 37.203125 14.796875 27.296875 
z
" id="DejaVuSans-100"/>
      <path id="DejaVuSans-32"/>
      <path d="M 9.421875 75.984375 
L 18.40625 75.984375 
L 18.40625 0 
L 9.421875 0 
z
" id="DejaVuSans-108"/>
      <path d="M 9.421875 54.6875 
L 18.40625 54.6875 
L 18.40625 0 
L 9.421875 0 
z
M 9.421875 75.984375 
L 18.40625 75.984375 
L 18.40625 64.59375 
L 9.421875 64.59375 
z
" id="DejaVuSans-105"/>
      <path d="M 54.890625 33.015625 
L 54.890625 0 
L 45.90625 0 
L 45.90625 32.71875 
Q 45.90625 40.484375 42.875 44.328125 
Q 39.84375 48.1875 33.796875 48.1875 
Q 26.515625 48.1875 22.3125 43.546875 
Q 18.109375 38.921875 18.109375 30.90625 
L 18.109375 0 
L 9.078125 0 
L 9.078125 54.6875 
L 18.109375 54.6875 
L 18.109375 46.1875 
Q 21.34375 51.125 25.703125 53.5625 
Q 30.078125 56 35.796875 56 
Q 45.21875 56 50.046875 50.171875 
Q 54.890625 44.34375 54.890625 33.015625 
z
" id="DejaVuSans-110"/>
      <path d="M 30.421875 75.984375 
L 30.421875 -13.1875 
L 9.71875 -13.1875 
L 9.71875 -6.203125 
L 21.390625 -6.203125 
L 21.390625 69 
L 9.71875 69 
L 9.71875 75.984375 
z
" id="DejaVuSans-93"/>
     </defs>
     <use xlink:href="#DejaVuSans-91"/>
     <use x="39.013672" xlink:href="#DejaVuSans-82"/>
     <use x="103.996094" xlink:href="#DejaVuSans-101"/>
     <use x="165.519531" xlink:href="#DejaVuSans-100"/>
     <use x="228.996094" xlink:href="#DejaVuSans-32"/>
     <use x="260.783203" xlink:href="#DejaVuSans-108"/>
     <use x="288.566406" xlink:href="#DejaVuSans-105"/>
     <use x="316.349609" xlink:href="#DejaVuSans-110"/>
     <use x="379.728516" xlink:href="#DejaVuSans-101"/>
     <use x="441.251953" xlink:href="#DejaVuSans-93"/>
    </g>
    <!-- (120, 1.00e-06) -->
    <g style="fill:#262626;" transform="translate(947.855208 388.582714)scale(0.06 -0.06)">
     <defs>
      <path d="M 31 75.875 
Q 24.46875 64.65625 21.28125 53.65625 
Q 18.109375 42.671875 18.109375 31.390625 
Q 18.109375 20.125 21.3125 9.0625 
Q 24.515625 -2 31 -13.1875 
L 23.1875 -13.1875 
Q 15.875 -1.703125 12.234375 9.375 
Q 8.59375 20.453125 8.59375 31.390625 
Q 8.59375 42.28125 12.203125 53.3125 
Q 15.828125 64.359375 23.1875 75.875 
z
" id="DejaVuSans-40"/>
      <path d="M 11.71875 12.40625 
L 22.015625 12.40625 
L 22.015625 4 
L 14.015625 -11.625 
L 7.71875 -11.625 
L 11.71875 4 
z
" id="DejaVuSans-44"/>
      <path d="M 4.890625 31.390625 
L 31.203125 31.390625 
L 31.203125 23.390625 
L 4.890625 23.390625 
z
" id="DejaVuSans-45"/>
      <path d="M 8.015625 75.875 
L 15.828125 75.875 
Q 23.140625 64.359375 26.78125 53.3125 
Q 30.421875 42.28125 30.421875 31.390625 
Q 30.421875 20.453125 26.78125 9.375 
Q 23.140625 -1.703125 15.828125 -13.1875 
L 8.015625 -13.1875 
Q 14.5 -2 17.703125 9.0625 
Q 20.90625 20.125 20.90625 31.390625 
Q 20.90625 42.671875 17.703125 53.65625 
Q 14.5 64.65625 8.015625 75.875 
z
" id="DejaVuSans-41"/>
     </defs>
     <use xlink:href="#DejaVuSans-40"/>
     <use x="39.013672" xlink:href="#DejaVuSans-49"/>
     <use x="102.636719" xlink:href="#DejaVuSans-50"/>
     <use x="166.259766" xlink:href="#DejaVuSans-48"/>
     <use x="229.882812" xlink:href="#DejaVuSans-44"/>
     <use x="261.669922" xlink:href="#DejaVuSans-32"/>
     <use x="293.457031" xlink:href="#DejaVuSans-49"/>
     <use x="357.080078" xlink:href="#DejaVuSans-46"/>
     <use x="388.867188" xlink:href="#DejaVuSans-48"/>
     <use x="452.490234" xlink:href="#DejaVuSans-48"/>
     <use x="516.113281" xlink:href="#DejaVuSans-101"/>
     <use x="577.636719" xlink:href="#DejaVuSans-45"/>
     <use x="613.720703" xlink:href="#DejaVuSans-48"/>
     <use x="677.34375" xlink:href="#DejaVuSans-54"/>
     <use x="740.966797" xlink:href="#DejaVuSans-41"/>
    </g>
   </g>
   <g id="text_15">
    <!-- (25, 0.00050005) -->
    <g style="fill:#262626;" transform="translate(233.528958 208.53502)scale(0.06 -0.06)">
     <defs>
      <path d="M 10.796875 72.90625 
L 49.515625 72.90625 
L 49.515625 64.59375 
L 19.828125 64.59375 
L 19.828125 46.734375 
Q 21.96875 47.46875 24.109375 47.828125 
Q 26.265625 48.1875 28.421875 48.1875 
Q 40.625 48.1875 47.75 41.5 
Q 54.890625 34.8125 54.890625 23.390625 
Q 54.890625 11.625 47.5625 5.09375 
Q 40.234375 -1.421875 26.90625 -1.421875 
Q 22.3125 -1.421875 17.546875 -0.640625 
Q 12.796875 0.140625 7.71875 1.703125 
L 7.71875 11.625 
Q 12.109375 9.234375 16.796875 8.0625 
Q 21.484375 6.890625 26.703125 6.890625 
Q 35.15625 6.890625 40.078125 11.328125 
Q 45.015625 15.765625 45.015625 23.390625 
Q 45.015625 31 40.078125 35.4375 
Q 35.15625 39.890625 26.703125 39.890625 
Q 22.75 39.890625 18.8125 39.015625 
Q 14.890625 38.140625 10.796875 36.28125 
z
" id="DejaVuSans-53"/>
     </defs>
     <use xlink:href="#DejaVuSans-40"/>
     <use x="39.013672" xlink:href="#DejaVuSans-50"/>
     <use x="102.636719" xlink:href="#DejaVuSans-53"/>
     <use x="166.259766" xlink:href="#DejaVuSans-44"/>
     <use x="198.046875" xlink:href="#DejaVuSans-32"/>
     <use x="229.833984" xlink:href="#DejaVuSans-48"/>
     <use x="293.457031" xlink:href="#DejaVuSans-46"/>
     <use x="325.244141" xlink:href="#DejaVuSans-48"/>
     <use x="388.867188" xlink:href="#DejaVuSans-48"/>
     <use x="452.490234" xlink:href="#DejaVuSans-48"/>
     <use x="516.113281" xlink:href="#DejaVuSans-53"/>
     <use x="579.736328" xlink:href="#DejaVuSans-48"/>
     <use x="643.359375" xlink:href="#DejaVuSans-48"/>
     <use x="706.982422" xlink:href="#DejaVuSans-48"/>
     <use x="770.605469" xlink:href="#DejaVuSans-53"/>
     <use x="834.228516" xlink:href="#DejaVuSans-41"/>
    </g>
   </g>
   <g id="text_16">
    <!-- (25, 0.00040006003) -->
    <g style="fill:#262626;" transform="translate(233.528958 245.27202)scale(0.06 -0.06)">
     <defs>
      <path d="M 40.578125 39.3125 
Q 47.65625 37.796875 51.625 33 
Q 55.609375 28.21875 55.609375 21.1875 
Q 55.609375 10.40625 48.1875 4.484375 
Q 40.765625 -1.421875 27.09375 -1.421875 
Q 22.515625 -1.421875 17.65625 -0.515625 
Q 12.796875 0.390625 7.625 2.203125 
L 7.625 11.71875 
Q 11.71875 9.328125 16.59375 8.109375 
Q 21.484375 6.890625 26.8125 6.890625 
Q 36.078125 6.890625 40.9375 10.546875 
Q 45.796875 14.203125 45.796875 21.1875 
Q 45.796875 27.640625 41.28125 31.265625 
Q 36.765625 34.90625 28.71875 34.90625 
L 20.21875 34.90625 
L 20.21875 43.015625 
L 29.109375 43.015625 
Q 36.375 43.015625 40.234375 45.921875 
Q 44.09375 48.828125 44.09375 54.296875 
Q 44.09375 59.90625 40.109375 62.90625 
Q 36.140625 65.921875 28.71875 65.921875 
Q 24.65625 65.921875 20.015625 65.03125 
Q 15.375 64.15625 9.8125 62.3125 
L 9.8125 71.09375 
Q 15.4375 72.65625 20.34375 73.4375 
Q 25.25 74.21875 29.59375 74.21875 
Q 40.828125 74.21875 47.359375 69.109375 
Q 53.90625 64.015625 53.90625 55.328125 
Q 53.90625 49.265625 50.4375 45.09375 
Q 46.96875 40.921875 40.578125 39.3125 
z
" id="DejaVuSans-51"/>
     </defs>
     <use xlink:href="#DejaVuSans-40"/>
     <use x="39.013672" xlink:href="#DejaVuSans-50"/>
     <use x="102.636719" xlink:href="#DejaVuSans-53"/>
     <use x="166.259766" xlink:href="#DejaVuSans-44"/>
     <use x="198.046875" xlink:href="#DejaVuSans-32"/>
     <use x="229.833984" xlink:href="#DejaVuSans-48"/>
     <use x="293.457031" xlink:href="#DejaVuSans-46"/>
     <use x="325.244141" xlink:href="#DejaVuSans-48"/>
     <use x="388.867188" xlink:href="#DejaVuSans-48"/>
     <use x="452.490234" xlink:href="#DejaVuSans-48"/>
     <use x="516.113281" xlink:href="#DejaVuSans-52"/>
     <use x="579.736328" xlink:href="#DejaVuSans-48"/>
     <use x="643.359375" xlink:href="#DejaVuSans-48"/>
     <use x="706.982422" xlink:href="#DejaVuSans-48"/>
     <use x="770.605469" xlink:href="#DejaVuSans-54"/>
     <use x="834.228516" xlink:href="#DejaVuSans-48"/>
     <use x="897.851562" xlink:href="#DejaVuSans-48"/>
     <use x="961.474609" xlink:href="#DejaVuSans-51"/>
     <use x="1025.097656" xlink:href="#DejaVuSans-41"/>
    </g>
   </g>
   <g id="legend_1">
    <g id="line2d_23">
     <path d="M 718.30125 13.684141 
L 729.30125 13.684141 
" style="fill:none;stroke:#4c72b0;stroke-linecap:round;stroke-width:0.75;"/>
    </g>
    <g id="line2d_24"/>
    <g id="text_17">
     <!-- lr=0.001, decay=0.1 -->
     <g style="fill:#262626;" transform="translate(733.70125 15.609141)scale(0.055 -0.055)">
      <defs>
       <path d="M 41.109375 46.296875 
Q 39.59375 47.171875 37.8125 47.578125 
Q 36.03125 48 33.890625 48 
Q 26.265625 48 22.1875 43.046875 
Q 18.109375 38.09375 18.109375 28.8125 
L 18.109375 0 
L 9.078125 0 
L 9.078125 54.6875 
L 18.109375 54.6875 
L 18.109375 46.1875 
Q 20.953125 51.171875 25.484375 53.578125 
Q 30.03125 56 36.53125 56 
Q 37.453125 56 38.578125 55.875 
Q 39.703125 55.765625 41.0625 55.515625 
z
" id="DejaVuSans-114"/>
       <path d="M 10.59375 45.40625 
L 73.1875 45.40625 
L 73.1875 37.203125 
L 10.59375 37.203125 
z
M 10.59375 25.484375 
L 73.1875 25.484375 
L 73.1875 17.1875 
L 10.59375 17.1875 
z
" id="DejaVuSans-61"/>
       <path d="M 48.78125 52.59375 
L 48.78125 44.1875 
Q 44.96875 46.296875 41.140625 47.34375 
Q 37.3125 48.390625 33.40625 48.390625 
Q 24.65625 48.390625 19.8125 42.84375 
Q 14.984375 37.3125 14.984375 27.296875 
Q 14.984375 17.28125 19.8125 11.734375 
Q 24.65625 6.203125 33.40625 6.203125 
Q 37.3125 6.203125 41.140625 7.25 
Q 44.96875 8.296875 48.78125 10.40625 
L 48.78125 2.09375 
Q 45.015625 0.34375 40.984375 -0.53125 
Q 36.96875 -1.421875 32.421875 -1.421875 
Q 20.0625 -1.421875 12.78125 6.34375 
Q 5.515625 14.109375 5.515625 27.296875 
Q 5.515625 40.671875 12.859375 48.328125 
Q 20.21875 56 33.015625 56 
Q 37.15625 56 41.109375 55.140625 
Q 45.0625 54.296875 48.78125 52.59375 
z
" id="DejaVuSans-99"/>
       <path d="M 34.28125 27.484375 
Q 23.390625 27.484375 19.1875 25 
Q 14.984375 22.515625 14.984375 16.5 
Q 14.984375 11.71875 18.140625 8.90625 
Q 21.296875 6.109375 26.703125 6.109375 
Q 34.1875 6.109375 38.703125 11.40625 
Q 43.21875 16.703125 43.21875 25.484375 
L 43.21875 27.484375 
z
M 52.203125 31.203125 
L 52.203125 0 
L 43.21875 0 
L 43.21875 8.296875 
Q 40.140625 3.328125 35.546875 0.953125 
Q 30.953125 -1.421875 24.3125 -1.421875 
Q 15.921875 -1.421875 10.953125 3.296875 
Q 6 8.015625 6 15.921875 
Q 6 25.140625 12.171875 29.828125 
Q 18.359375 34.515625 30.609375 34.515625 
L 43.21875 34.515625 
L 43.21875 35.40625 
Q 43.21875 41.609375 39.140625 45 
Q 35.0625 48.390625 27.6875 48.390625 
Q 23 48.390625 18.546875 47.265625 
Q 14.109375 46.140625 10.015625 43.890625 
L 10.015625 52.203125 
Q 14.9375 54.109375 19.578125 55.046875 
Q 24.21875 56 28.609375 56 
Q 40.484375 56 46.34375 49.84375 
Q 52.203125 43.703125 52.203125 31.203125 
z
" id="DejaVuSans-97"/>
       <path d="M 32.171875 -5.078125 
Q 28.375 -14.84375 24.75 -17.8125 
Q 21.140625 -20.796875 15.09375 -20.796875 
L 7.90625 -20.796875 
L 7.90625 -13.28125 
L 13.1875 -13.28125 
Q 16.890625 -13.28125 18.9375 -11.515625 
Q 21 -9.765625 23.484375 -3.21875 
L 25.09375 0.875 
L 2.984375 54.6875 
L 12.5 54.6875 
L 29.59375 11.921875 
L 46.6875 54.6875 
L 56.203125 54.6875 
z
" id="DejaVuSans-121"/>
      </defs>
      <use xlink:href="#DejaVuSans-108"/>
      <use x="27.783203" xlink:href="#DejaVuSans-114"/>
      <use x="68.896484" xlink:href="#DejaVuSans-61"/>
      <use x="152.685547" xlink:href="#DejaVuSans-48"/>
      <use x="216.308594" xlink:href="#DejaVuSans-46"/>
      <use x="248.095703" xlink:href="#DejaVuSans-48"/>
      <use x="311.71875" xlink:href="#DejaVuSans-48"/>
      <use x="375.341797" xlink:href="#DejaVuSans-49"/>
      <use x="438.964844" xlink:href="#DejaVuSans-44"/>
      <use x="470.751953" xlink:href="#DejaVuSans-32"/>
      <use x="502.539062" xlink:href="#DejaVuSans-100"/>
      <use x="566.015625" xlink:href="#DejaVuSans-101"/>
      <use x="627.539062" xlink:href="#DejaVuSans-99"/>
      <use x="682.519531" xlink:href="#DejaVuSans-97"/>
      <use x="743.798828" xlink:href="#DejaVuSans-121"/>
      <use x="802.978516" xlink:href="#DejaVuSans-61"/>
      <use x="886.767578" xlink:href="#DejaVuSans-48"/>
      <use x="950.390625" xlink:href="#DejaVuSans-46"/>
      <use x="982.177734" xlink:href="#DejaVuSans-49"/>
     </g>
    </g>
    <g id="line2d_25">
     <path d="M 718.30125 21.757109 
L 729.30125 21.757109 
" style="fill:none;stroke:#dd8452;stroke-linecap:round;stroke-width:0.75;"/>
    </g>
    <g id="line2d_26"/>
    <g id="text_18">
     <!-- lr=0.001, decay=0.05 -->
     <g style="fill:#262626;" transform="translate(733.70125 23.682109)scale(0.055 -0.055)">
      <use xlink:href="#DejaVuSans-108"/>
      <use x="27.783203" xlink:href="#DejaVuSans-114"/>
      <use x="68.896484" xlink:href="#DejaVuSans-61"/>
      <use x="152.685547" xlink:href="#DejaVuSans-48"/>
      <use x="216.308594" xlink:href="#DejaVuSans-46"/>
      <use x="248.095703" xlink:href="#DejaVuSans-48"/>
      <use x="311.71875" xlink:href="#DejaVuSans-48"/>
      <use x="375.341797" xlink:href="#DejaVuSans-49"/>
      <use x="438.964844" xlink:href="#DejaVuSans-44"/>
      <use x="470.751953" xlink:href="#DejaVuSans-32"/>
      <use x="502.539062" xlink:href="#DejaVuSans-100"/>
      <use x="566.015625" xlink:href="#DejaVuSans-101"/>
      <use x="627.539062" xlink:href="#DejaVuSans-99"/>
      <use x="682.519531" xlink:href="#DejaVuSans-97"/>
      <use x="743.798828" xlink:href="#DejaVuSans-121"/>
      <use x="802.978516" xlink:href="#DejaVuSans-61"/>
      <use x="886.767578" xlink:href="#DejaVuSans-48"/>
      <use x="950.390625" xlink:href="#DejaVuSans-46"/>
      <use x="982.177734" xlink:href="#DejaVuSans-48"/>
      <use x="1045.800781" xlink:href="#DejaVuSans-53"/>
     </g>
    </g>
    <g id="line2d_27">
     <path d="M 718.30125 29.830078 
L 729.30125 29.830078 
" style="fill:none;stroke:#55a868;stroke-linecap:round;stroke-width:0.75;"/>
    </g>
    <g id="line2d_28"/>
    <g id="text_19">
     <!-- lr=0.001, decay=0.02 -->
     <g style="fill:#262626;" transform="translate(733.70125 31.755078)scale(0.055 -0.055)">
      <use xlink:href="#DejaVuSans-108"/>
      <use x="27.783203" xlink:href="#DejaVuSans-114"/>
      <use x="68.896484" xlink:href="#DejaVuSans-61"/>
      <use x="152.685547" xlink:href="#DejaVuSans-48"/>
      <use x="216.308594" xlink:href="#DejaVuSans-46"/>
      <use x="248.095703" xlink:href="#DejaVuSans-48"/>
      <use x="311.71875" xlink:href="#DejaVuSans-48"/>
      <use x="375.341797" xlink:href="#DejaVuSans-49"/>
      <use x="438.964844" xlink:href="#DejaVuSans-44"/>
      <use x="470.751953" xlink:href="#DejaVuSans-32"/>
      <use x="502.539062" xlink:href="#DejaVuSans-100"/>
      <use x="566.015625" xlink:href="#DejaVuSans-101"/>
      <use x="627.539062" xlink:href="#DejaVuSans-99"/>
      <use x="682.519531" xlink:href="#DejaVuSans-97"/>
      <use x="743.798828" xlink:href="#DejaVuSans-121"/>
      <use x="802.978516" xlink:href="#DejaVuSans-61"/>
      <use x="886.767578" xlink:href="#DejaVuSans-48"/>
      <use x="950.390625" xlink:href="#DejaVuSans-46"/>
      <use x="982.177734" xlink:href="#DejaVuSans-48"/>
      <use x="1045.800781" xlink:href="#DejaVuSans-50"/>
     </g>
    </g>
    <g id="line2d_29">
     <path d="M 718.30125 37.903047 
L 729.30125 37.903047 
" style="fill:none;stroke:#c44e52;stroke-linecap:round;stroke-width:0.75;"/>
    </g>
    <g id="line2d_30"/>
    <g id="text_20">
     <!-- Cosine, first_restart_step=100, min=1e-6, m_mul=1e-3 -->
     <g style="fill:#262626;" transform="translate(733.70125 39.828047)scale(0.055 -0.055)">
      <defs>
       <path d="M 64.40625 67.28125 
L 64.40625 56.890625 
Q 59.421875 61.53125 53.78125 63.8125 
Q 48.140625 66.109375 41.796875 66.109375 
Q 29.296875 66.109375 22.65625 58.46875 
Q 16.015625 50.828125 16.015625 36.375 
Q 16.015625 21.96875 22.65625 14.328125 
Q 29.296875 6.6875 41.796875 6.6875 
Q 48.140625 6.6875 53.78125 8.984375 
Q 59.421875 11.28125 64.40625 15.921875 
L 64.40625 5.609375 
Q 59.234375 2.09375 53.4375 0.328125 
Q 47.65625 -1.421875 41.21875 -1.421875 
Q 24.65625 -1.421875 15.125 8.703125 
Q 5.609375 18.84375 5.609375 36.375 
Q 5.609375 53.953125 15.125 64.078125 
Q 24.65625 74.21875 41.21875 74.21875 
Q 47.75 74.21875 53.53125 72.484375 
Q 59.328125 70.75 64.40625 67.28125 
z
" id="DejaVuSans-67"/>
       <path d="M 30.609375 48.390625 
Q 23.390625 48.390625 19.1875 42.75 
Q 14.984375 37.109375 14.984375 27.296875 
Q 14.984375 17.484375 19.15625 11.84375 
Q 23.34375 6.203125 30.609375 6.203125 
Q 37.796875 6.203125 41.984375 11.859375 
Q 46.1875 17.53125 46.1875 27.296875 
Q 46.1875 37.015625 41.984375 42.703125 
Q 37.796875 48.390625 30.609375 48.390625 
z
M 30.609375 56 
Q 42.328125 56 49.015625 48.375 
Q 55.71875 40.765625 55.71875 27.296875 
Q 55.71875 13.875 49.015625 6.21875 
Q 42.328125 -1.421875 30.609375 -1.421875 
Q 18.84375 -1.421875 12.171875 6.21875 
Q 5.515625 13.875 5.515625 27.296875 
Q 5.515625 40.765625 12.171875 48.375 
Q 18.84375 56 30.609375 56 
z
" id="DejaVuSans-111"/>
       <path d="M 44.28125 53.078125 
L 44.28125 44.578125 
Q 40.484375 46.53125 36.375 47.5 
Q 32.28125 48.484375 27.875 48.484375 
Q 21.1875 48.484375 17.84375 46.4375 
Q 14.5 44.390625 14.5 40.28125 
Q 14.5 37.15625 16.890625 35.375 
Q 19.28125 33.59375 26.515625 31.984375 
L 29.59375 31.296875 
Q 39.15625 29.25 43.1875 25.515625 
Q 47.21875 21.78125 47.21875 15.09375 
Q 47.21875 7.46875 41.1875 3.015625 
Q 35.15625 -1.421875 24.609375 -1.421875 
Q 20.21875 -1.421875 15.453125 -0.5625 
Q 10.6875 0.296875 5.421875 2 
L 5.421875 11.28125 
Q 10.40625 8.6875 15.234375 7.390625 
Q 20.0625 6.109375 24.8125 6.109375 
Q 31.15625 6.109375 34.5625 8.28125 
Q 37.984375 10.453125 37.984375 14.40625 
Q 37.984375 18.0625 35.515625 20.015625 
Q 33.0625 21.96875 24.703125 23.78125 
L 21.578125 24.515625 
Q 13.234375 26.265625 9.515625 29.90625 
Q 5.8125 33.546875 5.8125 39.890625 
Q 5.8125 47.609375 11.28125 51.796875 
Q 16.75 56 26.8125 56 
Q 31.78125 56 36.171875 55.265625 
Q 40.578125 54.546875 44.28125 53.078125 
z
" id="DejaVuSans-115"/>
       <path d="M 37.109375 75.984375 
L 37.109375 68.5 
L 28.515625 68.5 
Q 23.6875 68.5 21.796875 66.546875 
Q 19.921875 64.59375 19.921875 59.515625 
L 19.921875 54.6875 
L 34.71875 54.6875 
L 34.71875 47.703125 
L 19.921875 47.703125 
L 19.921875 0 
L 10.890625 0 
L 10.890625 47.703125 
L 2.296875 47.703125 
L 2.296875 54.6875 
L 10.890625 54.6875 
L 10.890625 58.5 
Q 10.890625 67.625 15.140625 71.796875 
Q 19.390625 75.984375 28.609375 75.984375 
z
" id="DejaVuSans-102"/>
       <path d="M 18.3125 70.21875 
L 18.3125 54.6875 
L 36.8125 54.6875 
L 36.8125 47.703125 
L 18.3125 47.703125 
L 18.3125 18.015625 
Q 18.3125 11.328125 20.140625 9.421875 
Q 21.96875 7.515625 27.59375 7.515625 
L 36.8125 7.515625 
L 36.8125 0 
L 27.59375 0 
Q 17.1875 0 13.234375 3.875 
Q 9.28125 7.765625 9.28125 18.015625 
L 9.28125 47.703125 
L 2.6875 47.703125 
L 2.6875 54.6875 
L 9.28125 54.6875 
L 9.28125 70.21875 
z
" id="DejaVuSans-116"/>
       <path d="M 50.984375 -16.609375 
L 50.984375 -23.578125 
L -0.984375 -23.578125 
L -0.984375 -16.609375 
z
" id="DejaVuSans-95"/>
       <path d="M 18.109375 8.203125 
L 18.109375 -20.796875 
L 9.078125 -20.796875 
L 9.078125 54.6875 
L 18.109375 54.6875 
L 18.109375 46.390625 
Q 20.953125 51.265625 25.265625 53.625 
Q 29.59375 56 35.59375 56 
Q 45.5625 56 51.78125 48.09375 
Q 58.015625 40.1875 58.015625 27.296875 
Q 58.015625 14.40625 51.78125 6.484375 
Q 45.5625 -1.421875 35.59375 -1.421875 
Q 29.59375 -1.421875 25.265625 0.953125 
Q 20.953125 3.328125 18.109375 8.203125 
z
M 48.6875 27.296875 
Q 48.6875 37.203125 44.609375 42.84375 
Q 40.53125 48.484375 33.40625 48.484375 
Q 26.265625 48.484375 22.1875 42.84375 
Q 18.109375 37.203125 18.109375 27.296875 
Q 18.109375 17.390625 22.1875 11.75 
Q 26.265625 6.109375 33.40625 6.109375 
Q 40.53125 6.109375 44.609375 11.75 
Q 48.6875 17.390625 48.6875 27.296875 
z
" id="DejaVuSans-112"/>
       <path d="M 52 44.1875 
Q 55.375 50.25 60.0625 53.125 
Q 64.75 56 71.09375 56 
Q 79.640625 56 84.28125 50.015625 
Q 88.921875 44.046875 88.921875 33.015625 
L 88.921875 0 
L 79.890625 0 
L 79.890625 32.71875 
Q 79.890625 40.578125 77.09375 44.375 
Q 74.3125 48.1875 68.609375 48.1875 
Q 61.625 48.1875 57.5625 43.546875 
Q 53.515625 38.921875 53.515625 30.90625 
L 53.515625 0 
L 44.484375 0 
L 44.484375 32.71875 
Q 44.484375 40.625 41.703125 44.40625 
Q 38.921875 48.1875 33.109375 48.1875 
Q 26.21875 48.1875 22.15625 43.53125 
Q 18.109375 38.875 18.109375 30.90625 
L 18.109375 0 
L 9.078125 0 
L 9.078125 54.6875 
L 18.109375 54.6875 
L 18.109375 46.1875 
Q 21.1875 51.21875 25.484375 53.609375 
Q 29.78125 56 35.6875 56 
Q 41.65625 56 45.828125 52.96875 
Q 50 49.953125 52 44.1875 
z
" id="DejaVuSans-109"/>
       <path d="M 8.5 21.578125 
L 8.5 54.6875 
L 17.484375 54.6875 
L 17.484375 21.921875 
Q 17.484375 14.15625 20.5 10.265625 
Q 23.53125 6.390625 29.59375 6.390625 
Q 36.859375 6.390625 41.078125 11.03125 
Q 45.3125 15.671875 45.3125 23.6875 
L 45.3125 54.6875 
L 54.296875 54.6875 
L 54.296875 0 
L 45.3125 0 
L 45.3125 8.40625 
Q 42.046875 3.421875 37.71875 1 
Q 33.40625 -1.421875 27.6875 -1.421875 
Q 18.265625 -1.421875 13.375 4.4375 
Q 8.5 10.296875 8.5 21.578125 
z
M 31.109375 56 
z
" id="DejaVuSans-117"/>
      </defs>
      <use xlink:href="#DejaVuSans-67"/>
      <use x="69.824219" xlink:href="#DejaVuSans-111"/>
      <use x="131.005859" xlink:href="#DejaVuSans-115"/>
      <use x="183.105469" xlink:href="#DejaVuSans-105"/>
      <use x="210.888672" xlink:href="#DejaVuSans-110"/>
      <use x="274.267578" xlink:href="#DejaVuSans-101"/>
      <use x="335.791016" xlink:href="#DejaVuSans-44"/>
      <use x="367.578125" xlink:href="#DejaVuSans-32"/>
      <use x="399.365234" xlink:href="#DejaVuSans-102"/>
      <use x="434.570312" xlink:href="#DejaVuSans-105"/>
      <use x="462.353516" xlink:href="#DejaVuSans-114"/>
      <use x="503.466797" xlink:href="#DejaVuSans-115"/>
      <use x="555.566406" xlink:href="#DejaVuSans-116"/>
      <use x="594.775391" xlink:href="#DejaVuSans-95"/>
      <use x="644.775391" xlink:href="#DejaVuSans-114"/>
      <use x="683.638672" xlink:href="#DejaVuSans-101"/>
      <use x="745.162109" xlink:href="#DejaVuSans-115"/>
      <use x="797.261719" xlink:href="#DejaVuSans-116"/>
      <use x="836.470703" xlink:href="#DejaVuSans-97"/>
      <use x="897.75" xlink:href="#DejaVuSans-114"/>
      <use x="938.863281" xlink:href="#DejaVuSans-116"/>
      <use x="978.072266" xlink:href="#DejaVuSans-95"/>
      <use x="1028.072266" xlink:href="#DejaVuSans-115"/>
      <use x="1080.171875" xlink:href="#DejaVuSans-116"/>
      <use x="1119.380859" xlink:href="#DejaVuSans-101"/>
      <use x="1180.904297" xlink:href="#DejaVuSans-112"/>
      <use x="1244.380859" xlink:href="#DejaVuSans-61"/>
      <use x="1328.169922" xlink:href="#DejaVuSans-49"/>
      <use x="1391.792969" xlink:href="#DejaVuSans-48"/>
      <use x="1455.416016" xlink:href="#DejaVuSans-48"/>
      <use x="1519.039062" xlink:href="#DejaVuSans-44"/>
      <use x="1550.826172" xlink:href="#DejaVuSans-32"/>
      <use x="1582.613281" xlink:href="#DejaVuSans-109"/>
      <use x="1680.025391" xlink:href="#DejaVuSans-105"/>
      <use x="1707.808594" xlink:href="#DejaVuSans-110"/>
      <use x="1771.1875" xlink:href="#DejaVuSans-61"/>
      <use x="1854.976562" xlink:href="#DejaVuSans-49"/>
      <use x="1918.599609" xlink:href="#DejaVuSans-101"/>
      <use x="1980.123047" xlink:href="#DejaVuSans-45"/>
      <use x="2016.207031" xlink:href="#DejaVuSans-54"/>
      <use x="2079.830078" xlink:href="#DejaVuSans-44"/>
      <use x="2111.617188" xlink:href="#DejaVuSans-32"/>
      <use x="2143.404297" xlink:href="#DejaVuSans-109"/>
      <use x="2240.816406" xlink:href="#DejaVuSans-95"/>
      <use x="2290.816406" xlink:href="#DejaVuSans-109"/>
      <use x="2388.228516" xlink:href="#DejaVuSans-117"/>
      <use x="2451.607422" xlink:href="#DejaVuSans-108"/>
      <use x="2479.390625" xlink:href="#DejaVuSans-61"/>
      <use x="2563.179688" xlink:href="#DejaVuSans-49"/>
      <use x="2626.802734" xlink:href="#DejaVuSans-101"/>
      <use x="2688.326172" xlink:href="#DejaVuSans-45"/>
      <use x="2724.410156" xlink:href="#DejaVuSans-51"/>
     </g>
    </g>
    <g id="line2d_31">
     <path d="M 718.30125 46.128984 
L 729.30125 46.128984 
" style="fill:none;stroke:#8172b3;stroke-linecap:round;stroke-width:0.75;"/>
    </g>
    <g id="line2d_32"/>
    <g id="text_21">
     <!-- Cosine restart, on batch, first_restart_step=21000, min=1e-7, warmup=4000, m_mul=0.5 -->
     <g style="fill:#262626;" transform="translate(733.70125 48.053984)scale(0.055 -0.055)">
      <defs>
       <path d="M 48.6875 27.296875 
Q 48.6875 37.203125 44.609375 42.84375 
Q 40.53125 48.484375 33.40625 48.484375 
Q 26.265625 48.484375 22.1875 42.84375 
Q 18.109375 37.203125 18.109375 27.296875 
Q 18.109375 17.390625 22.1875 11.75 
Q 26.265625 6.109375 33.40625 6.109375 
Q 40.53125 6.109375 44.609375 11.75 
Q 48.6875 17.390625 48.6875 27.296875 
z
M 18.109375 46.390625 
Q 20.953125 51.265625 25.265625 53.625 
Q 29.59375 56 35.59375 56 
Q 45.5625 56 51.78125 48.09375 
Q 58.015625 40.1875 58.015625 27.296875 
Q 58.015625 14.40625 51.78125 6.484375 
Q 45.5625 -1.421875 35.59375 -1.421875 
Q 29.59375 -1.421875 25.265625 0.953125 
Q 20.953125 3.328125 18.109375 8.203125 
L 18.109375 0 
L 9.078125 0 
L 9.078125 75.984375 
L 18.109375 75.984375 
z
" id="DejaVuSans-98"/>
       <path d="M 54.890625 33.015625 
L 54.890625 0 
L 45.90625 0 
L 45.90625 32.71875 
Q 45.90625 40.484375 42.875 44.328125 
Q 39.84375 48.1875 33.796875 48.1875 
Q 26.515625 48.1875 22.3125 43.546875 
Q 18.109375 38.921875 18.109375 30.90625 
L 18.109375 0 
L 9.078125 0 
L 9.078125 75.984375 
L 18.109375 75.984375 
L 18.109375 46.1875 
Q 21.34375 51.125 25.703125 53.5625 
Q 30.078125 56 35.796875 56 
Q 45.21875 56 50.046875 50.171875 
Q 54.890625 44.34375 54.890625 33.015625 
z
" id="DejaVuSans-104"/>
       <path d="M 8.203125 72.90625 
L 55.078125 72.90625 
L 55.078125 68.703125 
L 28.609375 0 
L 18.3125 0 
L 43.21875 64.59375 
L 8.203125 64.59375 
z
" id="DejaVuSans-55"/>
       <path d="M 4.203125 54.6875 
L 13.1875 54.6875 
L 24.421875 12.015625 
L 35.59375 54.6875 
L 46.1875 54.6875 
L 57.421875 12.015625 
L 68.609375 54.6875 
L 77.59375 54.6875 
L 63.28125 0 
L 52.6875 0 
L 40.921875 44.828125 
L 29.109375 0 
L 18.5 0 
z
" id="DejaVuSans-119"/>
      </defs>
      <use xlink:href="#DejaVuSans-67"/>
      <use x="69.824219" xlink:href="#DejaVuSans-111"/>
      <use x="131.005859" xlink:href="#DejaVuSans-115"/>
      <use x="183.105469" xlink:href="#DejaVuSans-105"/>
      <use x="210.888672" xlink:href="#DejaVuSans-110"/>
      <use x="274.267578" xlink:href="#DejaVuSans-101"/>
      <use x="335.791016" xlink:href="#DejaVuSans-32"/>
      <use x="367.578125" xlink:href="#DejaVuSans-114"/>
      <use x="406.441406" xlink:href="#DejaVuSans-101"/>
      <use x="467.964844" xlink:href="#DejaVuSans-115"/>
      <use x="520.064453" xlink:href="#DejaVuSans-116"/>
      <use x="559.273438" xlink:href="#DejaVuSans-97"/>
      <use x="620.552734" xlink:href="#DejaVuSans-114"/>
      <use x="661.666016" xlink:href="#DejaVuSans-116"/>
      <use x="700.875" xlink:href="#DejaVuSans-44"/>
      <use x="732.662109" xlink:href="#DejaVuSans-32"/>
      <use x="764.449219" xlink:href="#DejaVuSans-111"/>
      <use x="825.630859" xlink:href="#DejaVuSans-110"/>
      <use x="889.009766" xlink:href="#DejaVuSans-32"/>
      <use x="920.796875" xlink:href="#DejaVuSans-98"/>
      <use x="984.273438" xlink:href="#DejaVuSans-97"/>
      <use x="1045.552734" xlink:href="#DejaVuSans-116"/>
      <use x="1084.761719" xlink:href="#DejaVuSans-99"/>
      <use x="1139.742188" xlink:href="#DejaVuSans-104"/>
      <use x="1203.121094" xlink:href="#DejaVuSans-44"/>
      <use x="1234.908203" xlink:href="#DejaVuSans-32"/>
      <use x="1266.695312" xlink:href="#DejaVuSans-102"/>
      <use x="1301.900391" xlink:href="#DejaVuSans-105"/>
      <use x="1329.683594" xlink:href="#DejaVuSans-114"/>
      <use x="1370.796875" xlink:href="#DejaVuSans-115"/>
      <use x="1422.896484" xlink:href="#DejaVuSans-116"/>
      <use x="1462.105469" xlink:href="#DejaVuSans-95"/>
      <use x="1512.105469" xlink:href="#DejaVuSans-114"/>
      <use x="1550.96875" xlink:href="#DejaVuSans-101"/>
      <use x="1612.492188" xlink:href="#DejaVuSans-115"/>
      <use x="1664.591797" xlink:href="#DejaVuSans-116"/>
      <use x="1703.800781" xlink:href="#DejaVuSans-97"/>
      <use x="1765.080078" xlink:href="#DejaVuSans-114"/>
      <use x="1806.193359" xlink:href="#DejaVuSans-116"/>
      <use x="1845.402344" xlink:href="#DejaVuSans-95"/>
      <use x="1895.402344" xlink:href="#DejaVuSans-115"/>
      <use x="1947.501953" xlink:href="#DejaVuSans-116"/>
      <use x="1986.710938" xlink:href="#DejaVuSans-101"/>
      <use x="2048.234375" xlink:href="#DejaVuSans-112"/>
      <use x="2111.710938" xlink:href="#DejaVuSans-61"/>
      <use x="2195.5" xlink:href="#DejaVuSans-50"/>
      <use x="2259.123047" xlink:href="#DejaVuSans-49"/>
      <use x="2322.746094" xlink:href="#DejaVuSans-48"/>
      <use x="2386.369141" xlink:href="#DejaVuSans-48"/>
      <use x="2449.992188" xlink:href="#DejaVuSans-48"/>
      <use x="2513.615234" xlink:href="#DejaVuSans-44"/>
      <use x="2545.402344" xlink:href="#DejaVuSans-32"/>
      <use x="2577.189453" xlink:href="#DejaVuSans-109"/>
      <use x="2674.601562" xlink:href="#DejaVuSans-105"/>
      <use x="2702.384766" xlink:href="#DejaVuSans-110"/>
      <use x="2765.763672" xlink:href="#DejaVuSans-61"/>
      <use x="2849.552734" xlink:href="#DejaVuSans-49"/>
      <use x="2913.175781" xlink:href="#DejaVuSans-101"/>
      <use x="2974.699219" xlink:href="#DejaVuSans-45"/>
      <use x="3010.783203" xlink:href="#DejaVuSans-55"/>
      <use x="3074.40625" xlink:href="#DejaVuSans-44"/>
      <use x="3106.193359" xlink:href="#DejaVuSans-32"/>
      <use x="3137.980469" xlink:href="#DejaVuSans-119"/>
      <use x="3219.767578" xlink:href="#DejaVuSans-97"/>
      <use x="3281.046875" xlink:href="#DejaVuSans-114"/>
      <use x="3320.410156" xlink:href="#DejaVuSans-109"/>
      <use x="3417.822266" xlink:href="#DejaVuSans-117"/>
      <use x="3481.201172" xlink:href="#DejaVuSans-112"/>
      <use x="3544.677734" xlink:href="#DejaVuSans-61"/>
      <use x="3628.466797" xlink:href="#DejaVuSans-52"/>
      <use x="3692.089844" xlink:href="#DejaVuSans-48"/>
      <use x="3755.712891" xlink:href="#DejaVuSans-48"/>
      <use x="3819.335938" xlink:href="#DejaVuSans-48"/>
      <use x="3882.958984" xlink:href="#DejaVuSans-44"/>
      <use x="3914.746094" xlink:href="#DejaVuSans-32"/>
      <use x="3946.533203" xlink:href="#DejaVuSans-109"/>
      <use x="4043.945312" xlink:href="#DejaVuSans-95"/>
      <use x="4093.945312" xlink:href="#DejaVuSans-109"/>
      <use x="4191.357422" xlink:href="#DejaVuSans-117"/>
      <use x="4254.736328" xlink:href="#DejaVuSans-108"/>
      <use x="4282.519531" xlink:href="#DejaVuSans-61"/>
      <use x="4366.308594" xlink:href="#DejaVuSans-48"/>
      <use x="4429.931641" xlink:href="#DejaVuSans-46"/>
      <use x="4461.71875" xlink:href="#DejaVuSans-53"/>
     </g>
    </g>
    <g id="line2d_33">
     <path d="M 718.30125 54.354922 
L 729.30125 54.354922 
" style="fill:none;stroke:#937860;stroke-linecap:round;stroke-width:0.75;"/>
    </g>
    <g id="line2d_34"/>
    <g id="text_22">
     <!-- Cosine restart, first_restart_step=24, min=1e-7, warmup=1, m_mul=0.4 -->
     <g style="fill:#262626;" transform="translate(733.70125 56.279922)scale(0.055 -0.055)">
      <use xlink:href="#DejaVuSans-67"/>
      <use x="69.824219" xlink:href="#DejaVuSans-111"/>
      <use x="131.005859" xlink:href="#DejaVuSans-115"/>
      <use x="183.105469" xlink:href="#DejaVuSans-105"/>
      <use x="210.888672" xlink:href="#DejaVuSans-110"/>
      <use x="274.267578" xlink:href="#DejaVuSans-101"/>
      <use x="335.791016" xlink:href="#DejaVuSans-32"/>
      <use x="367.578125" xlink:href="#DejaVuSans-114"/>
      <use x="406.441406" xlink:href="#DejaVuSans-101"/>
      <use x="467.964844" xlink:href="#DejaVuSans-115"/>
      <use x="520.064453" xlink:href="#DejaVuSans-116"/>
      <use x="559.273438" xlink:href="#DejaVuSans-97"/>
      <use x="620.552734" xlink:href="#DejaVuSans-114"/>
      <use x="661.666016" xlink:href="#DejaVuSans-116"/>
      <use x="700.875" xlink:href="#DejaVuSans-44"/>
      <use x="732.662109" xlink:href="#DejaVuSans-32"/>
      <use x="764.449219" xlink:href="#DejaVuSans-102"/>
      <use x="799.654297" xlink:href="#DejaVuSans-105"/>
      <use x="827.4375" xlink:href="#DejaVuSans-114"/>
      <use x="868.550781" xlink:href="#DejaVuSans-115"/>
      <use x="920.650391" xlink:href="#DejaVuSans-116"/>
      <use x="959.859375" xlink:href="#DejaVuSans-95"/>
      <use x="1009.859375" xlink:href="#DejaVuSans-114"/>
      <use x="1048.722656" xlink:href="#DejaVuSans-101"/>
      <use x="1110.246094" xlink:href="#DejaVuSans-115"/>
      <use x="1162.345703" xlink:href="#DejaVuSans-116"/>
      <use x="1201.554688" xlink:href="#DejaVuSans-97"/>
      <use x="1262.833984" xlink:href="#DejaVuSans-114"/>
      <use x="1303.947266" xlink:href="#DejaVuSans-116"/>
      <use x="1343.15625" xlink:href="#DejaVuSans-95"/>
      <use x="1393.15625" xlink:href="#DejaVuSans-115"/>
      <use x="1445.255859" xlink:href="#DejaVuSans-116"/>
      <use x="1484.464844" xlink:href="#DejaVuSans-101"/>
      <use x="1545.988281" xlink:href="#DejaVuSans-112"/>
      <use x="1609.464844" xlink:href="#DejaVuSans-61"/>
      <use x="1693.253906" xlink:href="#DejaVuSans-50"/>
      <use x="1756.876953" xlink:href="#DejaVuSans-52"/>
      <use x="1820.5" xlink:href="#DejaVuSans-44"/>
      <use x="1852.287109" xlink:href="#DejaVuSans-32"/>
      <use x="1884.074219" xlink:href="#DejaVuSans-109"/>
      <use x="1981.486328" xlink:href="#DejaVuSans-105"/>
      <use x="2009.269531" xlink:href="#DejaVuSans-110"/>
      <use x="2072.648438" xlink:href="#DejaVuSans-61"/>
      <use x="2156.4375" xlink:href="#DejaVuSans-49"/>
      <use x="2220.060547" xlink:href="#DejaVuSans-101"/>
      <use x="2281.583984" xlink:href="#DejaVuSans-45"/>
      <use x="2317.667969" xlink:href="#DejaVuSans-55"/>
      <use x="2381.291016" xlink:href="#DejaVuSans-44"/>
      <use x="2413.078125" xlink:href="#DejaVuSans-32"/>
      <use x="2444.865234" xlink:href="#DejaVuSans-119"/>
      <use x="2526.652344" xlink:href="#DejaVuSans-97"/>
      <use x="2587.931641" xlink:href="#DejaVuSans-114"/>
      <use x="2627.294922" xlink:href="#DejaVuSans-109"/>
      <use x="2724.707031" xlink:href="#DejaVuSans-117"/>
      <use x="2788.085938" xlink:href="#DejaVuSans-112"/>
      <use x="2851.5625" xlink:href="#DejaVuSans-61"/>
      <use x="2935.351562" xlink:href="#DejaVuSans-49"/>
      <use x="2998.974609" xlink:href="#DejaVuSans-44"/>
      <use x="3030.761719" xlink:href="#DejaVuSans-32"/>
      <use x="3062.548828" xlink:href="#DejaVuSans-109"/>
      <use x="3159.960938" xlink:href="#DejaVuSans-95"/>
      <use x="3209.960938" xlink:href="#DejaVuSans-109"/>
      <use x="3307.373047" xlink:href="#DejaVuSans-117"/>
      <use x="3370.751953" xlink:href="#DejaVuSans-108"/>
      <use x="3398.535156" xlink:href="#DejaVuSans-61"/>
      <use x="3482.324219" xlink:href="#DejaVuSans-48"/>
      <use x="3545.947266" xlink:href="#DejaVuSans-46"/>
      <use x="3577.734375" xlink:href="#DejaVuSans-52"/>
     </g>
    </g>
    <g id="line2d_35">
     <path d="M 718.30125 62.580859 
L 729.30125 62.580859 
" style="fill:none;stroke:#da8bc3;stroke-linecap:round;stroke-width:0.75;"/>
    </g>
    <g id="line2d_36"/>
    <g id="text_23">
     <!-- Constant, lr=0.001, decay_steps=[10, 20, 30, 40], decay_rate=0.1 -->
     <g style="fill:#262626;" transform="translate(733.70125 64.505859)scale(0.055 -0.055)">
      <use xlink:href="#DejaVuSans-67"/>
      <use x="69.824219" xlink:href="#DejaVuSans-111"/>
      <use x="131.005859" xlink:href="#DejaVuSans-110"/>
      <use x="194.384766" xlink:href="#DejaVuSans-115"/>
      <use x="246.484375" xlink:href="#DejaVuSans-116"/>
      <use x="285.693359" xlink:href="#DejaVuSans-97"/>
      <use x="346.972656" xlink:href="#DejaVuSans-110"/>
      <use x="410.351562" xlink:href="#DejaVuSans-116"/>
      <use x="449.560547" xlink:href="#DejaVuSans-44"/>
      <use x="481.347656" xlink:href="#DejaVuSans-32"/>
      <use x="513.134766" xlink:href="#DejaVuSans-108"/>
      <use x="540.917969" xlink:href="#DejaVuSans-114"/>
      <use x="582.03125" xlink:href="#DejaVuSans-61"/>
      <use x="665.820312" xlink:href="#DejaVuSans-48"/>
      <use x="729.443359" xlink:href="#DejaVuSans-46"/>
      <use x="761.230469" xlink:href="#DejaVuSans-48"/>
      <use x="824.853516" xlink:href="#DejaVuSans-48"/>
      <use x="888.476562" xlink:href="#DejaVuSans-49"/>
      <use x="952.099609" xlink:href="#DejaVuSans-44"/>
      <use x="983.886719" xlink:href="#DejaVuSans-32"/>
      <use x="1015.673828" xlink:href="#DejaVuSans-100"/>
      <use x="1079.150391" xlink:href="#DejaVuSans-101"/>
      <use x="1140.673828" xlink:href="#DejaVuSans-99"/>
      <use x="1195.654297" xlink:href="#DejaVuSans-97"/>
      <use x="1256.933594" xlink:href="#DejaVuSans-121"/>
      <use x="1316.113281" xlink:href="#DejaVuSans-95"/>
      <use x="1366.113281" xlink:href="#DejaVuSans-115"/>
      <use x="1418.212891" xlink:href="#DejaVuSans-116"/>
      <use x="1457.421875" xlink:href="#DejaVuSans-101"/>
      <use x="1518.945312" xlink:href="#DejaVuSans-112"/>
      <use x="1582.421875" xlink:href="#DejaVuSans-115"/>
      <use x="1634.521484" xlink:href="#DejaVuSans-61"/>
      <use x="1718.310547" xlink:href="#DejaVuSans-91"/>
      <use x="1757.324219" xlink:href="#DejaVuSans-49"/>
      <use x="1820.947266" xlink:href="#DejaVuSans-48"/>
      <use x="1884.570312" xlink:href="#DejaVuSans-44"/>
      <use x="1916.357422" xlink:href="#DejaVuSans-32"/>
      <use x="1948.144531" xlink:href="#DejaVuSans-50"/>
      <use x="2011.767578" xlink:href="#DejaVuSans-48"/>
      <use x="2075.390625" xlink:href="#DejaVuSans-44"/>
      <use x="2107.177734" xlink:href="#DejaVuSans-32"/>
      <use x="2138.964844" xlink:href="#DejaVuSans-51"/>
      <use x="2202.587891" xlink:href="#DejaVuSans-48"/>
      <use x="2266.210938" xlink:href="#DejaVuSans-44"/>
      <use x="2297.998047" xlink:href="#DejaVuSans-32"/>
      <use x="2329.785156" xlink:href="#DejaVuSans-52"/>
      <use x="2393.408203" xlink:href="#DejaVuSans-48"/>
      <use x="2457.03125" xlink:href="#DejaVuSans-93"/>
      <use x="2496.044922" xlink:href="#DejaVuSans-44"/>
      <use x="2527.832031" xlink:href="#DejaVuSans-32"/>
      <use x="2559.619141" xlink:href="#DejaVuSans-100"/>
      <use x="2623.095703" xlink:href="#DejaVuSans-101"/>
      <use x="2684.619141" xlink:href="#DejaVuSans-99"/>
      <use x="2739.599609" xlink:href="#DejaVuSans-97"/>
      <use x="2800.878906" xlink:href="#DejaVuSans-121"/>
      <use x="2860.058594" xlink:href="#DejaVuSans-95"/>
      <use x="2910.058594" xlink:href="#DejaVuSans-114"/>
      <use x="2951.171875" xlink:href="#DejaVuSans-97"/>
      <use x="3012.451172" xlink:href="#DejaVuSans-116"/>
      <use x="3051.660156" xlink:href="#DejaVuSans-101"/>
      <use x="3113.183594" xlink:href="#DejaVuSans-61"/>
      <use x="3196.972656" xlink:href="#DejaVuSans-48"/>
      <use x="3260.595703" xlink:href="#DejaVuSans-46"/>
      <use x="3292.382812" xlink:href="#DejaVuSans-49"/>
     </g>
    </g>
   </g>
  </g>
 </g>
 <defs>
  <clipPath id="p73f1f7726c">
   <rect height="404.14" width="952.435" x="35.105" y="6.48"/>
  </clipPath>
 </defs>
</svg>
